<svg width="225" height="51" viewBox="0 0 225 51" fill="none" xmlns="http://www.w3.org/2000/svg">
<g id="Group">
<path id="Vector" d="M191.435 8.64409L204.274 4.74638V41.2087L191.435 45.3893V8.64409ZM224.259 50.1671V0H171.868V50.1671H224.259Z" fill="#400500"/>
<path id="Vector_2" d="M9.83934 47.1181C9.22528 47.621 8.27628 47.9039 7.55056 47.9039C6.12705 47.9039 5.26178 47.181 5.26178 45.8922C5.26178 44.1948 7.32727 43.7862 9.83934 43.7233V47.1181ZM8.16463 35.5507C6.51782 35.5507 4.20113 35.9908 2.4985 36.3994L3.33585 39.2284C4.8431 38.8826 6.29452 38.5997 7.21562 38.5997C9.08572 38.5997 9.81143 39.197 9.83934 41.2087V41.2715C4.89893 41.4601 1.74487 42.7175 1.74487 46.1122C1.74487 48.564 3.83827 50.3871 6.29453 50.3871C7.74595 50.3871 9.14155 50.2928 10.4255 49.5384C10.4813 49.7899 10.5371 49.9156 10.6209 50.1671L13.5516 50.1357C13.5516 49.2555 13.5795 48.1239 13.5795 47.1181V40.58C13.6075 36.1479 10.7604 35.5507 8.16463 35.5507Z" fill="#400500"/>
<path id="Vector_3" d="M84.0296 47.1181C83.4155 47.621 82.4665 47.9039 81.7129 47.9039C80.3173 47.9039 79.4241 47.181 79.4241 45.8922C79.4241 44.1948 81.4896 43.7862 84.0296 43.7233V47.1181ZM82.3549 35.5507C80.7081 35.5507 78.3914 35.9908 76.6888 36.3994L77.4982 39.2284C79.0055 38.8826 80.4569 38.5997 81.378 38.5997C83.2481 38.5997 83.9738 39.197 84.0017 41.2087V41.2715C79.0613 41.4601 75.9072 42.7175 75.9072 46.1122C75.9072 48.564 77.9727 50.3871 80.4569 50.3871C81.9362 50.3871 83.3039 50.2928 84.5878 49.5384C84.6437 49.7899 84.6995 49.9156 84.8111 50.1671L87.714 50.1357C87.714 49.2555 87.7698 48.1239 87.7698 47.1181V40.58C87.7977 36.1479 84.9507 35.5507 82.3549 35.5507Z" fill="#400500"/>
<path id="Vector_4" d="M121.934 47.1181C121.32 47.621 120.371 47.9039 119.645 47.9039C118.222 47.9039 117.356 47.181 117.356 45.8922C117.356 44.1948 119.422 43.7862 121.934 43.7233V47.1181ZM120.259 35.5507C118.612 35.5507 116.296 35.9908 114.593 36.3994L115.43 39.2284C116.966 38.8826 118.389 38.5997 119.31 38.5997C121.208 38.5997 121.906 39.197 121.934 41.2087V41.2715C116.994 41.4601 113.867 42.7175 113.867 46.1122C113.867 48.564 115.961 50.3871 118.417 50.3871C119.896 50.3871 121.264 50.2928 122.576 49.5384C122.632 49.7899 122.688 49.9156 122.771 50.1671L125.674 50.1357C125.674 49.2555 125.702 48.1239 125.702 47.1181V40.58C125.702 36.1479 122.855 35.5507 120.259 35.5507Z" fill="#400500"/>
<path id="Vector_5" d="M104.182 47.4639C103.512 47.4639 102.842 47.4325 102.116 47.2753V39.0084C102.814 38.8512 103.54 38.7255 104.321 38.7255C105.884 38.7255 107.671 38.8512 107.671 43.0633C107.699 45.8608 106.052 47.4639 104.182 47.4639ZM104.517 35.5508C103.652 35.5508 102.842 35.6765 102.144 35.8022L102.172 29.8928H98.3482L98.3203 49.6642C100.47 50.2614 101.893 50.4815 104.238 50.4815C108.369 50.4815 111.606 47.7782 111.606 43.0633C111.606 36.9967 108.648 35.5508 104.517 35.5508Z" fill="#400500"/>
<path id="Vector_6" d="M154.256 41.8374L159.531 36.0537H155.317L149.902 42.246V29.8928L146.106 29.8614V50.1671H149.902V43.5976H151.102L155.177 50.1671H159.615L154.256 41.8374Z" fill="#400500"/>
<path id="Vector_7" d="M26.3633 50.1671H30.1872V36.0537H26.3633V50.1671Z" fill="#400500"/>
<path id="Vector_8" d="M28.2612 30.1757C27.1447 30.1757 26.2236 31.0558 26.2236 32.1245C26.2236 33.2247 27.1447 34.1048 28.2612 34.1048C29.3777 34.1048 30.2988 33.2247 30.2988 32.1245C30.2988 31.0558 29.3777 30.1757 28.2612 30.1757Z" fill="#400500"/>
<path id="Vector_9" d="M40.9057 35.5507C38.3936 35.5507 35.4908 35.9908 33.844 36.4308V50.1985H37.6679V39.197C38.589 39.0398 39.538 38.9769 40.4312 38.9769C42.9991 38.9769 43.4178 40.5171 43.4178 43.0318V50.1985H47.2417V41.6173C47.2138 37.751 45.26 35.5507 40.9057 35.5507Z" fill="#400500"/>
<path id="Vector_10" d="M136.281 35.5507C133.769 35.5507 130.866 35.9908 129.219 36.4308V50.1985H133.043V39.197C133.936 39.0398 134.913 38.9769 135.806 38.9769C138.374 38.9769 138.765 40.5171 138.765 43.0318V50.1985H142.589V41.6173C142.589 37.751 140.607 35.5507 136.281 35.5507Z" fill="#400500"/>
<path id="Vector_11" d="M67.087 35.5507C65.3844 35.5507 63.3748 35.8965 61.8396 36.6509C61.086 36.0851 59.6345 35.5507 57.6807 35.5507C55.3082 35.5507 52.3774 35.9908 50.7585 36.4308V50.1985H54.5825V39.197C55.4478 39.0398 56.3968 38.9769 57.262 38.9769C59.7741 38.9769 60.1649 40.5171 60.1649 43.0318V50.1985H63.9888V41.6173C63.9888 41.0829 63.933 40.7057 63.8493 40.2657L63.8213 40.1085C63.7934 39.9513 63.7934 39.8256 63.7655 39.6685C64.6308 39.197 65.8031 38.9455 66.6684 38.9455C69.1525 38.9455 69.5433 40.4543 69.5433 43.0004V50.1671H73.3672V41.5859C73.3393 37.7196 71.3576 35.5507 67.087 35.5507Z" fill="#400500"/>
<path id="Vector_12" d="M22.7627 47.3696C21.8136 47.3696 21.06 46.9295 21.06 45.3579V29.8928H17.2361V45.4836C17.2361 49.7271 19.6365 50.1986 21.4229 50.1986C22.0928 50.1986 22.7906 50.1986 23.8512 50.1671L23.7675 47.401C23.6 47.401 23.0139 47.3696 22.7627 47.3696Z" fill="#400500"/>
<path id="Vector_13" d="M32.2528 14.7107C32.2528 16.4395 31.8341 17.1939 30.7176 17.1939C29.7128 17.1939 28.6242 16.2823 27.6194 14.8993C27.4519 14.6792 27.3403 14.4592 27.3403 14.4592V14.1763C27.3403 11.6302 27.6473 10.1214 30.1315 10.1214C30.8013 10.1214 31.5271 10.1843 32.2528 10.2786V14.7107ZM41.38 14.8364C41.38 16.5652 40.3752 17.0681 39.147 17.0681C37.6677 17.0681 36.4117 16.3137 36.4117 13.7677V7.3239C34.7648 6.88383 31.9178 6.44377 29.4616 6.44377C25.191 6.44377 23.2651 8.58122 23.2372 12.3217V14.8364C23.2372 16.5652 22.4557 17.0681 21.4229 17.0681H20.0832C19.0783 17.0681 18.2689 16.5966 18.2689 14.8364V0.0314254H14.1379V14.9621C14.1379 18.4198 15.5335 19.9914 18.6038 19.9914H22.8464C24.8561 19.9914 26.0842 19.3942 26.782 18.074C26.782 18.074 27.0053 18.3255 27.1728 18.4512C28.2614 19.5199 29.6849 20.18 31.1084 20.18C32.7273 20.18 34.0671 19.6771 34.9602 18.7027C36.8582 19.96 38.0306 19.96 40.1519 19.96C42.8872 19.96 45.5668 19.5199 45.5668 14.9307V7.3239H41.38V14.8364ZM6.74123 15.5908C6.74123 14.6164 7.88562 14.1134 9.16957 14.1134C9.44869 14.1134 9.67199 14.1134 9.89528 14.1449L10.8443 11.0644C9.95111 10.8444 9.16957 10.813 8.47177 10.813C5.82014 10.813 2.61026 12.1332 2.61026 14.9307C2.61026 15.7794 2.86147 16.408 3.1685 17.0367H1.7729L0.851807 19.96H10.3698L11.263 17.0367H8.86254C7.57859 17.0367 6.74123 16.5023 6.74123 15.5908ZM43.4455 0C42.2173 0 41.2125 0.974419 41.2125 2.10601C41.2125 3.30046 42.2173 4.24346 43.4455 4.24346C44.6457 4.24346 45.6505 3.30046 45.6505 2.10601C45.6505 0.974419 44.6736 0 43.4455 0ZM100.665 14.8364C100.665 16.2509 100.023 17.0367 98.6274 17.0367C97.9017 17.0367 95.8083 14.7735 95.8083 12.8561C95.8083 11.3788 96.5061 10.1529 98.5437 10.1529C99.2136 10.1529 99.9672 10.2157 100.665 10.31V14.8364ZM104.824 7.29246C103.177 6.91526 100.302 6.4752 97.8738 6.4752C93.5754 6.4752 91.6215 8.64408 91.6215 12.4789C91.6215 13.9877 92.4868 15.6851 93.5754 17.0367C90.6167 17.0367 86.3741 17.0681 86.3741 17.0681C84.8389 17.0681 83.6945 16.2823 83.6945 14.8364V10.1529L79.5357 11.4102V15.3393C79.5357 18.0426 81.7965 19.9914 84.4761 19.9914H98.46C98.5995 19.9914 98.5995 19.9914 98.5995 19.9914C102.116 19.96 104.768 18.6084 104.768 14.9621V7.29246H104.824ZM52.2098 22.8518C52.2098 22.5375 52.5448 22.3803 52.9355 22.3803C53.0193 22.3803 53.103 22.3803 53.1588 22.4118L53.4659 21.5002C53.1867 21.4059 52.9635 21.4059 52.7402 21.4059C51.9307 21.4059 50.9817 21.7517 50.9817 22.6318C50.9817 22.8833 51.0375 23.0719 51.1492 23.2605H50.7305L50.4793 24.1406H53.3263L53.6054 23.2605H52.8797C52.461 23.2919 52.2098 23.0718 52.2098 22.8518ZM57.7643 14.8364C57.7643 16.5652 56.9549 17.0681 55.95 17.0681H53.6333V0.0314254H50.5351V17.0681H48.9162L48.023 19.9914H57.3735C60.4997 19.9914 61.9232 18.5141 61.9232 14.9621V0.0314254H57.7922V14.8364H57.7643ZM65.9983 0V19.96H70.1293V0H65.9983ZM98.5437 4.27489C99.7718 4.27489 100.749 3.3319 100.749 2.13744C100.749 0.974421 99.7439 0.0314254 98.5437 0.0314254C97.3156 0.0314254 96.3386 1.00585 96.3386 2.13744C96.3386 3.30047 97.3156 4.27489 98.5437 4.27489ZM154.926 14.7107C154.926 16.4395 154.507 17.1939 153.391 17.1939C152.386 17.1939 151.269 16.2823 150.292 14.8993C150.125 14.6792 150.013 14.4592 150.013 14.4592V14.1763C150.013 11.6302 150.32 10.1214 152.777 10.1214C153.474 10.1214 154.2 10.1843 154.898 10.2786V14.7107H154.926ZM123.078 17.0367V13.5791C127.74 12.3846 130.559 11.976 132.624 11.976C135.136 11.976 136.978 13.4533 137.286 17.0053H123.078V17.0367ZM152.107 6.44377C147.836 6.44377 145.91 8.58122 145.882 12.3217V14.8364C145.882 16.5652 145.073 17.0681 144.068 17.0681H141.472C140.914 11.7245 138.737 8.32976 133.322 8.32976C130.726 8.32976 126.958 9.02128 123.078 10.1529V8.32976L118.947 9.55564V17.0681H113.951V7.3239H109.82V17.5396C109.82 21.3116 106.75 22.5689 104.796 22.5689L105.689 25.5865C108.955 25.5865 112.528 23.9834 113.616 19.9914H145.492C147.501 19.9914 148.702 19.3942 149.427 18.074C149.427 18.074 149.651 18.3255 149.818 18.4512C150.907 19.5199 152.33 20.18 153.754 20.18C157.019 20.18 159.085 18.1054 159.085 14.4592V7.3239C157.438 6.88383 154.563 6.44377 152.107 6.44377Z" fill="#400500"/>
</g>
</svg>
