<svg width="195" height="91" viewBox="0 0 195 91" fill="none" xmlns="http://www.w3.org/2000/svg">
<g filter="url(#filter0_dddd_296_727)">
<rect x="17" y="6" width="160.435" height="57.2982" rx="6.586" fill="black"/>
</g>
<path d="M70.0305 22.9119C70.5178 22.9119 70.9437 23.0063 71.3082 23.1951C71.677 23.3795 71.9602 23.6473 72.1578 23.9986C72.3597 24.3455 72.4607 24.7516 72.4607 25.217C72.4607 25.6824 72.3597 26.0863 72.1578 26.4288C71.9602 26.7713 71.677 27.0347 71.3082 27.2191C70.9437 27.3992 70.5178 27.4892 70.0305 27.4892H68.5355V22.9119H70.0305ZM70.0305 26.8767C70.5661 26.8767 70.9767 26.7318 71.2621 26.442C71.5474 26.1522 71.6901 25.7439 71.6901 25.217C71.6901 24.6857 71.5474 24.2708 71.2621 23.9722C70.9767 23.6737 70.5661 23.5244 70.0305 23.5244H69.2863V26.8767H70.0305ZM74.7789 27.5484C74.4364 27.5484 74.1269 27.4716 73.8502 27.3179C73.5736 27.1599 73.3563 26.9403 73.1982 26.6593C73.0402 26.3739 72.9611 26.0446 72.9611 25.6714C72.9611 25.3026 73.0424 24.9755 73.2048 24.6901C73.3673 24.4047 73.589 24.1852 73.87 24.0315C74.151 23.8778 74.4649 23.801 74.8118 23.801C75.1587 23.801 75.4726 23.8778 75.7536 24.0315C76.0346 24.1852 76.2563 24.4047 76.4188 24.6901C76.5812 24.9755 76.6625 25.3026 76.6625 25.6714C76.6625 26.0402 76.579 26.3674 76.4122 26.6527C76.2454 26.9381 76.017 27.1599 75.7273 27.3179C75.4419 27.4716 75.1257 27.5484 74.7789 27.5484ZM74.7789 26.8964C74.9721 26.8964 75.1521 26.8503 75.3189 26.7581C75.4902 26.6659 75.6285 26.5276 75.7338 26.3432C75.8392 26.1588 75.8919 25.9349 75.8919 25.6714C75.8919 25.408 75.8414 25.1863 75.7404 25.0062C75.6394 24.8218 75.5055 24.6835 75.3387 24.5913C75.1718 24.4991 74.9918 24.453 74.7986 24.453C74.6054 24.453 74.4254 24.4991 74.2586 24.5913C74.0961 24.6835 73.9666 24.8218 73.87 25.0062C73.7734 25.1863 73.7251 25.408 73.7251 25.6714C73.7251 26.0622 73.8239 26.3652 74.0215 26.5803C74.2235 26.7911 74.4759 26.8964 74.7789 26.8964ZM82.2783 23.8603L81.1521 27.4892H80.3618L79.6307 24.8087L78.8997 27.4892H78.1094L76.9766 23.8603H77.7406L78.498 26.7779L79.2685 23.8603H80.0523L80.7899 26.7647L81.5407 23.8603H82.2783ZM84.6703 23.801C84.9557 23.801 85.2104 23.8603 85.4343 23.9788C85.6626 24.0974 85.8404 24.273 85.9678 24.5057C86.0951 24.7384 86.1588 25.0194 86.1588 25.3487V27.4892H85.4145V25.4607C85.4145 25.1358 85.3333 24.8877 85.1709 24.7165C85.0084 24.5408 84.7867 24.453 84.5057 24.453C84.2247 24.453 84.0007 24.5408 83.8339 24.7165C83.6714 24.8877 83.5902 25.1358 83.5902 25.4607V27.4892H82.8394V23.8603H83.5902V24.2752C83.7132 24.1259 83.869 24.0096 84.0578 23.9261C84.251 23.8427 84.4552 23.801 84.6703 23.801ZM87.8673 22.6155V27.4892H87.1165V22.6155H87.8673ZM90.427 27.5484C90.0846 27.5484 89.775 27.4716 89.4984 27.3179C89.2218 27.1599 89.0045 26.9403 88.8464 26.6593C88.6883 26.3739 88.6093 26.0446 88.6093 25.6714C88.6093 25.3026 88.6905 24.9755 88.853 24.6901C89.0154 24.4047 89.2372 24.1852 89.5182 24.0315C89.7992 23.8778 90.1131 23.801 90.46 23.801C90.8068 23.801 91.1208 23.8778 91.4018 24.0315C91.6828 24.1852 91.9045 24.4047 92.067 24.6901C92.2294 24.9755 92.3106 25.3026 92.3106 25.6714C92.3106 26.0402 92.2272 26.3674 92.0604 26.6527C91.8935 26.9381 91.6652 27.1599 91.3754 27.3179C91.09 27.4716 90.7739 27.5484 90.427 27.5484ZM90.427 26.8964C90.6202 26.8964 90.8003 26.8503 90.9671 26.7581C91.1383 26.6659 91.2766 26.5276 91.382 26.3432C91.4874 26.1588 91.5401 25.9349 91.5401 25.6714C91.5401 25.408 91.4896 25.1863 91.3886 25.0062C91.2876 24.8218 91.1537 24.6835 90.9869 24.5913C90.82 24.4991 90.64 24.453 90.4468 24.453C90.2536 24.453 90.0736 24.4991 89.9068 24.5913C89.7443 24.6835 89.6148 24.8218 89.5182 25.0062C89.4216 25.1863 89.3733 25.408 89.3733 25.6714C89.3733 26.0622 89.4721 26.3652 89.6697 26.5803C89.8716 26.7911 90.1241 26.8964 90.427 26.8964ZM92.8026 25.6583C92.8026 25.2938 92.8772 24.9711 93.0265 24.6901C93.1802 24.4091 93.3865 24.1918 93.6456 24.0381C93.909 23.88 94.1988 23.801 94.5149 23.801C94.8003 23.801 95.0484 23.8581 95.2592 23.9722C95.4743 24.082 95.6455 24.2203 95.7729 24.3872V23.8603H96.5303V27.4892H95.7729V26.9491C95.6455 27.1204 95.4721 27.263 95.2526 27.3772C95.033 27.4914 94.7828 27.5484 94.5018 27.5484C94.19 27.5484 93.9046 27.4694 93.6456 27.3113C93.3865 27.1489 93.1802 26.925 93.0265 26.6396C92.8772 26.3498 92.8026 26.0227 92.8026 25.6583ZM95.7729 25.6714C95.7729 25.4212 95.7202 25.2038 95.6148 25.0194C95.5138 24.835 95.3799 24.6945 95.2131 24.5979C95.0462 24.5013 94.8662 24.453 94.673 24.453C94.4798 24.453 94.2998 24.5013 94.133 24.5979C93.9661 24.6901 93.83 24.8284 93.7246 25.0128C93.6236 25.1928 93.5731 25.408 93.5731 25.6583C93.5731 25.9085 93.6236 26.1281 93.7246 26.3169C93.83 26.5057 93.9661 26.6505 94.133 26.7515C94.3042 26.8481 94.4842 26.8964 94.673 26.8964C94.8662 26.8964 95.0462 26.8481 95.2131 26.7515C95.3799 26.6549 95.5138 26.5144 95.6148 26.33C95.7202 26.1412 95.7729 25.9217 95.7729 25.6714ZM97.2661 25.6583C97.2661 25.2938 97.3408 24.9711 97.4901 24.6901C97.6437 24.4091 97.8501 24.1918 98.1091 24.0381C98.3726 23.88 98.6646 23.801 98.9851 23.801C99.2222 23.801 99.4549 23.8537 99.6832 23.9591C99.9159 24.0601 100.1 24.1962 100.236 24.3674V22.6155H100.994V27.4892H100.236V26.9425C100.113 27.1182 99.9422 27.263 99.7227 27.3772C99.5076 27.4914 99.2595 27.5484 98.9785 27.5484C98.6624 27.5484 98.3726 27.4694 98.1091 27.3113C97.8501 27.1489 97.6437 26.925 97.4901 26.6396C97.3408 26.3498 97.2661 26.0227 97.2661 25.6583ZM100.236 25.6714C100.236 25.4212 100.184 25.2038 100.078 25.0194C99.9774 24.835 99.8435 24.6945 99.6766 24.5979C99.5098 24.5013 99.3297 24.453 99.1366 24.453C98.9434 24.453 98.7634 24.5013 98.5965 24.5979C98.4297 24.6901 98.2936 24.8284 98.1882 25.0128C98.0872 25.1928 98.0367 25.408 98.0367 25.6583C98.0367 25.9085 98.0872 26.1281 98.1882 26.3169C98.2936 26.5057 98.4297 26.6505 98.5965 26.7515C98.7677 26.8481 98.9478 26.8964 99.1366 26.8964C99.3297 26.8964 99.5098 26.8481 99.6766 26.7515C99.8435 26.6549 99.9774 26.5144 100.078 26.33C100.184 26.1412 100.236 25.9217 100.236 25.6714ZM105.265 27.5484C104.922 27.5484 104.613 27.4716 104.336 27.3179C104.06 27.1599 103.842 26.9403 103.684 26.6593C103.526 26.3739 103.447 26.0446 103.447 25.6714C103.447 25.3026 103.528 24.9755 103.691 24.6901C103.853 24.4047 104.075 24.1852 104.356 24.0315C104.637 23.8778 104.951 23.801 105.298 23.801C105.645 23.801 105.959 23.8778 106.24 24.0315C106.521 24.1852 106.742 24.4047 106.905 24.6901C107.067 24.9755 107.148 25.3026 107.148 25.6714C107.148 26.0402 107.065 26.3674 106.898 26.6527C106.731 26.9381 106.503 27.1599 106.213 27.3179C105.928 27.4716 105.612 27.5484 105.265 27.5484ZM105.265 26.8964C105.458 26.8964 105.638 26.8503 105.805 26.7581C105.976 26.6659 106.114 26.5276 106.22 26.3432C106.325 26.1588 106.378 25.9349 106.378 25.6714C106.378 25.408 106.327 25.1863 106.226 25.0062C106.125 24.8218 105.991 24.6835 105.825 24.5913C105.658 24.4991 105.478 24.453 105.285 24.453C105.091 24.453 104.911 24.4991 104.745 24.5913C104.582 24.6835 104.453 24.8218 104.356 25.0062C104.259 25.1863 104.211 25.408 104.211 25.6714C104.211 26.0622 104.31 26.3652 104.507 26.5803C104.709 26.7911 104.962 26.8964 105.265 26.8964ZM109.722 23.801C110.007 23.801 110.262 23.8603 110.486 23.9788C110.714 24.0974 110.892 24.273 111.019 24.5057C111.146 24.7384 111.21 25.0194 111.21 25.3487V27.4892H110.466V25.4607C110.466 25.1358 110.385 24.8877 110.222 24.7165C110.06 24.5408 109.838 24.453 109.557 24.453C109.276 24.453 109.052 24.5408 108.885 24.7165C108.723 24.8877 108.641 25.1358 108.641 25.4607V27.4892H107.891V23.8603H108.641V24.2752C108.764 24.1259 108.92 24.0096 109.109 23.9261C109.302 23.8427 109.506 23.801 109.722 23.801ZM114.754 24.4728V26.4815C114.754 26.6176 114.785 26.7164 114.847 26.7779C114.912 26.835 115.022 26.8635 115.176 26.8635H115.637V27.4892H115.044C114.706 27.4892 114.447 27.4101 114.267 27.2521C114.087 27.094 113.997 26.8372 113.997 26.4815V24.4728H113.569V23.8603H113.997V22.958H114.754V23.8603H115.637V24.4728H114.754ZM118.206 23.801C118.483 23.801 118.728 23.8603 118.944 23.9788C119.163 24.0974 119.334 24.273 119.457 24.5057C119.585 24.7384 119.648 25.0194 119.648 25.3487V27.4892H118.904V25.4607C118.904 25.1358 118.823 24.8877 118.66 24.7165C118.498 24.5408 118.276 24.453 117.995 24.453C117.714 24.453 117.49 24.5408 117.323 24.7165C117.161 24.8877 117.08 25.1358 117.08 25.4607V27.4892H116.329V22.6155H117.08V24.2818C117.207 24.1281 117.367 24.0096 117.561 23.9261C117.758 23.8427 117.973 23.801 118.206 23.801ZM123.932 25.5858C123.932 25.7219 123.923 25.8449 123.906 25.9546H121.133C121.155 26.2444 121.262 26.4771 121.456 26.6527C121.649 26.8284 121.886 26.9162 122.167 26.9162C122.571 26.9162 122.856 26.7471 123.023 26.4091H123.833C123.723 26.7428 123.524 27.0172 123.234 27.2323C122.948 27.4431 122.593 27.5484 122.167 27.5484C121.82 27.5484 121.508 27.4716 121.232 27.3179C120.959 27.1599 120.744 26.9403 120.586 26.6593C120.433 26.3739 120.356 26.0446 120.356 25.6714C120.356 25.2982 120.43 24.9711 120.58 24.6901C120.733 24.4047 120.946 24.1852 121.218 24.0315C121.495 23.8778 121.811 23.801 122.167 23.801C122.509 23.801 122.814 23.8757 123.082 24.0249C123.35 24.1742 123.559 24.385 123.708 24.6572C123.857 24.925 123.932 25.2346 123.932 25.5858ZM123.148 25.3487C123.144 25.0721 123.045 24.8504 122.852 24.6835C122.659 24.5167 122.419 24.4333 122.134 24.4333C121.875 24.4333 121.653 24.5167 121.469 24.6835C121.284 24.846 121.175 25.0677 121.139 25.3487H123.148Z" fill="white"/>
<path d="M75.5165 44.713H70.7252L69.902 47.051H67.9426L72.0424 35.5914H74.2158L78.3156 47.051H76.3398L75.5165 44.713ZM74.9896 43.1817L73.1291 37.8635L71.2521 43.1817H74.9896ZM81.9752 39.3124C82.2935 38.8953 82.7271 38.5441 83.2759 38.2587C83.8247 37.9733 84.4449 37.8306 85.1364 37.8306C85.9268 37.8306 86.6457 38.0282 87.2934 38.4233C87.952 38.8075 88.4679 39.3509 88.8411 40.0534C89.2143 40.7559 89.4009 41.5627 89.4009 42.4737C89.4009 43.3848 89.2143 44.2026 88.8411 44.927C88.4679 45.6405 87.952 46.2003 87.2934 46.6064C86.6457 47.0016 85.9268 47.1992 85.1364 47.1992C84.4449 47.1992 83.8302 47.062 83.2924 46.7876C82.7545 46.5022 82.3154 46.1509 81.9752 45.7338V51.3648H80.0982V37.9788H81.9752V39.3124ZM87.4909 42.4737C87.4909 41.8481 87.3592 41.3102 87.0958 40.8602C86.8433 40.3991 86.503 40.0534 86.0749 39.8229C85.6578 39.5814 85.2078 39.4606 84.7248 39.4606C84.2528 39.4606 83.8028 39.5814 83.3747 39.8229C82.9576 40.0644 82.6173 40.4156 82.3539 40.8766C82.1014 41.3376 81.9752 41.881 81.9752 42.5067C81.9752 43.1323 82.1014 43.6812 82.3539 44.1532C82.6173 44.6142 82.9576 44.9654 83.3747 45.2069C83.8028 45.4484 84.2528 45.5691 84.7248 45.5691C85.2078 45.5691 85.6578 45.4484 86.0749 45.2069C86.503 44.9545 86.8433 44.5922 87.0958 44.1202C87.3592 43.6482 87.4909 43.0994 87.4909 42.4737ZM93.1341 39.3124C93.4524 38.8953 93.886 38.5441 94.4348 38.2587C94.9836 37.9733 95.6038 37.8306 96.2953 37.8306C97.0857 37.8306 97.8046 38.0282 98.4522 38.4233C99.1108 38.8075 99.6267 39.3509 100 40.0534C100.373 40.7559 100.56 41.5627 100.56 42.4737C100.56 43.3848 100.373 44.2026 100 44.927C99.6267 45.6405 99.1108 46.2003 98.4522 46.6064C97.8046 47.0016 97.0857 47.1992 96.2953 47.1992C95.6038 47.1992 94.9891 47.062 94.4513 46.7876C93.9134 46.5022 93.4743 46.1509 93.1341 45.7338V51.3648H91.257V37.9788H93.1341V39.3124ZM98.6498 42.4737C98.6498 41.8481 98.5181 41.3102 98.2547 40.8602C98.0022 40.3991 97.6619 40.0534 97.2338 39.8229C96.8167 39.5814 96.3667 39.4606 95.8837 39.4606C95.4117 39.4606 94.9617 39.5814 94.5336 39.8229C94.1165 40.0644 93.7762 40.4156 93.5127 40.8766C93.2603 41.3376 93.1341 41.881 93.1341 42.5067C93.1341 43.1323 93.2603 43.6812 93.5127 44.1532C93.7762 44.6142 94.1165 44.9654 94.5336 45.2069C94.9617 45.4484 95.4117 45.5691 95.8837 45.5691C96.3667 45.5691 96.8167 45.4484 97.2338 45.2069C97.6619 44.9545 98.0022 44.5922 98.2547 44.1202C98.5181 43.6482 98.6498 43.0994 98.6498 42.4737ZM110.463 47.1662C109.695 47.1662 109.004 47.0345 108.389 46.7711C107.774 46.4967 107.291 46.1125 106.94 45.6185C106.589 45.1246 106.413 44.5483 106.413 43.8897H108.422C108.466 44.3837 108.658 44.7898 108.998 45.1081C109.349 45.4264 109.838 45.5856 110.463 45.5856C111.111 45.5856 111.616 45.4319 111.978 45.1246C112.34 44.8063 112.522 44.4001 112.522 43.9062C112.522 43.522 112.406 43.2092 112.176 42.9677C111.956 42.7262 111.676 42.5396 111.336 42.4079C111.007 42.2761 110.546 42.1335 109.953 41.9798C109.207 41.7822 108.597 41.5846 108.125 41.387C107.664 41.1785 107.269 40.8602 106.94 40.4321C106.611 40.004 106.446 39.4332 106.446 38.7197C106.446 38.0611 106.611 37.4848 106.94 36.9909C107.269 36.4969 107.73 36.1182 108.323 35.8548C108.916 35.5914 109.602 35.4596 110.381 35.4596C111.49 35.4596 112.395 35.7395 113.098 36.2994C113.811 36.8482 114.206 37.6056 114.283 38.5715H112.209C112.176 38.1544 111.978 37.7977 111.616 37.5013C111.254 37.2049 110.776 37.0567 110.184 37.0567C109.646 37.0567 109.207 37.194 108.866 37.4684C108.526 37.7428 108.356 38.1379 108.356 38.6538C108.356 39.0051 108.46 39.296 108.669 39.5265C108.888 39.746 109.163 39.9217 109.492 40.0534C109.821 40.1851 110.271 40.3278 110.842 40.4815C111.6 40.69 112.214 40.8986 112.686 41.1071C113.169 41.3157 113.575 41.6395 113.905 42.0786C114.245 42.5067 114.415 43.0829 114.415 43.8074C114.415 44.3892 114.256 44.938 113.938 45.4539C113.63 45.9698 113.175 46.3869 112.571 46.7052C111.978 47.0126 111.276 47.1662 110.463 47.1662ZM118.82 39.51V44.5319C118.82 44.8721 118.897 45.1191 119.05 45.2728C119.215 45.4155 119.489 45.4868 119.873 45.4868H121.026V47.051H119.544C118.699 47.051 118.051 46.8534 117.601 46.4583C117.151 46.0631 116.926 45.421 116.926 44.5319V39.51H115.856V37.9788H116.926V35.7231H118.82V37.9788H121.026V39.51H118.82ZM126.691 47.1992C125.835 47.1992 125.061 47.0071 124.37 46.6229C123.678 46.2277 123.135 45.6789 122.74 44.9764C122.344 44.2629 122.147 43.4397 122.147 42.5067C122.147 41.5846 122.35 40.7669 122.756 40.0534C123.162 39.3399 123.716 38.7911 124.419 38.4069C125.121 38.0227 125.906 37.8306 126.773 37.8306C127.641 37.8306 128.425 38.0227 129.128 38.4069C129.83 38.7911 130.385 39.3399 130.791 40.0534C131.197 40.7669 131.4 41.5846 131.4 42.5067C131.4 43.4287 131.192 44.2465 130.774 44.9599C130.357 45.6734 129.787 46.2277 129.062 46.6229C128.349 47.0071 127.558 47.1992 126.691 47.1992ZM126.691 45.5691C127.174 45.5691 127.624 45.4539 128.041 45.2234C128.469 44.9929 128.815 44.6471 129.079 44.1861C129.342 43.7251 129.474 43.1653 129.474 42.5067C129.474 41.8481 129.347 41.2937 129.095 40.8437C128.843 40.3827 128.508 40.0369 128.091 39.8064C127.674 39.5759 127.223 39.4606 126.741 39.4606C126.258 39.4606 125.807 39.5759 125.39 39.8064C124.984 40.0369 124.66 40.3827 124.419 40.8437C124.177 41.2937 124.057 41.8481 124.057 42.5067C124.057 43.4836 124.304 44.241 124.798 44.7788C125.303 45.3057 125.934 45.5691 126.691 45.5691ZM135.133 39.296C135.407 38.835 135.769 38.4782 136.219 38.2258C136.68 37.9623 137.224 37.8306 137.849 37.8306V39.7735H137.372C136.636 39.7735 136.077 39.9601 135.692 40.3333C135.319 40.7065 135.133 41.3541 135.133 42.2761V47.051H133.256V37.9788H135.133V39.296ZM147.89 42.2926C147.89 42.6329 147.868 42.9402 147.824 43.2147H140.892C140.947 43.9391 141.216 44.5209 141.699 44.9599C142.182 45.399 142.774 45.6185 143.477 45.6185C144.487 45.6185 145.2 45.1959 145.617 44.3507H147.643C147.368 45.185 146.869 45.871 146.144 46.4089C145.431 46.9357 144.542 47.1992 143.477 47.1992C142.61 47.1992 141.83 47.0071 141.139 46.6229C140.458 46.2277 139.92 45.6789 139.525 44.9764C139.141 44.2629 138.949 43.4397 138.949 42.5067C138.949 41.5736 139.136 40.7559 139.509 40.0534C139.893 39.3399 140.425 38.7911 141.106 38.4069C141.797 38.0227 142.588 37.8306 143.477 37.8306C144.333 37.8306 145.096 38.0172 145.766 38.3904C146.435 38.7636 146.957 39.2905 147.33 39.971C147.703 40.6406 147.89 41.4145 147.89 42.2926ZM145.93 41.6999C145.919 41.0083 145.672 40.454 145.189 40.0369C144.706 39.6198 144.108 39.4112 143.395 39.4112C142.747 39.4112 142.193 39.6198 141.732 40.0369C141.271 40.443 140.996 40.9974 140.908 41.6999H145.93Z" fill="white"/>
<path d="M54.9144 34.7577C54.9434 32.4953 56.1515 30.3546 58.0681 29.1696C56.859 27.433 54.8339 26.3319 52.7269 26.2656C50.4796 26.0284 48.301 27.618 47.1558 27.618C45.9884 27.618 44.2253 26.2891 42.3266 26.3284C39.8518 26.4088 37.5447 27.8239 36.3406 29.9998C33.7524 34.5064 35.683 41.1295 38.1623 44.7723C39.4027 46.556 40.8525 48.5485 42.7494 48.4779C44.6057 48.4004 45.2989 47.2875 47.5396 47.2875C49.7595 47.2875 50.4099 48.4779 52.3453 48.4329C54.3372 48.4004 55.5922 46.6412 56.7891 44.8406C57.6804 43.5696 58.3662 42.1649 58.8212 40.6785C56.4804 39.6828 54.9171 37.3137 54.9144 34.7577Z" fill="white"/>
<path d="M51.2587 23.8699C52.3447 22.5588 52.8798 20.8735 52.7502 19.172C51.091 19.3473 49.5583 20.1448 48.4576 21.4056C47.3813 22.6375 46.8211 24.2932 46.927 25.9296C48.5869 25.9468 50.2186 25.1709 51.2587 23.8699Z" fill="white"/>
<defs>
<filter id="filter0_dddd_296_727" x="0.205711" y="0.0726032" width="194.023" height="90.8867" filterUnits="userSpaceOnUse" color-interpolation-filters="sRGB">
<feFlood flood-opacity="0" result="BackgroundImageFix"/>
<feColorMatrix in="SourceAlpha" type="matrix" values="0 0 0 0 0 0 0 0 0 0 0 0 0 0 0 0 0 0 127 0" result="hardAlpha"/>
<feOffset dy="0.49214"/>
<feGaussianBlur stdDeviation="0.38029"/>
<feColorMatrix type="matrix" values="0 0 0 0 0 0 0 0 0 0 0 0 0 0 0 0 0 0 0.0268173 0"/>
<feBlend mode="normal" in2="BackgroundImageFix" result="effect1_dropShadow_296_727"/>
<feColorMatrix in="SourceAlpha" type="matrix" values="0 0 0 0 0 0 0 0 0 0 0 0 0 0 0 0 0 0 127 0" result="hardAlpha"/>
<feOffset dy="1.3607"/>
<feGaussianBlur stdDeviation="1.05145"/>
<feColorMatrix type="matrix" values="0 0 0 0 0 0 0 0 0 0 0 0 0 0 0 0 0 0 0.0399899 0"/>
<feBlend mode="normal" in2="effect1_dropShadow_296_727" result="effect2_dropShadow_296_727"/>
<feColorMatrix in="SourceAlpha" type="matrix" values="0 0 0 0 0 0 0 0 0 0 0 0 0 0 0 0 0 0 127 0" result="hardAlpha"/>
<feOffset dy="3.27605"/>
<feGaussianBlur stdDeviation="2.53149"/>
<feColorMatrix type="matrix" values="0 0 0 0 0 0 0 0 0 0 0 0 0 0 0 0 0 0 0.0582218 0"/>
<feBlend mode="normal" in2="effect2_dropShadow_296_727" result="effect3_dropShadow_296_727"/>
<feColorMatrix in="SourceAlpha" type="matrix" values="0 0 0 0 0 0 0 0 0 0 0 0 0 0 0 0 0 0 127 0" result="hardAlpha"/>
<feOffset dy="10.8669"/>
<feGaussianBlur stdDeviation="8.39714"/>
<feColorMatrix type="matrix" values="0 0 0 0 0 0 0 0 0 0 0 0 0 0 0 0 0 0 0.08 0"/>
<feBlend mode="normal" in2="effect3_dropShadow_296_727" result="effect4_dropShadow_296_727"/>
<feBlend mode="normal" in="SourceGraphic" in2="effect4_dropShadow_296_727" result="shape"/>
</filter>
</defs>
</svg>
