<svg width="14" height="19" viewBox="0 0 14 19" fill="none" xmlns="http://www.w3.org/2000/svg">
<g id="Group 1171274798">
<path id="&#60;Compound Path&#62;" fill-rule="evenodd" clip-rule="evenodd" d="M7.01781 18.6328L2.33329 14.1952C0.868278 12.8037 0.026123 10.8691 0.026123 8.88368V2.16365L0.868282 2.18061C4.41238 2.27395 6.43883 0.509092 6.46515 0.492122L7.01781 0L7.57048 0.492122C7.58803 0.509092 9.62324 2.27395 13.1673 2.18061L14.0007 2.16365V8.88368C14.0007 10.8691 13.1673 12.8037 11.7023 14.1952L7.01781 18.6328ZM1.65781 3.7588V8.88368C1.65781 10.4534 2.32451 11.9722 3.47371 13.0667L7.01781 16.4183L10.5531 13.0667C11.7023 11.9722 12.3603 10.4534 12.3603 8.88368V3.7588C9.7022 3.64001 7.86875 2.65577 7.00904 2.07031C6.14933 2.65577 4.31588 3.64001 1.65781 3.7588Z" fill="white"/>
<path id="&#60;Path&#62;" d="M10.878 6.10051H3.14941V5.22656H10.878V6.10051Z" fill="white"/>
<path id="&#60;Path&#62;_2" d="M10.878 8.39084H3.14941V7.52539H10.878V8.39084Z" fill="white"/>
<path id="&#60;Path&#62;_3" d="M10.878 10.6903H3.14941V9.81641H10.878V10.6903Z" fill="white"/>
<path id="&#60;Path&#62;_4" d="M7.98267 13.5666H6.04395V11.6914H7.98267V13.5666Z" fill="white"/>
</g>
</svg>
