<svg width="17" height="17" viewBox="0 0 17 17" fill="none" xmlns="http://www.w3.org/2000/svg">
<g id="Frame">
<g id="SVGRepo_iconCarrier">
<path id="Vector" d="M6.86543 1.30859H2.28851C1.73274 1.30859 1.30774 1.73359 1.30774 2.28936V15.3663C1.30774 15.5297 1.4712 15.6932 1.63466 15.6932H2.94235C3.13851 15.6932 3.26928 15.5624 3.26928 15.3663V13.4047C3.26928 13.2086 3.40005 13.0778 3.5962 13.0778H5.55774C5.75389 13.0778 5.88466 13.2086 5.88466 13.4047V15.3663C5.88466 15.5624 6.01543 15.6932 6.21159 15.6932H7.19235C7.55197 15.6932 7.8462 15.399 7.8462 15.0394V2.28936C7.8462 1.73359 7.4212 1.30859 6.86543 1.30859ZM3.92312 11.6067C3.92312 11.7047 3.85774 11.7701 3.75966 11.7701H2.77889C2.68082 11.7701 2.61543 11.7047 2.61543 11.6067V9.97206C2.61543 9.87398 2.68082 9.80859 2.77889 9.80859H3.75966C3.85774 9.80859 3.92312 9.87398 3.92312 9.97206V11.6067ZM3.92312 8.33744C3.92312 8.43552 3.85774 8.5009 3.75966 8.5009H2.77889C2.68082 8.5009 2.61543 8.43552 2.61543 8.33744V6.70283C2.61543 6.60475 2.68082 6.53936 2.77889 6.53936H3.75966C3.85774 6.53936 3.92312 6.60475 3.92312 6.70283V8.33744ZM3.92312 5.06821C3.92312 5.16629 3.85774 5.23167 3.75966 5.23167H2.77889C2.68082 5.23167 2.61543 5.16629 2.61543 5.06821V3.43359C2.61543 3.33552 2.68082 3.27013 2.77889 3.27013H3.75966C3.85774 3.27013 3.92312 3.33552 3.92312 3.43359V5.06821ZM6.53851 11.6067C6.53851 11.7047 6.47312 11.7701 6.37505 11.7701H5.39428C5.2962 11.7701 5.23082 11.7047 5.23082 11.6067V9.97206C5.23082 9.87398 5.2962 9.80859 5.39428 9.80859H6.37505C6.47312 9.80859 6.53851 9.87398 6.53851 9.97206V11.6067ZM6.53851 8.33744C6.53851 8.43552 6.47312 8.5009 6.37505 8.5009H5.39428C5.2962 8.5009 5.23082 8.43552 5.23082 8.33744V6.70283C5.23082 6.60475 5.2962 6.53936 5.39428 6.53936H6.37505C6.47312 6.53936 6.53851 6.60475 6.53851 6.70283V8.33744ZM6.53851 5.06821C6.53851 5.16629 6.47312 5.23167 6.37505 5.23167H5.39428C5.2962 5.23167 5.23082 5.16629 5.23082 5.06821V3.43359C5.23082 3.33552 5.2962 3.27013 5.39428 3.27013H6.37505C6.47312 3.27013 6.53851 3.33552 6.53851 3.43359V5.06821Z" fill="white"/>
<path id="Vector_2" d="M14.7116 4.57812H10.1347C9.57893 4.57812 9.15393 5.00312 9.15393 5.55889V15.3666C9.15393 15.53 9.31739 15.6935 9.48085 15.6935H10.7885C10.9847 15.6935 11.1155 15.5627 11.1155 15.3666V13.405C11.1155 13.2089 11.2462 13.0781 11.4424 13.0781H13.4039C13.6001 13.0781 13.7309 13.2089 13.7309 13.405V15.3666C13.7309 15.5627 13.8616 15.6935 14.0578 15.6935H15.0385C15.3982 15.6935 15.6924 15.3993 15.6924 15.0397V5.55889C15.6924 5.00312 15.2674 4.57812 14.7116 4.57812ZM11.7693 11.607C11.7693 11.705 11.7039 11.7704 11.6059 11.7704H10.6251C10.527 11.7704 10.4616 11.705 10.4616 11.607V9.97236C10.4616 9.87428 10.527 9.80889 10.6251 9.80889H11.6059C11.7039 9.80889 11.7693 9.87428 11.7693 9.97236V11.607ZM11.7693 8.33774C11.7693 8.43582 11.7039 8.5012 11.6059 8.5012H10.6251C10.527 8.5012 10.4616 8.43582 10.4616 8.33774V6.70312C10.4616 6.60505 10.527 6.53966 10.6251 6.53966H11.6059C11.7039 6.53966 11.7693 6.60505 11.7693 6.70312V8.33774ZM14.3847 11.607C14.3847 11.705 14.3193 11.7704 14.2212 11.7704H13.2405C13.1424 11.7704 13.077 11.705 13.077 11.607V9.97236C13.077 9.87428 13.1424 9.80889 13.2405 9.80889H14.2212C14.3193 9.80889 14.3847 9.87428 14.3847 9.97236V11.607ZM14.3847 8.33774C14.3847 8.43582 14.3193 8.5012 14.2212 8.5012H13.2405C13.1424 8.5012 13.077 8.43582 13.077 8.33774V6.70312C13.077 6.60505 13.1424 6.53966 13.2405 6.53966H14.2212C14.3193 6.53966 14.3847 6.60505 14.3847 6.70312V8.33774Z" fill="white"/>
</g>
</g>
</svg>
