<svg width="21" height="21" viewBox="0 0 21 21" fill="none" xmlns="http://www.w3.org/2000/svg">
<g id="Frame">
<g id="SVGRepo_iconCarrier">
<path id="Vector" fill-rule="evenodd" clip-rule="evenodd" d="M10.9185 8.59694C11.265 8.59694 11.546 8.87791 11.546 9.22449V10.2704H12.5919C12.9385 10.2704 13.2195 10.5514 13.2195 10.898C13.2195 11.2445 12.9385 11.5255 12.5919 11.5255H11.546V12.5714C11.546 12.918 11.265 13.199 10.9185 13.199C10.5719 13.199 10.2909 12.918 10.2909 12.5714V11.5255H9.24498C8.8984 11.5255 8.61743 11.2445 8.61743 10.898C8.61743 10.5514 8.8984 10.2704 9.24498 10.2704H10.2909V9.22449C10.2909 8.87791 10.5719 8.59694 10.9185 8.59694Z" fill="#1C274C"/>
<path id="Vector_2" fill-rule="evenodd" clip-rule="evenodd" d="M9.05896 17.5918H12.7778C15.3893 17.5918 16.695 17.5918 17.633 16.9765C18.039 16.7101 18.3877 16.3678 18.659 15.9692C19.2857 15.0482 19.2857 13.7662 19.2857 11.2022C19.2857 8.63827 19.2857 7.35623 18.659 6.43532C18.3877 6.03664 18.039 5.69434 17.633 5.42795C17.0302 5.03255 16.2757 4.89123 15.1205 4.84072C14.5691 4.84072 14.0945 4.43057 13.9864 3.89981C13.8242 3.10368 13.1122 2.53061 12.2853 2.53061H9.5514C8.72449 2.53061 8.01252 3.10368 7.85034 3.89981C7.74223 4.43057 7.26757 4.84072 6.71629 4.84072C5.56104 4.89123 4.80649 5.03255 4.20378 5.42795C3.79772 5.69434 3.44908 6.03664 3.17776 6.43532C2.55103 7.35623 2.55103 8.63827 2.55103 11.2022C2.55103 13.7662 2.55103 15.0482 3.17776 15.9692C3.44908 16.3678 3.79772 16.7101 4.20378 16.9765C5.14176 17.5918 6.44749 17.5918 9.05896 17.5918ZM14.2653 10.898C14.2653 12.7464 12.7668 14.2449 10.9184 14.2449C9.06991 14.2449 7.57143 12.7464 7.57143 10.898C7.57143 9.04953 9.06991 7.55102 10.9184 7.55102C12.7668 7.55102 14.2653 9.04953 14.2653 10.898ZM15.9388 7.7602C15.5922 7.7602 15.3112 8.04117 15.3112 8.38775C15.3112 8.73433 15.5922 9.0153 15.9388 9.0153H16.7755C17.1221 9.0153 17.4031 8.73433 17.4031 8.38775C17.4031 8.04117 17.1221 7.7602 16.7755 7.7602H15.9388Z" fill="#1C274C"/>
</g>
</g>
</svg>
