<svg width="28" height="28" viewBox="0 0 28 28" fill="none" xmlns="http://www.w3.org/2000/svg">
<g id="Frame">
<g id="SVGRepo_iconCarrier">
<path id="Vector" d="M11.3077 2.15384H3.76919C2.85381 2.15384 2.15381 2.85384 2.15381 3.76922V25.3077C2.15381 25.5769 2.42304 25.8461 2.69227 25.8461H4.84612C5.16919 25.8461 5.38458 25.6308 5.38458 25.3077V22.0769C5.38458 21.7538 5.59996 21.5385 5.92304 21.5385H9.15381C9.47689 21.5385 9.69227 21.7538 9.69227 22.0769V25.3077C9.69227 25.6308 9.90766 25.8461 10.2307 25.8461H11.8461C12.4384 25.8461 12.923 25.3615 12.923 24.7692V3.76922C12.923 2.85384 12.223 2.15384 11.3077 2.15384ZM6.4615 19.1154C6.4615 19.2769 6.35381 19.3846 6.19227 19.3846H4.57689C4.41535 19.3846 4.30765 19.2769 4.30765 19.1154V16.4231C4.30765 16.2615 4.41535 16.1538 4.57689 16.1538H6.19227C6.35381 16.1538 6.4615 16.2615 6.4615 16.4231V19.1154ZM6.4615 13.7308C6.4615 13.8923 6.35381 14 6.19227 14H4.57689C4.41535 14 4.30765 13.8923 4.30765 13.7308V11.0385C4.30765 10.8769 4.41535 10.7692 4.57689 10.7692H6.19227C6.35381 10.7692 6.4615 10.8769 6.4615 11.0385V13.7308ZM6.4615 8.34615C6.4615 8.50769 6.35381 8.61538 6.19227 8.61538H4.57689C4.41535 8.61538 4.30765 8.50769 4.30765 8.34615V5.65384C4.30765 5.4923 4.41535 5.38461 4.57689 5.38461H6.19227C6.35381 5.38461 6.4615 5.4923 6.4615 5.65384V8.34615ZM10.7692 19.1154C10.7692 19.2769 10.6615 19.3846 10.5 19.3846H8.88458C8.72304 19.3846 8.61535 19.2769 8.61535 19.1154V16.4231C8.61535 16.2615 8.72304 16.1538 8.88458 16.1538H10.5C10.6615 16.1538 10.7692 16.2615 10.7692 16.4231V19.1154ZM10.7692 13.7308C10.7692 13.8923 10.6615 14 10.5 14H8.88458C8.72304 14 8.61535 13.8923 8.61535 13.7308V11.0385C8.61535 10.8769 8.72304 10.7692 8.88458 10.7692H10.5C10.6615 10.7692 10.7692 10.8769 10.7692 11.0385V13.7308ZM10.7692 8.34615C10.7692 8.50769 10.6615 8.61538 10.5 8.61538H8.88458C8.72304 8.61538 8.61535 8.50769 8.61535 8.34615V5.65384C8.61535 5.4923 8.72304 5.38461 8.88458 5.38461H10.5C10.6615 5.38461 10.7692 5.4923 10.7692 5.65384V8.34615Z" fill="#4C4C4C"/>
<path id="Vector_2" d="M24.2305 7.53845H16.692C15.7767 7.53845 15.0767 8.23845 15.0767 9.15384V25.3077C15.0767 25.5769 15.3459 25.8461 15.6151 25.8461H17.769C18.092 25.8461 18.3074 25.6308 18.3074 25.3077V22.0769C18.3074 21.7538 18.5228 21.5385 18.8459 21.5385H22.0767C22.3997 21.5385 22.6151 21.7538 22.6151 22.0769V25.3077C22.6151 25.6308 22.8305 25.8461 23.1536 25.8461H24.769C25.3613 25.8461 25.8459 25.3615 25.8459 24.7692V9.15384C25.8459 8.23845 25.1459 7.53845 24.2305 7.53845ZM19.3844 19.1154C19.3844 19.2769 19.2767 19.3846 19.1151 19.3846H17.4997C17.3382 19.3846 17.2305 19.2769 17.2305 19.1154V16.4231C17.2305 16.2615 17.3382 16.1538 17.4997 16.1538H19.1151C19.2767 16.1538 19.3844 16.2615 19.3844 16.4231V19.1154ZM19.3844 13.7308C19.3844 13.8923 19.2767 14 19.1151 14H17.4997C17.3382 14 17.2305 13.8923 17.2305 13.7308V11.0385C17.2305 10.8769 17.3382 10.7692 17.4997 10.7692H19.1151C19.2767 10.7692 19.3844 10.8769 19.3844 11.0385V13.7308ZM23.692 19.1154C23.692 19.2769 23.5844 19.3846 23.4228 19.3846H21.8074C21.6459 19.3846 21.5382 19.2769 21.5382 19.1154V16.4231C21.5382 16.2615 21.6459 16.1538 21.8074 16.1538H23.4228C23.5844 16.1538 23.692 16.2615 23.692 16.4231V19.1154ZM23.692 13.7308C23.692 13.8923 23.5844 14 23.4228 14H21.8074C21.6459 14 21.5382 13.8923 21.5382 13.7308V11.0385C21.5382 10.8769 21.6459 10.7692 21.8074 10.7692H23.4228C23.5844 10.7692 23.692 10.8769 23.692 11.0385V13.7308Z" fill="#4C4C4C"/>
</g>
</g>
</svg>
