<svg width="30" height="30" viewBox="0 0 30 30" fill="none" xmlns="http://www.w3.org/2000/svg">
<g id="Frame">
<g id="SVGRepo_iconCarrier">
<path id="Vector" d="M20.6486 20.6266C20.8674 20.456 21.0658 20.2576 21.4626 19.8608L26.4094 14.914C26.5289 14.7945 26.4741 14.5885 26.3144 14.533C25.7305 14.3305 24.9709 13.9501 24.2604 13.2396C23.5499 12.5291 23.1695 11.7695 22.967 11.1856C22.9115 11.0258 22.7055 10.9711 22.586 11.0907L17.6393 16.0374C17.2424 16.4343 17.044 16.6326 16.8734 16.8514C16.6721 17.1095 16.4995 17.3886 16.3588 17.6841C16.2394 17.9345 16.1506 18.2008 15.9733 18.7331L15.7439 19.421L15.3793 20.5148L15.0374 21.5404C14.9501 21.8024 15.0183 22.0911 15.2135 22.2865C15.4089 22.4818 15.6976 22.5499 15.9596 22.4626L16.9853 22.1208L18.079 21.7561L18.7669 21.5267C19.2991 21.3494 19.5655 21.2606 19.8159 21.1413C20.1114 21.0005 20.3905 20.8279 20.6486 20.6266Z" fill="white"/>
<path id="Vector_2" d="M27.9577 13.3652C29.0135 12.3094 29.0135 10.5977 27.9577 9.54185C26.9019 8.48605 25.1902 8.48605 24.1343 9.54185L23.9753 9.70089C23.8218 9.85435 23.7523 10.0687 23.7907 10.2823C23.8148 10.4167 23.8594 10.6132 23.9408 10.8476C24.1034 11.3164 24.4105 11.9319 24.9891 12.5104C25.5676 13.089 26.1832 13.3961 26.6519 13.5588C26.8864 13.6401 27.0828 13.6848 27.2172 13.7089C27.4308 13.7473 27.6452 13.6777 27.7987 13.5243L27.9577 13.3652Z" fill="white"/>
<path id="Vector_3" fill-rule="evenodd" clip-rule="evenodd" d="M5.21446 3.96446C3.75 5.42894 3.75 7.78595 3.75 12.5V17.5C3.75 22.214 3.75 24.5711 5.21446 26.0355C6.67894 27.5 9.03595 27.5 13.75 27.5H16.25C20.964 27.5 23.3211 27.5 24.7855 26.0355C26.2265 24.5945 26.2496 22.2895 26.25 17.7251L22.7271 21.248C22.3899 21.5854 22.1138 21.8618 21.8019 22.1051C21.4364 22.3901 21.041 22.6345 20.6226 22.8339C20.2655 23.004 19.8949 23.1275 19.4422 23.2781L16.5526 24.2414C15.6169 24.5533 14.5852 24.3098 13.8877 23.6123C13.1904 22.9148 12.9468 21.8831 13.2588 20.9474L13.6006 19.9219L14.1945 18.1401L14.2219 18.0579C14.3726 17.6053 14.496 17.2345 14.6661 16.8774C14.8655 16.459 15.1099 16.0636 15.395 15.6983C15.6383 15.3863 15.9146 15.1101 16.2521 14.7729L21.2601 9.76485L22.65 8.37505L22.809 8.21603C23.7033 7.32176 24.8754 6.87476 26.0475 6.875C25.8584 5.58681 25.4926 4.67159 24.7855 3.96446C23.3211 2.5 20.964 2.5 16.25 2.5H13.75C9.03595 2.5 6.67894 2.5 5.21446 3.96446ZM9.0625 11.25C9.0625 10.7322 9.48224 10.3125 10 10.3125H18.125C18.6427 10.3125 19.0625 10.7322 19.0625 11.25C19.0625 11.7678 18.6427 12.1875 18.125 12.1875H10C9.48224 12.1875 9.0625 11.7678 9.0625 11.25ZM9.0625 16.25C9.0625 15.7323 9.48224 15.3125 10 15.3125H13.125C13.6427 15.3125 14.0625 15.7323 14.0625 16.25C14.0625 16.7678 13.6427 17.1875 13.125 17.1875H10C9.48224 17.1875 9.0625 16.7678 9.0625 16.25ZM9.0625 21.25C9.0625 20.7323 9.48224 20.3125 10 20.3125H11.875C12.3928 20.3125 12.8125 20.7323 12.8125 21.25C12.8125 21.7678 12.3928 22.1875 11.875 22.1875H10C9.48224 22.1875 9.0625 21.7678 9.0625 21.25Z" fill="white"/>
</g>
</g>
</svg>
