<svg width="24" height="24" viewBox="0 0 24 24" fill="none" xmlns="http://www.w3.org/2000/svg">
<g id="_x32_" clip-path="url(#clip0_248_1628)">
<g id="SVGRepo_iconCarrier">
<g id="Group">
<path id="Vector" d="M15.8052 13.5737C15.5648 13.3331 15.1744 13.3331 14.9334 13.5737L14.182 14.3255C13.9626 14.5448 13.6137 14.5668 13.3686 14.3771C13.3686 14.3771 12.6499 13.9033 11.4747 12.7281C10.2996 11.553 9.82591 10.8337 9.82591 10.8337C9.63583 10.5887 9.65819 10.2405 9.87756 10.0208L10.629 9.2693C10.87 9.02865 10.87 8.63827 10.629 8.39771L8.97245 6.741C8.73184 6.50039 8.34184 6.50039 8.10086 6.741C8.09514 6.74686 8.01152 6.83035 7.102 7.74038C6.04253 8.79947 7.44386 12.0444 9.80078 14.4022C12.1581 16.7591 15.4036 18.1598 16.4627 17.1011C17.3718 16.1915 17.4557 16.1072 17.4614 16.1018C17.7024 15.8611 17.7024 15.4708 17.4614 15.2305L15.8052 13.5737Z" fill="#1C7C70"/>
<path id="Vector_2" d="M12 0C5.37253 0 0 5.37267 0 12C0 18.6273 5.37253 24 12 24C18.6275 24 24 18.6273 24 12C24 5.37267 18.6275 0 12 0ZM12 22.125C6.41709 22.125 1.875 17.5829 1.875 12C1.875 6.41709 6.41709 1.875 12 1.875C17.5829 1.875 22.125 6.41709 22.125 12C22.125 17.5829 17.5829 22.125 12 22.125Z" fill="#1C7C70"/>
</g>
</g>
</g>
<defs>
<clipPath id="clip0_248_1628">
<rect width="24" height="24" fill="white"/>
</clipPath>
</defs>
</svg>
