<svg width="40" height="40" viewBox="0 0 40 40" fill="none" xmlns="http://www.w3.org/2000/svg">
<g id="Frame">
<g id="SVGRepo_iconCarrier">
<path id="Vector" d="M30.3 13.399L31.0725 12.6266C32.3522 11.3468 34.4272 11.3468 35.7069 12.6266C36.9867 13.9063 36.9867 15.9812 35.7069 17.2609L34.9345 18.0334M30.3 13.399C30.3 13.399 30.3967 15.0403 31.8449 16.4886C33.2932 17.9367 34.9345 18.0334 34.9345 18.0334M30.3 13.399L23.199 20.4999C22.718 20.9809 22.4775 21.2214 22.2707 21.4866C22.0269 21.7994 21.8177 22.1379 21.647 22.4959C21.5024 22.7996 21.3947 23.1221 21.1797 23.7674L20.491 25.8334L20.2682 26.5017M34.9345 18.0334L27.8335 25.1344C27.3525 25.6154 27.112 25.8559 26.8469 26.0627C26.534 26.3066 26.1955 26.5157 25.8375 26.6864C25.5339 26.8311 25.2114 26.9387 24.566 27.1537L22.5 27.8424L21.8317 28.0652M20.2682 26.5017L20.0454 27.1702C19.9395 27.4877 20.0222 27.8379 20.2589 28.0746C20.4955 28.3112 20.8457 28.3939 21.1632 28.2881L21.8317 28.0652M20.2682 26.5017L21.8317 28.0652" stroke="white" stroke-width="3"/>
<path id="Vector_2" d="M13.3333 21.6667H17.4999" stroke="white" stroke-width="3" stroke-linecap="round"/>
<path id="Vector_3" d="M13.3333 15H24.1666" stroke="white" stroke-width="3" stroke-linecap="round"/>
<path id="Vector_4" d="M13.3333 28.3334H15.8333" stroke="white" stroke-width="3" stroke-linecap="round"/>
<path id="Vector_5" d="M33.0473 5.28599C31.0948 3.33337 27.952 3.33337 21.6667 3.33337H18.3333C12.0479 3.33337 8.90525 3.33337 6.95262 5.28599C5 7.23862 5 10.3813 5 16.6667V23.3334C5 29.6187 5 32.7615 6.95262 34.714C8.90525 36.6667 12.0479 36.6667 18.3333 36.6667H21.6667C27.952 36.6667 31.0948 36.6667 33.0473 34.714C34.6192 33.1422 34.9257 30.7994 34.9855 26.6667" stroke="white" stroke-width="3" stroke-linecap="round"/>
</g>
</g>
</svg>
