<svg width="204" height="51" viewBox="0 0 204 51" fill="none" xmlns="http://www.w3.org/2000/svg">
<g id="&#216;&#180;&#216;&#185;&#216;&#167;&#216;&#177; &#217;&#135;&#217;&#138;&#216;&#166;&#216;&#169; &#216;&#167;&#217;&#132;&#216;&#167;&#216;&#170;&#216;&#181;&#216;&#167;&#217;&#132;&#216;&#167;&#216;&#170; &#217;&#136;&#216;&#170;&#217;&#130;&#217;&#134;&#217;&#138;&#216;&#169; &#216;&#167;&#217;&#132;&#217;&#133;&#216;&#185;&#217;&#132;&#217;&#136;&#217;&#133;&#216;&#167;&#216;&#170; &#226;&#128;&#147; SVG 1" clip-path="url(#clip0_18_963)">
<g id="Layer 2">
<g id="Layer 1">
<path id="Vector" d="M55.2859 0H54.6731V50.4815H55.2859V0Z" fill="#000062"/>
<path id="Vector_2" d="M67.6762 23.4684L66.7824 24.0849C66.5712 23.8158 66.3019 23.6089 65.9991 23.4832C65.6963 23.3575 65.3696 23.3169 65.0489 23.3651C64.7281 23.4133 64.4234 23.5489 64.1627 23.7593C63.9019 23.9698 63.6933 24.2485 63.556 24.57C63.4186 24.8915 63.3569 25.2456 63.3764 25.6C63.3958 25.9544 63.4959 26.2978 63.6674 26.599C63.839 26.9001 64.0765 27.1493 64.3585 27.3239C64.6404 27.4985 64.9577 27.593 65.2814 27.5987C65.5711 27.5942 65.8561 27.5188 66.1158 27.378C66.3755 27.2372 66.6033 27.0346 66.7824 26.7849L67.6762 27.4014C67.2992 27.9443 66.7764 28.3438 66.1814 28.5437C65.5864 28.7436 64.9492 28.7337 64.3595 28.5155C63.7699 28.2974 63.2575 27.8819 62.8946 27.3276C62.5316 26.7732 62.3364 26.108 62.3364 25.4257C62.3364 24.7433 62.5316 24.0781 62.8946 23.5238C63.2575 22.9694 63.7699 22.5539 64.3595 22.3358C64.9492 22.1176 65.5864 22.1078 66.1814 22.3076C66.7764 22.5075 67.2992 22.907 67.6762 23.4499V23.4684Z" fill="#000062"/>
<path id="Vector_3" d="M73.3484 26.3534C73.3788 26.8575 73.2704 27.3601 73.0372 27.7959C72.804 28.2316 72.4568 28.5805 72.0406 28.7973C71.6244 29.014 71.1584 29.0887 70.703 29.0115C70.2476 28.9343 69.8239 28.7089 69.4868 28.3645C69.1497 28.0201 68.9147 27.5725 68.8123 27.0799C68.71 26.5872 68.745 26.0722 68.9127 25.6017C69.0805 25.1311 69.3734 24.7266 69.7533 24.4408C70.1333 24.1549 70.5828 24.0008 71.0435 23.9985C71.3372 23.9811 71.6311 24.0287 71.9075 24.1387C72.184 24.2487 72.4374 24.4187 72.6526 24.6385C72.8678 24.8583 73.0403 25.1235 73.1599 25.4182C73.2794 25.7128 73.3436 26.0309 73.3484 26.3534ZM69.7449 26.3534C69.7427 26.637 69.8174 26.915 69.9596 27.1519C70.1018 27.3888 70.3051 27.5741 70.5435 27.684C70.7819 27.794 71.0448 27.8237 71.2987 27.7694C71.5526 27.7151 71.786 27.5793 71.9693 27.3792C72.1526 27.179 72.2775 26.9236 72.3281 26.6455C72.3787 26.3673 72.3528 26.0789 72.2535 25.817C72.1543 25.555 71.9863 25.3314 71.7708 25.1744C71.5554 25.0175 71.3022 24.9343 71.0435 24.9355C70.8722 24.9305 70.7017 24.9636 70.5425 25.033C70.3832 25.1024 70.2385 25.2065 70.117 25.3391C69.9956 25.4717 69.9 25.63 69.836 25.8044C69.772 25.9787 69.741 26.1655 69.7449 26.3534Z" fill="#000062"/>
<path id="Vector_4" d="M78.5484 24.7322C79.0218 24.2513 79.6458 23.9887 80.2911 23.9986C80.4883 23.9799 80.6869 24.0086 80.8729 24.0828C81.059 24.157 81.228 24.2748 81.3683 24.428C81.5085 24.5812 81.6166 24.7661 81.6849 24.9698C81.7533 25.1736 81.7803 25.3912 81.764 25.6075V28.6158H80.7577V25.9281C80.7752 25.7961 80.7659 25.6614 80.7305 25.5338C80.695 25.4062 80.6343 25.2887 80.5527 25.1898C80.4711 25.0908 80.3705 25.0129 80.2583 24.9615C80.146 24.9101 80.0248 24.8865 79.9032 24.8924C79.4535 24.8919 79.0179 25.0642 78.6721 25.3794C78.715 25.5815 78.7357 25.7884 78.7339 25.9959V28.5973H77.7332V25.9281C77.7508 25.7955 77.7414 25.6603 77.7057 25.5322C77.6699 25.4041 77.6087 25.2863 77.5265 25.1873C77.4442 25.0882 77.3429 25.0104 77.23 24.9594C77.117 24.9084 76.9951 24.8856 76.8731 24.8924C76.4434 24.8903 76.0285 25.0639 75.7094 25.3794V28.6158H74.7031V24.0849H75.7094V24.7013C76.1444 24.2554 76.7161 24.0046 77.3116 23.9986C77.5599 23.98 77.8079 24.0391 78.0269 24.169C78.2458 24.2988 78.4266 24.4941 78.5484 24.7322Z" fill="#000062"/>
<path id="Vector_5" d="M87.0879 24.7322C87.5631 24.2504 88.1892 23.9877 88.8363 23.9986C89.0333 23.9798 89.2316 24.0085 89.4175 24.0827C89.6033 24.1569 89.772 24.2748 89.9118 24.4281C90.0517 24.5814 90.1592 24.7665 90.2269 24.9702C90.2945 25.174 90.3207 25.3915 90.3035 25.6075V28.6158H89.2973V25.9281C89.2973 25.2438 88.96 24.8924 88.4428 24.8924C87.9948 24.8923 87.5611 25.0647 87.2172 25.3794C87.2556 25.5822 87.2744 25.7888 87.2734 25.9959V28.5973H86.2728V25.9281C86.2904 25.7955 86.281 25.6603 86.2452 25.5322C86.2095 25.4041 86.1483 25.2863 86.066 25.1873C85.9837 25.0882 85.8825 25.0104 85.7695 24.9594C85.6565 24.9085 85.5347 24.8856 85.4127 24.8924C84.9832 24.8915 84.5686 25.0649 84.249 25.3794V28.6158H83.2427V24.0849H84.249V24.7013C84.6839 24.2554 85.2557 24.0046 85.8511 23.9986C86.0995 23.98 86.3475 24.0391 86.5664 24.169C86.7853 24.2988 86.9662 24.4941 87.0879 24.7322Z" fill="#000062"/>
<path id="Vector_6" d="M95.9365 24.0849V28.6158H94.9302V28.0364C94.45 28.4564 93.8577 28.6924 93.2437 28.7083C93.0453 28.732 92.8446 28.708 92.6557 28.6379C92.4667 28.5678 92.2939 28.4533 92.1494 28.3025C92.0049 28.1517 91.8921 27.9681 91.8189 27.7645C91.7458 27.561 91.714 27.3424 91.7258 27.124V24.0849H92.7265V26.7788C92.7124 26.9159 92.7265 27.0546 92.7677 27.1849C92.8089 27.3152 92.8762 27.4338 92.9646 27.5319C93.053 27.63 93.1603 27.7052 93.2786 27.752C93.3969 27.7987 93.5233 27.8159 93.6484 27.8021C94.1233 27.7904 94.5784 27.5912 94.9302 27.2411V24.0849H95.9365Z" fill="#000062"/>
<path id="Vector_7" d="M101.704 25.6076V28.6159H100.704V25.9281C100.719 25.7898 100.705 25.6495 100.664 25.5177C100.623 25.3859 100.555 25.2658 100.466 25.1664C100.377 25.067 100.269 24.9908 100.15 24.9434C100.03 24.896 99.9025 24.8786 99.7761 24.8925C99.3011 24.9063 98.8472 25.1102 98.5 25.4658V28.6159H97.4712V24.0849H98.4831V24.6582C98.9647 24.2426 99.5569 24.011 100.17 23.9986C100.371 23.9703 100.577 23.9918 100.77 24.0616C100.963 24.1313 101.14 24.2475 101.287 24.4017C101.434 24.5559 101.548 24.7442 101.62 24.9529C101.692 25.1615 101.721 25.3852 101.704 25.6076Z" fill="#000062"/>
<path id="Vector_8" d="M104.302 22.9383C104.302 23.1018 104.242 23.2586 104.137 23.3742C104.032 23.4898 103.889 23.5547 103.739 23.5547C103.59 23.5547 103.447 23.4898 103.342 23.3742C103.236 23.2586 103.177 23.1018 103.177 22.9383C103.177 22.7748 103.236 22.618 103.342 22.5024C103.447 22.3868 103.59 22.3218 103.739 22.3218C103.889 22.3218 104.032 22.3868 104.137 22.5024C104.242 22.618 104.302 22.7748 104.302 22.9383ZM104.262 28.6158H103.262V24.0849H104.262V28.6158Z" fill="#000062"/>
<path id="Vector_9" d="M109.698 24.9355L108.928 25.4102C108.788 25.228 108.609 25.0872 108.407 25.001C108.204 24.9148 107.985 24.8858 107.77 24.9168C107.555 24.9478 107.35 25.0378 107.175 25.1784C107 25.319 106.86 25.5057 106.767 25.7213C106.675 25.937 106.634 26.1745 106.648 26.4122C106.662 26.6498 106.73 26.8798 106.846 27.081C106.962 27.2822 107.123 27.448 107.313 27.5633C107.503 27.6785 107.716 27.7394 107.933 27.7404C108.128 27.7465 108.322 27.7035 108.499 27.6148C108.676 27.5261 108.833 27.3941 108.956 27.2288L109.732 27.7034C109.518 28.0086 109.243 28.2557 108.928 28.4256C108.614 28.5956 108.267 28.6839 107.916 28.6836C107.347 28.6836 106.801 28.4355 106.398 27.9939C105.995 27.5522 105.769 26.9533 105.769 26.3287C105.769 25.7042 105.995 25.1052 106.398 24.6636C106.801 24.222 107.347 23.9739 107.916 23.9739C108.261 23.9738 108.6 24.0605 108.909 24.2273C109.218 24.394 109.488 24.6363 109.698 24.9355Z" fill="#000062"/>
<path id="Vector_10" d="M115.067 24.0849V28.6158H114.067V28.0918C113.894 28.2913 113.685 28.4492 113.454 28.5553C113.223 28.6614 112.974 28.7136 112.723 28.7083C112.18 28.6652 111.673 28.3984 111.302 27.9615C110.931 27.5246 110.725 26.9501 110.725 26.3534C110.725 25.7568 110.931 25.1822 111.302 24.7454C111.673 24.3085 112.18 24.0417 112.723 23.9986C112.974 23.9929 113.223 24.0449 113.454 24.151C113.686 24.2572 113.894 24.4153 114.067 24.615V24.0911L115.067 24.0849ZM114.067 27.1672V25.552C113.939 25.3573 113.769 25.1995 113.574 25.0922C113.378 24.9848 113.161 24.9311 112.942 24.9356C112.615 24.9593 112.308 25.1187 112.083 25.3814C111.859 25.6441 111.734 25.9905 111.734 26.3504C111.734 26.7102 111.859 27.0566 112.083 27.3193C112.308 27.582 112.615 27.7414 112.942 27.7651C113.163 27.7669 113.381 27.7093 113.577 27.5976C113.773 27.4859 113.941 27.3233 114.067 27.124V27.1672Z" fill="#000062"/>
<path id="Vector_11" d="M119.357 28.3877C119.026 28.5935 118.652 28.7038 118.272 28.7082C118.081 28.7205 117.89 28.6876 117.711 28.6117C117.533 28.5358 117.372 28.4188 117.239 28.2685C117.105 28.1182 117.003 27.9382 116.939 27.7407C116.874 27.5432 116.85 27.3329 116.866 27.124V24.9664H116.214V24.0848H116.866V22.8088H117.867V24.0417H119.042V24.9664H117.867V26.9575C117.858 27.0648 117.87 27.1729 117.903 27.2745C117.935 27.3761 117.987 27.4687 118.056 27.546C118.124 27.6234 118.207 27.6835 118.299 27.7224C118.39 27.7613 118.488 27.7779 118.586 27.7712C118.807 27.7736 119.025 27.7187 119.222 27.611L119.357 28.3877Z" fill="#000062"/>
<path id="Vector_12" d="M121.706 22.9383C121.716 23.062 121.692 23.1861 121.637 23.2945C121.582 23.4029 121.498 23.4905 121.397 23.5458C121.295 23.601 121.181 23.6214 121.069 23.6043C120.957 23.5872 120.852 23.5333 120.768 23.4497C120.684 23.3661 120.625 23.2567 120.599 23.1359C120.573 23.0151 120.581 22.8884 120.622 22.7725C120.662 22.6566 120.734 22.5568 120.827 22.4863C120.92 22.4158 121.031 22.3778 121.144 22.3773C121.215 22.3723 121.286 22.383 121.353 22.4087C121.42 22.4344 121.481 22.4746 121.534 22.527C121.586 22.5793 121.629 22.6427 121.658 22.7134C121.688 22.784 121.704 22.8605 121.706 22.9383ZM121.644 28.6158H120.644V24.0849H121.644V28.6158Z" fill="#000062"/>
<path id="Vector_13" d="M127.688 26.3534C127.718 26.8576 127.61 27.3601 127.377 27.7959C127.143 28.2317 126.796 28.5806 126.38 28.7973C125.964 29.0141 125.498 29.0887 125.042 29.0115C124.587 28.9344 124.163 28.709 123.826 28.3645C123.489 28.0201 123.254 27.5725 123.152 27.0799C123.049 26.5873 123.084 26.0723 123.252 25.6017C123.42 25.1311 123.713 24.7267 124.093 24.4408C124.473 24.155 124.922 24.0009 125.383 23.9986C125.677 23.9802 125.971 24.0273 126.248 24.1369C126.525 24.2466 126.778 24.4165 126.994 24.6365C127.209 24.8566 127.382 25.1221 127.501 25.4171C127.62 25.7122 127.684 26.0307 127.688 26.3534ZM124.084 26.3534C124.081 26.6388 124.155 26.9188 124.298 27.1576C124.44 27.3965 124.644 27.5835 124.884 27.6947C125.123 27.8059 125.388 27.8363 125.643 27.7819C125.899 27.7276 126.134 27.5911 126.318 27.3897C126.503 27.1883 126.628 26.9313 126.679 26.6514C126.729 26.3714 126.703 26.0813 126.603 25.818C126.502 25.5547 126.333 25.3301 126.115 25.1729C125.898 25.0158 125.643 24.9331 125.383 24.9356C125.212 24.9305 125.041 24.9637 124.882 25.0331C124.723 25.1024 124.578 25.2066 124.456 25.3392C124.335 25.4718 124.239 25.6301 124.175 25.8044C124.111 25.9787 124.08 26.1655 124.084 26.3534Z" fill="#000062"/>
<path id="Vector_14" d="M133.265 25.6075V28.6158H132.264V25.928C132.279 25.7897 132.265 25.6494 132.224 25.5176C132.183 25.3858 132.116 25.2657 132.027 25.1663C131.938 25.067 131.829 24.9907 131.71 24.9433C131.59 24.8959 131.463 24.8785 131.336 24.8924C130.861 24.9062 130.407 25.1101 130.06 25.4657V28.6158H129.048V24.0848H130.077V24.6581C130.559 24.2425 131.151 24.0109 131.764 23.9985C131.963 23.9761 132.164 24.0021 132.353 24.0745C132.542 24.1469 132.715 24.264 132.858 24.4175C133.001 24.571 133.112 24.7572 133.182 24.9628C133.252 25.1685 133.281 25.3885 133.265 25.6075Z" fill="#000062"/>
<path id="Vector_15" d="M137.948 24.4917L137.61 25.2068C137.198 24.9481 136.736 24.8022 136.261 24.7814C135.817 24.7814 135.587 24.9479 135.587 25.2808C135.587 25.6136 135.727 25.6445 136.295 25.8171L136.756 25.9527C137.734 26.2424 138.094 26.6061 138.094 27.2719C138.094 28.1781 137.459 28.7083 136.368 28.7083C135.686 28.712 135.018 28.4978 134.445 28.0918L134.794 27.3952C135.277 27.7251 135.833 27.9041 136.402 27.913C136.908 27.913 137.155 27.7281 137.155 27.352C137.155 27.0808 137.031 26.976 136.508 26.8157L135.991 26.6616C134.979 26.3534 134.625 26.0452 134.625 25.3732C134.625 24.504 135.255 23.9924 136.312 23.9924C136.887 24.0003 137.451 24.1724 137.948 24.4917Z" fill="#000062"/>
<path id="Vector_16" d="M146.431 27.3583L147.027 28.0425L146.318 28.7083L145.795 28.0918C145.272 28.5142 144.635 28.7314 143.985 28.7083C142.715 28.7083 141.905 28.0918 141.905 26.9822C141.905 26.224 142.304 25.7 143.367 25.1328L143.277 25.0281C143.027 24.8044 142.851 24.4967 142.777 24.1524C142.702 23.8082 142.733 23.4466 142.865 23.1237C142.997 22.8008 143.222 22.5346 143.506 22.3662C143.79 22.1979 144.116 22.1368 144.435 22.1924C144.625 22.172 144.816 22.1945 144.998 22.2582C145.179 22.3219 145.347 22.4257 145.491 22.5631C145.635 22.7004 145.751 22.8685 145.834 23.0571C145.916 23.2456 145.962 23.4506 145.97 23.6595C145.97 24.4301 145.582 24.8924 144.699 25.3486L145.824 26.6678C146.069 26.3095 146.271 25.9179 146.425 25.5027L147.162 25.8664C146.98 26.3974 146.734 26.8992 146.431 27.3583ZM145.211 27.3583L143.907 25.774C143.17 26.187 142.94 26.4767 142.94 26.8836C142.94 27.4569 143.367 27.8021 144.019 27.8021C144.449 27.7972 144.867 27.6417 145.211 27.3583ZM143.648 23.7212C143.675 24.0395 143.804 24.3369 144.013 24.5595L144.154 24.7198C144.952 24.3006 145.121 24.1034 145.121 23.6719C145.12 23.5753 145.1 23.48 145.064 23.3923C145.027 23.3046 144.973 23.2265 144.907 23.163C144.841 23.0995 144.763 23.0522 144.679 23.0241C144.594 22.996 144.506 22.9877 144.418 22.9999C144.324 22.9898 144.229 23.0006 144.139 23.0317C144.049 23.0627 143.965 23.1135 143.893 23.1808C143.821 23.2482 143.762 23.3307 143.72 23.4236C143.678 23.5164 143.654 23.6176 143.648 23.7212Z" fill="#000062"/>
<path id="Vector_17" d="M152.373 28.6158H151.299V22.2725H152.373V28.6158Z" fill="#000062"/>
<path id="Vector_18" d="M158.304 25.6075V28.6158H157.303V25.928C157.318 25.7897 157.304 25.6494 157.263 25.5176C157.222 25.3858 157.155 25.2657 157.066 25.1664C156.977 25.067 156.868 24.9908 156.749 24.9433C156.629 24.8959 156.502 24.8785 156.375 24.8924C155.899 24.9069 155.444 25.1107 155.094 25.4657V28.6158H154.087V24.0848H155.094V24.6581C155.576 24.2449 156.168 24.0136 156.78 23.9985C156.981 23.9722 157.185 23.9952 157.377 24.0659C157.569 24.1365 157.744 24.253 157.89 24.407C158.036 24.561 158.148 24.7486 158.22 24.9562C158.292 25.1638 158.32 25.3863 158.304 25.6075Z" fill="#000062"/>
<path id="Vector_19" d="M160.996 23.7705V24.0849H162.205V24.9664H160.996V28.6158H159.99V24.9664H159.377V24.0849H159.99V23.752C159.976 23.5383 160.005 23.3238 160.074 23.1237C160.144 22.9235 160.253 22.7426 160.393 22.5938C160.534 22.445 160.703 22.3319 160.888 22.2625C161.072 22.1931 161.269 22.1692 161.463 22.1924C161.778 22.1904 162.091 22.2424 162.391 22.3465L162.239 23.1047C162.058 23.0371 161.868 23.0038 161.677 23.0061C161.584 22.9983 161.491 23.013 161.404 23.0489C161.317 23.0849 161.239 23.1413 161.174 23.2142C161.109 23.287 161.06 23.3746 161.029 23.4707C160.998 23.5668 160.987 23.6692 160.996 23.7705Z" fill="#000062"/>
<path id="Vector_20" d="M167.743 26.3534C167.773 26.8578 167.665 27.3606 167.431 27.7965C167.198 28.2324 166.85 28.5814 166.434 28.798C166.017 29.0146 165.551 29.0888 165.095 29.0112C164.64 28.9335 164.216 28.7075 163.879 28.3624C163.542 28.0174 163.308 27.5692 163.206 27.0761C163.104 26.5831 163.14 26.0679 163.309 25.5974C163.477 25.1269 163.771 24.7229 164.152 24.4378C164.532 24.1527 164.982 23.9996 165.443 23.9985C165.737 23.981 166.03 24.0288 166.307 24.1388C166.583 24.2488 166.836 24.4189 167.051 24.6388C167.265 24.8588 167.437 25.124 167.556 25.4186C167.675 25.7133 167.739 26.0312 167.743 26.3534ZM164.145 26.3534C164.143 26.637 164.217 26.915 164.36 27.1519C164.502 27.3888 164.705 27.5741 164.943 27.684C165.182 27.794 165.445 27.8237 165.699 27.7694C165.953 27.7151 166.186 27.5793 166.369 27.3792C166.553 27.179 166.677 26.9236 166.728 26.6455C166.779 26.3673 166.753 26.0789 166.653 25.817C166.554 25.5551 166.386 25.3314 166.171 25.1744C165.955 25.0175 165.702 24.9343 165.443 24.9355C165.271 24.9288 165.1 24.9607 164.939 25.0293C164.778 25.0979 164.632 25.2018 164.51 25.3346C164.387 25.4673 164.29 25.6262 164.226 25.8014C164.161 25.9766 164.13 26.1644 164.134 26.3534H164.145Z" fill="#000062"/>
<path id="Vector_21" d="M171.79 24.954C171.471 24.9553 171.155 25.0312 170.864 25.1768C170.573 25.3225 170.314 25.5344 170.104 25.7986V28.6158H169.097V24.0848H170.104V24.9355C170.306 24.6545 170.562 24.4251 170.853 24.2632C171.144 24.1014 171.464 24.0111 171.79 23.9985V24.954Z" fill="#000062"/>
<path id="Vector_22" d="M176.737 24.7322C177.211 24.2508 177.835 23.988 178.48 23.9986C178.677 23.9799 178.876 24.0086 179.062 24.0828C179.248 24.157 179.417 24.2748 179.557 24.428C179.698 24.5812 179.806 24.7661 179.874 24.9698C179.942 25.1736 179.969 25.3912 179.953 25.6075V28.6158H178.941V25.9281C178.941 25.2438 178.604 24.8924 178.092 24.8924C177.642 24.8919 177.207 25.0642 176.861 25.3794C176.899 25.5822 176.918 25.7888 176.917 25.9959V28.5973H175.922V25.9281C175.94 25.7944 175.93 25.6581 175.894 25.529C175.858 25.4 175.795 25.2815 175.712 25.1822C175.628 25.0829 175.526 25.0054 175.411 24.9553C175.297 24.9051 175.174 24.8837 175.051 24.8924C174.621 24.8903 174.206 25.0639 173.887 25.3794V28.6158H172.875V24.0849H173.887V24.7013C174.322 24.2554 174.894 24.0046 175.489 23.9986C175.739 23.9784 175.99 24.0366 176.211 24.1665C176.432 24.2964 176.614 24.4926 176.737 24.7322Z" fill="#000062"/>
<path id="Vector_23" d="M185.586 24.0849V28.6158H184.608V28.0919C184.435 28.2921 184.225 28.4504 183.993 28.5566C183.76 28.6627 183.51 28.7144 183.259 28.7083C182.716 28.6652 182.208 28.3984 181.838 27.9615C181.467 27.5247 181.261 26.9501 181.261 26.3535C181.261 25.7568 181.467 25.1822 181.838 24.7454C182.208 24.3085 182.716 24.0417 183.259 23.9986C183.51 23.9925 183.76 24.0442 183.993 24.1503C184.225 24.2565 184.435 24.4148 184.608 24.615V24.0911L185.586 24.0849ZM184.608 27.124V25.5521C184.479 25.3577 184.31 25.2002 184.114 25.0929C183.919 24.9856 183.702 24.9316 183.483 24.9356C183.177 24.9856 182.897 25.1547 182.694 25.4121C182.492 25.6695 182.381 25.9981 182.381 26.338C182.381 26.678 182.492 27.0066 182.694 27.264C182.897 27.5214 183.177 27.6905 183.483 27.7405C183.702 27.7445 183.919 27.6905 184.114 27.5832C184.31 27.4759 184.479 27.3184 184.608 27.124Z" fill="#000062"/>
<path id="Vector_24" d="M189.87 28.3877C189.54 28.5925 189.169 28.7028 188.79 28.7083C188.6 28.7204 188.409 28.6876 188.231 28.6121C188.054 28.5366 187.893 28.4201 187.759 28.2705C187.626 28.1209 187.524 27.9417 187.459 27.7449C187.395 27.5482 187.369 27.3385 187.385 27.1301V24.9664H186.733V24.0848H187.385V22.8088H188.385V24.0417H189.555V24.9664H188.385V26.9575C188.376 27.0648 188.389 27.1729 188.421 27.2745C188.454 27.3761 188.506 27.4687 188.574 27.546C188.643 27.6234 188.726 27.6835 188.817 27.7224C188.909 27.7613 189.007 27.7779 189.105 27.7712C189.325 27.7729 189.543 27.718 189.74 27.611L189.87 28.3877Z" fill="#000062"/>
<path id="Vector_25" d="M192.225 22.9382C192.223 23.016 192.207 23.0924 192.177 23.1631C192.148 23.2338 192.105 23.2972 192.053 23.3495C192 23.4019 191.939 23.4421 191.872 23.4678C191.805 23.4935 191.734 23.5042 191.663 23.4992C191.565 23.4885 191.471 23.4467 191.394 23.3789C191.317 23.3111 191.259 23.2202 191.228 23.1172C191.197 23.0143 191.194 22.9036 191.219 22.7987C191.244 22.6938 191.296 22.5991 191.369 22.5261C191.443 22.4531 191.533 22.4049 191.631 22.3874C191.729 22.3699 191.829 22.3837 191.919 22.4273C192.01 22.471 192.087 22.5424 192.141 22.6331C192.196 22.7238 192.225 22.8298 192.225 22.9382ZM192.186 28.6158H191.185V24.0848H192.186V28.6158Z" fill="#000062"/>
<path id="Vector_26" d="M198.207 26.3534C198.237 26.8575 198.129 27.3601 197.895 27.7959C197.662 28.2316 197.315 28.5805 196.899 28.7973C196.483 29.014 196.017 29.0887 195.561 29.0115C195.106 28.9343 194.682 28.7089 194.345 28.3645C194.008 28.0201 193.773 27.5725 193.67 27.0799C193.568 26.5872 193.603 26.0722 193.771 25.6017C193.939 25.1311 194.232 24.7266 194.611 24.4408C194.991 24.1549 195.441 24.0008 195.902 23.9985C196.195 23.9811 196.489 24.0287 196.766 24.1387C197.042 24.2487 197.296 24.4187 197.511 24.6385C197.726 24.8583 197.898 25.1235 198.018 25.4182C198.138 25.7128 198.202 26.0309 198.207 26.3534ZM194.603 26.3534C194.601 26.637 194.676 26.915 194.818 27.1519C194.96 27.3888 195.163 27.5741 195.402 27.684C195.64 27.794 195.903 27.8237 196.157 27.7694C196.411 27.7151 196.644 27.5793 196.827 27.3792C197.011 27.179 197.136 26.9236 197.186 26.6455C197.237 26.3673 197.211 26.0789 197.112 25.817C197.012 25.555 196.844 25.3314 196.629 25.1744C196.413 25.0175 196.16 24.9343 195.902 24.9355C195.73 24.9305 195.56 24.9636 195.401 25.033C195.241 25.1024 195.097 25.2065 194.975 25.3391C194.854 25.4717 194.758 25.63 194.694 25.8044C194.63 25.9787 194.599 26.1655 194.603 26.3534Z" fill="#000062"/>
<path id="Vector_27" d="M203.778 25.6075V28.6158H202.783V25.928C202.797 25.7897 202.784 25.6494 202.743 25.5176C202.702 25.3858 202.634 25.2657 202.545 25.1663C202.456 25.067 202.348 24.9907 202.228 24.9433C202.109 24.8959 201.981 24.8785 201.855 24.8924C201.378 24.9069 200.923 25.1106 200.573 25.4657V28.6158H199.567V24.0848H200.573V24.6581C201.056 24.2449 201.647 24.0136 202.26 23.9985C202.46 23.9721 202.664 23.995 202.856 24.0657C203.047 24.1363 203.222 24.253 203.368 24.4071C203.513 24.5612 203.625 24.7489 203.696 24.9565C203.767 25.1642 203.795 25.3866 203.778 25.6075Z" fill="#000062"/>
<path id="Vector_28" d="M66.9789 35.7543H65.1293V41.062H64.0556V35.7543H62.2061V34.7433H66.9789V35.7543Z" fill="#000062"/>
<path id="Vector_29" d="M71.7518 39.1633H68.4181C68.4481 39.4893 68.5917 39.7899 68.819 40.0024C69.0464 40.215 69.3398 40.3229 69.638 40.3038C69.8639 40.3192 70.0904 40.2845 70.3038 40.2019C70.5173 40.1193 70.7134 39.9904 70.8804 39.8229L71.4426 40.3963C70.945 40.8992 70.2922 41.1767 69.6155 41.173C69.3292 41.1846 69.0436 41.1327 68.776 41.0205C68.5083 40.9083 68.2641 40.7381 68.0578 40.52C67.8516 40.3018 67.6875 40.0403 67.5756 39.7511C67.4636 39.4619 67.406 39.1508 67.4062 38.8366C67.4023 38.5239 67.4561 38.2135 67.5645 37.9241C67.6729 37.6348 67.8336 37.3725 68.0368 37.1531C68.2401 36.9336 68.4818 36.7616 68.7473 36.6473C69.0128 36.5329 69.2967 36.4787 69.5818 36.4879C69.8675 36.4751 70.1526 36.5269 70.4192 36.64C70.6859 36.7531 70.9286 36.9251 71.1321 37.1454C71.3356 37.3656 71.4956 37.6294 71.6022 37.9204C71.7088 38.2113 71.7597 38.5232 71.7518 38.8366V39.1633ZM70.7792 38.4791C70.7713 38.3165 70.7342 38.1573 70.6699 38.0106C70.6056 37.8639 70.5155 37.7326 70.4047 37.6243C70.2939 37.516 70.1646 37.4328 70.0244 37.3795C69.8841 37.3263 69.7356 37.304 69.5874 37.314C69.292 37.3005 69.0036 37.4153 68.7847 37.6334C68.5658 37.8514 68.4341 38.1553 68.4181 38.4791H70.7792Z" fill="#000062"/>
<path id="Vector_30" d="M76.9071 37.4065L76.1426 37.8811C75.9704 37.6617 75.7411 37.5053 75.4855 37.4329C75.2299 37.3606 74.9602 37.3758 74.7127 37.4765C74.4652 37.5772 74.2517 37.7585 74.101 37.9961C73.9502 38.2338 73.8694 38.5163 73.8694 38.8058C73.8694 39.0953 73.9502 39.3778 74.101 39.6155C74.2517 39.8531 74.4652 40.0345 74.7127 40.1351C74.9602 40.2358 75.2299 40.251 75.4855 40.1787C75.7411 40.1063 75.9704 39.9499 76.1426 39.7305L76.9184 40.2052C76.704 40.5092 76.4287 40.7551 76.1139 40.924C75.7991 41.0928 75.4531 41.1802 75.1026 41.1792C74.533 41.1792 73.9868 40.9311 73.5841 40.4894C73.1813 40.0478 72.9551 39.4488 72.9551 38.8243C72.9551 38.1998 73.1813 37.6008 73.5841 37.1592C73.9868 36.7175 74.533 36.4694 75.1026 36.4694C75.4489 36.4627 75.7919 36.5437 76.1049 36.7063C76.4179 36.8688 76.6925 37.1084 76.9071 37.4065Z" fill="#000062"/>
<path id="Vector_31" d="M82.4726 38.0784V41.0867H81.4776V38.3928C81.4916 38.2549 81.4774 38.1153 81.4359 37.9843C81.3944 37.8532 81.3267 37.734 81.2378 37.6353C81.1489 37.5367 81.041 37.461 80.922 37.4139C80.803 37.3669 80.6759 37.3496 80.55 37.3633C80.0747 37.3783 79.62 37.5795 79.2682 37.9304V41.0867H78.262V34.7433H79.2682V37.129C79.7507 36.7144 80.342 36.481 80.9548 36.4633C81.1558 36.4378 81.3595 36.4616 81.5512 36.5331C81.7428 36.6045 81.9175 36.7218 82.0628 36.8763C82.208 37.0309 82.3202 37.2189 82.391 37.4268C82.4619 37.6347 82.4898 37.8572 82.4726 38.0784Z" fill="#000062"/>
<path id="Vector_32" d="M88.173 38.0784V41.0867H87.1724V38.3928C87.188 38.253 87.1743 38.1111 87.1322 37.978C87.0902 37.8448 87.021 37.724 86.9299 37.6247C86.8387 37.5254 86.7281 37.4502 86.6065 37.4049C86.4848 37.3596 86.3554 37.3454 86.2279 37.3633C85.7524 37.3773 85.2974 37.5786 84.9462 37.9305V41.0867H83.9792V36.5558H84.9855V37.1291C85.468 36.7144 86.0593 36.481 86.672 36.4633C86.8716 36.4419 87.073 36.4687 87.262 36.5419C87.4511 36.615 87.6232 36.7328 87.7663 36.8867C87.9094 37.0407 88.02 37.2272 88.0903 37.4331C88.1605 37.639 88.1888 37.8593 88.173 38.0784Z" fill="#000062"/>
<path id="Vector_33" d="M94.0982 38.8366C94.1286 39.3408 94.0202 39.8433 93.787 40.2791C93.5538 40.7149 93.2065 41.0638 92.7903 41.2805C92.3741 41.4973 91.9081 41.5719 91.4528 41.4948C90.9974 41.4176 90.5737 41.1922 90.2365 40.8477C89.8994 40.5033 89.6644 40.0558 89.5621 39.5631C89.4597 39.0705 89.4947 38.5555 89.6625 38.0849C89.8303 37.6143 90.1231 37.2099 90.5031 36.924C90.883 36.6382 91.3325 36.4841 91.7933 36.4818C92.0871 36.4634 92.3813 36.5105 92.6582 36.6202C92.935 36.7298 93.1887 36.8997 93.4041 37.1198C93.6194 37.3398 93.7919 37.6053 93.9112 37.9004C94.0305 38.1954 94.0941 38.5139 94.0982 38.8366ZM90.5003 38.8366C90.497 39.1208 90.5709 39.3996 90.7126 39.6374C90.8544 39.8753 91.0576 40.0615 91.2962 40.1722C91.5349 40.2829 91.7982 40.3132 92.0526 40.2591C92.3071 40.205 92.541 40.0691 92.7246 39.8686C92.9083 39.6681 93.0333 39.4121 93.0837 39.1334C93.1342 38.8546 93.1077 38.5658 93.0078 38.3036C92.9079 38.0414 92.739 37.8178 92.5226 37.6613C92.3063 37.5048 92.0524 37.4225 91.7933 37.4249C91.6206 37.4165 91.4482 37.4469 91.2866 37.5144C91.1251 37.5819 90.9779 37.6849 90.8541 37.8172C90.7303 37.9495 90.6325 38.1082 90.5668 38.2835C90.5012 38.4589 90.4689 38.6471 90.4722 38.8366H90.5003Z" fill="#000062"/>
<path id="Vector_34" d="M96.4423 41.0867H95.436V34.7433H96.4423V41.0867Z" fill="#000062"/>
<path id="Vector_35" d="M102.407 38.8366C102.438 39.3408 102.329 39.8433 102.096 40.2791C101.863 40.7149 101.516 41.0638 101.099 41.2805C100.683 41.4973 100.217 41.5719 99.7618 41.4948C99.3065 41.4176 98.8828 41.1922 98.5456 40.8477C98.2085 40.5033 97.9735 40.0558 97.8712 39.5631C97.7688 39.0705 97.8038 38.5555 97.9716 38.0849C98.1394 37.6143 98.4322 37.2099 98.8122 36.924C99.1921 36.6382 99.6416 36.4841 100.102 36.4818C100.396 36.4634 100.69 36.5105 100.967 36.6202C101.244 36.7298 101.498 36.8997 101.713 37.1198C101.929 37.3398 102.101 37.6053 102.22 37.9004C102.34 38.1954 102.403 38.5139 102.407 38.8366ZM98.8038 38.8366C98.7993 39.1222 98.8726 39.4028 99.0143 39.6425C99.156 39.8822 99.3596 40.0701 99.5992 40.1823C99.8388 40.2944 100.103 40.3257 100.359 40.272C100.615 40.2184 100.851 40.0824 101.036 39.8813C101.221 39.6802 101.347 39.4232 101.398 39.1431C101.449 38.863 101.423 38.5725 101.323 38.3089C101.222 38.0452 101.053 37.8202 100.835 37.6628C100.618 37.5053 100.363 37.4225 100.102 37.4249C99.9315 37.4199 99.7615 37.4529 99.6027 37.5219C99.4438 37.5909 99.2993 37.6945 99.1779 37.8264C99.0566 37.9584 98.9608 38.1159 98.8965 38.2895C98.8322 38.4631 98.8007 38.6493 98.8038 38.8366Z" fill="#000062"/>
<path id="Vector_36" d="M107.905 36.5557V40.7415C107.905 42.3011 106.966 42.9607 105.769 42.9607C105.037 42.9688 104.317 42.7555 103.689 42.3443L104.009 41.5737C104.495 41.9062 105.056 42.0795 105.628 42.073C105.799 42.1006 105.972 42.085 106.136 42.0273C106.3 41.9697 106.45 41.8716 106.573 41.7406C106.697 41.6096 106.792 41.4491 106.85 41.2716C106.909 41.0941 106.929 40.9043 106.91 40.7168V40.5195C106.736 40.7206 106.526 40.8793 106.292 40.9855C106.059 41.0917 105.808 41.143 105.555 41.136C105.007 41.1052 104.49 40.8446 104.112 40.4081C103.734 39.9716 103.523 39.3925 103.523 38.7904C103.523 38.1883 103.734 37.6092 104.112 37.1727C104.49 36.7362 105.007 36.4756 105.555 36.4448C105.808 36.4382 106.059 36.4896 106.292 36.5958C106.526 36.702 106.736 36.8605 106.91 37.0612V36.5557H107.905ZM106.91 39.638V38.0167C106.782 37.822 106.613 37.6642 106.417 37.5569C106.221 37.4495 106.005 37.3958 105.786 37.4003C105.465 37.4332 105.167 37.5961 104.95 37.8572C104.734 38.1183 104.613 38.4588 104.613 38.812C104.613 39.1651 104.734 39.5056 104.95 39.7667C105.167 40.0278 105.465 40.1907 105.786 40.2236C106.005 40.2271 106.221 40.1729 106.417 40.0657C106.612 39.9584 106.781 39.8012 106.91 39.6072V39.638Z" fill="#000062"/>
<path id="Vector_37" d="M111.7 41.5305C111.346 42.4984 110.823 42.9422 110.064 42.9422C109.679 42.936 109.298 42.8525 108.94 42.6956L109.277 41.9189C109.491 42.0165 109.72 42.0708 109.952 42.0792C110.34 42.0792 110.587 41.8696 110.84 41.3579L110.902 41.21L109.069 36.5372H110.126L111.351 39.8784L112.476 36.5372H113.521L111.7 41.5305Z" fill="#000062"/>
<path id="Vector_38" d="M122.404 35.9392L121.51 36.5557C121.298 36.2866 121.029 36.0797 120.726 35.954C120.424 35.8283 120.097 35.7877 119.776 35.8359C119.455 35.8842 119.151 36.0197 118.89 36.2302C118.629 36.4406 118.421 36.7193 118.283 37.0408C118.146 37.3624 118.084 37.7165 118.104 38.0709C118.123 38.4253 118.223 38.7687 118.395 39.0698C118.566 39.3709 118.804 39.6201 119.086 39.7948C119.368 39.9694 119.685 40.0638 120.009 40.0695C120.299 40.0663 120.584 39.9915 120.844 39.8506C121.104 39.7097 121.331 39.5064 121.51 39.2558L122.404 39.8722C122.026 40.417 121.503 40.8183 120.906 41.0194C120.31 41.2204 119.671 41.2112 119.08 40.993C118.489 40.7747 117.975 40.3585 117.611 39.8029C117.247 39.2474 117.051 38.5806 117.051 37.8965C117.051 37.2124 117.247 36.5456 117.611 35.99C117.975 35.4345 118.489 35.0182 119.08 34.8C119.671 34.5818 120.31 34.5725 120.906 34.7736C121.503 34.9747 122.026 35.3759 122.404 35.9207V35.9392Z" fill="#000062"/>
<path id="Vector_39" d="M128.104 38.8366C128.134 39.3408 128.026 39.8433 127.793 40.2791C127.56 40.7149 127.212 41.0638 126.796 41.2805C126.38 41.4973 125.914 41.5719 125.459 41.4948C125.003 41.4176 124.58 41.1922 124.242 40.8477C123.905 40.5033 123.67 40.0558 123.568 39.5631C123.466 39.0705 123.501 38.5555 123.668 38.0849C123.836 37.6143 124.129 37.2099 124.509 36.924C124.889 36.6382 125.338 36.4841 125.799 36.4818C126.093 36.4634 126.387 36.5105 126.664 36.6202C126.941 36.7298 127.195 36.8997 127.41 37.1198C127.625 37.3398 127.798 37.6053 127.917 37.9004C128.036 38.1954 128.1 38.5139 128.104 38.8366ZM124.501 38.8366C124.496 39.1222 124.569 39.4028 124.711 39.6425C124.853 39.8822 125.056 40.0701 125.296 40.1823C125.536 40.2944 125.8 40.3257 126.056 40.272C126.312 40.2184 126.547 40.0824 126.732 39.8813C126.917 39.6802 127.043 39.4232 127.095 39.1431C127.146 38.863 127.119 38.5725 127.019 38.3089C126.919 38.0452 126.75 37.8202 126.532 37.6628C126.315 37.5053 126.06 37.4225 125.799 37.4249C125.628 37.4199 125.458 37.4529 125.299 37.5219C125.141 37.5909 124.996 37.6945 124.875 37.8264C124.753 37.9584 124.658 38.1159 124.593 38.2895C124.529 38.4631 124.497 38.6493 124.501 38.8366Z" fill="#000062"/>
<path id="Vector_40" d="M133.304 37.1969C133.781 36.7178 134.406 36.4556 135.052 36.4633C135.25 36.4455 135.448 36.475 135.634 36.55C135.82 36.6249 135.988 36.7434 136.128 36.8972C136.268 37.051 136.375 37.2364 136.443 37.4404C136.51 37.6444 136.537 37.8621 136.52 38.0784V41.0867H135.513V38.3928C135.531 38.2611 135.522 38.1267 135.486 37.9993C135.451 37.8719 135.39 37.7548 135.308 37.6563C135.227 37.5579 135.126 37.4805 135.014 37.4298C134.901 37.3792 134.78 37.3564 134.659 37.3633C134.211 37.3632 133.777 37.5355 133.433 37.8503C133.472 38.053 133.491 38.2597 133.49 38.4668V41.0682H132.489V38.3928C132.506 38.2607 132.495 38.1262 132.459 37.9989C132.423 37.8715 132.362 37.7545 132.28 37.6562C132.197 37.5579 132.097 37.4807 131.984 37.43C131.872 37.3794 131.75 37.3566 131.629 37.3633C131.199 37.3623 130.785 37.5358 130.465 37.8503V41.0867H129.459V36.5558H130.465V37.1722C130.899 36.7245 131.471 36.4716 132.067 36.4633C132.315 36.4462 132.563 36.5059 132.782 36.6357C133 36.7654 133.181 36.9598 133.304 37.1969Z" fill="#000062"/>
<path id="Vector_41" d="M141.849 37.1969C142.323 36.7177 142.947 36.4553 143.592 36.4633C143.789 36.4455 143.987 36.475 144.173 36.55C144.359 36.6249 144.528 36.7434 144.667 36.8972C144.807 37.051 144.914 37.2364 144.982 37.4404C145.05 37.6444 145.076 37.8621 145.059 38.0784V41.0867H144.053V38.3928C144.07 38.2616 144.061 38.1278 144.026 38.0009C143.991 37.874 143.93 37.7572 143.849 37.6588C143.768 37.5605 143.668 37.483 143.557 37.4319C143.445 37.3808 143.325 37.3574 143.204 37.3633C142.754 37.3617 142.318 37.5342 141.973 37.8503C142.011 38.053 142.03 38.2597 142.029 38.4668V41.0682H141.028V38.3928C141.044 38.2634 141.035 38.1316 141 38.0066C140.966 37.8815 140.907 37.7662 140.828 37.6684C140.749 37.5706 140.651 37.4927 140.542 37.44C140.433 37.3874 140.315 37.3612 140.196 37.3633C139.767 37.3629 139.352 37.5363 139.032 37.8503V41.0867H138.026V36.5558H139.032V37.1722C139.467 36.7245 140.038 36.4716 140.635 36.4633C140.879 36.4523 141.121 36.5149 141.335 36.6442C141.549 36.7735 141.727 36.9647 141.849 37.1969Z" fill="#000062"/>
<path id="Vector_42" d="M147.662 35.403C147.633 35.5392 147.564 35.6608 147.464 35.7479C147.365 35.835 147.241 35.8825 147.114 35.8825C146.986 35.8825 146.863 35.835 146.763 35.7479C146.663 35.6608 146.594 35.5392 146.565 35.403C146.594 35.2668 146.663 35.1452 146.763 35.0581C146.863 34.971 146.986 34.9235 147.114 34.9235C147.241 34.9235 147.365 34.971 147.464 35.0581C147.564 35.1452 147.633 35.2668 147.662 35.403ZM147.622 41.0867H146.622V36.5558H147.622V41.0867Z" fill="#000062"/>
<path id="Vector_43" d="M152.446 36.9872L152.108 37.7023C151.686 37.4378 151.211 37.2917 150.725 37.277C150.281 37.277 150.051 37.4434 150.051 37.7763C150.051 38.1092 150.191 38.14 150.759 38.3126L151.22 38.4482C152.198 38.738 152.558 39.0955 152.558 39.7675C152.558 40.6736 151.923 41.1976 150.832 41.1976C150.15 41.2018 149.482 40.9875 148.91 40.5812L149.258 39.8846C149.741 40.2144 150.297 40.3935 150.866 40.4024C151.372 40.4024 151.619 40.2175 151.619 39.8353C151.619 39.564 151.496 39.4654 150.973 39.3051L150.456 39.151C149.444 38.8428 149.09 38.5345 149.09 37.8626C149.09 36.9934 149.719 36.4756 150.776 36.4756C151.364 36.4811 151.94 36.6577 152.446 36.9872Z" fill="#000062"/>
<path id="Vector_44" d="M157.118 36.9872L156.78 37.7023C156.36 37.4379 155.887 37.2917 155.403 37.277C154.953 37.277 154.723 37.4434 154.723 37.7763C154.723 38.1092 154.863 38.14 155.437 38.3126L155.898 38.4482C156.87 38.738 157.236 39.0955 157.236 39.7675C157.236 40.6736 156.6 41.1976 155.51 41.1976C154.828 41.2018 154.16 40.9875 153.587 40.5812L153.93 39.8846C154.415 40.2135 154.973 40.3924 155.544 40.4024C156.044 40.4024 156.297 40.2175 156.297 39.8353C156.297 39.564 156.168 39.4654 155.65 39.3051L155.128 39.151C154.121 38.8428 153.767 38.5345 153.767 37.8626C153.767 36.9934 154.397 36.4756 155.425 36.4756C156.021 36.4767 156.606 36.6534 157.118 36.9872Z" fill="#000062"/>
<path id="Vector_45" d="M159.698 35.403C159.698 35.5664 159.639 35.7232 159.533 35.8389C159.428 35.9545 159.285 36.0194 159.136 36.0194C158.987 36.0194 158.844 35.9545 158.738 35.8389C158.633 35.7232 158.573 35.5664 158.573 35.403C158.573 35.2395 158.633 35.0827 158.738 34.9671C158.844 34.8514 158.987 34.7865 159.136 34.7865C159.285 34.7865 159.428 34.8514 159.533 34.9671C159.639 35.0827 159.698 35.2395 159.698 35.403ZM159.653 41.0867H158.658V36.5557H159.653V41.0867Z" fill="#000062"/>
<path id="Vector_46" d="M165.679 38.8366C165.71 39.3408 165.601 39.8433 165.368 40.2791C165.135 40.7149 164.788 41.0638 164.372 41.2805C163.955 41.4973 163.489 41.5719 163.034 41.4948C162.579 41.4176 162.155 41.1922 161.818 40.8477C161.481 40.5033 161.246 40.0558 161.143 39.5631C161.041 39.0705 161.076 38.5555 161.244 38.0849C161.412 37.6143 161.704 37.2099 162.084 36.924C162.464 36.6382 162.914 36.4841 163.375 36.4818C163.668 36.4634 163.963 36.5105 164.239 36.6202C164.516 36.7298 164.77 36.8997 164.985 37.1198C165.201 37.3398 165.373 37.6053 165.493 37.9004C165.612 38.1954 165.675 38.5139 165.679 38.8366ZM162.076 38.8366C162.073 39.1205 162.146 39.3991 162.288 39.6368C162.429 39.8745 162.632 40.0607 162.871 40.1716C163.109 40.2825 163.372 40.3132 163.626 40.2596C163.88 40.206 164.114 40.0707 164.298 39.8708C164.482 39.6709 164.608 39.4155 164.659 39.1372C164.71 38.8589 164.684 38.5702 164.585 38.3079C164.486 38.0456 164.318 37.8215 164.102 37.6643C163.887 37.5071 163.633 37.4237 163.375 37.4249C163.204 37.4199 163.034 37.4529 162.875 37.5219C162.716 37.5909 162.571 37.6945 162.45 37.8264C162.329 37.9584 162.233 38.1159 162.169 38.2895C162.104 38.4631 162.073 38.6493 162.076 38.8366Z" fill="#000062"/>
<path id="Vector_47" d="M171.25 38.0784V41.0867H170.255V38.3928C170.269 38.2549 170.255 38.1153 170.214 37.9843C170.172 37.8532 170.105 37.734 170.016 37.6353C169.927 37.5366 169.819 37.461 169.7 37.4139C169.581 37.3669 169.454 37.3496 169.328 37.3633C168.853 37.3783 168.398 37.5795 168.046 37.9304V41.0867H167.04V36.5557H168.046V37.129C168.529 36.7144 169.12 36.4809 169.733 36.4632C169.933 36.4389 170.137 36.4636 170.328 36.5354C170.519 36.6073 170.693 36.7245 170.838 36.8788C170.983 37.0332 171.096 37.2207 171.167 37.4281C171.238 37.6354 171.267 37.8575 171.25 38.0784Z" fill="#000062"/>
<path id="Vector_48" d="M67.395 10.868C67.559 10.868 67.7163 10.7966 67.8323 10.6694C67.9482 10.5423 68.0134 10.3698 68.0134 10.1899C68.0134 10.0101 67.9482 9.83762 67.8323 9.71045C67.7163 9.58328 67.559 9.51184 67.395 9.51184C67.231 9.51184 67.0737 9.58328 66.9577 9.71045C66.8418 9.83762 66.7766 10.0101 66.7766 10.1899C66.7766 10.3698 66.8418 10.5423 66.9577 10.6694C67.0737 10.7966 67.231 10.868 67.395 10.868Z" fill="#000062"/>
<path id="Vector_49" d="M65.7197 10.8681C65.8415 10.8656 65.96 10.8238 66.0602 10.7478C66.1604 10.6719 66.2379 10.5651 66.283 10.441C66.3281 10.3169 66.3387 10.181 66.3136 10.0503C66.2885 9.91955 66.2287 9.79988 66.1418 9.70627C66.0549 9.61267 65.9447 9.5493 65.8251 9.52412C65.7054 9.49894 65.5817 9.51307 65.4693 9.56473C65.357 9.6164 65.2611 9.7033 65.1936 9.81453C65.1261 9.92576 65.0901 10.0564 65.0901 10.19C65.0893 10.2803 65.1052 10.3699 65.1367 10.4533C65.1682 10.5368 65.2147 10.6125 65.2735 10.6758C65.3323 10.7391 65.4021 10.7887 65.4788 10.8218C65.5554 10.8548 65.6374 10.8705 65.7197 10.8681Z" fill="#000062"/>
<path id="Vector_50" d="M69.8516 13.8332C69.3362 14.0433 68.7875 14.1376 68.2382 14.1106H64.7639C63.797 14.1106 63.218 13.6914 63.218 12.6681C63.2274 12.2879 63.2822 11.9107 63.381 11.5461L62.4478 11.355C62.2944 11.8857 62.213 12.4382 62.2061 12.9948C62.2061 14.7394 63.2461 15.2695 64.6965 15.2695H68.0695C69.035 15.322 69.9981 15.1234 70.8804 14.6901V10.5536H69.8572L69.8516 13.8332Z" fill="#000062"/>
<path id="Vector_51" d="M78.1045 10.8373C77.8095 10.8273 77.5159 10.8848 77.2424 11.0061C76.9688 11.1274 76.7213 11.3098 76.5156 11.5418C76.3098 11.7738 76.1504 12.0502 76.0475 12.3534C75.9445 12.6567 75.9003 12.9801 75.9176 13.3031C75.9173 13.5105 75.9381 13.7172 75.9795 13.9196C75.6212 14.0716 75.2392 14.1449 74.8551 14.1353C74.3961 14.1441 73.941 14.041 73.5228 13.8333V8.38995H72.4996V13.9874C72.4822 14.1473 72.5129 14.3091 72.5869 14.4481C72.661 14.5872 72.7744 14.696 72.91 14.7579C73.4405 15.0709 74.0302 15.2439 74.6324 15.2632C75.2345 15.2824 75.8324 15.1474 76.3786 14.8689C76.6688 15.2521 77.0603 15.527 77.4991 15.6557C77.9379 15.7844 78.4023 15.7604 78.8281 15.5872C79.254 15.4139 79.6202 15.0999 79.8763 14.6886C80.1324 14.2772 80.2656 13.7888 80.2576 13.2908C80.273 12.9719 80.2285 12.653 80.1269 12.3538C80.0253 12.0546 79.8687 11.7815 79.6668 11.5515C79.4649 11.3214 79.222 11.1393 78.9533 11.0164C78.6845 10.8936 78.3956 10.8326 78.1045 10.8373ZM78.1045 14.6531C77.9453 14.6537 77.7877 14.618 77.6416 14.5484C77.4956 14.4788 77.3643 14.3768 77.256 14.2488C77.1478 14.1208 77.0648 13.9696 77.0125 13.8047C76.9602 13.6398 76.9396 13.4648 76.952 13.2908C76.936 13.1127 76.9542 12.9328 77.0054 12.7629C77.0567 12.593 77.1397 12.4367 77.2493 12.3041C77.359 12.1715 77.4927 12.0655 77.6419 11.993C77.7911 11.9204 77.9525 11.883 78.1157 11.883C78.2789 11.883 78.4403 11.9204 78.5896 11.993C78.7388 12.0655 78.8725 12.1715 78.9821 12.3041C79.0917 12.4367 79.1748 12.593 79.226 12.7629C79.2772 12.9328 79.2954 13.1127 79.2794 13.2908C79.2913 13.4683 79.269 13.6466 79.2141 13.8141C79.1591 13.9816 79.0726 14.1345 78.9602 14.263C78.8478 14.3914 78.712 14.4926 78.5617 14.5598C78.4114 14.627 78.2499 14.6588 78.0876 14.6531H78.1045Z" fill="#000062"/>
<path id="Vector_52" d="M104.054 13.8086C103.636 14.0161 103.181 14.1193 102.722 14.1107C102.355 14.1164 101.99 14.0431 101.648 13.8949C101.692 13.6931 101.713 13.486 101.71 13.2784C101.725 12.9545 101.68 12.6307 101.577 12.3265C101.474 12.0224 101.316 11.7443 101.113 11.5092C100.909 11.2742 100.664 11.087 100.392 10.9591C100.12 10.8312 99.8274 10.7652 99.5316 10.7652C99.2358 10.7652 98.9432 10.8312 98.6714 10.9591C98.3996 11.087 98.1543 11.2742 97.9506 11.5092C97.7468 11.7443 97.5888 12.0224 97.4861 12.3265C97.3834 12.6307 97.3382 12.9545 97.3532 13.2784C97.3511 13.4856 97.37 13.6923 97.4094 13.8949C97.0707 14.0385 96.71 14.1096 96.3469 14.1045H94.548C94.8591 13.8857 95.1163 13.5862 95.2967 13.2324C95.4771 12.8787 95.5752 12.4816 95.5823 12.0764C95.5823 10.8434 94.6885 10.227 93.418 10.227C92.6355 10.2428 91.8665 10.4536 91.1693 10.8434L90.995 11.7126L92.378 14.0798H90.5509C90.0935 14.0907 89.6398 13.9874 89.2242 13.7778V8.38995H88.201V13.8086C87.7834 14.0181 87.3279 14.1214 86.8687 14.1107H85.5645V11.1578C84.9797 10.8277 84.3332 10.6505 83.6756 10.64C82.2364 10.64 81.3201 11.5709 81.3201 12.9702C81.3201 14.3696 82.2027 15.2696 83.7936 15.2696H84.5413C84.4907 16.1819 84.0578 16.6443 83.0572 16.6443C82.5841 16.6416 82.1147 16.552 81.6686 16.3792L81.4887 17.4457C81.9838 17.6255 82.5019 17.7171 83.0234 17.7169C84.4064 17.7169 85.4464 17.0388 85.5532 15.2511H86.8687C87.5118 15.2537 88.1447 15.0754 88.707 14.7333C89.2401 15.0553 89.8357 15.2328 90.4441 15.2511H96.4762C96.9599 15.2414 97.4343 15.104 97.8591 14.8504C98.0702 15.119 98.3317 15.3345 98.6256 15.4822C98.9196 15.63 99.2392 15.7064 99.5625 15.7064C99.8859 15.7064 100.205 15.63 100.499 15.4822C100.793 15.3345 101.055 15.119 101.266 14.8504C101.885 15.1889 102.582 15.3146 103.267 15.2112C103.952 15.1079 104.593 14.7801 105.106 14.2709V8.38995H104.082L104.054 13.8086ZM84.5413 14.1107H83.6306C82.8829 14.1107 82.332 13.6853 82.332 12.8777C82.3304 12.7002 82.3638 12.5244 82.4298 12.3624C82.4959 12.2003 82.5931 12.0558 82.7148 11.9387C82.8365 11.8217 82.9798 11.7348 83.135 11.6841C83.2901 11.6334 83.4534 11.62 83.6137 11.6448C83.9352 11.6437 84.2526 11.7239 84.5413 11.8791V14.1107ZM93.3168 13.938L92.1643 11.651C92.5535 11.4438 92.9798 11.3343 93.4124 11.3304C94.1376 11.3304 94.5873 11.688 94.5873 12.3353C94.5433 12.7148 94.3958 13.0709 94.164 13.3569C93.9323 13.6429 93.6272 13.8455 93.2887 13.938H93.3168ZM99.5457 14.6531C99.3888 14.6495 99.2343 14.6107 99.0916 14.5393C98.9489 14.4678 98.821 14.3652 98.7157 14.2377C98.6105 14.1101 98.5301 13.9603 98.4794 13.7975C98.4288 13.6347 98.409 13.4623 98.4213 13.2908C98.4053 13.1127 98.4235 12.9328 98.4747 12.7629C98.5259 12.593 98.609 12.4367 98.7186 12.3041C98.8282 12.1715 98.962 12.0655 99.1112 11.993C99.2604 11.9204 99.4218 11.883 99.585 11.883C99.7482 11.883 99.9096 11.9204 100.059 11.993C100.208 12.0655 100.342 12.1715 100.451 12.3041C100.561 12.4367 100.644 12.593 100.695 12.7629C100.746 12.9328 100.765 13.1127 100.749 13.2908C100.761 13.4721 100.738 13.6543 100.681 13.8249C100.623 13.9955 100.533 14.1507 100.416 14.2799C100.3 14.409 100.159 14.5092 100.004 14.5736C99.8489 14.638 99.683 14.6651 99.5175 14.6531H99.5457Z" fill="#000062"/>
<path id="Vector_53" d="M107.838 8.38995H106.814V15.2696H107.838V8.38995Z" fill="#000062"/>
<path id="Vector_54" d="M114.55 9.6413C114.714 9.6413 114.871 9.56985 114.987 9.44269C115.103 9.31552 115.168 9.14304 115.168 8.9632C115.168 8.78335 115.103 8.61087 114.987 8.48371C114.871 8.35654 114.714 8.2851 114.55 8.2851C114.386 8.2851 114.229 8.35654 114.113 8.48371C113.997 8.61087 113.932 8.78335 113.932 8.9632C113.932 9.14304 113.997 9.31552 114.113 9.44269C114.229 9.56985 114.386 9.6413 114.55 9.6413Z" fill="#000062"/>
<path id="Vector_55" d="M112.869 9.64133C112.991 9.64011 113.11 9.59931 113.211 9.52406C113.312 9.44882 113.39 9.34249 113.436 9.21848C113.482 9.09447 113.494 8.95833 113.469 8.8272C113.445 8.69607 113.385 8.57582 113.299 8.4816C113.212 8.38738 113.102 8.32341 112.982 8.29774C112.862 8.27207 112.738 8.28586 112.625 8.33736C112.513 8.38886 112.416 8.47577 112.349 8.58715C112.281 8.69852 112.245 8.82938 112.245 8.96323C112.244 9.05303 112.26 9.14209 112.291 9.22515C112.322 9.3082 112.368 9.38357 112.426 9.44678C112.484 9.51 112.554 9.55979 112.63 9.5932C112.706 9.62662 112.787 9.64298 112.869 9.64133Z" fill="#000062"/>
<path id="Vector_56" d="M117.906 15.9538C117.783 15.9526 117.663 15.9913 117.561 16.0651C117.458 16.1389 117.378 16.2443 117.331 16.3681C117.283 16.4919 117.27 16.6285 117.293 16.7604C117.316 16.8923 117.375 17.0137 117.461 17.1092C117.547 17.2046 117.658 17.2698 117.778 17.2965C117.898 17.3232 118.022 17.3101 118.136 17.259C118.249 17.2078 118.346 17.1209 118.414 17.0093C118.482 16.8976 118.519 16.7663 118.519 16.6319C118.52 16.5432 118.504 16.4551 118.474 16.3729C118.443 16.2907 118.398 16.2159 118.341 16.1528C118.284 16.0898 118.217 16.0397 118.142 16.0056C118.067 15.9714 117.987 15.9538 117.906 15.9538Z" fill="#000062"/>
<path id="Vector_57" d="M119.581 15.9538C119.428 15.9699 119.286 16.0479 119.183 16.1728C119.079 16.2976 119.022 16.4602 119.022 16.6288C119.022 16.7975 119.079 16.9601 119.183 17.0849C119.286 17.2097 119.428 17.2878 119.581 17.3039C119.667 17.3129 119.754 17.3021 119.836 17.2723C119.917 17.2424 119.993 17.1942 120.056 17.1306C120.12 17.0671 120.171 16.9896 120.206 16.9032C120.241 16.8168 120.259 16.7233 120.259 16.6288C120.259 16.5344 120.241 16.4409 120.206 16.3545C120.171 16.2681 120.12 16.1906 120.056 16.127C119.993 16.0635 119.917 16.0152 119.836 15.9854C119.754 15.9556 119.667 15.9448 119.581 15.9538Z" fill="#000062"/>
<path id="Vector_58" d="M122.426 9.6968C122.506 9.69762 122.586 9.681 122.66 9.64791C122.734 9.61481 122.802 9.5659 122.859 9.504C122.916 9.44209 122.961 9.36842 122.992 9.28724C123.023 9.20607 123.039 9.11898 123.039 9.03103C123.041 8.94096 123.027 8.85129 122.997 8.76728C122.967 8.68327 122.923 8.6066 122.866 8.54174C122.809 8.47688 122.74 8.42515 122.665 8.38956C122.589 8.35396 122.508 8.33522 122.426 8.33444C122.342 8.33362 122.259 8.35107 122.182 8.38579C122.105 8.4205 122.034 8.47178 121.975 8.53663C121.916 8.60148 121.869 8.6786 121.838 8.76349C121.806 8.84837 121.79 8.93933 121.791 9.03103C121.792 9.12062 121.81 9.209 121.843 9.29107C121.875 9.37313 121.923 9.44726 121.982 9.50917C122.041 9.57108 122.111 9.61953 122.187 9.65174C122.263 9.68395 122.344 9.69926 122.426 9.6968Z" fill="#000062"/>
<path id="Vector_59" d="M128.16 9.24674C128.283 9.24796 128.403 9.20923 128.505 9.13547C128.608 9.0617 128.688 8.95623 128.735 8.83243C128.783 8.70864 128.796 8.57211 128.773 8.44017C128.75 8.30822 128.691 8.18682 128.605 8.09137C128.519 7.99592 128.409 7.93072 128.288 7.90405C128.168 7.87738 128.044 7.89045 127.93 7.94159C127.817 7.99272 127.72 8.07963 127.652 8.19127C127.584 8.30291 127.547 8.43426 127.547 8.56864C127.547 8.65739 127.562 8.74543 127.592 8.82767C127.623 8.9099 127.668 8.98471 127.725 9.04776C127.782 9.11081 127.85 9.16085 127.924 9.19501C127.999 9.22916 128.079 9.24674 128.16 9.24674Z" fill="#000062"/>
<path id="Vector_60" d="M126.485 9.24676C126.649 9.24676 126.806 9.17532 126.922 9.04815C127.038 8.92099 127.103 8.74851 127.103 8.56866C127.103 8.38882 127.038 8.21634 126.922 8.08918C126.806 7.96201 126.649 7.89056 126.485 7.89056C126.321 7.89056 126.164 7.96201 126.048 8.08918C125.932 8.21634 125.866 8.38882 125.866 8.56866C125.866 8.74851 125.932 8.92099 126.048 9.04815C126.164 9.17532 126.321 9.24676 126.485 9.24676Z" fill="#000062"/>
<path id="Vector_61" d="M131.37 9.69684C131.533 9.69684 131.688 9.62604 131.803 9.50003C131.918 9.37402 131.983 9.20311 131.983 9.0249C131.983 8.84669 131.918 8.67578 131.803 8.54977C131.688 8.42376 131.533 8.35297 131.37 8.35297C131.208 8.35297 131.052 8.42376 130.937 8.54977C130.822 8.67578 130.757 8.84669 130.757 9.0249C130.757 9.20311 130.822 9.37402 130.937 9.50003C131.052 9.62604 131.208 9.69684 131.37 9.69684Z" fill="#000062"/>
<path id="Vector_62" d="M131.724 13.864C131.254 14.049 130.756 14.1327 130.257 14.1106H128.621C128.895 13.8964 129.118 13.6144 129.273 13.2877C129.429 12.9611 129.511 12.5988 129.515 12.2304C129.515 10.9359 128.627 10.0728 127.339 10.0728C126.052 10.0728 125.158 10.9235 125.158 12.2304C125.16 12.596 125.238 12.9562 125.389 13.2826C125.539 13.6089 125.756 13.8924 126.024 14.1106H124.27C123.814 14.1207 123.363 14.0174 122.949 13.8085V10.5537H121.926V13.8085C121.508 14.018 121.053 14.1213 120.593 14.1106C120.138 14.1214 119.686 14.0181 119.272 13.8085V10.5537H118.249V13.8085C117.831 14.0174 117.376 14.1207 116.917 14.1106H115.607V10.979C115.028 10.6435 114.384 10.4659 113.729 10.4612C112.318 10.4612 111.379 11.3859 111.379 12.8654C111.379 14.3448 112.352 15.2695 113.847 15.2695H116.928C117.567 15.2684 118.196 15.0903 118.755 14.7517C119.319 15.09 119.951 15.2673 120.593 15.2673C121.236 15.2673 121.868 15.09 122.432 14.7517C122.992 15.0936 123.623 15.2719 124.264 15.2695H130.409C131.239 15.287 132.058 15.0477 132.77 14.5791V10.5537H131.747L131.724 13.864ZM114.567 14.1106H113.679C113.517 14.126 113.354 14.1049 113.2 14.0485C113.046 13.9922 112.904 13.9018 112.784 13.7829C112.663 13.6641 112.566 13.5193 112.498 13.3575C112.43 13.1958 112.393 13.0205 112.39 12.8426C112.386 12.6646 112.416 12.4878 112.478 12.323C112.539 12.1583 112.631 12.0091 112.747 11.8846C112.863 11.7602 113.001 11.6633 113.152 11.5997C113.304 11.5362 113.466 11.5075 113.628 11.5153C113.953 11.5125 114.275 11.5927 114.567 11.7496V14.1106ZM127.317 13.9565C127.001 13.8481 126.721 13.64 126.512 13.3583C126.303 13.0765 126.174 12.7336 126.142 12.3722C126.162 12.0515 126.293 11.7512 126.507 11.5319C126.722 11.3127 127.004 11.1907 127.297 11.1907C127.59 11.1907 127.873 11.3127 128.087 11.5319C128.302 11.7512 128.432 12.0515 128.453 12.3722C128.423 12.7284 128.3 13.0676 128.099 13.3488C127.897 13.63 127.626 13.8411 127.317 13.9565Z" fill="#000062"/>
<path id="Vector_63" d="M133.057 8.35297C132.894 8.35297 132.738 8.42376 132.623 8.54977C132.508 8.67578 132.444 8.84669 132.444 9.0249C132.444 9.20311 132.508 9.37402 132.623 9.50003C132.738 9.62604 132.894 9.69684 133.057 9.69684C133.219 9.69684 133.375 9.62604 133.49 9.50003C133.605 9.37402 133.669 9.20311 133.669 9.0249C133.669 8.84669 133.605 8.67578 133.49 8.54977C133.375 8.42376 133.219 8.35297 133.057 8.35297Z" fill="#000062"/>
<path id="Vector_64" d="M134.012 12.9455C134.012 14.2832 134.895 15.2449 136.486 15.2449H137.233C137.183 16.1572 136.75 16.6196 135.749 16.6196C135.276 16.6169 134.807 16.5273 134.361 16.3545L134.181 17.421C134.676 17.6008 135.194 17.6924 135.716 17.6922C137.183 17.6922 138.257 16.9278 138.257 14.912V11.1578C137.672 10.8276 137.025 10.6504 136.368 10.64C134.945 10.64 134.012 11.5708 134.012 12.9455ZM137.233 14.0859H136.323C135.575 14.0859 135.024 13.6606 135.024 12.853C135.023 12.6755 135.056 12.4997 135.122 12.3377C135.188 12.1756 135.285 12.0311 135.407 11.914C135.529 11.797 135.672 11.7101 135.827 11.6594C135.982 11.6086 136.146 11.5953 136.306 11.6201C136.627 11.619 136.945 11.6991 137.233 11.8544V14.0859Z" fill="#000062"/>
<path id="Vector_65" d="M147.055 10.868C147.219 10.868 147.376 10.7966 147.492 10.6694C147.608 10.5423 147.673 10.3698 147.673 10.1899C147.673 10.0101 147.608 9.83762 147.492 9.71045C147.376 9.58328 147.219 9.51184 147.055 9.51184C146.891 9.51184 146.733 9.58328 146.617 9.71045C146.501 9.83762 146.436 10.0101 146.436 10.1899C146.436 10.3698 146.501 10.5423 146.617 10.6694C146.733 10.7966 146.891 10.868 147.055 10.868Z" fill="#000062"/>
<path id="Vector_66" d="M145.379 10.8681C145.501 10.8656 145.62 10.8238 145.72 10.7478C145.82 10.6719 145.898 10.5651 145.943 10.441C145.988 10.3169 145.998 10.181 145.973 10.0503C145.948 9.91955 145.888 9.79988 145.801 9.70627C145.715 9.61267 145.604 9.5493 145.485 9.52412C145.365 9.49894 145.241 9.51307 145.129 9.56473C145.017 9.6164 144.921 9.7033 144.853 9.81453C144.786 9.92576 144.75 10.0564 144.75 10.19C144.749 10.2803 144.765 10.3699 144.796 10.4533C144.828 10.5368 144.874 10.6125 144.933 10.6758C144.992 10.7391 145.062 10.7887 145.138 10.8218C145.215 10.8548 145.297 10.8705 145.379 10.8681Z" fill="#000062"/>
<path id="Vector_67" d="M149.511 13.8332C148.996 14.0433 148.447 14.1376 147.898 14.1106H144.424C143.457 14.1106 142.878 13.6914 142.878 12.6681C142.887 12.2879 142.942 11.9107 143.041 11.5461L142.108 11.355C141.954 11.8857 141.873 12.4382 141.866 12.9948C141.866 14.7394 142.906 15.2695 144.356 15.2695H147.729C148.686 15.3171 149.639 15.1187 150.512 14.6901V10.5536H149.489L149.511 13.8332Z" fill="#000062"/>
<path id="Vector_68" d="M155.729 13.7531C155.345 13.9961 154.907 14.1198 154.464 14.1107L153.503 9.59204H152.485L153.43 14.1107H151.782V15.2696H154.419C155.28 15.2771 156.111 14.9269 156.746 14.2894V8.38995H155.729V13.7531Z" fill="#000062"/>
<path id="Vector_69" d="M170.553 9.69684C170.716 9.69684 170.872 9.62604 170.987 9.50003C171.102 9.37402 171.166 9.20311 171.166 9.0249C171.166 8.84669 171.102 8.67578 170.987 8.54977C170.872 8.42376 170.716 8.35297 170.553 8.35297C170.391 8.35297 170.235 8.42376 170.12 8.54977C170.005 8.67578 169.941 8.84669 169.941 9.0249C169.941 9.20311 170.005 9.37402 170.12 9.50003C170.235 9.62604 170.391 9.69684 170.553 9.69684Z" fill="#000062"/>
<path id="Vector_70" d="M170.919 13.8641C170.494 14.0405 170.041 14.1242 169.587 14.1107H168.333V12.8469C168.333 11.1024 167.428 10.2455 166.191 10.2455C165.1 10.2455 164.184 10.9236 163.195 12.0455V10.9113H162.172V14.1107H160.839C160.38 14.1195 159.925 14.0163 159.507 13.8086V8.38995H158.484V13.9874C158.466 14.1481 158.497 14.3109 158.572 14.4503C158.647 14.5897 158.763 14.6979 158.9 14.7579C159.468 15.0885 160.1 15.264 160.744 15.2696H169.648C170.456 15.2759 171.25 15.0369 171.942 14.5792V10.5537H170.919V13.8641ZM167.321 14.1107H163.195V13.4202C164.285 12.027 165.134 11.3366 166.006 11.3366C166.989 11.3366 167.299 12.175 167.299 13.0257L167.321 14.1107Z" fill="#000062"/>
<path id="Vector_71" d="M172.24 8.35297C172.077 8.35297 171.922 8.42376 171.807 8.54977C171.692 8.67578 171.627 8.84669 171.627 9.0249C171.627 9.20311 171.692 9.37402 171.807 9.50003C171.922 9.62604 172.077 9.69684 172.24 9.69684C172.402 9.69684 172.558 9.62604 172.673 9.50003C172.788 9.37402 172.853 9.20311 172.853 9.0249C172.853 8.84669 172.788 8.67578 172.673 8.54977C172.558 8.42376 172.402 8.35297 172.24 8.35297Z" fill="#000062"/>
<path id="Vector_72" d="M177.131 13.7531C176.749 13.9971 176.313 14.1208 175.871 14.1107L174.905 9.59204H173.893L174.837 14.1107H173.19V15.2696H175.827C176.687 15.2771 177.519 14.9269 178.154 14.2894V8.38995H177.131V13.7531Z" fill="#000062"/>
<path id="Vector_73" d="M180.914 8.38995H179.891V15.2696H180.914V8.38995Z" fill="#000062"/>
<path id="Vector_74" d="M185.951 9.64131C186.073 9.63888 186.191 9.59705 186.292 9.52108C186.392 9.44511 186.469 9.33838 186.514 9.21427C186.56 9.09017 186.57 8.95424 186.545 8.82352C186.52 8.6928 186.46 8.57313 186.373 8.47953C186.286 8.38592 186.176 8.32255 186.057 8.29737C185.937 8.27219 185.813 8.28632 185.701 8.33799C185.588 8.38965 185.493 8.47656 185.425 8.58779C185.358 8.69902 185.322 8.82962 185.322 8.96321C185.321 9.05354 185.337 9.14312 185.368 9.22659C185.4 9.31007 185.446 9.38572 185.505 9.44902C185.564 9.51232 185.634 9.56197 185.71 9.59501C185.787 9.62805 185.869 9.6438 185.951 9.64131Z" fill="#000062"/>
<path id="Vector_75" d="M187.626 9.64133C187.749 9.64255 187.869 9.60382 187.972 9.53006C188.074 9.45629 188.154 9.35082 188.202 9.22703C188.249 9.10323 188.262 8.9667 188.239 8.83476C188.216 8.70282 188.158 8.58141 188.071 8.48596C187.985 8.39051 187.875 8.32531 187.755 8.29864C187.635 8.27198 187.51 8.28504 187.397 8.33618C187.283 8.38732 187.186 8.47422 187.118 8.58586C187.05 8.69751 187.014 8.82885 187.014 8.96323C187.014 9.14201 187.078 9.31356 187.193 9.44055C187.308 9.56754 187.463 9.6397 187.626 9.64133Z" fill="#000062"/>
<path id="Vector_76" d="M192.731 8.94473H192.231C191.843 8.94473 191.669 8.74746 191.669 8.51938C191.667 8.47196 191.674 8.42469 191.69 8.38053C191.706 8.33637 191.73 8.29627 191.761 8.26272C191.791 8.22916 191.828 8.20289 191.868 8.18553C191.908 8.16817 191.951 8.16011 191.995 8.16183C192.092 8.16331 192.186 8.20263 192.259 8.27279L192.636 7.83511C192.446 7.63338 192.192 7.52062 191.927 7.52072C191.821 7.51396 191.715 7.53117 191.615 7.57127C191.515 7.61138 191.424 7.67353 191.347 7.75387C191.27 7.8342 191.209 7.93102 191.168 8.03831C191.126 8.1456 191.106 8.26108 191.106 8.37759C191.107 8.58652 191.177 8.78803 191.303 8.94473H190.893V9.67831H192.709L192.731 8.94473Z" fill="#000062"/>
<path id="Vector_77" d="M196.34 15.9538C196.187 15.9699 196.045 16.0479 195.942 16.1728C195.838 16.2976 195.781 16.4602 195.781 16.6288C195.781 16.7975 195.838 16.9601 195.942 17.0849C196.045 17.2097 196.187 17.2878 196.34 17.3039C196.426 17.3129 196.513 17.3021 196.594 17.2723C196.676 17.2424 196.751 17.1942 196.815 17.1306C196.879 17.0671 196.93 16.9896 196.965 16.9032C197 16.8168 197.018 16.7233 197.018 16.6288C197.018 16.5344 197 16.4409 196.965 16.3545C196.93 16.2681 196.879 16.1906 196.815 16.127C196.751 16.0635 196.676 16.0152 196.594 15.9854C196.513 15.9556 196.426 15.9448 196.34 15.9538Z" fill="#000062"/>
<path id="Vector_78" d="M194.665 15.9538C194.543 15.9551 194.425 15.9956 194.324 16.0703C194.223 16.145 194.145 16.2506 194.099 16.3739C194.052 16.4972 194.04 16.6327 194.064 16.7635C194.088 16.8943 194.146 17.0145 194.231 17.1092C194.317 17.2039 194.426 17.2689 194.545 17.2959C194.664 17.3229 194.788 17.3109 194.901 17.2613C195.014 17.2117 195.111 17.1267 195.18 17.0169C195.249 16.9072 195.287 16.7776 195.289 16.6443C195.29 16.5537 195.275 16.4636 195.245 16.3795C195.214 16.2954 195.168 16.2189 195.11 16.1546C195.052 16.0902 194.982 16.0393 194.906 16.0048C194.829 15.9703 194.748 15.953 194.665 15.9538Z" fill="#000062"/>
<path id="Vector_79" d="M201.366 14.1106C201.549 13.8694 201.676 13.5841 201.738 13.2781C201.8 12.9722 201.795 12.6545 201.722 12.3513C201.65 12.0482 201.513 11.7683 201.322 11.5348C201.131 11.3014 200.893 11.1211 200.626 11.0089C200.359 10.8967 200.072 10.8559 199.788 10.8897C199.503 10.9236 199.231 11.0312 198.992 11.2036C198.753 11.376 198.556 11.6083 198.415 11.8812C198.275 12.1541 198.196 12.4598 198.184 12.7729C198.177 13.0187 198.215 13.2636 198.295 13.4933C198.375 13.723 198.496 13.9328 198.651 14.1106H197.33C196.872 14.1214 196.419 14.0182 196.003 13.8085V10.5536H194.98V13.8085C194.562 14.018 194.107 14.1213 193.648 14.1106C193.192 14.1207 192.74 14.0174 192.326 13.8085V10.5536H191.303V13.8085C190.886 14.018 190.43 14.1213 189.971 14.1106H188.667V10.979C188.086 10.6444 187.44 10.4668 186.783 10.4612C185.372 10.4612 184.439 11.3859 184.439 12.8654C184.439 14.3448 185.406 15.2695 186.902 15.2695H190.067C190.677 15.2547 191.275 15.0769 191.809 14.7517C192.373 15.09 193.005 15.2673 193.648 15.2673C194.29 15.2673 194.922 15.09 195.486 14.7517C196.019 15.0737 196.615 15.2512 197.223 15.2695H203.778V12.9455C203.778 10.0975 202.181 9.02484 200.169 9.02484C199.809 9.02534 199.451 9.05418 199.095 9.11114V10.1468C199.442 10.0791 199.794 10.044 200.146 10.042C201.484 10.042 202.76 10.7139 202.76 12.89V14.1229L201.366 14.1106ZM187.644 14.1106H186.755C186.594 14.126 186.431 14.1049 186.277 14.0485C186.123 13.9922 185.981 13.9018 185.86 13.7829C185.739 13.6641 185.642 13.5193 185.574 13.3575C185.507 13.1958 185.47 13.0205 185.467 12.8426C185.463 12.6646 185.493 12.4878 185.554 12.323C185.616 12.1583 185.707 12.0091 185.823 11.8846C185.939 11.7602 186.077 11.6633 186.229 11.5997C186.381 11.5362 186.543 11.5075 186.705 11.5153C187.03 11.5125 187.351 11.5927 187.644 11.7496V14.1106ZM200.011 14.1106C199.753 14.0809 199.516 13.9432 199.348 13.7261C199.181 13.509 199.096 13.2294 199.112 12.9455C199.112 12.6839 199.207 12.433 199.375 12.2481C199.544 12.0631 199.773 11.9592 200.011 11.9592C200.25 11.9592 200.479 12.0631 200.647 12.2481C200.816 12.433 200.911 12.6839 200.911 12.9455C200.929 13.2321 200.844 13.5151 200.674 13.7333C200.503 13.9514 200.261 14.087 200 14.1106H200.011Z" fill="#000062"/>
<path id="Vector_80" d="M3.0883 17.0573L2.87467 16.9525C2.8297 17.0635 2.7791 17.1683 2.73413 17.2731L2.93089 17.384L3.0883 17.0573Z" fill="#00D2FF"/>
<path id="Vector_81" d="M3.02642 13.9565L2.70598 13.7285L2.55981 13.9689L2.86339 14.1908C2.88587 14.1107 2.94209 14.0367 3.02642 13.9565Z" fill="#00D2FF"/>
<path id="Vector_82" d="M2.93642 15.5654L2.74529 15.4483L2.59912 15.7195L2.77902 15.8305C2.82961 15.7442 2.88021 15.6517 2.93642 15.5654Z" fill="#00D2FF"/>
<path id="Vector_83" d="M3.66184 16.0278L3.4201 15.8799L3.2627 16.1696L3.49881 16.3237C3.5494 16.2004 3.58875 16.1018 3.66184 16.0278Z" fill="#00D2FF"/>
<path id="Vector_84" d="M3.29641 18.5676L3.16712 18.4936C3.12776 18.5984 3.09403 18.697 3.0603 18.8018L3.16712 18.8573C3.20647 18.771 3.25144 18.6662 3.29641 18.5676Z" fill="#00D2FF"/>
<path id="Vector_85" d="M3.26807 14.5114L3.49856 14.684L3.67283 14.4374L3.42547 14.2648C3.37488 14.3511 3.31866 14.4312 3.26807 14.5114Z" fill="#00D2FF"/>
<path id="Vector_86" d="M1.96963 14.9799L1.84033 15.2264L2.09893 15.3929L2.2451 15.1463L1.96963 14.9799Z" fill="#00D2FF"/>
<path id="Vector_87" d="M3.83025 12.8407L3.47046 12.5386C3.39738 12.6373 3.3243 12.7359 3.25684 12.8407L3.58852 13.1304L3.70095 12.9825C3.74093 12.9319 3.78414 12.8845 3.83025 12.8407Z" fill="#00D2FF"/>
<path id="Vector_88" d="M2.5374 18.2532L2.37999 18.1854C2.34626 18.2717 2.31815 18.3642 2.28442 18.4505L2.43059 18.5183L2.5374 18.2532Z" fill="#00D2FF"/>
<path id="Vector_89" d="M5.70235 10.8311L5.2751 10.3564C5.1458 10.4921 5.0165 10.6215 4.89282 10.7633L5.29196 11.2072L5.70235 10.8311Z" fill="#00D2FF"/>
<path id="Vector_90" d="M4.88144 14.2277L5.1288 13.9257L4.81398 13.6667L4.58911 13.975L4.88144 14.2277Z" fill="#00D2FF"/>
<path id="Vector_91" d="M5.05019 12.7421L5.36501 12.4092L5.02771 12.0825L4.71289 12.4401L5.05019 12.7421Z" fill="#00D2FF"/>
<path id="Vector_92" d="M4.57251 15.4792L4.87046 15.7011L5.05598 15.4114L4.74116 15.1833L4.57251 15.4792Z" fill="#00D2FF"/>
<path id="Vector_93" d="M4.35891 14.9305L4.07782 14.7271L3.91479 14.9921L4.17902 15.1894L4.35891 14.9305Z" fill="#00D2FF"/>
<path id="Vector_94" d="M4.19019 13.1428L4.06652 13.303L3.97095 13.451L4.24079 13.6791L4.48252 13.3893L4.19019 13.1428Z" fill="#00D2FF"/>
<path id="Vector_95" d="M2.3238 16.6751L2.17763 16.6011C2.13266 16.6998 2.09331 16.7984 2.05396 16.897L2.17763 16.9648C2.22261 16.8662 2.2732 16.7737 2.3238 16.6751Z" fill="#00D2FF"/>
<path id="Vector_96" d="M4.04956 11.7743L4.42059 12.138L4.71292 11.7928L4.3194 11.4106L4.04956 11.7743Z" fill="#00D2FF"/>
<path id="Vector_97" d="M4.39256 16.4408L4.15082 16.2805L3.98779 16.6011L4.22953 16.7552L4.39256 16.4408Z" fill="#00D2FF"/>
<path id="Vector_98" d="M3.83586 17.4333L3.62786 17.3347L3.47607 17.6923L3.65597 17.7909C3.71219 17.6676 3.77402 17.5505 3.83586 17.4333Z" fill="#00D2FF"/>
<path id="Vector_99" d="M7.01799 12.3291L6.6582 12.699L7.00113 13.0873L7.36092 12.7175L7.01799 12.3291Z" fill="#00D2FF"/>
<path id="Vector_100" d="M7.45634 10.9051L6.99536 11.2996L7.79364 12.3291C7.93419 12.1996 8.08035 12.0764 8.22652 11.9531L7.45634 10.9051Z" fill="#00D2FF"/>
<path id="Vector_101" d="M1.75044 17.9265L1.66049 17.8772C1.63238 17.9512 1.6099 18.0251 1.58179 18.1053L1.65487 18.1361C1.68298 18.0745 1.71671 18.0005 1.75044 17.9265Z" fill="#00D2FF"/>
<path id="Vector_102" d="M7.37223 8.48236C7.17547 8.63031 6.98433 8.78442 6.81006 8.9447L7.25417 9.56116C7.45093 9.42554 7.64207 9.28992 7.81635 9.16046L7.37223 8.48236Z" fill="#00D2FF"/>
<path id="Vector_103" d="M6.18563 13.2168L5.89893 13.562L6.25872 13.9134L6.29245 13.8764C6.37677 13.7716 6.46672 13.673 6.55667 13.5682L6.18563 13.2168Z" fill="#00D2FF"/>
<path id="Vector_104" d="M8.50763 7.67487C8.27714 7.82898 8.05227 7.98309 7.82178 8.14954L9.50829 10.9297L10.0705 10.5475L8.50763 7.67487Z" fill="#00D2FF"/>
<path id="Vector_105" d="M17.6428 4.9994C15.0091 4.99762 12.4057 5.61566 10.0085 6.81178L11.4589 9.82008C15.1146 8.04942 19.2542 7.90356 23.0059 9.41322L24.0741 6.24464C22.0146 5.41466 19.837 4.99302 17.6428 4.9994Z" fill="#00D2FF"/>
<path id="Vector_106" d="M9.70527 6.97821C9.43543 7.12 9.1431 7.26794 8.90137 7.42822L10.4586 10.3379C10.6778 10.2084 10.9027 10.0851 11.1276 9.96802L9.70527 6.97821Z" fill="#00D2FF"/>
<path id="Vector_107" d="M7.9567 9.38239C7.77119 9.51801 7.58005 9.65979 7.39453 9.80774L8.64817 11.5831C8.8112 11.4537 8.97985 11.3242 9.15413 11.2009L7.9567 9.38239Z" fill="#00D2FF"/>
<path id="Vector_108" d="M0.952105 17.8093C0.952105 17.7477 0.997079 17.686 1.02519 17.6244L0.839671 17.5504C0.839671 17.6059 0.800319 17.6675 0.777832 17.7292L0.952105 17.8093Z" fill="#00D2FF"/>
<path id="Vector_109" d="M5.62925 12.6682C5.52806 12.7853 5.42687 12.8962 5.3313 13.0134L5.65174 13.3278L5.96093 13.001L5.62925 12.6682Z" fill="#00D2FF"/>
<path id="Vector_110" d="M5.20215 14.4928L5.53945 14.7825L5.78118 14.4743L5.42702 14.1784L5.20215 14.4928Z" fill="#00D2FF"/>
<path id="Vector_111" d="M1.27271 16.4593L1.48633 16.5764C1.5313 16.4901 1.57066 16.4038 1.61001 16.3175L1.37952 16.2004L1.27271 16.4593Z" fill="#00D2FF"/>
<path id="Vector_112" d="M6.91655 10.2023L6.44995 10.6153L6.82661 11.0838L7.31007 10.7201L6.91655 10.2023Z" fill="#00D2FF"/>
<path id="Vector_113" d="M5.93842 11.0961L5.56177 11.4845L5.91031 11.8667L6.30946 11.5153L5.93842 11.0961Z" fill="#00D2FF"/>
<path id="Vector_114" d="M6.86045 12.1503L6.50629 11.7496L6.13525 12.1257L6.47256 12.5017C6.60186 12.3784 6.73116 12.2675 6.86045 12.1503Z" fill="#00D2FF"/>
<path id="Vector_115" d="M6.73688 9.95569L6.29838 9.37622L5.8374 9.82007L6.26465 10.3564C6.39957 10.2208 6.57385 10.0851 6.73688 9.95569Z" fill="#00D2FF"/>
<path id="Vector_116" d="M28.6336 41.358L28.3244 40.9203C28.2063 41.0128 28.0883 41.1052 27.9646 41.1915L28.2794 41.6477L28.6336 41.358Z" fill="#7F92FF"/>
<path id="Vector_117" d="M28.0769 40.5504L27.8295 40.1928L27.4641 40.4517L27.7283 40.8401L28.0769 40.5504Z" fill="#7F92FF"/>
<path id="Vector_118" d="M28.7852 37.6037L28.521 37.3078C28.4479 37.3879 28.3692 37.4557 28.2905 37.5297L28.5716 37.8318L28.7852 37.6037Z" fill="#7F92FF"/>
<path id="Vector_119" d="M27.2449 40.1374L27.5991 39.86L27.3461 39.4901L26.9807 39.749L27.2449 40.1374Z" fill="#7F92FF"/>
<path id="Vector_120" d="M27.6156 42.1655L27.3008 41.6477L26.8455 41.9313L27.1659 42.4861C27.3177 42.3813 27.4695 42.2765 27.6156 42.1655Z" fill="#7F92FF"/>
<path id="Vector_121" d="M29.5946 40.4764L29.3135 40.1188C29.2573 40.1682 29.2011 40.2236 29.1449 40.2668L29.0381 40.3593L29.3304 40.723C29.4485 40.6428 29.5103 40.5627 29.5946 40.4764Z" fill="#7F92FF"/>
<path id="Vector_122" d="M28.8525 39.8723L29.0042 39.7305L28.7794 39.4469L28.4983 39.6812L28.7344 39.977L28.8525 39.8723Z" fill="#7F92FF"/>
<path id="Vector_123" d="M29.5721 36.6606L29.3472 36.4387C29.2741 36.525 29.1954 36.6174 29.1167 36.6976L29.3641 36.9257L29.5721 36.6606Z" fill="#7F92FF"/>
<path id="Vector_124" d="M29.3303 38.2202L29.1111 37.9736C29.0436 38.0475 28.9705 38.1154 28.8975 38.1832L29.128 38.4359L29.3303 38.2202Z" fill="#7F92FF"/>
<path id="Vector_125" d="M29.8759 38.8366L29.6792 38.6208L29.4768 38.8181L29.6792 39.04L29.8759 38.8366Z" fill="#7F92FF"/>
<path id="Vector_126" d="M27.4136 38.3311L27.7171 38.7072L27.9926 38.4482L27.7059 38.0784C27.6103 38.1647 27.5148 38.251 27.4136 38.3311Z" fill="#7F92FF"/>
<path id="Vector_127" d="M26.0754 41.9868L25.7943 41.4381L25.2322 41.7032L25.5245 42.3196L26.0754 41.9868Z" fill="#7F92FF"/>
<path id="Vector_128" d="M24.4507 43.1025L24.7711 43.8854C24.9904 43.7806 25.2096 43.6634 25.4289 43.5463L25.1084 42.8312C24.8892 42.9299 24.6699 43.0162 24.4507 43.1025Z" fill="#7F92FF"/>
<path id="Vector_129" d="M22.0673 41.4011C21.8199 41.4833 21.5726 41.5572 21.3252 41.623L22.1797 44.8655C22.4833 44.7854 22.7756 44.6929 23.0735 44.5943L22.0673 41.4011Z" fill="#7F92FF"/>
<path id="Vector_130" d="M26.6378 40.5688L26.3736 40.125C26.2274 40.2175 26.0756 40.3038 25.9294 40.3839L26.1993 40.8524L26.6378 40.5688Z" fill="#7F92FF"/>
<path id="Vector_131" d="M28.493 39.0771L28.2569 38.775C28.1614 38.8613 28.0658 38.9353 27.9646 39.0154L28.2176 39.3298C28.3244 39.2497 28.4031 39.1634 28.493 39.0771Z" fill="#7F92FF"/>
<path id="Vector_132" d="M27.0985 41.3024L26.8287 40.8524L26.3733 41.1175L26.66 41.6045L27.0985 41.3024Z" fill="#7F92FF"/>
<path id="Vector_133" d="M26.5476 42.899L26.2272 42.2826C26.0417 42.3812 25.8562 42.4799 25.665 42.5662L25.9911 43.2319L26.5476 42.899Z" fill="#7F92FF"/>
<path id="Vector_134" d="M25.8223 40.1805C25.9685 40.088 26.109 39.9894 26.2496 39.8907L25.9741 39.4531L25.5525 39.7366L25.8223 40.1805Z" fill="#7F92FF"/>
<path id="Vector_135" d="M32.6135 36.2906L32.7766 36.4016L32.8609 36.2537L32.7091 36.1365L32.6135 36.2906Z" fill="#7F92FF"/>
<path id="Vector_136" d="M32.0119 37.6037L32.1637 37.3879L31.9726 37.2277L31.8152 37.4434L32.0119 37.6037Z" fill="#7F92FF"/>
<path id="Vector_137" d="M26.8006 39.4839L27.1492 39.2065L26.8456 38.775L26.7669 38.8367L26.4971 39.0463L26.8006 39.4839Z" fill="#7F92FF"/>
<path id="Vector_138" d="M32.1469 35.6989L32.0795 35.6495L31.9614 35.8345L32.0345 35.89L32.1469 35.6989Z" fill="#7F92FF"/>
<path id="Vector_139" d="M25.1366 41.4813C25.3109 41.3888 25.4852 41.2963 25.6595 41.1915L25.0579 40.0326L24.5632 40.3162L25.1366 41.4813Z" fill="#7F92FF"/>
<path id="Vector_140" d="M30.1623 37.24L29.9768 37.0551C29.9093 37.1414 29.8363 37.2215 29.7688 37.3016L29.9712 37.4866C30.0105 37.4064 30.1005 37.3263 30.1623 37.24Z" fill="#7F92FF"/>
<path id="Vector_141" d="M23.5007 44.4402L24.2709 44.1196L23.1016 41.0374C22.888 41.1298 22.6631 41.21 22.4438 41.2901L23.5007 44.4402Z" fill="#7F92FF"/>
<path id="Vector_142" d="M24.3889 42.8744C24.6025 42.782 24.8161 42.6833 25.0241 42.5785L24.1247 40.5627C23.9392 40.6552 23.748 40.7477 23.5625 40.834L24.3889 42.8744Z" fill="#7F92FF"/>
<path id="Vector_143" d="M21.016 41.7031C17.1116 42.652 13.0238 41.9005 9.61513 39.6072L8.00732 42.4799C12.145 45.2677 17.1183 46.1538 21.848 44.9457L21.016 41.7031Z" fill="#7F92FF"/>
<path id="Vector_144" d="M30.7358 37.801L30.5727 37.653L30.3816 37.8749L30.5446 38.0291C30.6177 37.9551 30.6795 37.8811 30.7358 37.801Z" fill="#7F92FF"/>
<path id="Vector_145" d="M30.6855 36.5311L30.8766 36.2598L30.7248 36.1304L30.5168 36.3708L30.6855 36.5311Z" fill="#7F92FF"/>
<path id="Vector_146" d="M30.4942 39.527L30.2412 39.2496L30.05 39.4346L30.3143 39.7243C30.3761 39.6565 30.4379 39.5949 30.4942 39.527Z" fill="#7F92FF"/>
<path id="Vector_147" d="M30.2412 35.7051L30.0669 35.5571L29.8364 35.853L30.0332 36.0133C30.1063 35.9147 30.1737 35.8099 30.2412 35.7051Z" fill="#7F92FF"/>
<path id="Vector_148" d="M31.5174 35.218L31.4106 35.1379L31.2644 35.3598L31.3881 35.4399C31.4274 35.366 31.4724 35.292 31.5174 35.218Z" fill="#7F92FF"/>
<path id="Vector_149" d="M30.9944 38.436L31.2305 38.6579L31.3935 38.4483L31.1743 38.2202L30.9944 38.436Z" fill="#7F92FF"/>
<path id="Vector_150" d="M31.3092 37.0304L31.4723 36.7776L31.3654 36.6852L31.1799 36.9256L31.3092 37.0304Z" fill="#7F92FF"/>
<path id="Vector_151" d="M30.7248 34.6139L30.5562 34.8728L30.6967 34.9653L30.8485 34.7064L30.7248 34.6139Z" fill="#7F92FF"/>
<path id="Vector_152" d="M19.8354 27.6233C19.4055 28.0954 18.8576 28.4171 18.261 28.5476C17.6643 28.6781 17.0458 28.6116 16.4837 28.3565C15.9215 28.1015 15.441 27.6693 15.1029 27.1146C14.7648 26.56 14.5843 25.9079 14.5843 25.2407C14.5843 24.5736 14.7648 23.9214 15.1029 23.3668C15.441 22.8122 15.9215 22.38 16.4837 22.1249C17.0458 21.8698 17.6643 21.8034 18.261 21.9339C18.8576 22.0644 19.4055 22.386 19.8354 22.8581L22.011 20.4724C21.1506 19.5271 20.0538 18.8828 18.8593 18.6212C17.6649 18.3597 16.4265 18.4926 15.301 19.0031C14.1754 19.5136 13.2133 20.3787 12.5363 21.4891C11.8594 22.5995 11.498 23.9051 11.498 25.2407C11.498 26.5764 11.8594 27.882 12.5363 28.9923C13.2133 30.1027 14.1754 30.9679 15.301 31.4784C16.4265 31.9889 17.6649 32.1218 18.8593 31.8602C20.0538 31.5986 21.1506 30.9544 22.011 30.009L19.8354 27.6233Z" fill="#000062"/>
<path id="Vector_153" d="M45.5827 27.6233C45.1528 28.0954 44.6049 28.4171 44.0083 28.5476C43.4117 28.6781 42.7931 28.6116 42.231 28.3565C41.6688 28.1015 41.1883 27.6693 40.8502 27.1146C40.5121 26.56 40.3316 25.9079 40.3316 25.2407C40.3316 24.5736 40.5121 23.9214 40.8502 23.3668C41.1883 22.8122 41.6688 22.38 42.231 22.1249C42.7931 21.8698 43.4117 21.8034 44.0083 21.9339C44.6049 22.0644 45.1528 22.386 45.5827 22.8581L47.7583 20.4724C46.8979 19.5271 45.8011 18.8828 44.6066 18.6212C43.4122 18.3597 42.1738 18.4926 41.0483 19.0031C39.9227 19.5136 38.9606 20.3787 38.2837 21.4891C37.6067 22.5995 37.2454 23.9051 37.2454 25.2407C37.2454 26.5764 37.6067 27.882 38.2837 28.9923C38.9606 30.1027 39.9227 30.9679 41.0483 31.4784C42.1738 31.9889 43.4122 32.1218 44.6066 31.8602C45.8011 31.5986 46.8979 30.9544 47.7583 30.009L45.5827 27.6233Z" fill="#000062"/>
<path id="Vector_154" d="M26.5084 19.1717H23.4333V31.3097H26.5084V19.1717Z" fill="#000062"/>
<path id="Vector_155" d="M36.4811 19.1717H28.2678V22.5437H32.5965L30.8369 23.6472V31.3097H33.912V22.5437H36.4811V19.1717Z" fill="#000062"/>
<path id="Vector_156" d="M11.5378 32.9186L11.2174 32.6721L10.9138 33.0173C11.015 33.1282 11.1162 33.2392 11.223 33.344L11.5378 32.9186Z" fill="#5E1AD5"/>
<path id="Vector_157" d="M10.5596 31.9817L10.301 32.2283C10.391 32.3577 10.4865 32.4749 10.5821 32.5981L10.8688 32.3084C10.762 32.2036 10.6608 32.0927 10.5596 31.9817Z" fill="#5E1AD5"/>
<path id="Vector_158" d="M11.8245 34.2317L11.4591 33.9789L11.1836 34.3611L11.549 34.6694L11.8245 34.2317Z" fill="#5E1AD5"/>
<path id="Vector_159" d="M9.51948 32.1296L9.27212 31.7968L9.14282 31.8954C9.2159 32.0187 9.28899 32.1358 9.36769 32.2529L9.51948 32.1296Z" fill="#5E1AD5"/>
<path id="Vector_160" d="M10.9755 33.6214L10.6214 33.3193L10.3909 33.5844C10.4977 33.7077 10.6101 33.8248 10.7226 33.9358L10.9755 33.6214Z" fill="#5E1AD5"/>
<path id="Vector_161" d="M10.0255 33.1591L10.2335 32.9433C10.1267 32.8323 10.0199 32.7214 9.91306 32.5981L9.72754 32.7769C9.82311 32.9063 9.9243 33.0358 10.0255 33.1591Z" fill="#5E1AD5"/>
<path id="Vector_162" d="M22.7756 33.6646C21.2572 34.7783 19.4697 35.3687 17.643 35.3598C17.0773 35.3623 16.5126 35.3066 15.9565 35.1934L15.3943 38.5037C16.1361 38.6538 16.8887 38.7301 17.643 38.7318C20.0693 38.7344 22.442 37.9493 24.4621 36.4756L22.7756 33.6646Z" fill="#5E1AD5"/>
<path id="Vector_163" d="M8.02413 32.783L7.84424 32.9248L8.08597 33.2885L8.28273 33.1221C8.19278 33.0234 8.08597 32.9063 8.02413 32.783Z" fill="#5E1AD5"/>
<path id="Vector_164" d="M15.1018 34.9653L14.2698 38.1832C14.4834 38.2571 14.6914 38.3249 14.905 38.3866L15.1355 38.4421L15.737 35.1379C15.5234 35.0886 15.3098 35.0269 15.1018 34.9653Z" fill="#5E1AD5"/>
<path id="Vector_165" d="M8.73804 33.72L8.52441 33.9235C8.63123 34.0652 8.73804 34.207 8.85047 34.3426L9.08659 34.1084L8.73804 33.72Z" fill="#5E1AD5"/>
<path id="Vector_166" d="M11.6445 33.7077L11.9818 33.9851L12.3023 33.4919L11.9706 33.2885L11.6445 33.7077Z" fill="#5E1AD5"/>
<path id="Vector_167" d="M12.4483 35.292L12.735 34.7249L12.2796 34.5214L11.9873 35.0208C12.1391 35.1009 12.2909 35.1934 12.4483 35.292Z" fill="#5E1AD5"/>
<path id="Vector_168" d="M8.90107 32.6351L8.64809 32.2899L8.52441 32.3885C8.5975 32.5118 8.6762 32.6351 8.7549 32.7522L8.90107 32.6351Z" fill="#5E1AD5"/>
<path id="Vector_169" d="M10.2053 31.5687C10.121 31.4639 10.0367 31.3591 9.95798 31.2481L9.76685 31.4022C9.83431 31.5193 9.90739 31.6365 9.98047 31.7474L10.2053 31.5687Z" fill="#5E1AD5"/>
<path id="Vector_170" d="M13.0049 36.8455L12.3809 36.5681L12.0999 37.1845C12.3135 37.314 12.5271 37.4311 12.7407 37.5482L13.0049 36.8455Z" fill="#5E1AD5"/>
<path id="Vector_171" d="M14.1349 37.2338C13.8932 37.166 13.6515 37.092 13.4153 37.0057L13.1455 37.7332C13.3929 37.8503 13.6458 37.9551 13.8988 38.0537L14.1349 37.2338Z" fill="#5E1AD5"/>
<path id="Vector_172" d="M13.3479 35.9578C13.1511 35.89 12.96 35.8099 12.7857 35.7297L12.5215 36.303C12.7201 36.414 12.9169 36.5188 13.1118 36.6174L13.3479 35.9578Z" fill="#5E1AD5"/>
<path id="Vector_173" d="M14.7984 34.8605C14.6185 34.7989 14.433 34.7249 14.2362 34.6448L13.4717 36.7962C13.6965 36.8948 13.9327 36.9873 14.1631 37.0674L14.7984 34.8605Z" fill="#5E1AD5"/>
<path id="Vector_174" d="M12.3977 34.2934C12.5326 34.3859 12.6732 34.4722 12.8137 34.5585L13.0836 34.0283C12.9543 33.9482 12.825 33.8619 12.7013 33.7694L12.3977 34.2934Z" fill="#5E1AD5"/>
<path id="Vector_175" d="M9.66563 33.5228C9.54757 33.4056 9.43514 33.2823 9.32833 33.1591L9.15405 33.3193C9.25524 33.455 9.36206 33.5906 9.46887 33.72L9.66563 33.5228Z" fill="#5E1AD5"/>
<path id="Vector_176" d="M12.8645 35.5262C13.0444 35.6249 13.2299 35.7112 13.4267 35.7913L13.9158 34.5214C13.7584 34.4474 13.6066 34.3611 13.4548 34.281L12.8645 35.5262Z" fill="#5E1AD5"/>
<path id="Vector_177" d="M10.8968 35.6866L10.6888 35.5325C10.6101 35.4832 10.537 35.4215 10.4639 35.366L10.1885 35.7482C10.329 35.8777 10.4696 36.001 10.6157 36.1181L10.8968 35.6866Z" fill="#5E1AD5"/>
<path id="Vector_178" d="M10.4528 34.2687L10.0818 33.942L9.86816 34.1824L10.2223 34.5523L10.4528 34.2687Z" fill="#5E1AD5"/>
<path id="Vector_179" d="M12.3302 35.5262C12.1616 35.4399 11.9985 35.3536 11.8355 35.255L11.5769 35.705L12.066 36.0379L12.3302 35.5262Z" fill="#5E1AD5"/>
<path id="Vector_180" d="M9.92432 34.9221C9.79502 34.8112 9.66572 34.6879 9.53642 34.5646L9.28906 34.8543L9.66572 35.2488L9.92432 34.9221Z" fill="#5E1AD5"/>
<path id="Vector_181" d="M11.9201 36.3276C11.7458 36.2352 11.566 36.1304 11.3973 36.0194L11.1106 36.5126C11.2849 36.642 11.4591 36.7653 11.639 36.8824L11.9201 36.3276Z" fill="#5E1AD5"/>
<path id="Vector_182" d="M11.1106 35.3475L11.3635 34.953C11.2286 34.8667 11.0937 34.7681 10.9588 34.6694L10.7114 35.0085L10.9082 35.1873L11.1106 35.3475Z" fill="#5E1AD5"/>
<path id="Vector_183" d="M16.3163 14.1106L16.2882 13.8394C16.1251 13.8394 15.9621 13.8763 15.7991 13.9072L15.844 14.2277C16.0015 14.1784 16.1589 14.1414 16.3163 14.1106Z" fill="#0000FF"/>
<path id="Vector_184" d="M16.4286 15.0353L16.3836 14.6654L15.917 14.727L15.9788 15.1462C16.125 15.1031 16.2768 15.0661 16.4286 15.0353Z" fill="#0000FF"/>
<path id="Vector_185" d="M9.98047 14.7456L10.4808 15.4114C10.6551 15.2326 10.8406 15.0662 11.043 14.8997L10.627 14.2463C10.3965 14.4066 10.1885 14.573 9.98047 14.7456Z" fill="#0000FF"/>
<path id="Vector_186" d="M12.3303 15.023L12.0212 14.4559C11.8413 14.573 11.6557 14.6901 11.459 14.8196L11.8188 15.436C12.0212 15.2819 12.1673 15.1463 12.3303 15.023Z" fill="#0000FF"/>
<path id="Vector_187" d="M15.5515 12.1627L15.6021 12.5202C15.7708 12.477 15.945 12.4401 16.1193 12.4092L16.0856 12.0887L15.5515 12.1627Z" fill="#0000FF"/>
<path id="Vector_188" d="M12.8588 13.5989L12.6396 13.0565C12.4484 13.1428 12.2573 13.2414 12.0774 13.34L12.3472 13.9133C12.5103 13.8024 12.6789 13.6976 12.8588 13.5989Z" fill="#0000FF"/>
<path id="Vector_189" d="M11.9088 14.1785L11.594 13.562C11.3916 13.6853 11.1892 13.8148 10.9924 13.9504L11.3691 14.5668C11.5434 14.4744 11.7233 14.3387 11.9088 14.1785Z" fill="#0000FF"/>
<path id="Vector_190" d="M16.7939 12.0331V12.3044L17.2605 12.2612V12.0208L16.7939 12.0331Z" fill="#0000FF"/>
<path id="Vector_191" d="M17.3057 13.1058V12.9455H16.8503V13.1489C17.0021 13.1304 17.1539 13.1181 17.3057 13.1058Z" fill="#0000FF"/>
<path id="Vector_192" d="M9.68799 14.9922C9.54745 15.1155 9.40128 15.2511 9.26636 15.3867C9.13144 15.5223 9.12582 15.5285 9.05273 15.6086L11.2171 18.0005C11.3633 17.8464 11.515 17.6984 11.6668 17.5505L9.68799 14.9922Z" fill="#0000FF"/>
<path id="Vector_193" d="M17.3731 14.8751V14.6223C17.2269 14.6223 17.0807 14.6223 16.9402 14.6223V14.9305L17.3731 14.8751Z" fill="#0000FF"/>
<path id="Vector_194" d="M16.2206 13.2599L16.1869 13.001C16.0182 13.001 15.8496 13.0257 15.6809 13.075L15.7259 13.3709C15.8889 13.3278 16.0519 13.2908 16.2206 13.2599Z" fill="#0000FF"/>
<path id="Vector_195" d="M17.3394 13.9503V13.7839C17.1876 13.7839 17.0414 13.7839 16.8896 13.7839V13.9996C17.0414 13.9811 17.1876 13.9626 17.3394 13.9503Z" fill="#0000FF"/>
<path id="Vector_196" d="M15.0007 12.6805L14.922 12.2859C14.7421 12.3229 14.5678 12.3661 14.3936 12.4154L14.5004 12.8469L15.0007 12.6805Z" fill="#0000FF"/>
<path id="Vector_197" d="M15.3492 14.3818L15.2762 14.012L14.8152 14.1353L14.9108 14.5421L15.3492 14.3818Z" fill="#0000FF"/>
<path id="Vector_198" d="M15.5348 15.2819L15.4392 14.8257C15.2931 14.8566 15.1525 14.8936 15.0063 14.9367L15.13 15.4299C15.2649 15.3764 15.3999 15.3271 15.5348 15.2819Z" fill="#0000FF"/>
<path id="Vector_199" d="M12.4317 15.2264C12.2634 15.3299 12.1001 15.4431 11.9426 15.5654L12.651 16.7429C12.7859 16.6442 12.9264 16.5518 13.0726 16.4655L12.4317 15.2264Z" fill="#0000FF"/>
<path id="Vector_200" d="M13.1964 14.4374L12.9884 13.9319L12.4768 14.197L12.7298 14.7394C12.8816 14.6346 13.039 14.5298 13.1964 14.4374Z" fill="#0000FF"/>
<path id="Vector_201" d="M13.6123 15.473L13.1851 15.701L13.438 16.2435C13.573 16.1696 13.7023 16.0956 13.8372 16.0339L13.6123 15.473Z" fill="#0000FF"/>
<path id="Vector_202" d="M8.85054 15.8305C6.60181 18.3543 5.34795 21.7462 5.35945 25.2746H8.43453C8.43072 22.6465 9.3626 20.1206 11.0318 18.2347L8.85054 15.8305Z" fill="#0000FF"/>
<path id="Vector_203" d="M11.1386 15.0784C10.9474 15.2264 10.7563 15.3743 10.5764 15.5408L11.9088 17.3285C12.0493 17.2052 12.1955 17.0881 12.3473 16.9709L11.1386 15.0784Z" fill="#0000FF"/>
<path id="Vector_204" d="M13.7472 13.1489L13.8709 13.0996L13.7079 12.6188L13.1851 12.8099L13.365 13.3215L13.7472 13.1489Z" fill="#0000FF"/>
<path id="Vector_205" d="M13.5223 15.2572L13.3086 14.7271C13.1512 14.801 12.9938 14.8873 12.842 14.9736L13.1063 15.5408C13.2412 15.4421 13.3817 15.3497 13.5223 15.2572Z" fill="#0000FF"/>
<path id="Vector_206" d="M14.1237 13.9442L13.9944 13.5127L13.8876 13.5497L13.5222 13.6976L13.7077 14.1785L14.1237 13.9442Z" fill="#0000FF"/>
<path id="Vector_207" d="M14.6352 15.6394L14.4721 15.1093L14.073 15.2634L14.2698 15.8243C14.3878 15.7565 14.5115 15.701 14.6352 15.6394Z" fill="#0000FF"/>
<path id="Vector_208" d="M14.3766 14.7949L14.2361 14.3387C14.0899 14.388 13.9438 14.4496 13.8032 14.5113L13.9775 15.0045L14.3766 14.7949Z" fill="#0000FF"/>
<path id="Vector_209" d="M15.175 13.562L15.1075 13.223L14.6128 13.3463L14.7084 13.7285C14.8601 13.636 15.0176 13.562 15.175 13.562Z" fill="#0000FF"/>
</g>
</g>
</g>
<defs>
<clipPath id="clip0_18_963">
<rect width="203" height="50.4815" fill="white" transform="translate(0.777832)"/>
</clipPath>
</defs>
</svg>
