<svg width="21" height="21" viewBox="0 0 21 21" fill="none" xmlns="http://www.w3.org/2000/svg">
<g id="Frame">
<g id="SVGRepo_iconCarrier">
<path id="Vector" fill-rule="evenodd" clip-rule="evenodd" d="M9.62981 1.75H11.3702C12.5829 1.74999 13.5474 1.74999 14.3251 1.81458C15.1217 1.88072 15.8003 2.01911 16.4201 2.34108C17.379 2.83917 18.1608 3.621 18.6589 4.57988C18.9809 5.19971 19.1193 5.87835 19.1854 6.67484C19.25 7.45257 19.25 8.41706 19.25 9.62981V11.3702C19.25 12.5829 19.25 13.5474 19.1854 14.3251C19.1193 15.1217 18.9809 15.8003 18.6589 16.4201C18.1608 17.379 17.379 18.1608 16.4201 18.6589C15.8003 18.9809 15.1217 19.1193 14.3251 19.1854C13.5474 19.25 12.5829 19.25 11.3702 19.25H9.62981C8.41706 19.25 7.45257 19.25 6.67484 19.1854C5.87835 19.1193 5.19971 18.9809 4.57988 18.6589C3.621 18.1608 2.83917 17.379 2.34108 16.4201C2.01911 15.8003 1.88072 15.1217 1.81458 14.3251C1.74999 13.5474 1.74999 12.5829 1.75 11.3702V9.62981C1.74999 8.41705 1.74999 7.45256 1.81458 6.67484C1.88072 5.87835 2.01911 5.19971 2.34108 4.57988C2.83917 3.621 3.621 2.83917 4.57988 2.34108C5.19971 2.01911 5.87835 1.88072 6.67484 1.81458C7.45256 1.74999 8.41705 1.74999 9.62981 1.75ZM6.81967 3.55857C6.13336 3.61556 5.71499 3.72346 5.38659 3.89406C4.74734 4.22612 4.22612 4.74734 3.89406 5.38659C3.72346 5.71499 3.61556 6.13336 3.55857 6.81967C3.5007 7.51647 3.5 8.4083 3.5 9.66875V11.3313C3.5 12.5917 3.5007 13.4835 3.55857 14.1803C3.61556 14.8667 3.72346 15.285 3.89406 15.6134C4.22612 16.2527 4.74734 16.7739 5.38659 17.106C5.71499 17.2765 6.13336 17.3844 6.81967 17.4415C7.51647 17.4993 8.4083 17.5 9.66875 17.5H11.3313C12.5917 17.5 13.4835 17.4993 14.1803 17.4415C14.8667 17.3844 15.285 17.2765 15.6134 17.106C16.2527 16.7739 16.7739 16.2527 17.106 15.6134C17.2765 15.285 17.3844 14.8667 17.4415 14.1803C17.4993 13.4835 17.5 12.5917 17.5 11.3313V9.66875C17.5 8.4083 17.4993 7.51647 17.4415 6.81967C17.3844 6.13336 17.2765 5.71499 17.106 5.38659C16.7739 4.74734 16.2527 4.22612 15.6134 3.89406C15.285 3.72346 14.8667 3.61556 14.1803 3.55857C13.4835 3.5007 12.5917 3.5 11.3313 3.5H9.66875C8.4083 3.5 7.51647 3.5007 6.81967 3.55857ZM10.3498 5.91269C10.8331 5.91269 11.2248 6.30444 11.2248 6.78769V11.1339L14.3109 12.3071C14.7627 12.4788 14.9896 12.9842 14.8179 13.4359C14.6462 13.8876 14.1408 14.1146 13.6891 13.9429L10.039 12.5554C9.69937 12.4262 9.47485 12.1007 9.47485 11.7374V6.78769C9.47485 6.30444 9.86659 5.91269 10.3498 5.91269Z" fill="#0F1729"/>
</g>
</g>
</svg>
