<svg width="27" height="27" viewBox="0 0 27 27" fill="none" xmlns="http://www.w3.org/2000/svg">
<g id="Frame">
<g id="SVGRepo_iconCarrier">
<path id="Vector" d="M20.0663 9.29178L20.5587 8.79938C21.3745 7.98354 22.6973 7.98354 23.5131 8.79938C24.329 9.61522 24.329 10.938 23.5131 11.7538L23.0208 12.2462M20.0663 9.29178C20.0663 9.29178 20.1279 10.3381 21.0511 11.2614C21.9744 12.1846 23.0208 12.2462 23.0208 12.2462M20.0663 9.29178L15.5394 13.8186C15.2327 14.1253 15.0794 14.2786 14.9476 14.4476C14.7921 14.6471 14.6588 14.8629 14.55 15.0911C14.4578 15.2847 14.3891 15.4903 14.2521 15.9017L13.813 17.2187L13.671 17.6448M23.0208 12.2462L18.4939 16.7731C18.1872 17.0798 18.0339 17.2331 17.8649 17.3649C17.6654 17.5204 17.4496 17.6537 17.2214 17.7625C17.0278 17.8548 16.8222 17.9234 16.4108 18.0605L15.0938 18.4995L14.6677 18.6415M13.671 17.6448L13.5289 18.071C13.4614 18.2734 13.5141 18.4966 13.665 18.6475C13.8159 18.7984 14.0391 18.8511 14.2415 18.7836L14.6677 18.6415M13.671 17.6448L14.6677 18.6415" stroke="white" stroke-width="3"/>
<path id="Vector_2" d="M9.25 14.5625H11.9063" stroke="white" stroke-width="3" stroke-linecap="round"/>
<path id="Vector_3" d="M9.25 10.3125H16.1563" stroke="white" stroke-width="3" stroke-linecap="round"/>
<path id="Vector_4" d="M9.25 18.8125H10.8438" stroke="white" stroke-width="3" stroke-linecap="round"/>
<path id="Vector_5" d="M21.8177 4.11979C20.573 2.875 18.5694 2.875 14.5625 2.875H12.4375C8.43056 2.875 6.4271 2.875 5.18229 4.11979C3.9375 5.3646 3.9375 7.36806 3.9375 11.375V15.625C3.9375 19.6319 3.9375 21.6355 5.18229 22.8802C6.4271 24.125 8.43056 24.125 12.4375 24.125H14.5625C18.5694 24.125 20.573 24.125 21.8177 22.8802C22.8197 21.8781 23.0151 20.3846 23.0533 17.75" stroke="white" stroke-width="3" stroke-linecap="round"/>
</g>
</g>
</svg>
