<svg width="22" height="21" viewBox="0 0 22 21" fill="none" xmlns="http://www.w3.org/2000/svg">
<g id="Frame">
<g id="SVGRepo_iconCarrier">
<path id="Vector" d="M8.8125 12.0312C8.8125 12.88 9.46875 13.5625 10.2737 13.5625H11.9187C12.6187 13.5625 13.1875 12.9675 13.1875 12.2238C13.1875 11.4275 12.8375 11.1388 12.3212 10.955L9.6875 10.0363C9.17125 9.8525 8.82126 9.5725 8.82126 8.7675C8.82126 8.03249 9.39 7.42874 10.09 7.42874H11.735C12.54 7.42874 13.1962 8.11124 13.1962 8.96" stroke="white" stroke-width="1.5" stroke-linecap="round" stroke-linejoin="round"/>
<path id="Vector_2" d="M11 6.5625V14.4375" stroke="white" stroke-width="1.5" stroke-linecap="round" stroke-linejoin="round"/>
<path id="Vector_3" d="M19.75 10.5C19.75 15.33 15.83 19.25 11 19.25C6.17 19.25 2.25 15.33 2.25 10.5C2.25 5.67 6.17 1.75 11 1.75" stroke="white" stroke-width="1.5" stroke-linecap="round" stroke-linejoin="round"/>
<path id="Vector_4" d="M15.375 2.625V6.125H18.875" stroke="white" stroke-width="1.5" stroke-linecap="round" stroke-linejoin="round"/>
<path id="Vector_5" d="M19.75 1.75L15.375 6.125" stroke="white" stroke-width="1.5" stroke-linecap="round" stroke-linejoin="round"/>
</g>
</g>
</svg>
