<svg width="27" height="27" viewBox="0 0 27 27" fill="none" xmlns="http://www.w3.org/2000/svg">
<g id="Frame">
<g id="SVGRepo_iconCarrier">
<path id="Vector" d="M18.3014 18.2826C18.4873 18.1376 18.6559 17.9689 18.9932 17.6316L23.198 13.4269C23.2996 13.3253 23.253 13.1502 23.1172 13.103C22.6209 12.9309 21.9753 12.6076 21.3713 12.0036C20.7674 11.3997 20.4441 10.754 20.272 10.2577C20.2248 10.1219 20.0497 10.0754 19.9481 10.177L15.7434 14.3817C15.406 14.7191 15.2374 14.8877 15.0924 15.0736C14.9213 15.293 14.7746 15.5303 14.655 15.7815C14.5535 15.9943 14.478 16.2206 14.3273 16.6731L14.1323 17.2578L13.8224 18.1875L13.5318 19.0593C13.4576 19.282 13.5155 19.5274 13.6815 19.6935C13.8476 19.8594 14.093 19.9173 14.3157 19.8432L15.1875 19.5526L16.1172 19.2427L16.7019 19.0477C17.1543 18.8969 17.3807 18.8215 17.5935 18.72C17.8447 18.6004 18.0819 18.4536 18.3014 18.2826Z" fill="#0D5A50"/>
<path id="Vector_2" d="M24.5144 12.1105C25.4119 11.213 25.4119 9.758 24.5144 8.86057C23.617 7.96314 22.162 7.96314 21.2645 8.86057L21.1294 8.99575C20.9989 9.1262 20.9398 9.30839 20.9724 9.48998C20.9929 9.60419 21.0309 9.77119 21.1 9.97045C21.2383 10.369 21.4993 10.8921 21.9912 11.3838C22.4829 11.8756 23.0061 12.1367 23.4045 12.2749C23.6038 12.3441 23.7707 12.382 23.885 12.4025C24.0665 12.4352 24.2488 12.3761 24.3792 12.2456L24.5144 12.1105Z" fill="#0D5A50"/>
<path id="Vector_3" fill-rule="evenodd" clip-rule="evenodd" d="M5.18229 4.11979C3.9375 5.3646 3.9375 7.36806 3.9375 11.375V15.625C3.9375 19.6319 3.9375 21.6355 5.18229 22.8802C6.4271 24.125 8.43056 24.125 12.4375 24.125H14.5625C18.5694 24.125 20.573 24.125 21.8177 22.8802C23.0425 21.6553 23.0622 19.6961 23.0625 15.8164L20.0681 18.8108C19.7814 19.0976 19.5467 19.3325 19.2816 19.5394C18.9709 19.7816 18.6349 19.9893 18.2792 20.1588C17.9757 20.3034 17.6606 20.4084 17.2759 20.5364L14.8197 21.3552C14.0243 21.6203 13.1475 21.4133 12.5546 20.8204C11.9618 20.2275 11.7547 19.3507 12.0199 18.5553L12.3105 17.6836L12.8153 16.1691L12.8386 16.0992C12.9667 15.7145 13.0716 15.3993 13.2162 15.0958C13.3857 14.7402 13.5934 14.4041 13.8357 14.0935C14.0425 13.8283 14.2774 13.5936 14.5643 13.3069L18.8211 9.05012L20.0025 7.86879L20.1376 7.73362C20.8978 6.9735 21.8941 6.59355 22.8904 6.59375C22.7296 5.49879 22.4187 4.72085 21.8177 4.11979C20.573 2.875 18.5694 2.875 14.5625 2.875H12.4375C8.43056 2.875 6.4271 2.875 5.18229 4.11979ZM8.45312 10.3125C8.45312 9.8724 8.8099 9.51563 9.25 9.51563H16.1562C16.5963 9.51563 16.9531 9.8724 16.9531 10.3125C16.9531 10.7526 16.5963 11.1094 16.1562 11.1094H9.25C8.8099 11.1094 8.45312 10.7526 8.45312 10.3125ZM8.45312 14.5625C8.45312 14.1224 8.8099 13.7656 9.25 13.7656H11.9062C12.3463 13.7656 12.7031 14.1224 12.7031 14.5625C12.7031 15.0026 12.3463 15.3594 11.9062 15.3594H9.25C8.8099 15.3594 8.45312 15.0026 8.45312 14.5625ZM8.45312 18.8125C8.45312 18.3724 8.8099 18.0156 9.25 18.0156H10.8438C11.2838 18.0156 11.6406 18.3724 11.6406 18.8125C11.6406 19.2526 11.2838 19.6094 10.8438 19.6094H9.25C8.8099 19.6094 8.45312 19.2526 8.45312 18.8125Z" fill="#0D5A50"/>
</g>
</g>
</svg>
