<svg width="28" height="28" viewBox="0 0 28 28" fill="none" xmlns="http://www.w3.org/2000/svg">
<g id="Frame">
<g id="SVGRepo_iconCarrier">
<path id="Vector" d="M21.21 9.37922L21.7508 8.83854C22.6465 7.94272 24.099 7.94272 24.9948 8.83854C25.8907 9.73437 25.8907 11.1868 24.9948 12.0826L24.4542 12.6233M21.21 9.37922C21.21 9.37922 21.2777 10.5282 22.2914 11.5419C23.3052 12.5557 24.4542 12.6233 24.4542 12.6233M21.21 9.37922L16.2393 14.3499C15.9026 14.6866 15.7343 14.8549 15.5895 15.0406C15.4188 15.2595 15.2724 15.4965 15.1529 15.7471C15.0517 15.9597 14.9763 16.1854 14.8258 16.6371L14.3437 18.0833L14.1877 18.5512M24.4542 12.6233L19.4835 17.594C19.1468 17.9307 18.9784 18.0991 18.7928 18.2439C18.5738 18.4146 18.3369 18.561 18.0863 18.6804C17.8737 18.7817 17.648 18.8571 17.1962 19.0076L15.75 19.4896L15.2822 19.6456M14.1877 18.5512L14.0318 19.0191C13.9577 19.2414 14.0155 19.4865 14.1812 19.6522C14.3469 19.8178 14.592 19.8757 14.8142 19.8016L15.2822 19.6456M14.1877 18.5512L15.2822 19.6456" stroke="#319E90" stroke-width="2"/>
<path id="Vector_2" d="M9.3335 15.1667H12.2502" stroke="#319E90" stroke-width="2" stroke-linecap="round"/>
<path id="Vector_3" d="M9.3335 10.5H16.9168" stroke="#319E90" stroke-width="2" stroke-linecap="round"/>
<path id="Vector_4" d="M9.3335 19.8333H11.0835" stroke="#319E90" stroke-width="2" stroke-linecap="round"/>
<path id="Vector_5" d="M23.1331 3.70016C21.7664 2.33333 19.5664 2.33333 15.1667 2.33333H12.8333C8.43355 2.33333 6.23367 2.33333 4.86683 3.70016C3.5 5.067 3.5 7.26688 3.5 11.6667V16.3333C3.5 20.7331 3.5 22.933 4.86683 24.2998C6.23367 25.6667 8.43355 25.6667 12.8333 25.6667H15.1667C19.5664 25.6667 21.7664 25.6667 23.1331 24.2998C24.2334 23.1995 24.448 21.5595 24.4898 18.6667" stroke="#319E90" stroke-width="2" stroke-linecap="round"/>
</g>
</g>
</svg>
