<svg width="579" height="33" viewBox="0 0 579 33" fill="none" xmlns="http://www.w3.org/2000/svg">
<path d="M571 4C571 6.20914 572.791 8 575 8C577.209 8 579 6.20914 579 4C579 1.79086 577.209 0 575 0C572.791 0 571 1.79086 571 4ZM0 4C0 6.20914 1.79086 8 4 8C6.20914 8 8 6.20914 8 4C8 1.79086 6.20914 0 4 0C1.79086 0 0 1.79086 0 4ZM574.25 4V14.5H575.75V4H574.25ZM558 30.75H21V32.25H558V30.75ZM4.75 14.5V4H3.25V14.5H4.75ZM21 30.75C12.0254 30.75 4.75 23.4746 4.75 14.5H3.25C3.25 24.3031 11.197 32.25 21 32.25V30.75ZM574.25 14.5C574.25 23.4746 566.975 30.75 558 30.75V32.25C567.803 32.25 575.75 24.3031 575.75 14.5H574.25Z" fill="#319E90"/>
</svg>
