<svg width="21" height="20" viewBox="0 0 21 20" fill="none" xmlns="http://www.w3.org/2000/svg">
<g id="Frame">
<g id="SVGRepo_iconCarrier">
<path id="Vector" fill-rule="evenodd" clip-rule="evenodd" d="M2.38232 5.07077C2.38232 4.72965 2.65886 4.45312 2.99997 4.45312H17.8235C18.1646 4.45312 18.4411 4.72965 18.4411 5.07077C18.4411 5.41189 18.1646 5.68842 17.8235 5.68842H2.99997C2.65886 5.68842 2.38232 5.41189 2.38232 5.07077Z" fill="#EA000E"/>
<path id="Vector_2" fill-rule="evenodd" clip-rule="evenodd" d="M16.2656 12.9045C16.0241 15.0909 15.9034 16.184 15.2862 16.9387C15.0704 17.2026 14.815 17.4313 14.529 17.6169C13.7112 18.1475 12.6113 18.1475 10.4116 18.1475C8.21199 18.1475 7.11216 18.1475 6.29428 17.6169C6.0083 17.4313 5.75285 17.2026 5.53706 16.9387C4.91989 16.184 4.79915 15.0908 4.55767 12.9045L3.62964 4.50195H17.1936L16.2656 12.9045ZM12.0587 8.64824C12.3998 8.64824 12.6763 8.92478 12.6763 9.26589V13.3835C12.6763 13.7246 12.3998 14.0012 12.0587 14.0012C11.7176 14.0012 11.441 13.7246 11.441 13.3835V9.26589C11.441 8.92478 11.7176 8.64824 12.0587 8.64824ZM9.3822 9.26589C9.3822 8.92478 9.10566 8.64824 8.76453 8.64824C8.42342 8.64824 8.14689 8.92478 8.14689 9.26589V13.3835C8.14689 13.7246 8.42342 14.0012 8.76453 14.0012C9.10566 14.0012 9.3822 13.7246 9.3822 13.3835V9.26589Z" fill="#EA000E"/>
<path id="Vector_3" fill-rule="evenodd" clip-rule="evenodd" d="M9.04298 1.0586C9.05615 1.0586 9.06933 1.0586 9.08259 1.0586H11.7409C11.7542 1.0586 11.7675 1.0586 11.7806 1.0586C12.2097 1.05856 12.5937 1.05852 12.9042 1.10175C13.2442 1.1491 13.5856 1.25857 13.8624 1.54521C14.1363 1.82883 14.238 2.17349 14.2824 2.51519C14.3236 2.83233 14.3235 3.22609 14.3235 3.67315V5.08763H13.0882V3.71111C13.0882 3.21461 13.087 2.90226 13.0574 2.67423C13.0298 2.46181 12.9877 2.41767 12.9738 2.40329L12.973 2.40249C12.9612 2.39018 12.9245 2.35179 12.7338 2.32524C12.5188 2.2953 12.2222 2.2939 11.7409 2.2939H9.08259C8.60137 2.2939 8.30478 2.2953 8.08972 2.32524C7.89905 2.35179 7.86228 2.39018 7.85049 2.40249L7.84972 2.40329C7.83583 2.41767 7.79371 2.46181 7.76613 2.67423C7.73652 2.90226 7.7353 3.21461 7.7353 3.71111V5.08763H6.5V3.71111C6.5 3.69841 6.5 3.68575 6.5 3.67315C6.49997 3.22608 6.49994 2.83233 6.54111 2.51519C6.58548 2.17349 6.68722 1.82883 6.9611 1.54521C7.23788 1.25857 7.57931 1.1491 7.91937 1.10175C8.22986 1.05852 8.61387 1.05856 9.04298 1.0586Z" fill="#EA000E"/>
</g>
</g>
</svg>
