<svg width="108" height="51" viewBox="0 0 108 51" fill="none" xmlns="http://www.w3.org/2000/svg">
<path d="M62.0122 32.9796V33.0016V40.0969C62.4664 40.0969 105.373 29.8664 105.373 29.8664C106.984 29.4814 107.482 29.1184 107.482 28.2933V20.879C107.471 21.803 106.173 22.518 104.811 22.8371L62.0122 32.9796Z" fill="#00AB84"/>
<path d="M62.0122 43.3641V43.3861V50.4814C62.4664 50.4814 105.373 40.2509 105.373 40.2509C106.984 39.8659 107.482 39.5029 107.482 38.6779V31.2635C107.471 32.1875 106.173 32.9026 104.811 33.2216L62.0122 43.3641Z" fill="#00594F"/>
<path d="M64.7263 19.0419L67.9703 19.7899C72.4037 18.7339 77.7994 17.4578 83.8548 16.0277L62.0122 10.9895V17.2818C62.0122 18.1949 62.7475 18.5909 64.7263 19.0419Z" fill="#C7C8C9"/>
<path d="M91.4889 14.2236L64.7263 8.05227C62.7475 7.60125 62.0122 7.20523 62.0122 6.29219V-0.00012207L105.979 10.1424C105.524 10.6814 104.638 11.0994 103.708 11.3304H103.697L91.4889 14.2236Z" fill="#C7C8C9"/>
<path d="M61.4502 22.6611L55.2002 31.3405C55.8274 31.1975 105.373 19.4269 105.373 19.4269C106.984 19.0419 107.482 18.6789 107.482 17.8538V10.4395C107.471 11.3635 106.173 12.0785 104.811 12.3975L61.4502 22.6611Z" fill="#4CC2BF"/>
<path d="M2.07549 13.6516V20.769C2.07549 21.286 1.9998 21.627 1.8376 21.825C1.6754 22.012 1.44833 22.1111 1.12393 22.1111C0.831976 22.1111 0.485954 22.012 0.0966797 21.825V23.8161C0.831976 24.0691 1.45914 24.1902 1.94573 24.1902C2.50802 24.1902 2.99461 24.0691 3.3947 23.8161C3.79479 23.5631 4.08674 23.2001 4.27056 22.7271C4.45439 22.2541 4.55171 21.539 4.55171 20.582V13.0686L2.07549 13.6516Z" fill="#54565B"/>
<path d="M10.1415 9.86743L7.66528 10.4615V17.5128C7.66528 18.4699 7.7626 19.1849 7.94642 19.6579C8.13025 20.1309 8.42221 20.494 8.82229 20.747C9.22238 21 9.69816 21.121 10.2496 21.121L37.5313 21.11C38.0287 21.088 38.4612 20.967 38.8288 20.736C39.2289 20.483 39.5209 20.1199 39.7047 19.6469C39.8885 19.1739 39.9859 18.4589 39.9859 17.5018V13.7066L37.5096 14.3007V17.1608C37.5096 17.6668 37.4339 18.0188 37.2718 18.2168C37.142 18.3819 36.9474 18.4699 36.6987 18.4919H32.2653L32.2328 17.7548C32.2328 17.1058 32.1139 16.4678 31.876 15.7637C31.6381 15.0597 31.238 14.4547 30.6865 13.9266C30.1351 13.4096 29.4106 12.9916 28.5239 12.6946C27.6372 12.3976 26.5451 12.2435 25.2583 12.2435C24.7717 12.2435 24.35 12.2545 24.0148 12.2656C23.6796 12.2766 23.9607 12.3096 23.7012 12.3316L23.4741 14.7517C23.7337 14.7187 24.0472 14.6967 24.4041 14.6857C24.7609 14.6747 25.161 14.6637 25.5935 14.6637C26.3613 14.6637 27.01 14.7297 27.5399 14.8727C28.0697 15.0157 28.5023 15.2357 28.8375 15.5437C29.1727 15.8517 29.4214 16.2477 29.562 16.7428C29.7025 17.2158 29.7782 17.7988 29.7782 18.4919H10.9525C10.7038 18.4699 10.52 18.3819 10.3794 18.2168C10.2172 18.0298 10.1415 17.6778 10.1415 17.1608V9.86743Z" fill="#54565B"/>
<path d="M44.6241 23.4861C44.7863 23.4861 44.9809 23.5521 45.1539 23.6181C45.3485 23.7171 45.4783 23.7831 45.5864 23.8491V22.6501C45.3918 22.5511 45.1863 22.4521 45.0241 22.3861C44.8295 22.3201 44.6673 22.287 44.4619 22.287C44.2348 22.287 43.9969 22.3201 43.8023 22.3861C43.5752 22.4521 43.4022 22.5511 43.24 22.6831C43.1102 22.7821 42.9805 22.9801 42.8831 23.1891C42.7858 23.4201 42.7534 23.6621 42.7534 23.9591C42.7534 24.0251 42.7534 24.1241 42.7858 24.2561C42.8183 24.3552 42.8507 24.4872 42.8831 24.5532H42.1911H42.1262V25.6202H45.5432V24.5202H44.1267C44.0618 24.4542 44.0293 24.3552 43.9969 24.2231C43.9645 24.0911 43.9645 24.0251 43.9645 23.9591C43.9645 23.7611 44.0293 23.6291 44.1591 23.5521C44.2889 23.4861 44.4619 23.4861 44.6241 23.4861Z" fill="#54565B"/>
<path d="M34.3304 22.749C33.952 22.749 33.6276 22.881 33.3464 23.167C33.0653 23.4531 32.9355 23.7831 32.9355 24.2011C32.9355 24.5861 33.0653 24.9161 33.3464 25.2021C33.5952 25.4882 33.952 25.6202 34.3304 25.6202C34.7089 25.6202 35.0549 25.4552 35.3144 25.2021C35.5956 24.9161 35.7253 24.5861 35.7253 24.2011C35.7253 23.7831 35.5956 23.4641 35.3144 23.167C35.0225 22.881 34.7089 22.749 34.3304 22.749Z" fill="#54565B"/>
<path d="M37.8551 22.749C37.4766 22.749 37.1523 22.881 36.8711 23.167C36.59 23.4531 36.4602 23.7831 36.4602 24.2011C36.4602 24.5861 36.59 24.9161 36.8711 25.2021C37.1198 25.4882 37.4766 25.6202 37.8551 25.6202C38.2336 25.6202 38.558 25.4552 38.8391 25.2021C39.1202 24.9161 39.25 24.5861 39.25 24.2011C39.25 23.7831 39.1202 23.4641 38.8391 23.167C38.5471 22.881 38.2336 22.749 37.8551 22.749Z" fill="#54565B"/>
<path d="M25.7555 22.749C25.377 22.749 25.0526 22.881 24.7715 23.167C24.4904 23.4531 24.3606 23.7831 24.3606 24.2011C24.3606 24.5861 24.4904 24.9161 24.7715 25.2021C25.0202 25.4882 25.377 25.6202 25.7555 25.6202C26.134 25.6202 26.48 25.4552 26.7395 25.2021C27.0206 24.9161 27.1504 24.5861 27.1504 24.2011C27.1504 23.7831 27.0206 23.4641 26.7395 23.167C26.4475 22.881 26.134 22.749 25.7555 22.749Z" fill="#54565B"/>
<path d="M43.0891 9.86745V21.11H45.5761V9.28442L43.0891 9.86745Z" fill="#54565B"/>
<path d="M1.98801 41.131H8.15152V38.8099H2.53948V36.8628H7.51354V34.5307H2.53948V32.4296H8.15152V30.1415H1.98801C0.928315 30.1415 0.0740749 31.0105 0.0740749 32.0886V39.1729C0.0632617 40.262 0.928315 41.131 1.98801 41.131Z" fill="#54565B"/>
<path d="M45.1655 40.724C44.3869 39.6349 43.5976 38.5459 42.7974 37.4678C43.3489 37.1818 43.8138 36.7748 44.1707 36.2358C44.5816 35.6087 44.7978 34.8607 44.7978 34.0137C44.7978 33.4636 44.7005 32.9356 44.5167 32.4626C44.3329 31.9896 44.0734 31.5715 43.7381 31.2305C43.4029 30.8895 43.0028 30.6145 42.5271 30.4275C42.0621 30.2405 41.5431 30.1415 40.9916 30.1415H37.4989C36.7096 30.1415 36.0608 30.8015 36.0608 31.6046V41.12H38.537V37.7869H40.0941C40.4618 38.3259 40.8294 38.8539 41.197 39.3709C41.5863 39.921 41.9972 40.482 42.4081 41.021L42.4838 41.12H45.4574L45.1655 40.724ZM38.537 32.4406H40.9808C41.2727 32.4406 41.5106 32.4956 41.6728 32.5946C41.8458 32.7046 41.9756 32.8366 42.0729 32.9906C42.1702 33.1556 42.2351 33.3316 42.2676 33.5076C42.3 33.7057 42.3216 33.8707 42.3216 34.0027C42.3216 34.2557 42.2784 34.4867 42.2027 34.6627C42.1162 34.8497 42.008 35.0147 41.8891 35.1357C41.7593 35.2567 41.6296 35.3447 41.4674 35.4107C41.3052 35.4767 41.1538 35.4987 41.0024 35.4987H38.5478V32.4406H38.537Z" fill="#54565B"/>
<path d="M16.5323 30.6695V36.8518C16.5323 37.0388 16.5107 37.2588 16.4674 37.5008C16.435 37.7208 16.3485 37.9518 16.2404 38.1608C16.1322 38.3698 15.97 38.5348 15.7646 38.6778C15.5699 38.8099 15.2888 38.8759 14.9428 38.8759C14.7373 38.8759 14.5643 38.8429 14.4237 38.7879C14.2724 38.7218 14.1426 38.6448 14.0345 38.5568C13.9263 38.4688 13.829 38.3588 13.7425 38.2378C13.656 38.1168 13.5911 37.9958 13.5479 37.8748L13.4506 37.6328L11.2014 38.6558L11.3095 38.8869C11.6231 39.6019 12.1097 40.1739 12.7369 40.5809C13.3641 40.988 14.1102 41.197 14.9644 41.197C15.5699 41.197 16.1214 41.087 16.6188 40.889C17.1162 40.6799 17.5487 40.3829 17.9056 39.9979C18.2624 39.6129 18.5436 39.1509 18.7274 38.6118C18.922 38.0838 19.0193 37.4898 19.0193 36.8518V30.0864L16.5323 30.6695Z" fill="#54565B"/>
<path d="M27.5286 30.4164C27.4637 30.2624 27.3123 30.1634 27.1501 30.1634C26.9879 30.1634 26.8257 30.2734 26.7717 30.4164L21.3867 41.1309H24.1008L24.8902 39.4919H29.4101L30.2103 41.1309H32.9244L27.5286 30.4164ZM26.0796 37.2257L27.1501 34.9266L28.2098 37.2257H26.0796Z" fill="#54565B"/>
</svg>
