<svg width="28" height="28" viewBox="0 0 28 28" fill="none" xmlns="http://www.w3.org/2000/svg">
<g id="Frame">
<g id="SVGRepo_iconCarrier">
<path id="Vector" d="M11.375 14C11.375 12.5503 12.5503 11.375 14 11.375C15.4497 11.375 16.625 12.5503 16.625 14C16.625 15.4497 15.4497 16.625 14 16.625C12.5503 16.625 11.375 15.4497 11.375 14Z" fill="#319E90"/>
<path id="Vector_2" fill-rule="evenodd" clip-rule="evenodd" d="M3.11108 13.9998C3.11108 15.9125 3.60687 16.5566 4.59846 17.8448C6.57837 20.417 9.89888 23.3332 14.7777 23.3332C19.6566 23.3332 22.9771 20.417 24.957 17.8448C25.9486 16.5566 26.4444 15.9125 26.4444 13.9998C26.4444 12.0872 25.9486 11.4431 24.957 10.1549C22.9771 7.58266 19.6566 4.6665 14.7777 4.6665C9.89888 4.6665 6.57837 7.58266 4.59846 10.1549C3.60687 11.4431 3.11108 12.0872 3.11108 13.9998ZM14.7777 9.62484C12.3615 9.62484 10.4027 11.5836 10.4027 13.9998C10.4027 16.4161 12.3615 18.3748 14.7777 18.3748C17.194 18.3748 19.1527 16.4161 19.1527 13.9998C19.1527 11.5836 17.194 9.62484 14.7777 9.62484Z" fill="#319E90"/>
</g>
</g>
</svg>
