<svg width="24" height="24" viewBox="0 0 24 24" fill="none" xmlns="http://www.w3.org/2000/svg">
<path d="M1.49887 1.5L22.4988 22.5M9.48386 9.56591C8.87411 10.1959 8.49887 11.0541 8.49887 12C8.49887 13.933 10.0659 15.5 11.9988 15.5C12.9584 15.5 13.8278 15.1138 14.46 14.4885M5.5822 5.75501C3.36635 7.21706 1.67857 9.4146 0.866547 12C2.35317 16.7333 6.7752 20.1667 11.9991 20.1667C14.3195 20.1667 16.4816 19.4893 18.2986 18.3215M10.8322 3.89095C11.216 3.85285 11.6053 3.83333 11.9991 3.83333C17.2231 3.83333 21.6451 7.26673 23.1316 12C22.8042 13.043 22.334 14.0228 21.7442 14.9167" stroke="#319E90" stroke-width="1.5" stroke-linecap="round" stroke-linejoin="round"/>
</svg>
