<svg width="11" height="12" viewBox="0 0 11 12" fill="none" xmlns="http://www.w3.org/2000/svg">
<g id="Social Icons" clip-path="url(#clip0_17_733)">
<path id="Vector" d="M5.33602 0.52832C2.39053 0.52832 0.00268555 2.88512 0.00268555 5.79232C0.00268555 8.26093 1.72471 10.3324 4.0477 10.9013V7.401H2.94797V5.79232H4.0477V5.09916C4.0477 3.3075 4.86925 2.47705 6.65143 2.47705C6.98935 2.47705 7.57239 2.54254 7.8109 2.60781V4.06594C7.68503 4.05288 7.46637 4.04636 7.19479 4.04636C6.32034 4.04636 5.98242 4.37336 5.98242 5.22339V5.79232H7.7245L7.42519 7.401H5.98242V11.0178C8.62327 10.703 10.6696 8.4837 10.6696 5.79232C10.6694 2.88512 8.28151 0.52832 5.33602 0.52832Z" fill="white"/>
</g>
<defs>
<clipPath id="clip0_17_733">
<rect width="10.6667" height="10.528" fill="white" transform="translate(0.00268555 0.52832)"/>
</clipPath>
</defs>
</svg>
