<svg width="195" height="91" viewBox="0 0 195 91" fill="none" xmlns="http://www.w3.org/2000/svg">
<g filter="url(#filter0_dddd_296_718)">
<rect x="17.5652" y="6" width="160.435" height="57.2982" rx="6.586" fill="black"/>
</g>
<path d="M70.5957 22.9119C71.083 22.9119 71.5089 23.0063 71.8733 23.1951C72.2422 23.3795 72.5254 23.6473 72.7229 23.9986C72.9249 24.3455 73.0259 24.7516 73.0259 25.217C73.0259 25.6824 72.9249 26.0863 72.7229 26.4288C72.5254 26.7713 72.2422 27.0347 71.8733 27.2191C71.5089 27.3992 71.083 27.4892 70.5957 27.4892H69.1006V22.9119H70.5957ZM70.5957 26.8767C71.1313 26.8767 71.5418 26.7318 71.8272 26.442C72.1126 26.1522 72.2553 25.7439 72.2553 25.217C72.2553 24.6857 72.1126 24.2708 71.8272 23.9722C71.5418 23.6737 71.1313 23.5244 70.5957 23.5244H69.8514V26.8767H70.5957ZM75.3441 27.5484C75.0016 27.5484 74.692 27.4716 74.4154 27.3179C74.1388 27.1599 73.9215 26.9403 73.7634 26.6593C73.6054 26.3739 73.5263 26.0446 73.5263 25.6714C73.5263 25.3026 73.6076 24.9755 73.77 24.6901C73.9325 24.4047 74.1542 24.1852 74.4352 24.0315C74.7162 23.8778 75.0301 23.801 75.377 23.801C75.7239 23.801 76.0378 23.8778 76.3188 24.0315C76.5998 24.1852 76.8215 24.4047 76.984 24.6901C77.1464 24.9755 77.2277 25.3026 77.2277 25.6714C77.2277 26.0402 77.1442 26.3674 76.9774 26.6527C76.8105 26.9381 76.5822 27.1599 76.2924 27.3179C76.0071 27.4716 75.6909 27.5484 75.3441 27.5484ZM75.3441 26.8964C75.5372 26.8964 75.7173 26.8503 75.8841 26.7581C76.0553 26.6659 76.1937 26.5276 76.299 26.3432C76.4044 26.1588 76.4571 25.9349 76.4571 25.6714C76.4571 25.408 76.4066 25.1863 76.3056 25.0062C76.2046 24.8218 76.0707 24.6835 75.9039 24.5913C75.737 24.4991 75.557 24.453 75.3638 24.453C75.1706 24.453 74.9906 24.4991 74.8238 24.5913C74.6613 24.6835 74.5318 24.8218 74.4352 25.0062C74.3386 25.1863 74.2903 25.408 74.2903 25.6714C74.2903 26.0622 74.3891 26.3652 74.5867 26.5803C74.7886 26.7911 75.0411 26.8964 75.3441 26.8964ZM82.8435 23.8603L81.7173 27.4892H80.927L80.1959 24.8087L79.4649 27.4892H78.6746L77.5418 23.8603H78.3058L79.0631 26.7779L79.8337 23.8603H80.6174L81.3551 26.7647L82.1059 23.8603H82.8435ZM85.2355 23.801C85.5209 23.801 85.7756 23.8603 85.9995 23.9788C86.2278 24.0974 86.4056 24.273 86.5329 24.5057C86.6603 24.7384 86.7239 25.0194 86.7239 25.3487V27.4892H85.9797V25.4607C85.9797 25.1358 85.8985 24.8877 85.736 24.7165C85.5736 24.5408 85.3519 24.453 85.0709 24.453C84.7899 24.453 84.5659 24.5408 84.3991 24.7165C84.2366 24.8877 84.1554 25.1358 84.1554 25.4607V27.4892H83.4046V23.8603H84.1554V24.2752C84.2783 24.1259 84.4342 24.0096 84.623 23.9261C84.8162 23.8427 85.0204 23.801 85.2355 23.801ZM88.4324 22.6155V27.4892H87.6816V22.6155H88.4324ZM90.9922 27.5484C90.6498 27.5484 90.3402 27.4716 90.0636 27.3179C89.787 27.1599 89.5697 26.9403 89.4116 26.6593C89.2535 26.3739 89.1745 26.0446 89.1745 25.6714C89.1745 25.3026 89.2557 24.9755 89.4182 24.6901C89.5806 24.4047 89.8024 24.1852 90.0834 24.0315C90.3644 23.8778 90.6783 23.801 91.0252 23.801C91.372 23.801 91.686 23.8778 91.967 24.0315C92.248 24.1852 92.4697 24.4047 92.6321 24.6901C92.7946 24.9755 92.8758 25.3026 92.8758 25.6714C92.8758 26.0402 92.7924 26.3674 92.6256 26.6527C92.4587 26.9381 92.2304 27.1599 91.9406 27.3179C91.6552 27.4716 91.3391 27.5484 90.9922 27.5484ZM90.9922 26.8964C91.1854 26.8964 91.3654 26.8503 91.5323 26.7581C91.7035 26.6659 91.8418 26.5276 91.9472 26.3432C92.0526 26.1588 92.1053 25.9349 92.1053 25.6714C92.1053 25.408 92.0548 25.1863 91.9538 25.0062C91.8528 24.8218 91.7189 24.6835 91.552 24.5913C91.3852 24.4991 91.2052 24.453 91.012 24.453C90.8188 24.453 90.6388 24.4991 90.4719 24.5913C90.3095 24.6835 90.18 24.8218 90.0834 25.0062C89.9868 25.1863 89.9385 25.408 89.9385 25.6714C89.9385 26.0622 90.0373 26.3652 90.2348 26.5803C90.4368 26.7911 90.6893 26.8964 90.9922 26.8964ZM93.3678 25.6583C93.3678 25.2938 93.4424 24.9711 93.5917 24.6901C93.7454 24.4091 93.9517 24.1918 94.2108 24.0381C94.4742 23.88 94.764 23.801 95.0801 23.801C95.3655 23.801 95.6136 23.8581 95.8243 23.9722C96.0395 24.082 96.2107 24.2203 96.3381 24.3872V23.8603H97.0954V27.4892H96.3381V26.9491C96.2107 27.1204 96.0373 27.263 95.8178 27.3772C95.5982 27.4914 95.348 27.5484 95.067 27.5484C94.7552 27.5484 94.4698 27.4694 94.2108 27.3113C93.9517 27.1489 93.7454 26.925 93.5917 26.6396C93.4424 26.3498 93.3678 26.0227 93.3678 25.6583ZM96.3381 25.6714C96.3381 25.4212 96.2854 25.2038 96.18 25.0194C96.079 24.835 95.9451 24.6945 95.7782 24.5979C95.6114 24.5013 95.4314 24.453 95.2382 24.453C95.045 24.453 94.865 24.5013 94.6981 24.5979C94.5313 24.6901 94.3952 24.8284 94.2898 25.0128C94.1888 25.1928 94.1383 25.408 94.1383 25.6583C94.1383 25.9085 94.1888 26.1281 94.2898 26.3169C94.3952 26.5057 94.5313 26.6505 94.6981 26.7515C94.8694 26.8481 95.0494 26.8964 95.2382 26.8964C95.4314 26.8964 95.6114 26.8481 95.7782 26.7515C95.9451 26.6549 96.079 26.5144 96.18 26.33C96.2854 26.1412 96.3381 25.9217 96.3381 25.6714ZM97.8313 25.6583C97.8313 25.2938 97.906 24.9711 98.0552 24.6901C98.2089 24.4091 98.4153 24.1918 98.6743 24.0381C98.9378 23.88 99.2297 23.801 99.5503 23.801C99.7874 23.801 100.02 23.8537 100.248 23.9591C100.481 24.0601 100.665 24.1962 100.802 24.3674V22.6155H101.559V27.4892H100.802V26.9425C100.679 27.1182 100.507 27.263 100.288 27.3772C100.073 27.4914 99.8247 27.5484 99.5437 27.5484C99.2276 27.5484 98.9378 27.4694 98.6743 27.3113C98.4153 27.1489 98.2089 26.925 98.0552 26.6396C97.906 26.3498 97.8313 26.0227 97.8313 25.6583ZM100.802 25.6714C100.802 25.4212 100.749 25.2038 100.644 25.0194C100.543 24.835 100.409 24.6945 100.242 24.5979C100.075 24.5013 99.8949 24.453 99.7017 24.453C99.5086 24.453 99.3285 24.5013 99.1617 24.5979C98.9948 24.6901 98.8587 24.8284 98.7534 25.0128C98.6524 25.1928 98.6019 25.408 98.6019 25.6583C98.6019 25.9085 98.6524 26.1281 98.7534 26.3169C98.8587 26.5057 98.9948 26.6505 99.1617 26.7515C99.3329 26.8481 99.5129 26.8964 99.7017 26.8964C99.8949 26.8964 100.075 26.8481 100.242 26.7515C100.409 26.6549 100.543 26.5144 100.644 26.33C100.749 26.1412 100.802 25.9217 100.802 25.6714ZM105.83 27.5484C105.488 27.5484 105.178 27.4716 104.901 27.3179C104.625 27.1599 104.407 26.9403 104.249 26.6593C104.091 26.3739 104.012 26.0446 104.012 25.6714C104.012 25.3026 104.094 24.9755 104.256 24.6901C104.418 24.4047 104.64 24.1852 104.921 24.0315C105.202 23.8778 105.516 23.801 105.863 23.801C106.21 23.801 106.524 23.8778 106.805 24.0315C107.086 24.1852 107.307 24.4047 107.47 24.6901C107.632 24.9755 107.714 25.3026 107.714 25.6714C107.714 26.0402 107.63 26.3674 107.463 26.6527C107.296 26.9381 107.068 27.1599 106.778 27.3179C106.493 27.4716 106.177 27.5484 105.83 27.5484ZM105.83 26.8964C106.023 26.8964 106.203 26.8503 106.37 26.7581C106.541 26.6659 106.68 26.5276 106.785 26.3432C106.89 26.1588 106.943 25.9349 106.943 25.6714C106.943 25.408 106.893 25.1863 106.792 25.0062C106.691 24.8218 106.557 24.6835 106.39 24.5913C106.223 24.4991 106.043 24.453 105.85 24.453C105.657 24.453 105.477 24.4991 105.31 24.5913C105.147 24.6835 105.018 24.8218 104.921 25.0062C104.825 25.1863 104.776 25.408 104.776 25.6714C104.776 26.0622 104.875 26.3652 105.073 26.5803C105.275 26.7911 105.527 26.8964 105.83 26.8964ZM110.287 23.801C110.572 23.801 110.827 23.8603 111.051 23.9788C111.279 24.0974 111.457 24.273 111.584 24.5057C111.711 24.7384 111.775 25.0194 111.775 25.3487V27.4892H111.031V25.4607C111.031 25.1358 110.95 24.8877 110.787 24.7165C110.625 24.5408 110.403 24.453 110.122 24.453C109.841 24.453 109.617 24.5408 109.45 24.7165C109.288 24.8877 109.207 25.1358 109.207 25.4607V27.4892H108.456V23.8603H109.207V24.2752C109.33 24.1259 109.485 24.0096 109.674 23.9261C109.867 23.8427 110.072 23.801 110.287 23.801ZM115.32 24.4728V26.4815C115.32 26.6176 115.35 26.7164 115.412 26.7779C115.478 26.835 115.587 26.8635 115.741 26.8635H116.202V27.4892H115.609C115.271 27.4892 115.012 27.4101 114.832 27.2521C114.652 27.094 114.562 26.8372 114.562 26.4815V24.4728H114.134V23.8603H114.562V22.958H115.32V23.8603H116.202V24.4728H115.32ZM118.771 23.801C119.048 23.801 119.294 23.8603 119.509 23.9788C119.728 24.0974 119.9 24.273 120.022 24.5057C120.15 24.7384 120.213 25.0194 120.213 25.3487V27.4892H119.469V25.4607C119.469 25.1358 119.388 24.8877 119.226 24.7165C119.063 24.5408 118.841 24.453 118.56 24.453C118.279 24.453 118.055 24.5408 117.889 24.7165C117.726 24.8877 117.645 25.1358 117.645 25.4607V27.4892H116.894V22.6155H117.645V24.2818C117.772 24.1281 117.933 24.0096 118.126 23.9261C118.323 23.8427 118.538 23.801 118.771 23.801ZM124.497 25.5858C124.497 25.7219 124.488 25.8449 124.471 25.9546H121.698C121.72 26.2444 121.828 26.4771 122.021 26.6527C122.214 26.8284 122.451 26.9162 122.732 26.9162C123.136 26.9162 123.421 26.7471 123.588 26.4091H124.398C124.289 26.7428 124.089 27.0172 123.799 27.2323C123.514 27.4431 123.158 27.5484 122.732 27.5484C122.385 27.5484 122.073 27.4716 121.797 27.3179C121.525 27.1599 121.309 26.9403 121.151 26.6593C120.998 26.3739 120.921 26.0446 120.921 25.6714C120.921 25.2982 120.996 24.9711 121.145 24.6901C121.298 24.4047 121.511 24.1852 121.784 24.0315C122.06 23.8778 122.376 23.801 122.732 23.801C123.075 23.801 123.38 23.8757 123.647 24.0249C123.915 24.1742 124.124 24.385 124.273 24.6572C124.422 24.925 124.497 25.2346 124.497 25.5858ZM123.713 25.3487C123.709 25.0721 123.61 24.8504 123.417 24.6835C123.224 24.5167 122.985 24.4333 122.699 24.4333C122.44 24.4333 122.218 24.5167 122.034 24.6835C121.85 24.846 121.74 25.0677 121.705 25.3487H123.713Z" fill="white"/>
<path d="M77.4648 38.9008C77.1684 38.33 76.7568 37.9019 76.2299 37.6166C75.703 37.3202 75.0938 37.172 74.4023 37.172C73.6449 37.172 72.9698 37.3421 72.3771 37.6824C71.7843 38.0227 71.3178 38.5057 70.9776 39.1313C70.6483 39.757 70.4836 40.4815 70.4836 41.3047C70.4836 42.128 70.6483 42.8579 70.9776 43.4946C71.3178 44.1202 71.7843 44.6032 72.3771 44.9435C72.9698 45.2838 73.6449 45.4539 74.4023 45.4539C75.4231 45.4539 76.2518 45.1685 76.8885 44.5977C77.5251 44.0269 77.9148 43.2531 78.0575 42.2761H73.7601V40.7778H80.0662V42.2432C79.9455 43.1323 79.6272 43.9501 79.1113 44.6965C78.6063 45.4429 77.9422 46.0411 77.119 46.4912C76.3067 46.9303 75.4011 47.1498 74.4023 47.1498C73.3266 47.1498 72.3442 46.9028 71.455 46.4089C70.5659 45.9039 69.8579 45.2069 69.3311 44.3178C68.8152 43.4287 68.5572 42.4243 68.5572 41.3047C68.5572 40.1851 68.8152 39.1807 69.3311 38.2916C69.8579 37.4025 70.5659 36.711 71.455 36.217C72.3551 35.7121 73.3375 35.4596 74.4023 35.4596C75.6207 35.4596 76.7019 35.7615 77.6459 36.3652C78.6008 36.958 79.2924 37.8032 79.7205 38.9008H77.4648ZM85.8526 47.1992C84.9965 47.1992 84.2226 47.0071 83.5311 46.6229C82.8396 46.2277 82.2962 45.6789 81.901 44.9764C81.5059 44.2629 81.3083 43.4397 81.3083 42.5067C81.3083 41.5846 81.5114 40.7669 81.9175 40.0534C82.3236 39.3399 82.878 38.7911 83.5805 38.4069C84.283 38.0227 85.0678 37.8306 85.935 37.8306C86.8021 37.8306 87.587 38.0227 88.2895 38.4069C88.992 38.7911 89.5463 39.3399 89.9524 40.0534C90.3586 40.7669 90.5616 41.5846 90.5616 42.5067C90.5616 43.4287 90.3531 44.2465 89.936 44.9599C89.5188 45.6734 88.9481 46.2277 88.2236 46.6229C87.5101 47.0071 86.7198 47.1992 85.8526 47.1992ZM85.8526 45.5691C86.3356 45.5691 86.7857 45.4539 87.2028 45.2234C87.6309 44.9929 87.9766 44.6471 88.2401 44.1861C88.5035 43.7251 88.6352 43.1653 88.6352 42.5067C88.6352 41.8481 88.509 41.2937 88.2565 40.8437C88.0041 40.3827 87.6693 40.0369 87.2522 39.8064C86.8351 39.5759 86.385 39.4606 85.902 39.4606C85.4191 39.4606 84.969 39.5759 84.5519 39.8064C84.1458 40.0369 83.822 40.3827 83.5805 40.8437C83.339 41.2937 83.2182 41.8481 83.2182 42.5067C83.2182 43.4836 83.4652 44.241 83.9592 44.7788C84.4641 45.3057 85.0953 45.5691 85.8526 45.5691ZM96.3523 47.1992C95.4961 47.1992 94.7223 47.0071 94.0307 46.6229C93.3392 46.2277 92.7959 45.6789 92.4007 44.9764C92.0055 44.2629 91.808 43.4397 91.808 42.5067C91.808 41.5846 92.011 40.7669 92.4172 40.0534C92.8233 39.3399 93.3776 38.7911 94.0801 38.4069C94.7826 38.0227 95.5675 37.8306 96.4346 37.8306C97.3018 37.8306 98.0866 38.0227 98.7891 38.4069C99.4916 38.7911 100.046 39.3399 100.452 40.0534C100.858 40.7669 101.061 41.5846 101.061 42.5067C101.061 43.4287 100.853 44.2465 100.436 44.9599C100.018 45.6734 99.4477 46.2277 98.7233 46.6229C98.0098 47.0071 97.2194 47.1992 96.3523 47.1992ZM96.3523 45.5691C96.8353 45.5691 97.2853 45.4539 97.7024 45.2234C98.1305 44.9929 98.4763 44.6471 98.7397 44.1861C99.0032 43.7251 99.1349 43.1653 99.1349 42.5067C99.1349 41.8481 99.0086 41.2937 98.7562 40.8437C98.5037 40.3827 98.1689 40.0369 97.7518 39.8064C97.3347 39.5759 96.8847 39.4606 96.4017 39.4606C95.9187 39.4606 95.4687 39.5759 95.0516 39.8064C94.6454 40.0369 94.3216 40.3827 94.0801 40.8437C93.8386 41.2937 93.7179 41.8481 93.7179 42.5067C93.7179 43.4836 93.9649 44.241 94.4588 44.7788C94.9637 45.3057 95.5949 45.5691 96.3523 45.5691ZM106.572 37.8306C107.275 37.8306 107.895 37.9733 108.433 38.2587C108.981 38.5331 109.409 38.8789 109.717 39.296V37.9788H111.61V47.1992C111.61 48.0334 111.435 48.7743 111.083 49.422C110.732 50.0806 110.222 50.5965 109.552 50.9697C108.894 51.3429 108.103 51.5295 107.181 51.5295C105.952 51.5295 104.931 51.2386 104.119 50.6568C103.306 50.086 102.845 49.3067 102.736 48.3188H104.596C104.739 48.7908 105.041 49.1695 105.502 49.4549C105.974 49.7513 106.534 49.8994 107.181 49.8994C107.939 49.8994 108.548 49.6689 109.009 49.2079C109.481 48.7469 109.717 48.0773 109.717 47.1992V45.6844C109.399 46.1125 108.965 46.4747 108.416 46.7711C107.878 47.0565 107.264 47.1992 106.572 47.1992C105.782 47.1992 105.057 47.0016 104.399 46.6064C103.751 46.2003 103.235 45.6405 102.851 44.927C102.478 44.2026 102.291 43.3848 102.291 42.4737C102.291 41.5627 102.478 40.7559 102.851 40.0534C103.235 39.3509 103.751 38.8075 104.399 38.4233C105.057 38.0282 105.782 37.8306 106.572 37.8306ZM109.717 42.5067C109.717 41.881 109.585 41.3376 109.322 40.8766C109.069 40.4156 108.734 40.0644 108.317 39.8229C107.9 39.5814 107.45 39.4606 106.967 39.4606C106.484 39.4606 106.034 39.5814 105.617 39.8229C105.2 40.0534 104.86 40.3991 104.596 40.8602C104.344 41.3102 104.218 41.8481 104.218 42.4737C104.218 43.0994 104.344 43.6482 104.596 44.1202C104.86 44.5922 105.2 44.9545 105.617 45.2069C106.045 45.4484 106.495 45.5691 106.967 45.5691C107.45 45.5691 107.9 45.4484 108.317 45.2069C108.734 44.9654 109.069 44.6142 109.322 44.1532C109.585 43.6812 109.717 43.1323 109.717 42.5067ZM115.953 34.8669V47.051H114.076V34.8669H115.953ZM126.732 42.2926C126.732 42.6329 126.71 42.9402 126.666 43.2147H119.734C119.789 43.9391 120.058 44.5209 120.541 44.9599C121.024 45.399 121.617 45.6185 122.319 45.6185C123.329 45.6185 124.043 45.1959 124.46 44.3507H126.485C126.21 45.185 125.711 45.871 124.987 46.4089C124.273 46.9357 123.384 47.1992 122.319 47.1992C121.452 47.1992 120.673 47.0071 119.981 46.6229C119.301 46.2277 118.763 45.6789 118.368 44.9764C117.983 44.2629 117.791 43.4397 117.791 42.5067C117.791 41.5736 117.978 40.7559 118.351 40.0534C118.735 39.3399 119.268 38.7911 119.948 38.4069C120.64 38.0227 121.43 37.8306 122.319 37.8306C123.175 37.8306 123.938 38.0172 124.608 38.3904C125.277 38.7636 125.799 39.2905 126.172 39.971C126.545 40.6406 126.732 41.4145 126.732 42.2926ZM124.773 41.6999C124.762 41.0083 124.515 40.454 124.032 40.0369C123.549 39.6198 122.95 39.4112 122.237 39.4112C121.589 39.4112 121.035 39.6198 120.574 40.0369C120.113 40.443 119.839 40.9974 119.751 41.6999H124.773ZM140.858 39.0161C140.858 39.5978 140.721 40.1467 140.446 40.6626C140.172 41.1785 139.733 41.6011 139.129 41.9304C138.526 42.2487 137.752 42.4079 136.808 42.4079H134.733V47.051H132.856V35.6078H136.808C137.686 35.6078 138.427 35.7615 139.03 36.0688C139.645 36.3652 140.101 36.7714 140.397 37.2873C140.704 37.8032 140.858 38.3794 140.858 39.0161ZM136.808 40.8766C137.521 40.8766 138.054 40.7175 138.405 40.3991C138.756 40.0698 138.932 39.6088 138.932 39.0161C138.932 37.7647 138.224 37.1391 136.808 37.1391H134.733V40.8766H136.808ZM144.525 34.8669V47.051H142.648V34.8669H144.525ZM146.364 42.4737C146.364 41.5627 146.551 40.7559 146.924 40.0534C147.308 39.3509 147.824 38.8075 148.471 38.4233C149.13 38.0282 149.854 37.8306 150.645 37.8306C151.358 37.8306 151.978 37.9733 152.505 38.2587C153.043 38.5331 153.471 38.8789 153.79 39.296V37.9788H155.683V47.051H153.79V45.7009C153.471 46.129 153.038 46.4857 152.489 46.7711C151.94 47.0565 151.314 47.1992 150.612 47.1992C149.833 47.1992 149.119 47.0016 148.471 46.6064C147.824 46.2003 147.308 45.6405 146.924 44.927C146.551 44.2026 146.364 43.3848 146.364 42.4737ZM153.79 42.5067C153.79 41.881 153.658 41.3376 153.394 40.8766C153.142 40.4156 152.807 40.0644 152.39 39.8229C151.973 39.5814 151.523 39.4606 151.04 39.4606C150.557 39.4606 150.107 39.5814 149.69 39.8229C149.273 40.0534 148.932 40.3991 148.669 40.8602C148.417 41.3102 148.29 41.8481 148.29 42.4737C148.29 43.0994 148.417 43.6482 148.669 44.1202C148.932 44.5922 149.273 44.9545 149.69 45.2069C150.118 45.4484 150.568 45.5691 151.04 45.5691C151.523 45.5691 151.973 45.4484 152.39 45.2069C152.807 44.9654 153.142 44.6142 153.394 44.1532C153.658 43.6812 153.79 43.1323 153.79 42.5067ZM166.315 37.9788L160.75 51.3154H158.807L160.651 46.9028L157.078 37.9788H159.169L161.721 44.8941L164.372 37.9788H166.315Z" fill="white"/>
<g filter="url(#filter1_ii_296_718)">
<path d="M37.5089 20.2777C37.1852 20.6248 36.9939 21.1633 36.9939 21.8607V46.7777C36.9939 47.4763 37.1852 48.0137 37.5089 48.3607L37.5913 48.4418L51.373 34.4837V34.3192V34.1547L37.5913 20.1955L37.5089 20.2777Z" fill="url(#paint0_linear_296_718)"/>
<path d="M55.9662 39.1379L51.373 34.4837V34.3192V34.1547L55.9673 29.5016L56.0708 29.5613L61.5138 32.6934C63.0678 33.588 63.0678 35.0515 61.5138 35.9472L56.0708 39.0793L55.9662 39.1379Z" fill="url(#paint1_linear_296_718)"/>
<g filter="url(#filter2_i_296_718)">
<path d="M56.0708 39.0784L51.3719 34.3194L37.509 48.3609C38.0207 48.9107 38.8673 48.9783 39.8206 48.4307L56.0708 39.0784Z" fill="url(#paint2_linear_296_718)"/>
</g>
<path d="M56.0708 29.5604L39.8206 20.2092C38.8673 19.6605 38.0207 19.7292 37.509 20.279L51.373 34.3205L56.0708 29.5604Z" fill="url(#paint3_linear_296_718)"/>
</g>
<defs>
<filter id="filter0_dddd_296_718" x="0.770897" y="0.0726032" width="194.023" height="90.8867" filterUnits="userSpaceOnUse" color-interpolation-filters="sRGB">
<feFlood flood-opacity="0" result="BackgroundImageFix"/>
<feColorMatrix in="SourceAlpha" type="matrix" values="0 0 0 0 0 0 0 0 0 0 0 0 0 0 0 0 0 0 127 0" result="hardAlpha"/>
<feOffset dy="0.49214"/>
<feGaussianBlur stdDeviation="0.38029"/>
<feColorMatrix type="matrix" values="0 0 0 0 0 0 0 0 0 0 0 0 0 0 0 0 0 0 0.0268173 0"/>
<feBlend mode="normal" in2="BackgroundImageFix" result="effect1_dropShadow_296_718"/>
<feColorMatrix in="SourceAlpha" type="matrix" values="0 0 0 0 0 0 0 0 0 0 0 0 0 0 0 0 0 0 127 0" result="hardAlpha"/>
<feOffset dy="1.3607"/>
<feGaussianBlur stdDeviation="1.05145"/>
<feColorMatrix type="matrix" values="0 0 0 0 0 0 0 0 0 0 0 0 0 0 0 0 0 0 0.0399899 0"/>
<feBlend mode="normal" in2="effect1_dropShadow_296_718" result="effect2_dropShadow_296_718"/>
<feColorMatrix in="SourceAlpha" type="matrix" values="0 0 0 0 0 0 0 0 0 0 0 0 0 0 0 0 0 0 127 0" result="hardAlpha"/>
<feOffset dy="3.27605"/>
<feGaussianBlur stdDeviation="2.53149"/>
<feColorMatrix type="matrix" values="0 0 0 0 0 0 0 0 0 0 0 0 0 0 0 0 0 0 0.0582218 0"/>
<feBlend mode="normal" in2="effect2_dropShadow_296_718" result="effect3_dropShadow_296_718"/>
<feColorMatrix in="SourceAlpha" type="matrix" values="0 0 0 0 0 0 0 0 0 0 0 0 0 0 0 0 0 0 127 0" result="hardAlpha"/>
<feOffset dy="10.8669"/>
<feGaussianBlur stdDeviation="8.39714"/>
<feColorMatrix type="matrix" values="0 0 0 0 0 0 0 0 0 0 0 0 0 0 0 0 0 0 0.08 0"/>
<feBlend mode="normal" in2="effect3_dropShadow_296_718" result="effect4_dropShadow_296_718"/>
<feBlend mode="normal" in="SourceGraphic" in2="effect4_dropShadow_296_718" result="shape"/>
</filter>
<filter id="filter1_ii_296_718" x="36.9939" y="19.8305" width="25.6855" height="28.9784" filterUnits="userSpaceOnUse" color-interpolation-filters="sRGB">
<feFlood flood-opacity="0" result="BackgroundImageFix"/>
<feBlend mode="normal" in="SourceGraphic" in2="BackgroundImageFix" result="shape"/>
<feColorMatrix in="SourceAlpha" type="matrix" values="0 0 0 0 0 0 0 0 0 0 0 0 0 0 0 0 0 0 127 0" result="hardAlpha"/>
<feOffset dy="-0.049395"/>
<feComposite in2="hardAlpha" operator="arithmetic" k2="-1" k3="1"/>
<feColorMatrix type="matrix" values="0 0 0 0 0 0 0 0 0 0 0 0 0 0 0 0 0 0 0.12 0"/>
<feBlend mode="normal" in2="shape" result="effect1_innerShadow_296_718"/>
<feColorMatrix in="SourceAlpha" type="matrix" values="0 0 0 0 0 0 0 0 0 0 0 0 0 0 0 0 0 0 127 0" result="hardAlpha"/>
<feOffset dy="0.049395"/>
<feComposite in2="hardAlpha" operator="arithmetic" k2="-1" k3="1"/>
<feColorMatrix type="matrix" values="0 0 0 0 1 0 0 0 0 1 0 0 0 0 1 0 0 0 0.25 0"/>
<feBlend mode="normal" in2="effect1_innerShadow_296_718" result="effect2_innerShadow_296_718"/>
</filter>
<filter id="filter2_i_296_718" x="37.509" y="34.3194" width="18.5618" height="14.4895" filterUnits="userSpaceOnUse" color-interpolation-filters="sRGB">
<feFlood flood-opacity="0" result="BackgroundImageFix"/>
<feBlend mode="normal" in="SourceGraphic" in2="BackgroundImageFix" result="shape"/>
<feColorMatrix in="SourceAlpha" type="matrix" values="0 0 0 0 0 0 0 0 0 0 0 0 0 0 0 0 0 0 127 0" result="hardAlpha"/>
<feOffset dy="-0.049395"/>
<feComposite in2="hardAlpha" operator="arithmetic" k2="-1" k3="1"/>
<feColorMatrix type="matrix" values="0 0 0 0 0 0 0 0 0 0 0 0 0 0 0 0 0 0 0.08 0"/>
<feBlend mode="normal" in2="shape" result="effect1_innerShadow_296_718"/>
</filter>
<linearGradient id="paint0_linear_296_718" x1="50.1513" y1="21.5971" x2="31.2453" y2="40.2641" gradientUnits="userSpaceOnUse">
<stop stop-color="#00A0FF"/>
<stop offset="0.0066" stop-color="#00A1FF"/>
<stop offset="0.2601" stop-color="#00BEFF"/>
<stop offset="0.5122" stop-color="#00D2FF"/>
<stop offset="0.7604" stop-color="#00DFFF"/>
<stop offset="1" stop-color="#00E3FF"/>
</linearGradient>
<linearGradient id="paint1_linear_296_718" x1="63.5367" y1="34.3192" x2="36.6209" y2="34.3192" gradientUnits="userSpaceOnUse">
<stop stop-color="#FFE000"/>
<stop offset="0.4087" stop-color="#FFBD00"/>
<stop offset="0.7754" stop-color="#FFA500"/>
<stop offset="1" stop-color="#FF9C00"/>
</linearGradient>
<linearGradient id="paint2_linear_296_718" x1="53.519" y1="36.9038" x2="27.8801" y2="62.2186" gradientUnits="userSpaceOnUse">
<stop stop-color="#FF3A44"/>
<stop offset="1" stop-color="#C31162"/>
</linearGradient>
<linearGradient id="paint3_linear_296_718" x1="34.0176" y1="11.9844" x2="45.4661" y2="23.2881" gradientUnits="userSpaceOnUse">
<stop stop-color="#32A071"/>
<stop offset="0.0685" stop-color="#2DA771"/>
<stop offset="0.4762" stop-color="#15CF74"/>
<stop offset="0.8009" stop-color="#06E775"/>
<stop offset="1" stop-color="#00F076"/>
</linearGradient>
</defs>
</svg>
