<svg width="834" height="68" viewBox="0 0 834 68" fill="none" xmlns="http://www.w3.org/2000/svg">
<path d="M0.333333 61C0.333333 64.6819 3.3181 67.6667 7 67.6667C10.6819 67.6667 13.6667 64.6819 13.6667 61C13.6667 57.3181 10.6819 54.3333 7 54.3333C3.3181 54.3333 0.333333 57.3181 0.333333 61ZM820.333 61C820.333 64.6819 823.318 67.6667 827 67.6667C830.682 67.6667 833.667 64.6819 833.667 61C833.667 57.3181 830.682 54.3333 827 54.3333C823.318 54.3333 820.333 57.3181 820.333 61ZM8.25 61V52H5.75V61H8.25ZM57 3.25H777V0.75H57V3.25ZM825.75 52V61H828.25V52H825.75ZM777 3.25C803.924 3.25 825.75 25.0761 825.75 52H828.25C828.25 23.6954 805.305 0.75 777 0.75V3.25ZM8.25 52C8.25 25.0761 30.0761 3.25 57 3.25V0.75C28.6954 0.75 5.75 23.6954 5.75 52H8.25Z" fill="#0D5A50"/>
</svg>
