<svg width="40" height="40" viewBox="0 0 40 40" fill="none" xmlns="http://www.w3.org/2000/svg">
<g id="Frame">
<g id="SVGRepo_iconCarrier">
<path id="Vector" d="M27.5315 27.5022C27.8232 27.2747 28.0877 27.0102 28.6169 26.4811L35.2125 19.8854C35.3719 19.7261 35.2989 19.4514 35.0859 19.3774C34.3074 19.1074 33.2945 18.6002 32.3472 17.6529C31.3999 16.7056 30.8927 15.6927 30.6227 14.9142C30.5487 14.7012 30.274 14.6282 30.1147 14.7876L23.519 21.3832C22.9899 21.9124 22.7254 22.1769 22.4979 22.4686C22.2295 22.8127 21.9994 23.1849 21.8117 23.5789C21.6525 23.9127 21.5342 24.2677 21.2977 24.9776L20.9919 25.8947L20.5057 27.3531L20.0499 28.7206C19.9335 29.0699 20.0244 29.4549 20.2847 29.7154C20.5452 29.9757 20.9302 30.0666 21.2795 29.9502L22.647 29.4944L24.1054 29.0082L25.0225 28.7024C25.7322 28.4659 26.0874 28.3476 26.4212 28.1884C26.8152 28.0007 27.1874 27.7706 27.5315 27.5022Z" fill="white"/>
<path id="Vector_2" d="M37.2776 17.8204C38.6854 16.4126 38.6854 14.1303 37.2776 12.7225C35.8699 11.3148 33.5876 11.3148 32.1798 12.7225L31.9678 12.9346C31.7631 13.1392 31.6704 13.425 31.7216 13.7098C31.7538 13.889 31.8133 14.151 31.9218 14.4635C32.1386 15.0886 32.5481 15.9092 33.3196 16.6806C34.0909 17.4521 34.9116 17.8616 35.5366 18.0784C35.8493 18.1869 36.1111 18.2464 36.2903 18.2786C36.5751 18.3297 36.8609 18.2371 37.0656 18.0324L37.2776 17.8204Z" fill="white"/>
<path id="Vector_3" fill-rule="evenodd" clip-rule="evenodd" d="M6.95262 5.28599C5 7.23862 5 10.3813 5 16.6667V23.3334C5 29.6187 5 32.7615 6.95262 34.714C8.90525 36.6667 12.0479 36.6667 18.3333 36.6667H21.6667C27.952 36.6667 31.0948 36.6667 33.0473 34.714C34.9687 32.7927 34.9995 29.7194 35 23.6335L30.3028 28.3307C29.8532 28.7805 29.485 29.149 29.0692 29.4735C28.5818 29.8535 28.0547 30.1794 27.4968 30.4452C27.0207 30.672 26.5265 30.8367 25.923 31.0375L22.0702 32.3219C20.8225 32.7377 19.447 32.413 18.517 31.483C17.5872 30.553 17.2623 29.1775 17.6783 27.9299L18.1342 26.5625L18.926 24.1869L18.9625 24.0772C19.1635 23.4737 19.328 22.9794 19.5548 22.5032C19.8207 21.9454 20.1465 21.4182 20.5267 20.931C20.851 20.515 21.2195 20.1469 21.6695 19.6972L28.3468 13.0198L30.2 11.1668L30.412 10.9547C31.6043 9.76239 33.1672 9.16639 34.73 9.16671C34.4778 7.44912 33.9902 6.22882 33.0473 5.28599C31.0948 3.33337 27.952 3.33337 21.6667 3.33337H18.3333C12.0479 3.33337 8.90525 3.33337 6.95262 5.28599ZM12.0833 15C12.0833 14.3097 12.643 13.75 13.3333 13.75H24.1667C24.857 13.75 25.4167 14.3097 25.4167 15C25.4167 15.6904 24.857 16.25 24.1667 16.25H13.3333C12.643 16.25 12.0833 15.6904 12.0833 15ZM12.0833 21.6667C12.0833 20.9764 12.643 20.4167 13.3333 20.4167H17.5C18.1903 20.4167 18.75 20.9764 18.75 21.6667C18.75 22.357 18.1903 22.9167 17.5 22.9167H13.3333C12.643 22.9167 12.0833 22.357 12.0833 21.6667ZM12.0833 28.3334C12.0833 27.643 12.643 27.0834 13.3333 27.0834H15.8333C16.5237 27.0834 17.0833 27.643 17.0833 28.3334C17.0833 29.0237 16.5237 29.5834 15.8333 29.5834H13.3333C12.643 29.5834 12.0833 29.0237 12.0833 28.3334Z" fill="white"/>
</g>
</g>
</svg>
