<svg width="11" height="12" viewBox="0 0 11 12" fill="none" xmlns="http://www.w3.org/2000/svg">
<g id="Social Icons" clip-path="url(#clip0_17_739)">
<path id="Vector" d="M5.54403 1.47625C6.9505 1.47625 7.11706 1.48242 7.67019 1.5071C8.18425 1.52971 8.46185 1.61608 8.64691 1.68805C8.8916 1.78263 9.06844 1.89778 9.25145 2.08079C9.43651 2.26585 9.5496 2.44063 9.64419 2.68533C9.71616 2.87039 9.80252 3.15004 9.82514 3.66205C9.84982 4.21723 9.85599 4.38379 9.85599 5.78821C9.85599 7.19468 9.84982 7.36124 9.82514 7.91437C9.80252 8.42843 9.71616 8.70603 9.64419 8.89109C9.5496 9.13578 9.43445 9.31262 9.25145 9.49563C9.06639 9.68069 8.8916 9.79378 8.64691 9.88837C8.46185 9.96034 8.1822 10.0467 7.67019 10.0693C7.115 10.094 6.94845 10.1002 5.54403 10.1002C4.13755 10.1002 3.971 10.094 3.41787 10.0693C2.9038 10.0467 2.62621 9.96034 2.44115 9.88837C2.19645 9.79378 2.01962 9.67863 1.83661 9.49563C1.65155 9.31056 1.53845 9.13578 1.44387 8.89109C1.3719 8.70603 1.28554 8.42638 1.26292 7.91437C1.23824 7.35918 1.23207 7.19263 1.23207 5.78821C1.23207 4.38173 1.23824 4.21518 1.26292 3.66205C1.28554 3.14798 1.3719 2.87039 1.44387 2.68533C1.53845 2.44063 1.6536 2.2638 1.83661 2.08079C2.02167 1.89573 2.19645 1.78263 2.44115 1.68805C2.62621 1.61608 2.90586 1.52971 3.41787 1.5071C3.971 1.48242 4.13755 1.47625 5.54403 1.47625ZM5.54403 0.52832C4.11494 0.52832 3.93604 0.534489 3.37469 0.559164C2.81539 0.583839 2.43087 0.674314 2.09775 0.803858C1.75025 0.93957 1.4562 1.11846 1.16422 1.41251C0.870173 1.7045 0.691279 1.99854 0.555567 2.34399C0.426023 2.67916 0.335548 3.06162 0.310873 3.62092C0.286198 4.18433 0.280029 4.36323 0.280029 5.79232C0.280029 7.22141 0.286198 7.40031 0.310873 7.96166C0.335548 8.52096 0.426023 8.90548 0.555567 9.2386C0.691279 9.5861 0.870173 9.88015 1.16422 10.1721C1.4562 10.4641 1.75025 10.6451 2.0957 10.7787C2.43087 10.9083 2.81333 10.9987 3.37263 11.0234C3.93399 11.0481 4.11288 11.0543 5.54197 11.0543C6.97107 11.0543 7.14996 11.0481 7.71132 11.0234C8.27062 10.9987 8.65514 10.9083 8.98825 10.7787C9.3337 10.6451 9.62774 10.4641 9.91973 10.1721C10.2117 9.88015 10.3927 9.5861 10.5263 9.24065C10.6559 8.90548 10.7463 8.52302 10.771 7.96372C10.7957 7.40236 10.8019 7.22347 10.8019 5.79438C10.8019 4.36528 10.7957 4.18639 10.771 3.62503C10.7463 3.06573 10.6559 2.68121 10.5263 2.3481C10.3968 1.99854 10.2179 1.7045 9.92384 1.41251C9.63186 1.12052 9.33781 0.93957 8.99236 0.805914C8.65719 0.67637 8.27473 0.585895 7.71543 0.56122C7.15202 0.534489 6.97312 0.52832 5.54403 0.52832Z" fill="white"/>
<path id="Vector_2" d="M5.54406 3.08838C4.05122 3.08838 2.84009 4.29951 2.84009 5.79235C2.84009 7.28518 4.05122 8.49632 5.54406 8.49632C7.03689 8.49632 8.24802 7.28518 8.24802 5.79235C8.24802 4.29951 7.03689 3.08838 5.54406 3.08838ZM5.54406 7.54633C4.57556 7.54633 3.79008 6.76084 3.79008 5.79235C3.79008 4.82385 4.57556 4.03837 5.54406 4.03837C6.51255 4.03837 7.29804 4.82385 7.29804 5.79235C7.29804 6.76084 6.51255 7.54633 5.54406 7.54633Z" fill="white"/>
<path id="Vector_3" d="M8.98617 2.98137C8.98617 3.33093 8.70241 3.61264 8.3549 3.61264C8.00534 3.61264 7.72363 3.32887 7.72363 2.98137C7.72363 2.6318 8.0074 2.3501 8.3549 2.3501C8.70241 2.3501 8.98617 2.63386 8.98617 2.98137Z" fill="white"/>
</g>
<defs>
<clipPath id="clip0_17_739">
<rect width="10.528" height="10.528" fill="white" transform="translate(0.280029 0.52832)"/>
</clipPath>
</defs>
</svg>
