<svg width="12" height="12" viewBox="0 0 12 12" fill="none" xmlns="http://www.w3.org/2000/svg">
<g id="Social Icons" clip-path="url(#clip0_17_743)">
<path id="Vector" d="M10.2768 0.527832H1.30534C0.875582 0.527832 0.528076 0.867113 0.528076 1.28659V10.295C0.528076 10.7145 0.875582 11.0558 1.30534 11.0558H10.2768C10.7065 11.0558 11.0561 10.7145 11.0561 10.2971V1.28659C11.0561 0.867113 10.7065 0.527832 10.2768 0.527832ZM3.65152 9.49925H2.08877V4.47378H3.65152V9.49925ZM2.87015 3.78904C2.36842 3.78904 1.96334 3.38396 1.96334 2.88429C1.96334 2.38463 2.36842 1.97954 2.87015 1.97954C3.36981 1.97954 3.77489 2.38463 3.77489 2.88429C3.77489 3.38191 3.36981 3.78904 2.87015 3.78904ZM9.49949 9.49925H7.9388V7.05643C7.9388 6.47451 7.92852 5.72398 7.12658 5.72398C6.31436 5.72398 6.19099 6.35936 6.19099 7.0153V9.49925H4.63235V4.47378H6.1293V5.16056H6.14986C6.35754 4.76576 6.8675 4.34834 7.62625 4.34834C9.20751 4.34834 9.49949 5.38881 9.49949 6.74182V9.49925Z" fill="white"/>
</g>
<defs>
<clipPath id="clip0_17_743">
<rect width="10.528" height="10.528" fill="white" transform="translate(0.528076 0.527832)"/>
</clipPath>
</defs>
</svg>
