<svg width="17" height="17" viewBox="0 0 17 17" fill="none" xmlns="http://www.w3.org/2000/svg">
<g id="Frame">
<g id="SVGRepo_iconCarrier">
<path id="Vector" d="M8.26869 13.063C8.26869 13.063 13.3043 9.12006 13.3043 6.26786C13.3043 3.41566 11.0498 1.10352 8.26869 1.10352C5.4876 1.10352 3.2331 3.41566 3.2331 6.26786C3.2331 9.12006 8.26869 13.063 8.26869 13.063ZM8.26869 1.7356C10.7027 1.7356 12.6758 3.75166 12.6758 6.23859C12.6758 8.72552 8.28139 12.3101 8.28139 12.3101C8.28139 12.3101 3.86154 8.72551 3.86154 6.23859C3.86154 3.75168 5.83467 1.7356 8.26869 1.7356ZM8.26869 8.65691C9.13776 8.65691 9.84232 7.95237 9.84232 7.08328V6.45383C9.84232 5.58476 9.13778 4.8802 8.26869 4.8802C7.3996 4.8802 6.69506 5.58474 6.69506 6.45383V7.08328C6.69506 7.95236 7.3996 8.65691 8.26869 8.65691ZM7.32451 6.45383C7.32451 5.93236 7.74722 5.50965 8.26869 5.50965C8.79016 5.50965 9.21287 5.93236 9.21287 6.45383V7.08328C9.21287 7.60475 8.79016 8.02746 8.26869 8.02746C7.74722 8.02746 7.32451 7.60475 7.32451 7.08328V6.45383ZM11.4159 13.3778L9.52758 13.3847V13.3778H3.86253C3.86253 13.3778 3.21341 13.3778 3.23309 12.7483C3.25276 12.1189 3.86253 12.1189 3.86253 12.1189H4.80672C4.80672 12.1189 5.11162 12.109 5.12145 11.8042C5.13129 11.4992 4.80672 11.4894 4.80672 11.4894H3.86253C3.86253 11.4894 2.60364 11.4697 2.60364 12.7483C2.60364 14.0269 3.86253 14.0072 3.86253 14.0072H6.06561V14.0219H11.4159C11.4159 14.0219 12.0651 14.0219 12.0454 14.6464C12.0257 15.271 11.4159 15.271 11.4159 15.271H8.89814C8.89814 15.271 8.5834 15.2759 8.5834 15.5808C8.5834 15.8857 8.89814 15.8956 8.89814 15.8956H11.4159C11.4159 15.8956 12.6748 15.9151 12.6748 14.6464C12.6748 13.3778 11.4159 13.3778 11.4159 13.3778Z" fill="#0D5A50"/>
</g>
</g>
</svg>
