<svg width="13" height="15" viewBox="0 0 13 15" fill="none" xmlns="http://www.w3.org/2000/svg">
<g id="SVGRepo_iconCarrier">
<path id="Vector" d="M6.50008 14.6673C5.83342 14.6673 6.62208 13.6147 3.33541 11.9773C3.15535 11.8875 2.98062 11.7873 2.81208 11.6773C1.17675 10.6133 0.166748 8.66732 0.166748 6.57265C0.166748 3.12732 3.00208 0.333984 6.50008 0.333984C9.99808 0.333984 12.8334 3.12732 12.8334 6.57198C12.8334 8.87998 11.6041 11.01 9.67008 11.9747C6.38008 13.614 7.16675 14.6673 6.50008 14.6673ZM6.50008 9.07398C7.90741 9.07398 9.03341 7.95932 9.03341 6.60398C9.03341 5.24865 7.90741 4.13398 6.50008 4.13398C5.09275 4.13398 3.96675 5.24865 3.96675 6.60398C3.96675 7.95932 5.09275 9.07398 6.50008 9.07398Z" fill="#0D5A50"/>
</g>
</svg>
