<svg width="79" height="34" viewBox="0 0 79 34" fill="none" xmlns="http://www.w3.org/2000/svg">
<path d="M6.016 24.84C5.16267 24.84 4.39467 24.7387 3.712 24.536C3.04 24.344 2.46933 24.056 2 23.672C1.53067 23.2987 1.17333 22.84 0.928 22.296C0.682667 21.7627 0.56 21.1493 0.56 20.456C0.56 19.976 0.624 19.4373 0.752 18.84C0.890667 18.232 1.07733 17.6453 1.312 17.08L2.848 17.528C2.63467 17.9867 2.464 18.4507 2.336 18.92C2.21867 19.3893 2.16 19.7947 2.16 20.136C2.16 20.808 2.44267 21.3253 3.008 21.688C3.57333 22.0613 4.36267 22.248 5.376 22.248H6.656C7.75467 22.248 8.624 22.088 9.264 21.768C9.91467 21.4587 10.2827 21.016 10.368 20.44L7.92 20.024C6.93867 19.864 6.192 19.5547 5.68 19.096C5.168 18.6373 4.912 17.9973 4.912 17.176C4.912 16.632 5.01333 16.0827 5.216 15.528C5.41867 14.9627 5.70133 14.4507 6.064 13.992C6.43733 13.5333 6.87467 13.16 7.376 12.872C7.888 12.5733 8.448 12.424 9.056 12.424C9.728 12.424 10.3147 12.6 10.816 12.952C11.328 13.304 11.7387 13.784 12.048 14.392L10.336 15.912C10.176 15.6347 9.952 15.384 9.664 15.16C9.376 14.936 9.01333 14.824 8.576 14.824C8.30933 14.824 8.05333 14.8773 7.808 14.984C7.56267 15.08 7.344 15.2133 7.152 15.384C6.96 15.544 6.80533 15.7307 6.688 15.944C6.57067 16.1573 6.512 16.376 6.512 16.6C6.512 16.8987 6.656 17.128 6.944 17.288C7.24267 17.4373 7.696 17.5653 8.304 17.672L10.304 18.008C10.912 18.1147 11.344 18.344 11.6 18.696C11.856 19.0373 11.984 19.5387 11.984 20.2C11.984 20.936 11.8453 21.592 11.568 22.168C11.3013 22.744 10.912 23.2293 10.4 23.624C9.888 24.0187 9.264 24.3173 8.528 24.52C7.792 24.7333 6.95467 24.84 6.016 24.84ZM7.12 28.28C6.84267 28.28 6.61333 28.1947 6.432 28.024C6.26133 27.8533 6.176 27.5813 6.176 27.208C6.176 26.8347 6.26133 26.5627 6.432 26.392C6.61333 26.2213 6.84267 26.136 7.12 26.136H7.44C7.71733 26.136 7.94133 26.2213 8.112 26.392C8.29333 26.5627 8.384 26.8347 8.384 27.208C8.384 27.5813 8.29333 27.8533 8.112 28.024C7.94133 28.1947 7.71733 28.28 7.44 28.28H7.12ZM4.592 28.28C4.31467 28.28 4.08533 28.1947 3.904 28.024C3.73333 27.8533 3.648 27.5813 3.648 27.208C3.648 26.8347 3.73333 26.5627 3.904 26.392C4.08533 26.2213 4.31467 26.136 4.592 26.136H4.912C5.18933 26.136 5.41333 26.2213 5.584 26.392C5.76533 26.5627 5.856 26.8347 5.856 27.208C5.856 27.5813 5.76533 27.8533 5.584 28.024C5.41333 28.1947 5.18933 28.28 4.912 28.28H4.592ZM15.3153 21C14.5686 21 13.9979 20.8133 13.6033 20.44C13.2086 20.0667 13.0113 19.4693 13.0113 18.648V17.576H14.8513V18.6H17.0433C17.3953 18.6 17.6513 18.5467 17.8113 18.44C17.9819 18.3333 18.0673 18.1573 18.0673 17.912C18.0673 17.7947 18.0406 17.656 17.9873 17.496C17.9446 17.336 17.8966 17.176 17.8433 17.016L16.4353 12.968L18.4833 12.248L20.0993 16.872C20.2166 17.224 20.3339 17.512 20.4513 17.736C20.5686 17.96 20.6913 18.136 20.8193 18.264C20.9579 18.392 21.1019 18.4827 21.2513 18.536C21.4113 18.5787 21.5979 18.6 21.8113 18.6H22.2913V20.52L21.8113 21C21.3633 21 20.9739 20.968 20.6433 20.904C20.3126 20.84 20.0139 20.7227 19.7473 20.552C19.4913 20.3813 19.2566 20.1573 19.0433 19.88C18.8406 19.6027 18.6433 19.2453 18.4513 18.808L18.3873 18.84C18.3233 19.224 18.2326 19.5547 18.1153 19.832C18.0086 20.1093 17.8699 20.3333 17.6993 20.504C17.5286 20.6747 17.3206 20.8027 17.0753 20.888C16.8299 20.9627 16.5366 21 16.1953 21H15.3153ZM21.8169 19.08L22.2969 18.6H24.0089V20.52L23.5289 21H21.8169V19.08ZM23.5356 19.08L24.0156 18.6H25.7276V20.52L25.2476 21H23.5356V19.08ZM25.2544 19.08L25.7344 18.6H27.4464L27.4784 18.52C27.073 18.1147 26.7904 17.688 26.6304 17.24C26.481 16.7813 26.4064 16.3387 26.4064 15.912C26.4064 15.432 26.481 14.984 26.6304 14.568C26.7797 14.1413 26.993 13.7733 27.2704 13.464C27.5477 13.144 27.8784 12.8933 28.2624 12.712C28.657 12.5307 29.089 12.44 29.5584 12.44C30.0277 12.44 30.4544 12.5307 30.8384 12.712C31.233 12.8933 31.569 13.144 31.8464 13.464C32.1237 13.7733 32.337 14.1413 32.4864 14.568C32.6357 14.984 32.7104 15.432 32.7104 15.912C32.7104 16.3387 32.6304 16.7813 32.4704 17.24C32.321 17.688 32.0437 18.1147 31.6384 18.52L31.6704 18.6H33.4464V20.52L32.9664 21H32.8064C32.2304 21 31.6704 20.9253 31.1264 20.776C30.5824 20.6267 30.065 20.36 29.5744 19.976C29.0837 20.36 28.5664 20.6267 28.0224 20.776C27.4784 20.9253 26.9184 21 26.3424 21H25.2544V19.08ZM29.5584 18.392C30.1024 18.0827 30.513 17.7627 30.7904 17.432C31.0677 17.0907 31.2064 16.7067 31.2064 16.28C31.2064 15.832 31.057 15.48 30.7584 15.224C30.4597 14.968 30.0917 14.84 29.6544 14.84H29.4624C29.025 14.84 28.657 14.968 28.3584 15.224C28.0597 15.48 27.9104 15.832 27.9104 16.28C27.9104 16.7067 28.049 17.0907 28.3264 17.432C28.6037 17.7627 29.0144 18.0827 29.5584 18.392ZM30.6624 11.16C30.385 11.16 30.1557 11.0747 29.9744 10.904C29.8037 10.7333 29.7184 10.4613 29.7184 10.088C29.7184 9.71467 29.8037 9.44267 29.9744 9.272C30.1557 9.10133 30.385 9.016 30.6624 9.016H30.9824C31.2597 9.016 31.4837 9.10133 31.6544 9.272C31.8357 9.44267 31.9264 9.71467 31.9264 10.088C31.9264 10.4613 31.8357 10.7333 31.6544 10.904C31.4837 11.0747 31.2597 11.16 30.9824 11.16H30.6624ZM28.1344 11.16C27.857 11.16 27.6277 11.0747 27.4464 10.904C27.2757 10.7333 27.1904 10.4613 27.1904 10.088C27.1904 9.71467 27.2757 9.44267 27.4464 9.272C27.6277 9.10133 27.857 9.016 28.1344 9.016H28.4544C28.7317 9.016 28.9557 9.10133 29.1264 9.272C29.3077 9.44267 29.3984 9.71467 29.3984 10.088C29.3984 10.4613 29.3077 10.7333 29.1264 10.904C28.9557 11.0747 28.7317 11.16 28.4544 11.16H28.1344ZM32.9731 19.08L33.4531 18.6H34.7331V18.52C34.5198 18.2107 34.3545 17.88 34.2371 17.528C34.1305 17.176 34.0771 16.7973 34.0771 16.392C34.0771 15.8693 34.1678 15.3787 34.3491 14.92C34.5411 14.4613 34.7971 14.0613 35.1171 13.72C35.4478 13.368 35.8318 13.096 36.2691 12.904C36.7171 12.7013 37.2025 12.6 37.7251 12.6C38.5891 12.6 39.2931 12.776 39.8371 13.128C40.3811 13.48 40.8345 13.96 41.1971 14.568L39.4851 16.088C39.2505 15.7147 38.9785 15.4427 38.6691 15.272C38.3598 15.0907 37.9918 15 37.5651 15C36.9678 15 36.5038 15.1227 36.1731 15.368C35.8425 15.6027 35.6771 15.944 35.6771 16.392C35.6771 16.936 35.9065 17.3573 36.3651 17.656C36.8238 17.944 37.4691 18.088 38.3011 18.088C38.5785 18.088 38.8718 18.0667 39.1811 18.024C39.4905 17.9813 39.7731 17.9227 40.0291 17.848L41.5811 17.416L42.1891 19.576L39.8371 20.296C39.3785 20.4347 38.9358 20.552 38.5091 20.648C38.0825 20.7333 37.6131 20.8027 37.1011 20.856C36.5891 20.9093 36.0025 20.9467 35.3411 20.968C34.6798 20.9893 33.8905 21 32.9731 21V19.08Z" fill="#0D5A50"/>
<path fill-rule="evenodd" clip-rule="evenodd" d="M67.0075 33.0848L58.9623 25.2053C56.4463 22.7345 55 19.2994 55 15.774V3.84181L56.4463 3.87194C62.533 4.03766 66.0132 0.903953 66.0584 0.873822L67.0075 0L67.9567 0.873822C67.9868 0.903953 71.4821 4.03766 77.5687 3.87194L79 3.84181V15.774C79 19.2994 77.5687 22.7345 75.0527 25.2053L67.0075 33.0848ZM57.8023 6.6742V15.774C57.8023 18.5612 58.9473 21.258 60.9209 23.2015L67.0075 29.1526L73.0791 23.2015C75.0527 21.258 76.1827 18.5612 76.1827 15.774V6.6742C71.6177 6.46328 68.4689 4.71563 66.9925 3.67608C65.516 4.71563 62.3672 6.46328 57.8023 6.6742Z" fill="url(#paint0_linear_296_765)"/>
<path d="M73.6365 10.8326H60.3634V9.28076H73.6365V10.8326Z" fill="url(#paint1_linear_296_765)"/>
<path d="M73.6365 14.9H60.3634V13.3633H73.6365V14.9Z" fill="url(#paint2_linear_296_765)"/>
<path d="M73.6365 18.9829H60.3634V17.4312H73.6365V18.9829Z" fill="url(#paint3_linear_296_765)"/>
<path d="M68.6648 24.0903H65.3352V20.7607H68.6648V24.0903Z" fill="url(#paint4_linear_296_765)"/>
<defs>
<linearGradient id="paint0_linear_296_765" x1="89.8139" y1="-1.33755" x2="89.8139" y2="28.1651" gradientUnits="userSpaceOnUse">
<stop stop-color="#0D5A50"/>
<stop offset="1" stop-color="#0DB38B"/>
</linearGradient>
<linearGradient id="paint1_linear_296_765" x1="67.0959" y1="-1.33742" x2="67.0959" y2="28.1653" gradientUnits="userSpaceOnUse">
<stop stop-color="#0D5A50"/>
<stop offset="1" stop-color="#0DB38B"/>
</linearGradient>
<linearGradient id="paint2_linear_296_765" x1="67.0959" y1="-1.33767" x2="67.0959" y2="28.1649" gradientUnits="userSpaceOnUse">
<stop stop-color="#0D5A50"/>
<stop offset="1" stop-color="#0DB38B"/>
</linearGradient>
<linearGradient id="paint3_linear_296_765" x1="67.0959" y1="-1.33765" x2="67.0959" y2="28.165" gradientUnits="userSpaceOnUse">
<stop stop-color="#0D5A50"/>
<stop offset="1" stop-color="#0DB38B"/>
</linearGradient>
<linearGradient id="paint4_linear_296_765" x1="68.6714" y1="-1.33762" x2="68.6714" y2="28.165" gradientUnits="userSpaceOnUse">
<stop stop-color="#0D5A50"/>
<stop offset="1" stop-color="#0DB38B"/>
</linearGradient>
</defs>
</svg>
