<svg width="32" height="32" viewBox="0 0 32 32" fill="none" xmlns="http://www.w3.org/2000/svg">
<g id="Frame">
<g id="SVGRepo_iconCarrier">
<path id="Vector" d="M6.66671 18C3.72004 18 1.33337 20.3867 1.33337 23.3333C1.33337 24.3333 1.61337 25.28 2.10671 26.08C3.02671 27.6267 4.72004 28.6667 6.66671 28.6667C8.61337 28.6667 10.3067 27.6267 11.2267 26.08C11.72 25.28 12 24.3333 12 23.3333C12 20.3867 9.61337 18 6.66671 18ZM9.29337 22.8933L6.45337 25.52C6.26671 25.6933 6.01337 25.7867 5.77337 25.7867C5.52004 25.7867 5.26671 25.6933 5.06671 25.4933L3.74671 24.1733C3.36004 23.7867 3.36004 23.1467 3.74671 22.76C4.13337 22.3733 4.77337 22.3733 5.16004 22.76L5.80004 23.4L7.93337 21.4267C8.33337 21.0533 8.97337 21.08 9.34671 21.48C9.72004 21.88 9.69337 22.52 9.29337 22.8933Z" fill="#1C7C70"/>
<path id="Vector_2" d="M23 3.23828H10.3333C6.53333 3.23828 4 5.77161 4 9.57161V15.5183C4 15.985 4.48 16.3183 4.93333 16.1983C5.49333 16.065 6.06667 15.9983 6.66667 15.9983C10.48 15.9983 13.6267 19.0916 13.9733 22.8383C14 23.2116 14.3067 23.505 14.6667 23.505H15.4L21.04 27.265C21.8667 27.825 23 27.2116 23 26.1983V23.505C24.8933 23.505 26.48 22.865 27.5867 21.7716C28.6933 20.6516 29.3333 19.065 29.3333 17.1716V9.57161C29.3333 5.77161 26.8 3.23828 23 3.23828ZM21.1067 14.4116H12.2267C11.7067 14.4116 11.28 13.985 11.28 13.465C11.28 12.9316 11.7067 12.5049 12.2267 12.5049H21.1067C21.6267 12.5049 22.0533 12.9316 22.0533 13.465C22.0533 13.985 21.6267 14.4116 21.1067 14.4116Z" fill="#1C7C70"/>
</g>
</g>
</svg>
