<svg width="35" height="35" viewBox="0 0 35 35" fill="none" xmlns="http://www.w3.org/2000/svg">
<rect width="35" height="35" rx="6" fill="#1C7C70"/>
<path d="M25 17.5C25 13.3675 21.6325 10 17.5 10C13.3675 10 10 13.3675 10 17.5C10 19.675 10.9375 21.6325 12.4225 23.005C12.4225 23.0125 12.4225 23.0125 12.415 23.02C12.49 23.095 12.58 23.155 12.655 23.2225C12.7 23.26 12.7375 23.2975 12.7825 23.3275C12.9175 23.44 13.0675 23.545 13.21 23.65C13.2625 23.6875 13.3075 23.7175 13.36 23.755C13.5025 23.8525 13.6525 23.9425 13.81 24.025C13.8625 24.055 13.9225 24.0925 13.975 24.1225C14.125 24.205 14.2825 24.28 14.4475 24.3475C14.5075 24.3775 14.5675 24.4075 14.6275 24.43C14.7925 24.4975 14.9575 24.5575 15.1225 24.61C15.1825 24.6325 15.2425 24.655 15.3025 24.67C15.4825 24.7225 15.6625 24.7675 15.8425 24.8125C15.895 24.8275 15.9475 24.8425 16.0075 24.85C16.2175 24.895 16.4275 24.925 16.645 24.9475C16.675 24.9475 16.705 24.955 16.735 24.9625C16.99 24.985 17.245 25 17.5 25C17.755 25 18.01 24.985 18.2575 24.9625C18.2875 24.9625 18.3175 24.955 18.3475 24.9475C18.565 24.925 18.775 24.895 18.985 24.85C19.0375 24.8425 19.09 24.82 19.15 24.8125C19.33 24.7675 19.5175 24.73 19.69 24.67C19.75 24.6475 19.81 24.625 19.87 24.61C20.035 24.55 20.2075 24.4975 20.365 24.43C20.425 24.4075 20.485 24.3775 20.545 24.3475C20.7025 24.28 20.86 24.205 21.0175 24.1225C21.0775 24.0925 21.13 24.055 21.1825 24.025C21.3325 23.935 21.4825 23.8525 21.6325 23.755C21.685 23.725 21.73 23.6875 21.7825 23.65C21.9325 23.545 22.075 23.44 22.21 23.3275C22.255 23.29 22.2925 23.2525 22.3375 23.2225C22.42 23.155 22.5025 23.0875 22.5775 23.02C22.5775 23.0125 22.5775 23.0125 22.57 23.005C24.0625 21.6325 25 19.675 25 17.5ZM21.205 21.2275C19.1725 19.8625 15.8425 19.8625 13.795 21.2275C13.465 21.445 13.195 21.7 12.97 21.9775C11.83 20.8225 11.125 19.24 11.125 17.5C11.125 13.9825 13.9825 11.125 17.5 11.125C21.0175 11.125 23.875 13.9825 23.875 17.5C23.875 19.24 23.17 20.8225 22.03 21.9775C21.8125 21.7 21.535 21.445 21.205 21.2275Z" fill="white"/>
<path d="M17.5 13.6973C15.9475 13.6973 14.6875 14.9573 14.6875 16.5098C14.6875 18.0323 15.88 19.2698 17.4625 19.3148C17.485 19.3148 17.515 19.3148 17.53 19.3148C17.545 19.3148 17.5675 19.3148 17.5825 19.3148C17.59 19.3148 17.5975 19.3148 17.5975 19.3148C19.1125 19.2623 20.305 18.0323 20.3125 16.5098C20.3125 14.9573 19.0525 13.6973 17.5 13.6973Z" fill="white"/>
</svg>
