<svg width="11" height="11" viewBox="0 0 11 11" fill="none" xmlns="http://www.w3.org/2000/svg">
<g id="SVGRepo_iconCarrier">
<path id="Vector" d="M10.0573 8.80607C10.2094 8.97062 10.2919 9.18767 10.2876 9.41173C10.2832 9.63579 10.1923 9.84946 10.0339 10.008C9.87549 10.1665 9.66188 10.2576 9.43782 10.2621C9.21377 10.2666 8.99666 10.1842 8.83201 10.0322L5.52422 6.72438L2.21643 10.0322C2.13714 10.1179 2.04136 10.1868 1.93481 10.2346C1.82827 10.2825 1.71316 10.3083 1.59639 10.3106C1.47962 10.3128 1.36359 10.2915 1.25526 10.2478C1.14694 10.2042 1.04855 10.1391 0.965994 10.0565C0.883437 9.97387 0.818416 9.87543 0.774828 9.76708C0.73124 9.65872 0.709984 9.54268 0.712334 9.42591C0.714684 9.30914 0.740593 9.19405 0.788505 9.08754C0.836418 8.98103 0.905348 8.88529 0.991162 8.80607L4.29895 5.49828L0.991162 2.19217C0.905348 2.11295 0.836418 2.01721 0.788505 1.9107C0.740593 1.80418 0.714684 1.68909 0.712334 1.57232C0.709984 1.45555 0.73124 1.33951 0.774828 1.23116C0.818416 1.12281 0.883437 1.02437 0.965994 0.941757C1.04855 0.859144 1.14694 0.794054 1.25526 0.750392C1.36359 0.70673 1.47962 0.685394 1.59639 0.687664C1.71316 0.689934 1.82827 0.715763 1.93481 0.763603C2.04136 0.811442 2.13714 0.880307 2.21643 0.966066L5.52422 4.27301L8.83201 0.965224C8.99666 0.81321 9.21377 0.730825 9.43782 0.735335C9.66188 0.739845 9.87549 0.830899 10.0339 0.989416C10.1923 1.14793 10.2832 1.36161 10.2876 1.58567C10.2919 1.80973 10.2094 2.02678 10.0573 2.19133L6.74948 5.49828L10.0573 8.80607Z" fill="#1C355E"/>
</g>
</svg>
