<svg width="24" height="24" viewBox="0 0 24 24" fill="none" xmlns="http://www.w3.org/2000/svg">
<g id="Frame">
<g id="SVGRepo_iconCarrier">
<path id="Vector" d="M21 18.75H18.75V18C19.1647 18 19.5 17.664 19.5 17.25C19.5 16.8352 19.1647 16.5 18.75 16.5H17.25C16.8352 16.5 16.5 16.8352 16.5 17.25C16.5 17.664 16.8352 18 17.25 18V18.75H7.5V18C7.91475 18 8.25 17.664 8.25 17.25C8.25 16.8352 7.91475 16.5 7.5 16.5H6C5.58525 16.5 5.25 16.8352 5.25 17.25C5.25 17.664 5.58525 18 6 18V18.75H3C2.172 18.75 1.5 18.078 1.5 17.25V6.75C1.5 5.922 2.172 5.25 3 5.25H21C21.828 5.25 22.5 5.922 22.5 6.75V17.25C22.5 18.078 21.828 18.75 21 18.75ZM7.5 7.359C6.594 7.359 5.859 8.32425 5.859 9.51525C5.859 10.7063 6.594 11.6715 7.5 11.6715C8.406 11.6715 9.141 10.7063 9.141 9.51525C9.141 8.32425 8.406 7.359 7.5 7.359ZM10.1175 12.516C9.71325 12.2467 8.54925 12.0675 8.54925 12.0675C8.54925 12.0675 7.79475 12.8738 7.4745 12.8738C7.1535 12.8738 6.399 12.0675 6.399 12.0675C6.399 12.0675 5.235 12.246 4.8315 12.516C4.42725 12.7845 4.24875 14.2118 4.24875 14.2118H10.71C10.7107 14.211 10.5922 12.8317 10.1175 12.516ZM19.5 8.25H12.75V9H19.5V8.25ZM19.5 9.75H12.75V10.5H19.5V9.75ZM19.5 11.25H12.75V12H19.5V11.25ZM19.5 12.75H12.75V13.5H19.5V12.75Z" fill="#0D5A50"/>
</g>
</g>
</svg>
