<svg width="35" height="35" viewBox="0 0 35 35" fill="none" xmlns="http://www.w3.org/2000/svg">
<rect width="35" height="35" rx="6" fill="#1C7C70"/>
<path d="M17.4999 19.5833V21.25M13.3333 15.8573C13.7261 15.8333 14.2104 15.8333 14.8333 15.8333H20.1666C20.7894 15.8333 21.2738 15.8333 21.6666 15.8573M13.3333 15.8573C12.843 15.8872 12.4952 15.9546 12.1983 16.1058C11.7279 16.3455 11.3454 16.7279 11.1057 17.1983C10.8333 17.7332 10.8333 18.4332 10.8333 19.8333V21C10.8333 22.4002 10.8333 23.1002 11.1057 23.635C11.3454 24.1054 11.7279 24.4878 12.1983 24.7275C12.7331 25 13.4331 25 14.8333 25H20.1666C21.5668 25 22.2668 25 22.8016 24.7275C23.272 24.4878 23.6544 24.1054 23.8941 23.635C24.1666 23.1002 24.1666 22.4002 24.1666 21V19.8333C24.1666 18.4332 24.1666 17.7332 23.8941 17.1983C23.6544 16.7279 23.272 16.3455 22.8016 16.1058C22.5047 15.9546 22.1568 15.8872 21.6666 15.8573M13.3333 15.8573V14.1667C13.3333 11.8655 15.1987 10 17.4999 10C19.8011 10 21.6666 11.8655 21.6666 14.1667V15.8573" stroke="white" stroke-width="1.5" stroke-linecap="round" stroke-linejoin="round"/>
</svg>
