<svg width="35" height="35" viewBox="0 0 35 35" fill="none" xmlns="http://www.w3.org/2000/svg">
<rect width="35" height="35" rx="6" fill="#1C7C70"/>
<path fill-rule="evenodd" clip-rule="evenodd" d="M18.4858 14.2576C18.3688 14.2638 18.2572 14.3085 18.1682 14.3847C18.0793 14.4609 18.018 14.5643 17.9939 14.6789C17.9651 14.8168 17.9921 14.9605 18.0692 15.0784C18.1462 15.1963 18.267 15.2788 18.4048 15.3077C19.2723 15.4904 19.8182 16.3287 19.6354 17.1961C19.6066 17.334 19.6336 17.4777 19.7107 17.5956C19.7877 17.7135 19.9085 17.796 20.0463 17.8249C20.184 17.8538 20.3276 17.8269 20.4455 17.75C20.5634 17.6732 20.6459 17.5527 20.6751 17.4151C20.9762 15.9857 20.0531 14.5692 18.6238 14.268C18.5784 14.2586 18.532 14.2551 18.4858 14.2576Z" fill="white"/>
<path fill-rule="evenodd" clip-rule="evenodd" d="M18.8955 12.1803C18.784 12.1924 18.6791 12.2394 18.596 12.3147C18.5129 12.39 18.4557 12.4897 18.4327 12.5995C18.4038 12.7372 18.4307 12.8807 18.5076 12.9986C18.5844 13.1165 18.7049 13.1991 18.8426 13.2283C20.8584 13.653 22.1393 15.6181 21.7146 17.6339C21.7002 17.7022 21.6994 17.7727 21.7122 17.8414C21.725 17.9101 21.7513 17.9755 21.7895 18.034C21.8276 18.0925 21.8769 18.1429 21.9346 18.1823C21.9923 18.2217 22.0571 18.2494 22.1255 18.2637C22.2634 18.2926 22.4071 18.2655 22.525 18.1885C22.6429 18.1114 22.7254 17.9907 22.7543 17.8528C23.2974 15.2751 21.6392 12.7317 19.0615 12.1886C19.0069 12.1771 18.9509 12.1743 18.8955 12.1803Z" fill="white"/>
<path fill-rule="evenodd" clip-rule="evenodd" d="M19.292 10.1069C19.1888 10.1264 19.0937 10.176 19.0187 10.2495C18.9438 10.323 18.8922 10.4171 18.8707 10.5199C18.8418 10.6576 18.8687 10.8011 18.9456 10.919C19.0224 11.0369 19.1429 11.1195 19.2805 11.1487C22.4448 11.8153 24.4607 14.9073 23.7941 18.0715C23.7797 18.1398 23.7788 18.2103 23.7917 18.279C23.8045 18.3477 23.8308 18.4131 23.8689 18.4716C23.9071 18.5301 23.9564 18.5805 24.0141 18.6199C24.0717 18.6594 24.1366 18.687 24.205 18.7013C24.3428 18.7302 24.4865 18.7031 24.6044 18.6261C24.7224 18.549 24.8048 18.4283 24.8338 18.2904C25.6188 14.5643 23.2256 10.894 19.4995 10.109C19.4311 10.0946 19.3606 10.094 19.292 10.1069Z" fill="white"/>
<path fill-rule="evenodd" clip-rule="evenodd" d="M12.7083 10.0686C12.1851 10.0592 11.698 10.2987 11.4061 10.7825C9.65851 13.6788 9.60518 17.3159 11.3096 20.2776C11.31 20.2786 11.3103 20.2797 11.3107 20.2807C13.0302 23.2341 16.2141 25.0045 19.6021 24.9427C20.2478 24.9309 20.745 24.5392 20.9686 23.9684L21.7323 22.0198C22.0058 21.3217 21.7972 20.5208 21.2177 20.0452L19.847 18.9215C19.1418 18.3428 18.0622 18.5366 17.6017 19.3241L17.088 20.2008C16.2141 19.7445 15.4333 19.0932 14.9153 18.2004V18.1993C14.3737 17.2613 14.2082 16.2088 14.2793 15.1799L15.2515 15.2421C16.1596 15.3005 16.9047 14.4754 16.755 13.5778L16.4644 11.8357C16.3411 11.0964 15.7528 10.5164 15.0118 10.4038L12.9345 10.0884C12.8588 10.0769 12.7831 10.07 12.7083 10.0686ZM12.7747 11.1384L14.852 11.4549C15.1428 11.499 15.3681 11.7209 15.4164 12.011L15.707 13.7531C15.7481 13.9998 15.5684 14.1977 15.3189 14.1817L13.7843 14.0831C13.6524 14.0747 13.5222 14.1158 13.419 14.1983C13.3158 14.2808 13.247 14.3988 13.2261 14.5293C13.0006 15.9383 13.2432 17.4285 13.996 18.7315C13.996 18.7319 13.996 18.7322 13.996 18.7326C14.7152 19.9726 15.8133 20.8988 17.0704 21.4241C17.189 21.4736 17.3216 21.4784 17.4436 21.4375C17.5655 21.3967 17.6685 21.3131 17.7334 21.2021L18.5189 19.8594C18.6597 19.6187 18.9579 19.5652 19.1736 19.7422L20.5432 20.8669C20.7701 21.0531 20.8495 21.3584 20.7424 21.6316L19.9798 23.5803C19.943 23.6743 19.6517 23.8789 19.5834 23.8801C16.5774 23.9349 13.7545 22.3655 12.2289 19.7453C10.7185 17.1183 10.7672 13.8995 12.3161 11.3324C12.3513 11.2741 12.6747 11.1232 12.7747 11.1384Z" fill="white"/>
</svg>
