<svg width="16" height="17" viewBox="0 0 16 17" fill="none" xmlns="http://www.w3.org/2000/svg">
<g id="Frame" clip-path="url(#clip0_200_1586)">
<g id="SVGRepo_iconCarrier">
<g id="Page-1">
<g id="Icon-Set-Filled">
<path id="plus-circle" fill-rule="evenodd" clip-rule="evenodd" d="M11 9H8.5V11.5C8.5 11.775 8.2765 12 8 12C7.7235 12 7.5 11.775 7.5 11.5V9H5C4.7235 9 4.5 8.775 4.5 8.5C4.5 8.225 4.7235 8 5 8H7.5V5.5C7.5 5.225 7.7235 5 8 5C8.2765 5 8.5 5.225 8.5 5.5V8H11C11.2765 8 11.5 8.225 11.5 8.5C11.5 8.775 11.2765 9 11 9ZM8 0.5C3.5815 0.5 0 4.08 0 8.5C0 12.92 3.5815 16.5 8 16.5C12.4185 16.5 16 12.92 16 8.5C16 4.08 12.4185 0.5 8 0.5Z" fill="white"/>
</g>
</g>
</g>
</g>
<defs>
<clipPath id="clip0_200_1586">
<rect width="16" height="16" fill="white" transform="translate(0 0.5)"/>
</clipPath>
</defs>
</svg>
