<svg width="28" height="28" viewBox="0 0 28 28" fill="none" xmlns="http://www.w3.org/2000/svg">
<g id="Frame">
<g id="SVGRepo_iconCarrier">
<path id="Vector" d="M11.3077 2.1543H3.76919C2.85381 2.1543 2.15381 2.8543 2.15381 3.76968V25.3081C2.15381 25.5774 2.42304 25.8466 2.69227 25.8466H4.84612C5.16919 25.8466 5.38458 25.6312 5.38458 25.3081V22.0774C5.38458 21.7543 5.59996 21.5389 5.92304 21.5389H9.15381C9.47689 21.5389 9.69227 21.7543 9.69227 22.0774V25.3081C9.69227 25.6312 9.90766 25.8466 10.2307 25.8466H11.8461C12.4384 25.8466 12.923 25.362 12.923 24.7697V3.76968C12.923 2.8543 12.223 2.1543 11.3077 2.1543ZM6.4615 19.1158C6.4615 19.2774 6.35381 19.3851 6.19227 19.3851H4.57689C4.41535 19.3851 4.30765 19.2774 4.30765 19.1158V16.4235C4.30765 16.262 4.41535 16.1543 4.57689 16.1543H6.19227C6.35381 16.1543 6.4615 16.262 6.4615 16.4235V19.1158ZM6.4615 13.7312C6.4615 13.8928 6.35381 14.0005 6.19227 14.0005H4.57689C4.41535 14.0005 4.30765 13.8928 4.30765 13.7312V11.0389C4.30765 10.8774 4.41535 10.7697 4.57689 10.7697H6.19227C6.35381 10.7697 6.4615 10.8774 6.4615 11.0389V13.7312ZM6.4615 8.3466C6.4615 8.50814 6.35381 8.61584 6.19227 8.61584H4.57689C4.41535 8.61584 4.30765 8.50814 4.30765 8.3466V5.6543C4.30765 5.49276 4.41535 5.38507 4.57689 5.38507H6.19227C6.35381 5.38507 6.4615 5.49276 6.4615 5.6543V8.3466ZM10.7692 19.1158C10.7692 19.2774 10.6615 19.3851 10.5 19.3851H8.88458C8.72304 19.3851 8.61535 19.2774 8.61535 19.1158V16.4235C8.61535 16.262 8.72304 16.1543 8.88458 16.1543H10.5C10.6615 16.1543 10.7692 16.262 10.7692 16.4235V19.1158ZM10.7692 13.7312C10.7692 13.8928 10.6615 14.0005 10.5 14.0005H8.88458C8.72304 14.0005 8.61535 13.8928 8.61535 13.7312V11.0389C8.61535 10.8774 8.72304 10.7697 8.88458 10.7697H10.5C10.6615 10.7697 10.7692 10.8774 10.7692 11.0389V13.7312ZM10.7692 8.3466C10.7692 8.50814 10.6615 8.61584 10.5 8.61584H8.88458C8.72304 8.61584 8.61535 8.50814 8.61535 8.3466V5.6543C8.61535 5.49276 8.72304 5.38507 8.88458 5.38507H10.5C10.6615 5.38507 10.7692 5.49276 10.7692 5.6543V8.3466Z" fill="white"/>
<path id="Vector_2" d="M24.2308 7.53906H16.6923C15.7769 7.53906 15.0769 8.23906 15.0769 9.15445V25.3083C15.0769 25.5775 15.3461 25.8468 15.6154 25.8468H17.7692C18.0923 25.8468 18.3077 25.6314 18.3077 25.3083V22.0775C18.3077 21.7544 18.5231 21.5391 18.8461 21.5391H22.0769C22.4 21.5391 22.6154 21.7544 22.6154 22.0775V25.3083C22.6154 25.6314 22.8308 25.8468 23.1538 25.8468H24.7692C25.3615 25.8468 25.8461 25.3621 25.8461 24.7698V9.15445C25.8461 8.23906 25.1461 7.53906 24.2308 7.53906ZM19.3846 19.116C19.3846 19.2775 19.2769 19.3852 19.1154 19.3852H17.5C17.3384 19.3852 17.2308 19.2775 17.2308 19.116V16.4237C17.2308 16.2621 17.3384 16.1544 17.5 16.1544H19.1154C19.2769 16.1544 19.3846 16.2621 19.3846 16.4237V19.116ZM19.3846 13.7314C19.3846 13.8929 19.2769 14.0006 19.1154 14.0006H17.5C17.3384 14.0006 17.2308 13.8929 17.2308 13.7314V11.0391C17.2308 10.8775 17.3384 10.7698 17.5 10.7698H19.1154C19.2769 10.7698 19.3846 10.8775 19.3846 11.0391V13.7314ZM23.6923 19.116C23.6923 19.2775 23.5846 19.3852 23.4231 19.3852H21.8077C21.6461 19.3852 21.5384 19.2775 21.5384 19.116V16.4237C21.5384 16.2621 21.6461 16.1544 21.8077 16.1544H23.4231C23.5846 16.1544 23.6923 16.2621 23.6923 16.4237V19.116ZM23.6923 13.7314C23.6923 13.8929 23.5846 14.0006 23.4231 14.0006H21.8077C21.6461 14.0006 21.5384 13.8929 21.5384 13.7314V11.0391C21.5384 10.8775 21.6461 10.7698 21.8077 10.7698H23.4231C23.5846 10.7698 23.6923 10.8775 23.6923 11.0391V13.7314Z" fill="white"/>
</g>
</g>
</svg>
