<svg width="213" height="58" viewBox="0 0 213 58" fill="none" xmlns="http://www.w3.org/2000/svg">
<g clip-path="url(#clip0_18_845)">
<path d="M184.253 46.1555L167.254 29.0007L184.253 11.8444L201.251 29.0007L184.253 46.1555ZM184.253 7.36957L162.819 29.0022L184.253 50.6319L205.685 29.0022L184.253 7.36957Z" fill="#83CAC4"/>
<path d="M196.822 20.0496L190.172 26.7626L192.388 29.0008L196.822 24.526L201.257 29.0008L196.822 33.4756L192.388 29.0008L190.172 31.2375L196.822 37.9505L205.691 29.0008L196.822 20.0496Z" fill="#0D76BC"/>
<path d="M175.384 16.3208L182.035 23.0338L184.253 20.7971L179.819 16.3208L184.253 11.8444L188.686 16.3208L184.253 20.7971L186.469 23.0338L193.12 16.3208L184.253 7.36957L175.384 16.3208Z" fill="#0D76BC"/>
<path d="M171.703 37.9505L178.354 31.2375L176.138 28.9993L171.703 33.4756L167.268 28.9993L171.703 24.5245L176.138 28.9993L178.354 26.7626L171.703 20.0496L162.834 28.9993L171.703 37.9505Z" fill="#0D76BC"/>
<path d="M193.123 41.6807L186.472 34.9692L184.253 37.2059L188.688 41.6807L184.253 46.1571L179.82 41.6807L184.253 37.2059L182.036 34.9692L175.385 41.6807L184.253 50.6334L193.123 41.6807Z" fill="#0D76BC"/>
<path d="M184.253 32.7295L180.558 29.0007L184.253 25.2704L187.947 29.0007L184.253 32.7295Z" fill="#83CAC4"/>
<path d="M208.553 27.4192H212.987L185.823 0.00152588V4.47636L208.553 27.4192Z" fill="#1C355E"/>
<path d="M185.836 53.5236V58L213 30.5808H208.566L185.836 53.5236Z" fill="#1C355E"/>
<path d="M182.688 53.5236L159.96 30.5808H155.525L182.688 58V53.5236Z" fill="#1C355E"/>
<path d="M182.688 4.47635V0L155.525 27.4192H159.96L182.688 4.47635Z" fill="#1C355E"/>
<path d="M1.61182 36.9208V38.1688H2.30443C2.9054 38.1688 3.32608 38.0778 3.32608 37.5349C3.32608 37.0466 2.95949 36.9208 2.30443 36.9208H1.61182ZM2.33148 39.2681H1.61182V41.3698H0.333252V35.7244H2.57186C4.05776 35.7244 4.67376 36.616 4.67376 37.4985C4.67376 38.1612 4.36125 38.7723 3.62807 39.0786L5.03133 41.3698H3.60103L2.32847 39.2681H2.33148Z" fill="#636569"/>
<path d="M5.97363 35.7228H9.71918V36.9208H7.2522V37.8882H9.49081V39.0922H7.2522V40.1719H9.72669V41.3698H5.97363V35.7228Z" fill="#636569"/>
<path d="M12.3333 39.0543H13.7215L13.0304 36.9921L12.3318 39.0543H12.3333ZM15.8159 41.3714H14.5028L14.1212 40.2568H11.9321L11.558 41.3714H10.2434L12.2416 35.7259H13.8177L15.8144 41.3714H15.8159Z" fill="#636569"/>
<path d="M17.8561 40.1734H20.3171V41.3714H16.5701V35.7259H17.8561V40.1734Z" fill="#636569"/>
<path d="M23.4258 35.7228H27.1728V36.9208H24.7043V37.8882H26.943V39.0922H24.7043V40.1719H27.1788V41.3698H23.4258V35.7228Z" fill="#636569"/>
<path d="M30.0635 40.2432C30.6089 40.2432 31.0926 40.1401 31.0926 39.7352C31.0926 39.3592 30.7185 39.2348 30.1657 39.109L29.6834 38.9967C28.6542 38.7602 28.0923 38.1263 28.0923 37.2347C28.0923 36.3431 28.8946 35.6122 30.2708 35.6122C31.0716 35.6122 31.943 35.9048 32.3021 36.1202L31.8123 37.262C31.4112 36.9982 30.7696 36.8314 30.2633 36.8314C29.8622 36.8314 29.4069 36.9572 29.4069 37.2484C29.4069 37.5061 29.6203 37.6669 30.1732 37.7988L30.6494 37.911C31.6711 38.1461 32.4403 38.6904 32.4403 39.7337C32.4403 40.8619 31.3886 41.4609 30.1041 41.4609C29.2672 41.4609 28.4018 41.2516 27.9255 40.9589L28.4183 39.8171C28.7984 40.0688 29.4956 40.2417 30.062 40.2417" fill="#636569"/>
<path d="M34.9266 36.9223H33.1357V35.7259H37.9961V36.9223H36.2052V41.3714H34.9266V36.9223Z" fill="#636569"/>
<path d="M39.7405 39.0543H41.1287L40.4376 36.9921L39.739 39.0543H39.7405ZM43.2231 41.3714H41.91L41.5284 40.2568H39.3394L38.9653 41.3714H37.6506L39.6474 35.7259H41.2249L43.2216 41.3714H43.2231Z" fill="#636569"/>
<path d="M44.673 36.9223H42.8821V35.7259H47.7424V36.9223H45.9515V41.3714H44.673V36.9223Z" fill="#636569"/>
<path d="M48.6033 35.7228H52.3488V36.9208H49.8803V37.8882H52.1204V39.0922H49.8803V40.1719H52.3563V41.3698H48.6033V35.7228Z" fill="#636569"/>
<path d="M59.2645 40.0476V39.3319H58.1932V38.1263H60.543V40.9317C59.9901 41.2728 58.967 41.4609 58.2488 41.4609C56.4594 41.4609 55.3191 40.2296 55.3191 38.5373C55.3191 36.845 56.4594 35.6137 58.2488 35.6137C59.0917 35.6137 59.921 35.8154 60.3988 36.108L59.9165 37.2499C59.5289 36.9997 58.955 36.8329 58.3044 36.8329C57.4195 36.8329 56.6653 37.3348 56.6653 38.5388C56.6653 39.7428 57.418 40.2447 58.3044 40.2447C58.644 40.2447 58.976 40.175 59.266 40.0506" fill="#636569"/>
<path d="M61.9358 35.7228H65.6813V36.9208H63.2129V37.8882H65.453V39.0922H63.2129V40.1719H65.6888V41.3698H61.9358V35.7228Z" fill="#636569"/>
<path d="M68.0759 36.936V41.3714H66.8259V35.7259H68.7265L70.3025 40.1583V35.7259H71.5465V41.3714H69.652L68.0759 36.936Z" fill="#636569"/>
<path d="M72.9214 35.7228H76.6669V36.9208H74.1984V37.8882H76.4386V39.0922H74.1984V40.1719H76.6744V41.3698H72.9214V35.7228Z" fill="#636569"/>
<path d="M79.1069 36.9208V38.1688H79.7995C80.4005 38.1688 80.8212 38.0778 80.8212 37.5349C80.8212 37.0466 80.4546 36.9208 79.7995 36.9208H79.1069ZM79.8266 39.2681H79.1069V41.3698H77.8284V35.7244H80.067C81.5529 35.7244 82.1689 36.616 82.1689 37.4985C82.1689 38.1612 81.8564 38.7723 81.1232 39.0786L82.5265 41.3698H81.0961L79.8236 39.2681H79.8266Z" fill="#636569"/>
<path d="M84.9258 39.0543H86.3141L85.6229 36.9921L84.9243 39.0543H84.9258ZM88.4084 41.3714H87.0953L86.7137 40.2568H84.5247L84.1506 41.3714H82.8359L84.8342 35.7259H86.4102L88.4069 41.3714H88.4084Z" fill="#636569"/>
<path d="M90.4504 40.1734H92.9098V41.3714H89.1643V35.7259H90.4504V40.1734Z" fill="#636569"/>
<path d="M97.4771 39.0543H98.8653L98.1742 36.9921L97.4756 39.0543H97.4771ZM100.96 41.3714H99.6451L99.265 40.2568H97.0759L96.7018 41.3714H95.3872L97.3839 35.7259H98.9615L100.958 41.3714H100.96Z" fill="#636569"/>
<path d="M101.455 39.1423V35.7228H102.732V38.8435C102.732 39.7549 103.003 40.2417 103.915 40.2417C104.827 40.2417 105.097 39.7549 105.097 38.8435V35.7228H106.376V39.1423C106.376 40.4646 105.67 41.4608 103.915 41.4608C102.16 41.4608 101.454 40.4661 101.454 39.1423" fill="#636569"/>
<path d="M108.951 36.9223H107.16V35.7259H112.02V36.9223H110.23V41.3714H108.951V36.9223Z" fill="#636569"/>
<path d="M112.88 41.3714V35.7259H114.158V37.8913H116.487V35.7259H117.767V41.3714H116.487V39.0938H114.158V41.3714H112.88Z" fill="#636569"/>
<path d="M121.711 36.8405C120.765 36.8405 120.122 37.5289 120.122 38.5388C120.122 39.5487 120.765 40.2387 121.711 40.2387C122.658 40.2387 123.299 39.5472 123.299 38.5388C123.299 37.5304 122.656 36.8405 121.711 36.8405ZM121.711 41.4624C119.962 41.4624 118.774 40.175 118.774 38.5388C118.774 36.9026 119.962 35.6152 121.711 35.6152C123.46 35.6152 124.648 36.9026 124.648 38.5388C124.648 40.175 123.46 41.4624 121.711 41.4624Z" fill="#636569"/>
<path d="M126.923 36.9208V38.1688H127.614C128.217 38.1688 128.639 38.0778 128.639 37.5349C128.639 37.0466 128.272 36.9208 127.614 36.9208H126.923ZM127.643 39.2681H126.923V41.3698H125.645V35.7244H127.883C129.369 35.7244 129.984 36.616 129.984 37.4985C129.984 38.1612 129.673 38.7723 128.941 39.0786L130.344 41.3698H128.914L127.641 39.2681H127.643Z" fill="#636569"/>
<path d="M132.565 35.7244H131.286V41.3698H132.565V35.7244Z" fill="#636569"/>
<path d="M135.215 36.9223H133.424V35.7259H138.284V36.9223H136.494V41.3714H135.215V36.9223Z" fill="#636569"/>
<path d="M142.597 35.7228H144.04L142.051 39.3288V41.3698H140.771V39.3288L138.774 35.7228H140.218L141.408 38.0838L142.597 35.7228Z" fill="#636569"/>
<path d="M2.31196 30.7052C2.31196 31.2556 2.10763 31.3678 1.79813 31.3678C1.51568 31.3678 1.24073 31.2951 0.98382 31.1525L0.88466 31.0964L0.342285 32.3702L0.418909 32.4157C0.723901 32.5961 1.31736 32.7917 2.06106 32.7917C3.21192 32.7917 3.79335 32.1184 3.79335 30.7871V20.9003H2.31196V30.7052Z" fill="#636569"/>
<path d="M13.2631 25.6981L15.9614 22.9746L18.6583 25.6981L16.4512 27.9271H15.4716L13.2631 25.6981ZM25.9541 25.6981L28.6524 22.9746L31.3508 25.6981L29.1422 27.9271H28.1611L25.9525 25.6981H25.9541ZM41.716 27.9271H38.0305V16.5406L36.5476 18.3118V27.9271H31.2381L33.4466 25.6981L28.6509 20.8578L23.8567 25.6981L26.0637 27.9271H18.5471L20.7557 25.6981L15.9599 20.8578L11.1627 25.6981L13.3712 27.9271H8.06618V16.5406L6.58179 18.3118V29.4238H43.1989V16.5406L41.7175 18.3118V27.9271H41.716Z" fill="#636569"/>
<path d="M15.5859 18.6151L14.5372 17.5566L13.49 18.6151L14.5372 19.6735L15.5859 18.6151Z" fill="#636569"/>
<path d="M18.4089 18.6151L17.3602 17.5566L16.313 18.6151L17.3602 19.6735L18.4089 18.6151Z" fill="#636569"/>
<path d="M75.8857 25.6981L78.5841 22.9746L81.2824 25.6981L79.0739 27.9271H78.0943L75.8857 25.6981ZM87.6212 16.5406L86.1383 18.3103V27.9271H81.1697L83.3783 25.6981L78.5826 20.8578L73.7868 25.6981L75.9939 27.9271H71.0269V16.5406L69.5425 18.3103V29.4238H87.6182V16.5406H87.6212ZM90.641 29.4238H92.1224V16.5406L90.641 18.3103V29.4238Z" fill="#636569"/>
<path d="M63.2744 30.7901L60.5761 28.0666L63.2744 25.3432L65.9728 28.0666L63.2744 30.7901ZM53.4936 27.9287H52.505C50.7081 27.9287 49.5017 26.8672 49.5017 25.2886C49.5017 23.7101 51.0597 22.6365 52.505 22.6365H53.4936V27.9287ZM58.6169 27.9271H54.975V20.4074H53.4936V21.1429H52.9843C50.0606 21.1429 48.0188 22.8488 48.0188 25.2902C48.0188 26.6746 48.5702 27.7846 49.6129 28.5049C50.4708 29.0978 51.6697 29.4238 52.9828 29.4238H59.8218L63.2714 32.9069L68.0671 28.0666L63.2714 23.2264L58.6139 27.9271H58.6169Z" fill="#636569"/>
<path d="M52.4751 18.1647L51.4264 17.1063L50.3777 18.1647L51.4264 19.2231L52.4751 18.1647Z" fill="#636569"/>
<path d="M55.2785 18.1647L54.2298 17.1063L53.1826 18.1647L54.2298 19.2231L55.2785 18.1647Z" fill="#636569"/>
<path d="M142.559 18.3087V29.4223H144.04V16.5406L142.559 18.3087Z" fill="#636569"/>
<path d="M124.714 26.3152L126.328 24.6882L127.942 26.3152L126.348 27.9271H126.312L124.714 26.3152ZM102.435 27.9287H101.446C99.6495 27.9287 98.4446 26.8672 98.4446 25.2886C98.4446 23.7101 100.003 22.6365 101.446 22.6365H102.435V27.9287ZM138.056 27.9271H132.793L134.387 26.3152L126.327 18.1814L120.084 24.4819L121.133 25.5404L126.327 20.2967L132.291 26.3137L130.696 27.9256H128.443L130.041 26.3137L126.328 22.5698L122.619 26.3137L124.213 27.9256H115.807V20.8987H114.322V27.9256H108.99V20.8987H107.506V27.9256H103.916V20.4059H102.435V21.1413H101.926C99.002 21.1413 96.9617 22.8473 96.9617 25.2886C96.9617 26.6731 97.5131 27.7831 98.5557 28.5034C99.4136 29.0963 100.613 29.4223 101.926 29.4223H139.539V16.5406L138.057 18.3118V27.9271H138.056Z" fill="#636569"/>
<path d="M112.594 31.6635L113.643 32.722L114.69 31.6635L113.643 30.6051L112.594 31.6635Z" fill="#636569"/>
<path d="M115.418 31.6635L116.466 32.722L117.514 31.6635L116.466 30.6051L115.418 31.6635Z" fill="#636569"/>
<path d="M109.828 18.7197H107.671V18.2951C107.671 17.8083 107.848 17.6355 108.344 17.6355H109.361V16.6559H108.314C107.098 16.6559 106.51 17.2897 106.51 18.5908V19.8236H109.828V18.7227V18.7197Z" fill="#636569"/>
<path d="M101.398 18.1647L100.348 17.1063L99.301 18.1647L100.348 19.2231L101.398 18.1647Z" fill="#636569"/>
<path d="M104.221 18.1647L103.171 17.1063L102.124 18.1647L103.171 19.2231L104.221 18.1647Z" fill="#636569"/>
</g>
<defs>
<clipPath id="clip0_18_845">
<rect width="212.667" height="58" fill="white" transform="translate(0.333252)"/>
</clipPath>
</defs>
</svg>
