<svg width="32" height="32" viewBox="0 0 32 32" fill="none" xmlns="http://www.w3.org/2000/svg">
<g id="Frame">
<g id="SVGRepo_iconCarrier">
<path id="Vector" fill-rule="evenodd" clip-rule="evenodd" d="M3 8.16406C3 7.61177 3.44772 7.16406 4 7.16406H28C28.5523 7.16406 29 7.61177 29 8.16406C29 8.71634 28.5523 9.16406 28 9.16406H4C3.44772 9.16406 3 8.71634 3 8.16406Z" fill="white"/>
<path id="Vector_2" fill-rule="evenodd" clip-rule="evenodd" d="M25.4777 20.8463C25.0868 24.3862 24.8913 26.156 23.8921 27.3779C23.5427 27.8051 23.1292 28.1755 22.6661 28.4759C21.342 29.335 19.5613 29.335 15.9999 29.335C12.4386 29.335 10.6579 29.335 9.3337 28.4759C8.87069 28.1755 8.45712 27.8051 8.10773 27.3779C7.1085 26.156 6.91302 24.386 6.52206 20.8463L5.01953 7.24219H26.9803L25.4777 20.8463ZM18.6665 13.9552C19.2188 13.9552 19.6665 14.403 19.6665 14.9552V21.6219C19.6665 22.1742 19.2188 22.6219 18.6665 22.6219C18.1143 22.6219 17.6665 22.1742 17.6665 21.6219V14.9552C17.6665 14.403 18.1143 13.9552 18.6665 13.9552ZM14.3332 14.9552C14.3332 14.403 13.8855 13.9552 13.3332 13.9552C12.7809 13.9552 12.3332 14.403 12.3332 14.9552V21.6219C12.3332 22.1742 12.7809 22.6219 13.3332 22.6219C13.8855 22.6219 14.3332 22.1742 14.3332 21.6219V14.9552Z" fill="white"/>
<path id="Vector_3" fill-rule="evenodd" clip-rule="evenodd" d="M13.7842 1.66797C13.8055 1.66797 13.8269 1.66799 13.8483 1.66799H18.1523C18.1738 1.66799 18.1953 1.66797 18.2165 1.66797C18.9113 1.66791 19.533 1.66785 20.0357 1.73784C20.5862 1.81451 21.139 1.99173 21.5871 2.45583C22.0306 2.91501 22.1953 3.47304 22.2671 4.02627C22.3338 4.53973 22.3337 5.17725 22.3337 5.90107V8.19117H20.3337V5.96252C20.3337 5.15867 20.3317 4.65296 20.2838 4.28376C20.2391 3.93984 20.1709 3.86837 20.1485 3.84509L20.1471 3.8438C20.1281 3.82387 20.0686 3.76172 19.7598 3.71873C19.4117 3.67025 18.9315 3.66799 18.1523 3.66799H13.8483C13.0692 3.66799 12.589 3.67025 12.2408 3.71873C11.9321 3.76172 11.8726 3.82387 11.8535 3.8438L11.8522 3.84509C11.8298 3.86837 11.7616 3.93984 11.7169 4.28376C11.669 4.65296 11.667 5.15867 11.667 5.96252V8.19117H9.667V5.96252C9.667 5.94196 9.667 5.92147 9.667 5.90105C9.66694 5.17724 9.6669 4.53973 9.73356 4.02627C9.80538 3.47304 9.97011 2.91501 10.4135 2.45583C10.8617 1.99173 11.4144 1.81451 11.965 1.73784C12.4677 1.66785 13.0894 1.66791 13.7842 1.66797Z" fill="white"/>
</g>
</g>
</svg>
