<svg width="199" height="51" viewBox="0 0 199 51" fill="none" xmlns="http://www.w3.org/2000/svg">
<g id="Symbol">
<g id="Molecules-_x2F_-Menu-_x2F_-Light-overlapping-_x2F_-white">
<g id="Group">
<path id="Fill-276" fill-rule="evenodd" clip-rule="evenodd" d="M19.333 32.0213C19.2511 32.7147 19.0873 33.3213 18.8415 33.798C18.5958 34.2747 18.2681 34.6647 17.8994 34.968C17.5308 35.2713 17.1212 35.4447 16.6707 35.5747C16.2201 35.7047 15.7286 35.748 15.2371 35.748C14.7455 35.748 14.295 35.7047 13.8854 35.5747C13.4758 35.4447 13.1071 35.2713 12.7795 34.968C12.4927 34.708 12.247 34.3613 12.0831 33.8847C11.9193 33.4513 11.9193 32.888 11.9603 32.2813C12.0012 31.8913 12.1241 31.458 12.2879 30.938C12.4518 30.418 12.6975 29.898 13.0252 29.4213L14.5817 30.028C14.4588 30.288 14.3769 30.5046 14.295 30.678C14.2131 30.8513 14.1311 31.0246 14.0902 31.198C14.0492 31.3713 14.0083 31.5446 13.9673 31.6746C13.9263 31.848 13.8854 32.0213 13.8854 32.1513C13.8444 32.498 13.8444 32.8013 13.9263 33.0613C14.0083 33.3213 14.1311 33.4947 14.295 33.668C14.4588 33.798 14.6636 33.928 14.8684 33.9713C15.0732 34.0147 15.319 34.058 15.5238 34.058C16.0972 34.058 16.5478 33.8847 16.8755 33.5813C17.2031 33.278 17.4079 32.758 17.4899 32.0646L18.6367 22.7046H20.4799L19.333 32.0213Z" fill="#3B3B3B"/>
<path id="Fill-278" fill-rule="evenodd" clip-rule="evenodd" d="M24.3302 32.498C24.2893 32.758 24.2483 32.9747 24.2483 33.1047C24.2073 33.2347 24.2073 33.278 24.1664 33.278C23.7568 33.278 23.3472 33.2347 22.9785 33.1913C22.6099 33.148 22.2822 33.018 21.9955 32.8447C21.7088 32.6713 21.504 32.4547 21.3401 32.1513C21.2173 31.848 21.1763 31.5013 21.2173 31.1113L22.2413 22.8346H24.0845L23.1424 30.4613C23.1014 30.678 23.1014 30.8946 23.1424 31.068C23.1833 31.2413 23.2653 31.3713 23.3472 31.458C23.4291 31.5446 23.552 31.588 23.6749 31.6313C23.7977 31.6746 23.9616 31.6746 24.0845 31.6746C24.2073 31.6746 24.2893 31.7613 24.2893 31.8913C24.3712 32.0213 24.3712 32.1946 24.3302 32.498Z" fill="#3B3B3B"/>
<path id="Fill-280" fill-rule="evenodd" clip-rule="evenodd" d="M28.8768 28.4246C28.631 28.4246 28.4262 28.5113 28.2214 28.6413C28.0166 28.7713 27.8528 28.9446 27.7299 29.2046C27.5661 29.4213 27.4432 29.6813 27.3613 29.9846C27.2384 30.288 27.1565 30.5913 27.1155 30.9813C27.3613 31.2413 27.5661 31.4147 27.7709 31.5447C27.9757 31.6747 28.2214 31.718 28.5082 31.718C28.8768 31.718 29.2045 31.588 29.4502 31.2846C29.696 31.0246 29.8598 30.6346 29.9008 30.2013C29.9827 29.638 29.9008 29.2046 29.737 28.9013C29.5731 28.598 29.2864 28.4246 28.8768 28.4246ZM24.1664 33.278C23.9616 33.278 23.7978 33.2347 23.6749 33.1047C23.552 32.9747 23.552 32.8013 23.552 32.5413C23.593 32.2813 23.6339 32.0647 23.7568 31.9347C23.8387 31.8047 23.9616 31.718 24.1254 31.718H24.4941C24.6579 31.718 24.8218 31.6746 24.9037 31.6313C25.0266 31.5446 25.1085 31.458 25.1904 31.3713C25.2723 31.2413 25.3133 31.1113 25.3542 30.9813C25.3952 30.808 25.4771 30.6346 25.5181 30.418C25.6 29.898 25.7638 29.4213 25.9686 28.988C26.1734 28.5546 26.4192 28.1646 26.7469 27.8613C27.0336 27.558 27.4022 27.298 27.7709 27.1246C28.1805 26.9513 28.5901 26.8646 29.0406 26.8646C29.5322 26.8646 29.9827 26.9513 30.3514 27.1246C30.72 27.298 31.0477 27.5146 31.2525 27.818C31.4982 28.1213 31.6621 28.468 31.744 28.858C31.8259 29.248 31.8259 29.6813 31.785 30.158C31.744 30.3313 31.744 30.5046 31.703 30.678C31.6621 30.8513 31.6211 30.9813 31.5802 31.1546C31.6621 31.328 31.8259 31.5013 32.0307 31.588C32.2355 31.718 32.4813 31.7613 32.727 31.7613C32.8499 31.7613 32.9318 31.848 32.9318 31.978C32.9728 32.108 32.9728 32.3247 32.9318 32.5847C32.8909 32.758 32.8909 32.888 32.8909 33.018C32.8909 33.1047 32.8499 33.1913 32.8499 33.278C32.8499 33.3213 32.809 33.3647 32.809 33.3647C32.809 33.3647 32.809 33.408 32.768 33.408C32.6042 33.408 32.4813 33.408 32.2765 33.3647C32.1126 33.3213 31.9488 33.278 31.744 33.2347C31.5802 33.148 31.4163 33.0613 31.2525 32.9313C31.0886 32.8013 30.9658 32.628 30.8429 32.4547C30.4742 32.8013 30.1056 33.0613 29.696 33.2347C29.2864 33.408 28.8768 33.4513 28.4262 33.4513C28.0166 33.4513 27.648 33.408 27.3203 33.278C26.9926 33.148 26.665 32.9313 26.3373 32.628C26.0915 32.9313 25.8048 33.1047 25.559 33.2347C25.3133 33.3213 24.9856 33.408 24.535 33.408H24.1664V33.278Z" fill="#3B3B3B"/>
<path id="Fill-282" fill-rule="evenodd" clip-rule="evenodd" d="M32.7269 33.2781C32.4812 33.2781 32.3173 33.2347 32.2354 33.1047C32.1535 32.9747 32.1125 32.8014 32.1125 32.5414C32.1535 32.2814 32.1945 32.0647 32.3173 31.9347C32.3993 31.8047 32.5221 31.718 32.686 31.718H33.9148C33.7919 31.458 33.71 31.198 33.6281 30.8947C33.5871 30.6347 33.5461 30.3314 33.5871 30.0714C33.669 29.5514 33.7919 29.0747 34.0377 28.6414C34.2834 28.208 34.5701 27.9047 34.8978 27.6447C35.2255 27.3847 35.6351 27.168 36.0447 27.038C36.4543 26.908 36.9049 26.8214 37.3554 26.8214C37.6831 26.8214 38.0517 26.8647 38.3794 26.908C38.7481 26.9513 39.0348 27.038 39.2396 27.1247L38.7481 28.6414C38.6252 28.598 38.4204 28.5547 38.1746 28.5114C37.9289 28.468 37.6421 28.468 37.3964 28.468C37.1916 28.468 37.0277 28.5114 36.782 28.5547C36.5772 28.598 36.3724 28.6847 36.2085 28.8147C36.0037 28.9447 35.8809 29.118 35.717 29.2914C35.5941 29.508 35.4713 29.768 35.4713 30.0714C35.3893 30.5914 35.5122 30.9814 35.7989 31.2847C36.0857 31.588 36.4953 31.718 37.0687 31.718H38.9119L38.7071 33.3214H32.7269V33.2781Z" fill="#3B3B3B"/>
<path id="Fill-284" fill-rule="evenodd" clip-rule="evenodd" d="M42.762 22.7046C42.6801 22.4446 42.6391 22.2279 42.6391 22.0112C42.6801 21.5779 42.8849 21.2312 43.1716 20.9712C43.4583 20.7112 43.8679 20.5812 44.3185 20.5812C44.4414 20.5812 44.5642 20.5812 44.6871 20.6246C44.81 20.6246 44.9738 20.6679 45.0967 20.7112L44.81 21.4912C44.6462 21.4046 44.4414 21.4046 44.2366 21.4046C43.9908 21.4046 43.786 21.4479 43.6631 21.5779C43.5402 21.7079 43.4583 21.8379 43.4174 22.0546C43.3764 22.2712 43.4583 22.4446 43.5812 22.5746C43.7041 22.7046 43.9089 22.7479 44.1546 22.7479H44.9738L44.8919 23.5713H42.1476L42.2295 22.7479H42.762V22.7046ZM42.5162 24.3946H44.3594L43.5402 30.9813H41.697L42.5162 24.3946ZM46.6942 32.3246C46.4484 32.6713 46.1207 32.888 45.7521 33.0613C45.3834 33.1913 44.9329 33.278 44.4004 33.278H40.0996L40.3044 31.6746H43.827C44.3594 31.6746 44.769 31.5446 45.0148 31.2846C45.2606 31.0246 45.4244 30.5913 45.5063 29.9413L46.3665 22.7912H48.2097L47.3086 30.288C47.2676 30.7213 47.3495 31.0246 47.5953 31.2846C47.841 31.5446 48.1687 31.6746 48.6602 31.6746C48.7831 31.6746 48.906 31.718 48.947 31.848C48.9879 31.978 48.9879 32.1513 48.9879 32.4546C48.947 32.8013 48.906 33.018 48.865 33.1047C48.8241 33.1913 48.7831 33.278 48.7422 33.278C48.5783 33.278 48.3735 33.278 48.1687 33.2346C47.9639 33.1913 47.7591 33.148 47.5953 33.0613C47.4314 32.9746 47.2676 32.888 47.1038 32.758C46.9399 32.6713 46.817 32.498 46.6942 32.3246Z" fill="#3B3B3B"/>
<path id="Fill-286" fill-rule="evenodd" clip-rule="evenodd" d="M48.6604 31.6746C48.9471 31.6746 49.1928 31.6313 49.3567 31.588C49.5615 31.5447 49.6844 31.458 49.8072 31.328C49.9301 31.198 50.012 31.068 50.053 30.938C50.094 30.7646 50.1349 30.5913 50.1759 30.3746L51.077 22.8346H52.9202L51.9781 30.7213C51.9371 31.1546 51.8143 31.5446 51.6914 31.848C51.5685 32.1513 51.3637 32.4113 51.1179 32.628C50.8722 32.8447 50.5445 33.018 50.1349 33.1047C49.7253 33.1913 49.2748 33.278 48.7013 33.278C48.4965 33.278 48.3327 33.2347 48.2098 33.1047C48.0869 32.9747 48.0869 32.8013 48.0869 32.5413C48.1279 32.2813 48.1688 32.0647 48.2917 31.9346C48.4146 31.7613 48.5375 31.6746 48.6604 31.6746Z" fill="#3B3B3B"/>
<path id="Fill-288" fill-rule="evenodd" clip-rule="evenodd" d="M60.8256 36.8313C60.8666 36.528 60.9894 36.3113 61.1942 36.0946C61.399 35.9213 61.6448 35.7913 61.9315 35.7913C62.2182 35.7913 62.423 35.878 62.5869 36.0946C62.7507 36.268 62.7917 36.528 62.7507 36.8313C62.7098 37.1346 62.5869 37.3946 62.3821 37.568C62.1773 37.7413 61.9315 37.8713 61.6858 37.8713C61.399 37.8713 61.1942 37.7846 61.0304 37.568C60.8666 37.3513 60.7846 37.1346 60.8256 36.8313ZM58.4499 36.8313C58.4909 36.528 58.6138 36.3113 58.8186 36.0946C59.0234 35.9213 59.2691 35.7913 59.5558 35.7913C59.8426 35.7913 60.0474 35.878 60.2112 36.0946C60.375 36.268 60.416 36.528 60.375 36.8313C60.3341 37.1346 60.2112 37.3946 60.0064 37.568C59.8016 37.7413 59.5558 37.8713 59.3101 37.8713C59.0234 37.8713 58.8186 37.7846 58.6547 37.568C58.4909 37.3513 58.409 37.1346 58.4499 36.8313ZM58.6547 31.0679C58.5728 31.7179 58.7776 32.2379 59.2282 32.5413C59.6787 32.888 60.375 33.018 61.3581 33.018C61.8086 33.018 62.2182 32.9746 62.5869 32.9313C62.9555 32.8879 63.2422 32.8013 63.529 32.7146C63.7747 32.6279 63.9795 32.498 64.1434 32.368C64.2662 32.2379 64.3482 32.108 64.3891 32.0213C64.3891 31.848 64.3072 31.6746 64.0614 31.4579C63.8157 31.2413 63.447 31.0246 62.9555 30.7213C62.423 30.4179 62.0134 30.0713 61.7677 29.7246C61.5219 29.3779 61.44 28.9013 61.481 28.3813C61.5219 28.0346 61.6448 27.6879 61.8086 27.3413C61.9725 27.0379 62.2182 26.7346 62.505 26.4746C62.7917 26.2146 63.1603 26.0412 63.5699 25.9112C63.9795 25.7812 64.471 25.6946 64.9626 25.6946C65.0854 25.6946 65.2083 25.6946 65.3312 25.6946C65.4541 25.6946 65.6179 25.7379 65.7818 25.7379C65.9456 25.7812 66.0685 25.7812 66.2323 25.8246C66.3552 25.8679 66.4781 25.9112 66.601 25.9546L66.1094 27.3846C65.9866 27.3413 65.8227 27.2979 65.6179 27.2546C65.4131 27.2113 65.1674 27.2113 64.9626 27.2113C64.7987 27.2113 64.6349 27.2113 64.471 27.2546C64.3072 27.2979 64.1024 27.3413 63.9386 27.4279C63.7747 27.5146 63.6109 27.6013 63.529 27.7313C63.4061 27.8613 63.3651 28.0346 63.3242 28.2079C63.3242 28.3379 63.3242 28.4679 63.4061 28.5979C63.488 28.7279 63.5699 28.8579 63.6928 28.9879C63.8157 29.1179 63.9795 29.2479 64.1434 29.3346C64.3072 29.4646 64.471 29.5513 64.6758 29.6379C64.9216 29.7679 65.1264 29.9413 65.3312 30.0713C65.536 30.2013 65.6998 30.3746 65.8637 30.5479C65.9866 30.7213 66.1094 30.8946 66.1914 31.1113C66.2733 31.3279 66.2733 31.5446 66.2733 31.8046C66.2323 32.238 66.0685 32.5846 65.8227 32.9313C65.577 33.278 65.2493 33.5813 64.8397 33.798C64.4301 34.058 63.8976 34.2313 63.3242 34.3613C62.7507 34.4913 62.0544 34.578 61.3171 34.578C60.5389 34.578 59.8835 34.5346 59.3101 34.4046C58.7366 34.2746 58.2451 34.058 57.8355 33.798C57.4259 33.4946 57.1802 33.148 56.9754 32.7146C56.8115 32.2813 56.7706 31.7179 56.8525 31.1113C56.8934 30.7646 57.0163 30.3746 57.1802 29.8546C57.344 29.3779 57.5898 28.8579 57.9174 28.3379L59.4739 28.9879C59.3101 29.3346 59.1462 29.6813 58.9824 30.0713C58.7776 30.4613 58.6547 30.7646 58.6547 31.0679Z" fill="#3B3B3B"/>
<path id="Fill-290" fill-rule="evenodd" clip-rule="evenodd" d="M69.632 31.6747C70.0826 31.6747 70.4103 31.588 70.6151 31.3713C70.8608 31.198 70.9837 30.8513 71.0656 30.3313L71.1066 29.9846C71.1475 29.508 71.0656 29.118 70.7789 28.9013C70.4922 28.6413 70.0826 28.5113 69.5091 28.5113H68.2394L68.4442 26.908H70.0826C70.656 26.908 71.1066 26.9946 71.5162 27.1246C71.9258 27.2546 72.2125 27.4713 72.4583 27.688C72.704 27.948 72.8678 28.208 72.9498 28.5546C73.0317 28.9013 73.0726 29.248 73.0317 29.638L72.9088 30.5913C72.7859 31.5447 72.5402 32.238 72.1306 32.628C71.721 33.0613 71.0656 33.278 70.2055 33.278H66.8877L67.0925 31.6747H69.632Z" fill="#3B3B3B"/>
<path id="Fill-292" fill-rule="evenodd" clip-rule="evenodd" d="M76.1855 30.0713C76.1035 30.5913 76.1855 31.0246 76.3903 31.2846C76.5951 31.5446 76.9227 31.6746 77.4143 31.6746H78.4792L78.684 30.028C78.725 29.8113 78.725 29.5946 78.684 29.4213C78.684 29.248 78.6021 29.0746 78.5611 28.9013C78.4792 28.728 78.3973 28.6413 78.2335 28.5546C78.1106 28.468 77.9058 28.4246 77.7419 28.4246C77.5781 28.4246 77.4143 28.468 77.2504 28.5113C77.0866 28.5546 76.9227 28.6846 76.7999 28.8146C76.677 28.9446 76.5541 29.118 76.4312 29.3346C76.2674 29.5513 76.1855 29.768 76.1855 30.0713ZM76.4312 34.188C76.7179 34.188 76.9227 34.188 77.1685 34.1447C77.3733 34.1013 77.5781 34.058 77.701 34.0147C77.8648 33.928 77.9877 33.8413 78.0696 33.7113C78.1515 33.5813 78.1925 33.408 78.2335 33.2347H76.9637C76.5131 33.2347 76.1035 33.1913 75.7759 33.0613C75.4072 32.9313 75.1205 32.758 74.8747 32.5413C74.629 32.2813 74.4651 31.978 74.3423 31.588C74.2194 31.198 74.2194 30.7646 74.2603 30.2446C74.3013 29.8113 74.4242 29.378 74.629 28.9446C74.7928 28.5113 75.0386 28.1646 75.3663 27.818C75.6939 27.4713 76.0626 27.2546 76.4722 27.038C76.8818 26.8646 77.3733 26.7346 77.9058 26.7346C78.3154 26.7346 78.684 26.8213 79.0117 26.9513C79.3394 27.0813 79.6671 27.298 79.9128 27.5146C80.1586 27.7746 80.3224 28.078 80.4453 28.468C80.5682 28.858 80.5682 29.2913 80.5272 29.8113L80.3224 31.588H81.3055C81.4283 31.588 81.5103 31.6313 81.5512 31.7613C81.5922 31.8913 81.5922 32.108 81.5922 32.368C81.5512 32.6713 81.5102 32.888 81.4693 33.018C81.4283 33.1047 81.3874 33.148 81.3464 33.148H80.1176C79.9947 33.5813 79.8309 33.9713 79.6261 34.318C79.4213 34.6213 79.1346 34.8813 78.8069 35.098C78.4792 35.3147 78.1106 35.4447 77.701 35.5313C77.2914 35.618 76.8408 35.6613 76.3493 35.6613C76.0626 35.6613 75.7759 35.6613 75.4891 35.618C75.2024 35.5747 74.9157 35.5313 74.6699 35.4447L75.1205 33.928C75.3253 33.9713 75.5301 34.0147 75.7759 34.058C75.9397 34.188 76.1855 34.188 76.4312 34.188Z" fill="#3B3B3B"/>
<path id="Fill-294" fill-rule="evenodd" clip-rule="evenodd" d="M85.3196 28.4246C85.1558 28.4246 84.992 28.4246 84.8281 28.468C84.6643 28.5113 84.5004 28.5113 84.3776 28.5546C84.2137 28.598 84.0908 28.6413 83.968 28.6846C83.8451 28.728 83.7632 28.7713 83.7222 28.8146C84.0499 29.118 84.3776 29.4646 84.5824 29.8113C84.8281 30.158 85.0329 30.4613 85.1968 30.808C85.3196 30.7213 85.4835 30.6346 85.6473 30.5046C85.8112 30.3746 85.934 30.2446 86.0569 30.1146C86.1798 29.9846 86.3027 29.8546 86.3436 29.6813C86.4256 29.5513 86.4665 29.378 86.5075 29.2046C86.5075 29.118 86.5075 29.0313 86.4665 28.9446C86.4256 28.858 86.3846 28.7713 86.2617 28.6846C86.1798 28.598 86.0569 28.5546 85.8931 28.5113C85.7292 28.4246 85.5654 28.4246 85.3196 28.4246ZM81.3056 33.278C81.0598 33.278 80.896 33.1913 80.814 33.0613C80.7321 32.9313 80.6912 32.758 80.6912 32.498C80.7321 32.238 80.7731 32.0213 80.896 31.8913C80.9779 31.7613 81.1008 31.6747 81.2646 31.6747H82.6982C82.944 31.6747 83.1897 31.6747 83.3945 31.6313C83.5993 31.588 83.7632 31.5447 83.886 31.5013C83.6812 31.2847 83.5174 31.068 83.3945 30.8947C83.2307 30.7213 83.1078 30.548 82.944 30.418C82.8211 30.288 82.6572 30.1146 82.4934 29.9846C82.3296 29.8546 82.1248 29.6813 81.879 29.5513C81.879 29.4646 81.92 29.3346 81.9609 29.1613C82.0019 28.988 82.0428 28.8146 82.0838 28.6413C82.1248 28.468 82.1657 28.2946 82.2476 28.1646C82.2886 28.0346 82.3296 27.9046 82.3705 27.818C82.5344 27.7313 82.7392 27.6013 82.9849 27.5146C83.2307 27.428 83.4764 27.298 83.7632 27.2113C84.0499 27.1246 84.3366 27.038 84.6233 26.9946C84.91 26.9513 85.1967 26.908 85.4835 26.908C85.934 26.908 86.3027 26.9513 86.6713 27.038C87.04 27.1246 87.3676 27.2546 87.6134 27.4713C87.8592 27.6446 88.064 27.8613 88.2278 28.1646C88.3507 28.4246 88.3916 28.7713 88.3507 29.118C88.3097 29.378 88.2278 29.5946 88.1459 29.8546C88.023 30.1146 87.8592 30.3313 87.6953 30.548C87.5315 30.7647 87.2857 30.9813 87.0809 31.198C86.8352 31.4147 86.5894 31.588 86.3027 31.718C86.4255 31.7613 86.5484 31.7613 86.7532 31.8047C86.958 31.8047 87.1219 31.8047 87.2448 31.8047H88.5964C88.7193 31.8047 88.8012 31.848 88.8422 31.978C88.8832 32.108 88.8832 32.3247 88.8832 32.5847C88.8422 32.9313 88.8012 33.148 88.7603 33.2347C88.7193 33.3213 88.6784 33.3647 88.6374 33.3647H86.7532C86.2617 33.3647 85.8931 33.3213 85.5244 33.1913C85.1968 33.1047 84.91 32.9747 84.7462 32.8013C84.4185 32.9747 84.0089 33.1047 83.5993 33.1913C83.1897 33.278 82.7392 33.3647 82.3296 33.3647H81.3056V33.278Z" fill="#3B3B3B"/>
<path id="Fill-296" fill-rule="evenodd" clip-rule="evenodd" d="M93.1427 33.278C92.6921 33.278 92.3235 33.1913 91.9958 33.0613C91.6681 32.888 91.4633 32.6713 91.3405 32.4113C91.0947 32.7147 90.767 32.9313 90.3165 33.0613C89.8659 33.1913 89.3334 33.278 88.6371 33.278C88.4323 33.278 88.2685 33.2347 88.1456 33.1047C88.0227 32.9747 88.0227 32.8013 88.0227 32.5413C88.0637 32.2813 88.1046 32.0647 88.2275 31.9347C88.3504 31.8047 88.4323 31.718 88.5961 31.718C89.0877 31.718 89.4563 31.6313 89.7021 31.458C89.9478 31.2847 90.0707 30.938 90.1526 30.418L90.4393 28.208H92.2825L91.9958 30.5913C91.9958 30.7646 91.9549 30.8946 91.9958 31.0247C91.9958 31.1547 92.0368 31.2847 92.1187 31.3713C92.1597 31.458 92.2825 31.5447 92.4054 31.6313C92.5283 31.6747 92.6921 31.718 92.8969 31.718C93.2246 31.718 93.4294 31.6313 93.5933 31.458C93.7571 31.2847 93.88 30.938 93.9209 30.3746L94.2077 28.1646H96.0509L95.7641 30.548C95.7641 30.7213 95.7232 30.8513 95.7641 30.9813C95.7641 31.1113 95.8051 31.2413 95.8461 31.328C95.887 31.4147 96.0099 31.5013 96.1328 31.588C96.2557 31.6313 96.4195 31.6747 96.6243 31.6747C96.952 31.6747 97.1977 31.588 97.3206 31.4147C97.4845 31.2413 97.5664 30.8946 97.6483 30.3746L98.0579 26.908H99.9011L99.4915 30.288C99.4505 30.678 99.5325 31.0247 99.7782 31.2847C100.024 31.5447 100.352 31.6747 100.843 31.6747C100.966 31.6747 101.089 31.718 101.13 31.848C101.171 31.978 101.171 32.1513 101.171 32.4547C101.13 32.8013 101.089 33.018 101.048 33.1047C101.007 33.1913 100.966 33.278 100.925 33.278C100.761 33.278 100.556 33.278 100.393 33.2347C100.188 33.1913 100.024 33.148 99.8192 33.1047C99.6144 33.018 99.4505 32.9313 99.2867 32.8013C99.1229 32.6713 99 32.5413 98.9181 32.368C98.6723 32.6713 98.4265 32.888 98.0989 33.0613C97.7712 33.1913 97.4025 33.278 96.9929 33.278C96.5424 33.278 96.1737 33.1913 95.8461 33.0613C95.5593 32.888 95.3136 32.6713 95.2317 32.4113C94.6173 32.9747 93.9619 33.278 93.1427 33.278Z" fill="#3B3B3B"/>
<path id="Fill-298" fill-rule="evenodd" clip-rule="evenodd" d="M100.761 31.6746C101.048 31.6746 101.294 31.6313 101.458 31.588C101.663 31.5447 101.785 31.458 101.908 31.328C102.031 31.198 102.113 31.068 102.154 30.938C102.195 30.7646 102.236 30.5913 102.277 30.3746L103.178 22.8346H105.021L104.079 30.7213C104.038 31.1546 103.915 31.5446 103.792 31.848C103.67 32.1513 103.465 32.4113 103.219 32.628C102.973 32.8447 102.646 33.018 102.236 33.1047C101.826 33.1913 101.376 33.278 100.802 33.278C100.598 33.278 100.393 33.2347 100.311 33.1047C100.188 32.9747 100.188 32.8013 100.188 32.5413C100.229 32.2813 100.27 32.0647 100.393 31.9346C100.475 31.7613 100.598 31.6746 100.761 31.6746Z" fill="#3B3B3B"/>
<path id="Fill-300" fill-rule="evenodd" clip-rule="evenodd" d="M108.667 22.8346L107.397 33.278H105.554L106.823 22.8346H108.667Z" fill="#3B3B3B"/>
<path id="Fill-302" fill-rule="evenodd" clip-rule="evenodd" d="M114.401 24.5246C114.442 24.2213 114.565 24.0046 114.77 23.788C114.975 23.6146 115.22 23.4846 115.507 23.4846C115.794 23.4846 115.999 23.5713 116.163 23.788C116.326 23.9613 116.367 24.2213 116.326 24.5246C116.285 24.828 116.163 25.088 115.958 25.2613C115.753 25.4346 115.507 25.5646 115.261 25.5646C114.975 25.5646 114.77 25.478 114.606 25.2613C114.442 25.0446 114.36 24.7846 114.401 24.5246ZM112.517 35.748C112.23 35.748 111.985 35.748 111.78 35.7047C111.575 35.6614 111.37 35.618 111.247 35.5747L111.657 34.058C111.78 34.058 111.862 34.1013 111.944 34.1013C112.026 34.1013 112.148 34.1447 112.23 34.1447C112.558 34.1447 112.845 34.058 113.009 33.8413C113.172 33.6247 113.295 33.278 113.336 32.8447L114.033 26.9513H115.876L115.302 31.718H116.449C116.572 31.718 116.654 31.7613 116.736 31.8913C116.777 32.0213 116.777 32.238 116.777 32.498C116.736 32.8013 116.695 33.018 116.654 33.1047C116.613 33.1913 116.572 33.278 116.531 33.278H115.179C115.098 33.798 114.975 34.188 114.811 34.5347C114.647 34.838 114.442 35.098 114.196 35.3147C113.951 35.488 113.705 35.618 113.418 35.7047C113.091 35.7047 112.804 35.748 112.517 35.748Z" fill="#3B3B3B"/>
<path id="Fill-304" fill-rule="evenodd" clip-rule="evenodd" d="M116.531 33.278C116.326 33.278 116.162 33.2347 116.04 33.1047C115.917 32.9747 115.876 32.8013 115.917 32.5413C115.958 32.2813 115.999 32.0646 116.122 31.9346C116.203 31.8046 116.326 31.718 116.49 31.718H120.422C120.873 31.718 121.242 31.6313 121.446 31.4146C121.651 31.198 121.815 30.8513 121.856 30.418L121.897 30.028C122.02 29.0313 121.528 28.5546 120.422 28.5546H117.514L117.719 26.9513L121.856 22.8779L122.962 24.0913L120.013 26.9513H121.078C121.61 26.9513 122.061 27.038 122.429 27.168C122.798 27.298 123.085 27.5146 123.29 27.7313C123.494 27.9913 123.658 28.2513 123.74 28.598C123.822 28.9446 123.822 29.2913 123.781 29.6813L123.658 30.6346C123.535 31.588 123.29 32.2813 122.839 32.7146C122.388 33.148 121.774 33.3213 120.914 33.3213H116.531V33.278Z" fill="#3B3B3B"/>
<path id="Fill-306" fill-rule="evenodd" clip-rule="evenodd" d="M124.764 35.748C124.477 35.748 124.232 35.748 124.027 35.7047C123.822 35.6614 123.617 35.618 123.494 35.5747L123.904 34.058C124.027 34.058 124.109 34.1013 124.191 34.1013C124.273 34.1013 124.396 34.1447 124.477 34.1447C124.805 34.1447 125.092 34.058 125.256 33.8413C125.419 33.6247 125.542 33.278 125.583 32.8447L126.321 26.9513H128.164L127.59 31.718H128.737C128.86 31.718 128.942 31.7613 128.983 31.8913C129.024 32.0213 129.024 32.238 129.024 32.498C128.983 32.8013 128.942 33.018 128.901 33.1047C128.86 33.1913 128.819 33.278 128.778 33.278H127.427C127.345 33.798 127.222 34.188 127.058 34.5347C126.894 34.838 126.689 35.098 126.443 35.3147C126.198 35.488 125.952 35.618 125.665 35.7047C125.338 35.7047 125.051 35.748 124.764 35.748Z" fill="#3B3B3B"/>
<path id="Fill-308" fill-rule="evenodd" clip-rule="evenodd" d="M133.488 28.4246C133.243 28.4246 133.038 28.5113 132.833 28.6413C132.628 28.7713 132.464 28.9446 132.341 29.2046C132.178 29.4213 132.055 29.6813 131.973 29.9846C131.85 30.288 131.768 30.5913 131.727 30.9813C131.973 31.2413 132.178 31.4147 132.382 31.5447C132.587 31.6747 132.833 31.718 133.12 31.718C133.488 31.718 133.816 31.588 134.062 31.2846C134.308 31.0246 134.471 30.6346 134.512 30.2013C134.594 29.638 134.512 29.2046 134.349 28.9013C134.185 28.598 133.898 28.4246 133.488 28.4246ZM128.778 33.278C128.573 33.278 128.368 33.2347 128.286 33.1047C128.164 32.9747 128.164 32.8013 128.164 32.5413C128.205 32.2813 128.245 32.0647 128.368 31.9347C128.45 31.8047 128.573 31.718 128.737 31.718H129.106C129.269 31.718 129.433 31.6746 129.515 31.6313C129.638 31.5446 129.72 31.458 129.802 31.3713C129.884 31.2413 129.925 31.1113 129.966 30.9813C130.007 30.808 130.089 30.6346 130.13 30.418C130.212 29.898 130.375 29.4213 130.58 28.988C130.785 28.5546 131.031 28.1646 131.358 27.8613C131.645 27.558 132.014 27.298 132.382 27.1246C132.792 26.9513 133.202 26.8646 133.652 26.8646C134.144 26.8646 134.594 26.9513 134.963 27.1246C135.332 27.298 135.659 27.5146 135.864 27.818C136.11 28.1213 136.274 28.468 136.356 28.858C136.437 29.248 136.437 29.6813 136.397 30.158C136.356 30.3313 136.356 30.5046 136.315 30.678C136.274 30.8513 136.233 30.9813 136.192 31.1546C136.274 31.328 136.437 31.5013 136.642 31.588C136.847 31.718 137.093 31.7613 137.339 31.7613C137.461 31.7613 137.543 31.848 137.543 31.978C137.584 32.108 137.584 32.3247 137.543 32.5847C137.502 32.758 137.502 32.888 137.502 33.018C137.502 33.1047 137.461 33.1913 137.461 33.278C137.461 33.3213 137.421 33.3647 137.421 33.3647C137.421 33.3647 137.421 33.408 137.38 33.408C137.216 33.408 137.093 33.408 136.888 33.3647C136.724 33.3213 136.56 33.278 136.356 33.2347C136.192 33.148 136.028 33.0613 135.864 32.9313C135.7 32.8013 135.577 32.628 135.454 32.4547C135.086 32.8013 134.717 33.0613 134.308 33.2347C133.898 33.408 133.488 33.4513 133.038 33.4513C132.628 33.4513 132.26 33.408 131.932 33.278C131.604 33.148 131.277 32.9313 130.949 32.628C130.703 32.9313 130.416 33.1047 130.171 33.2347C129.925 33.3213 129.597 33.408 129.147 33.408H128.778V33.278Z" fill="#3B3B3B"/>
<path id="Fill-310" fill-rule="evenodd" clip-rule="evenodd" d="M137.298 31.6746C137.585 31.6746 137.789 31.6313 137.994 31.588C138.199 31.5447 138.322 31.458 138.445 31.328C138.568 31.198 138.649 31.068 138.69 30.938C138.731 30.7646 138.772 30.5913 138.813 30.3746L139.714 22.8346H141.558L140.616 30.7213C140.575 31.1546 140.452 31.5446 140.329 31.848C140.206 32.1513 140.001 32.4113 139.755 32.628C139.51 32.8447 139.182 33.018 138.772 33.1047C138.363 33.1913 137.912 33.278 137.339 33.278C137.134 33.278 136.929 33.2347 136.847 33.1047C136.724 32.9747 136.724 32.8013 136.724 32.5413C136.765 32.2813 136.806 32.0647 136.929 31.9346C137.052 31.7613 137.175 31.6746 137.298 31.6746Z" fill="#3B3B3B"/>
<path id="Fill-312" fill-rule="evenodd" clip-rule="evenodd" d="M145.203 22.8346L143.933 33.278H142.09L143.36 22.8346H145.203Z" fill="#3B3B3B"/>
<path id="Fill-314" fill-rule="evenodd" clip-rule="evenodd" d="M6.47167 41.988C6.14399 41.858 5.81631 41.7714 5.48863 41.6847C5.16095 41.6414 4.79232 41.598 4.46464 41.598C4.25984 41.598 4.05504 41.598 3.8912 41.6414C3.6864 41.6847 3.52256 41.728 3.35872 41.8147C3.19488 41.9014 3.072 42.0314 2.99008 42.1614C2.8672 42.2914 2.82624 42.4647 2.78528 42.6814C2.74432 42.8547 2.78528 43.028 2.82624 43.158C2.8672 43.288 2.99008 43.418 3.11296 43.548C3.23584 43.678 3.39968 43.808 3.64544 43.8947C3.85024 44.0247 4.096 44.1547 4.42368 44.2847C4.79232 44.458 5.12 44.6314 5.44767 44.8047C5.73439 44.9781 6.02111 45.1947 6.22591 45.4547C6.43071 45.7147 6.59455 45.9747 6.67647 46.2781C6.75839 46.5814 6.79935 46.9714 6.71743 47.4047C6.67647 47.9247 6.51263 48.3581 6.26687 48.7481C6.02111 49.1381 5.73439 49.4414 5.36575 49.7014C4.99711 49.9614 4.58752 50.1347 4.17792 50.2647C3.72736 50.3947 3.2768 50.4381 2.82624 50.4381C2.37568 50.4381 1.92512 50.3947 1.4336 50.3081C0.942079 50.2214 0.450559 50.0914 0 49.9181L0.57344 48.2281C0.983039 48.4014 1.4336 48.5747 1.8432 48.6614C2.2528 48.7481 2.6624 48.7914 2.99008 48.7914C3.52256 48.7914 3.93216 48.7047 4.25984 48.4881C4.54656 48.3147 4.75136 48.0114 4.79232 47.6214C4.83328 47.4481 4.79231 47.2747 4.75135 47.1014C4.71039 46.9714 4.58752 46.7981 4.46464 46.6681C4.34176 46.5381 4.13695 46.4081 3.93215 46.2781C3.72736 46.1481 3.44064 46.0181 3.15392 45.8881C2.78528 45.7147 2.4576 45.5414 2.17088 45.3681C1.88416 45.1947 1.6384 44.9781 1.4336 44.7181C1.2288 44.458 1.06496 44.1981 0.983039 43.8947C0.90112 43.5914 0.86016 43.2447 0.94208 42.8547C1.024 42.3347 1.14688 41.9014 1.39264 41.5114C1.6384 41.1214 1.92512 40.818 2.29376 40.6014C2.6624 40.3847 3.03104 40.2114 3.44064 40.0814C3.85024 39.9947 4.25984 39.908 4.66944 39.908C5.11999 39.908 5.57056 39.9514 6.02111 39.9947C6.43071 40.038 6.84031 40.168 7.16799 40.2547L6.47167 41.988Z" fill="#3B3B3B"/>
<path id="Fill-316" fill-rule="evenodd" clip-rule="evenodd" d="M12.083 46.8414C11.7554 46.8414 11.4687 46.8414 11.1819 46.8848C10.8952 46.9281 10.6495 46.9714 10.4037 47.0581C10.1579 47.1448 9.99409 47.2748 9.83025 47.4481C9.70737 47.6214 9.58449 47.7948 9.58449 48.0548C9.54353 48.3581 9.62545 48.6181 9.78929 48.7914C9.95313 48.9648 10.1989 49.0514 10.5266 49.0514C10.8133 49.0514 11.0181 49.0081 11.2638 48.9214C11.4686 48.8348 11.6735 48.7048 11.7963 48.5314C11.9602 48.3581 12.0831 48.1848 12.165 47.9681C12.2469 47.7514 12.2878 47.5781 12.3288 47.3614L12.4107 46.8414H12.083ZM12.5336 45.4114C12.5746 45.0214 12.4926 44.7181 12.2469 44.5014C12.0011 44.2847 11.6325 44.1547 11.1 44.1547C10.8542 44.1547 10.5675 44.1981 10.2399 44.2414C9.91217 44.2847 9.58449 44.4147 9.21585 44.5447L9.05201 43.1147C9.37969 42.9847 9.74833 42.8981 10.1989 42.8114C10.6495 42.7247 11.0591 42.6814 11.4277 42.6814C12.5746 42.6814 13.3938 42.9414 13.8853 43.4181C14.3768 43.9381 14.5406 44.6314 14.4178 45.5414L14.0491 48.6614C14.0082 48.9214 14.0082 49.2248 13.9672 49.5281C13.9262 49.8314 13.9262 50.1348 13.9672 50.3514H12.2469C12.2059 50.2214 12.2059 50.0914 12.2059 49.8748C12.2059 49.7014 12.2059 49.5281 12.2059 49.3981H12.165C11.9602 49.7448 11.6325 50.0048 11.2638 50.1781C10.8952 50.3948 10.4447 50.4814 9.99409 50.4814C9.66641 50.4814 9.37969 50.4381 9.09297 50.3514C8.80625 50.2648 8.51953 50.1348 8.31473 49.9614C8.06897 49.7881 7.90513 49.5281 7.82321 49.2248C7.70033 48.9214 7.70033 48.5748 7.74129 48.1414C7.82321 47.6214 7.98705 47.1448 8.23281 46.7981C8.51953 46.4514 8.84721 46.1914 9.29777 46.0181C9.74833 45.8448 10.2399 45.7148 10.8133 45.6281C11.3867 45.5414 11.9602 45.5414 12.5336 45.5414V45.4114Z" fill="#3B3B3B"/>
<path id="Fill-318" fill-rule="evenodd" clip-rule="evenodd" d="M20.439 50.3081L20.5619 49.3114H20.5209C20.2752 49.7014 19.9884 49.9614 19.5379 50.1781C19.1283 50.3948 18.6777 50.4814 18.2272 50.4814C17.8176 50.4814 17.4489 50.3948 17.1622 50.2648C16.8345 50.1348 16.5888 49.9614 16.384 49.7014C16.1792 49.4848 16.0563 49.1814 15.9744 48.8348C15.8924 48.4881 15.8924 48.1414 15.9334 47.7081L16.5478 42.7681H18.4729L17.9814 46.9714C17.9404 47.2748 17.9404 47.5348 17.9404 47.7948C17.9404 48.0114 17.9814 48.2281 18.0633 48.4014C18.1452 48.5748 18.2681 48.7048 18.432 48.7914C18.5958 48.8781 18.8006 48.9214 19.0464 48.9214C19.2512 48.9214 19.415 48.8781 19.6198 48.7914C19.8246 48.7048 19.9884 48.6181 20.1523 48.4448C20.3161 48.2714 20.439 48.0548 20.5619 47.7948C20.6848 47.5348 20.7667 47.1881 20.8076 46.7981L21.2992 42.7247H23.2243L22.3232 50.2215H20.439V50.3081Z" fill="#3B3B3B"/>
<path id="Fill-320" fill-rule="evenodd" clip-rule="evenodd" d="M26.2146 46.5381C26.1737 46.8847 26.1737 47.1881 26.1737 47.4914C26.2146 47.7947 26.2556 48.0547 26.3785 48.2714C26.5014 48.4881 26.6242 48.6614 26.829 48.7914C27.0338 48.9214 27.2386 48.9647 27.5254 48.9647C27.8121 48.9647 28.0578 48.9214 28.3036 48.7914C28.5494 48.6614 28.7542 48.4881 28.918 48.2714C29.0818 48.0547 29.2457 47.7947 29.3686 47.4914C29.4914 47.1881 29.5734 46.8847 29.6143 46.5381C29.6553 46.1914 29.6553 45.8881 29.6143 45.5847C29.5734 45.2814 29.4914 45.0214 29.3686 44.8047C29.2457 44.5881 29.0818 44.4147 28.877 44.3281C28.6722 44.2414 28.4265 44.1547 28.1807 44.1547C27.894 44.1547 27.6482 44.1981 27.4434 44.3281C27.1977 44.4581 27.0338 44.6314 26.87 44.848C26.7062 45.0647 26.5833 45.3247 26.5014 45.6281C26.3375 45.8881 26.2556 46.1914 26.2146 46.5381ZM30.3106 39.8647H32.2358L30.966 50.3081H29.0818L29.2047 49.3548H29.1638C28.8361 49.7448 28.4674 50.0481 28.0578 50.2214C27.6482 50.3948 27.2386 50.4814 26.829 50.4814C26.3375 50.4814 25.9279 50.3948 25.5593 50.1781C25.1906 49.9614 24.9449 49.7014 24.7401 49.3548C24.5353 49.0081 24.3714 48.5747 24.3305 48.0981C24.2486 47.6214 24.2486 47.1014 24.3305 46.5814C24.4124 46.0181 24.5353 45.4981 24.7401 45.0214C24.9449 44.5447 25.1906 44.1114 25.4774 43.7647C25.7641 43.418 26.1327 43.158 26.5423 42.9414C26.9519 42.7247 27.4025 42.638 27.894 42.638C28.3036 42.638 28.6722 42.7247 29.0409 42.8547C29.4095 43.028 29.6553 43.288 29.901 43.6347H29.942L30.3106 39.8647Z" fill="#3B3B3B"/>
<path id="Fill-322" fill-rule="evenodd" clip-rule="evenodd" d="M36.004 39.908L35.7992 41.6414H33.874L34.0788 39.908H36.004ZM35.6353 42.768L34.7342 50.2647H32.8091L33.7102 42.768H35.6353Z" fill="#3B3B3B"/>
<path id="Fill-324" fill-rule="evenodd" clip-rule="evenodd" d="M42.8851 44.2848H44.2777C44.8102 44.2848 45.2198 44.1981 45.5475 43.9814C45.8342 43.7648 46.039 43.4614 46.0799 42.9848C46.1209 42.7248 46.0799 42.5514 46.039 42.3781C45.957 42.2048 45.8751 42.1181 45.7522 42.0314C45.6294 41.9448 45.4655 41.9014 45.3017 41.8581C45.1378 41.8148 44.9331 41.8148 44.7283 41.8148H43.2537L42.8851 44.2848ZM42.3526 48.6181H43.95C44.1958 48.6181 44.4415 48.6181 44.6463 48.5748C44.8511 48.5315 45.0559 48.4881 45.2198 48.3581C45.3836 48.2715 45.5065 48.1415 45.6294 47.9248C45.7113 47.7515 45.7932 47.5348 45.8342 47.2748C45.8751 47.0148 45.8342 46.7981 45.7522 46.6248C45.6703 46.4515 45.5474 46.3215 45.4246 46.1915C45.2607 46.1048 45.0969 46.0181 44.8511 45.9748C44.6054 45.9315 44.3596 45.9315 44.0729 45.9315H42.7212L42.3526 48.6181ZM41.4515 40.1248H45.4655C45.8751 40.1248 46.2847 40.1681 46.6124 40.2548C46.9401 40.3414 47.2678 40.5148 47.4726 40.6881C47.7183 40.9048 47.8822 41.1648 48.005 41.4681C48.1279 41.7714 48.1279 42.1614 48.087 42.6381C48.005 43.2881 47.8002 43.8081 47.4726 44.1548C47.1449 44.5015 46.7353 44.7615 46.2847 44.9348V44.9781C46.5305 45.0648 46.7353 45.1515 46.9401 45.2815C47.1449 45.4115 47.3087 45.5415 47.4316 45.7581C47.5545 45.9315 47.6774 46.1915 47.7183 46.4515C47.7593 46.7115 47.8002 47.0581 47.7593 47.4048C47.7183 47.7948 47.5954 48.1415 47.4316 48.4881C47.2678 48.8348 47.063 49.1381 46.7762 49.3981C46.4895 49.6581 46.1209 49.8748 45.7522 50.0048C45.3426 50.1348 44.8921 50.2215 44.3187 50.2215H40.2227L41.4515 40.1248Z" fill="#3B3B3B"/>
<path id="Fill-326" fill-rule="evenodd" clip-rule="evenodd" d="M53.6988 50.3081L53.8216 49.3114H53.7807C53.5349 49.7014 53.2482 49.9614 52.7976 50.1781C52.388 50.3948 51.9375 50.4814 51.4869 50.4814C51.0773 50.4814 50.7087 50.3948 50.422 50.2648C50.0943 50.1348 49.8485 49.9614 49.6437 49.7014C49.4389 49.4848 49.316 49.1814 49.2341 48.8348C49.1522 48.4881 49.1522 48.1414 49.1932 47.7081L49.8076 42.7681H51.7327L51.2412 46.9714C51.2002 47.2748 51.2002 47.5348 51.2002 47.7948C51.2002 48.0114 51.2412 48.2281 51.3231 48.4014C51.405 48.5748 51.5279 48.7048 51.6917 48.7914C51.8556 48.8781 52.0604 48.9214 52.3061 48.9214C52.5109 48.9214 52.6748 48.8781 52.8796 48.7914C53.0844 48.7048 53.2482 48.6181 53.412 48.4448C53.5759 48.2714 53.6988 48.0548 53.8216 47.7948C53.9445 47.5348 54.0264 47.1881 54.0674 46.7981L54.5589 42.7247H56.484L55.5829 50.2215H53.6988V50.3081Z" fill="#3B3B3B"/>
<path id="Fill-328" fill-rule="evenodd" clip-rule="evenodd" d="M62.464 44.5447C62.0953 44.4147 61.7677 44.2847 61.4809 44.2413C61.1533 44.198 60.8665 44.1547 60.5798 44.1547C60.2931 44.1547 60.0883 44.198 59.8835 44.2847C59.7197 44.3713 59.5968 44.5447 59.5558 44.7613C59.5149 44.978 59.5968 45.1513 59.7606 45.2813C59.9245 45.4113 60.2521 45.5847 60.7437 45.7147C61.1123 45.8447 61.44 45.9747 61.6857 46.1047C61.9725 46.2347 62.1773 46.408 62.3821 46.6247C62.5459 46.798 62.7097 47.058 62.7507 47.2747C62.8326 47.5347 62.8326 47.7947 62.7917 48.1414C62.7507 48.5747 62.6278 48.9214 62.3821 49.2247C62.1773 49.528 61.9315 49.7447 61.6038 49.918C61.3171 50.0914 60.9894 50.2214 60.6208 50.308C60.2521 50.3947 59.8835 50.438 59.5558 50.438C59.1053 50.438 58.6547 50.3947 58.2041 50.308C57.7536 50.2214 57.344 50.0914 56.9753 49.918L57.5488 48.4014C57.9174 48.5747 58.327 48.7047 58.6957 48.7914C59.1053 48.878 59.4329 48.9214 59.7197 48.9214C60.0883 48.9214 60.375 48.878 60.5798 48.7914C60.7846 48.7047 60.9075 48.5314 60.9485 48.2714C60.9894 48.0547 60.9075 47.8814 60.7027 47.708C60.4979 47.578 60.1293 47.4047 59.5968 47.2314C58.8595 46.9714 58.368 46.668 58.0403 46.278C57.7536 45.9314 57.6307 45.4547 57.6717 44.9347C57.7126 44.5447 57.8355 44.198 58.0403 43.8947C58.2451 43.5913 58.4499 43.3747 58.7366 43.158C59.0233 42.9847 59.351 42.8113 59.6787 42.7247C60.0064 42.638 60.375 42.5947 60.7027 42.5947C61.0713 42.5947 61.4809 42.638 61.8905 42.6813C62.3001 42.768 62.6688 42.8547 62.9965 42.9847L62.464 44.5447Z" fill="#3B3B3B"/>
<path id="Fill-330" fill-rule="evenodd" clip-rule="evenodd" d="M67.2156 39.908L67.0108 41.6414H65.0857L65.2905 39.908H67.2156ZM66.847 42.768L65.9459 50.2647H64.0208L64.9219 42.768H66.847Z" fill="#3B3B3B"/>
<path id="Fill-332" fill-rule="evenodd" clip-rule="evenodd" d="M70.6151 42.768L70.4922 43.7647H70.5331C70.7789 43.3747 71.0656 43.1147 71.5162 42.898C71.9258 42.6813 72.3763 42.5947 72.8269 42.5947C73.2365 42.5947 73.6051 42.638 73.8918 42.768C74.1786 42.898 74.4653 43.0713 74.6701 43.3313C74.8749 43.5913 74.9978 43.8513 75.0797 44.198C75.1616 44.5447 75.1616 44.8913 75.1206 45.3247L74.5062 50.2647H72.5811L73.0726 46.0614C73.1136 45.758 73.1136 45.498 73.1136 45.238C73.1136 44.978 73.0727 44.7613 72.9907 44.6313C72.9088 44.458 72.7859 44.328 72.6221 44.2413C72.4582 44.1547 72.2534 44.1113 72.0077 44.1113C71.8029 44.1113 71.6391 44.1547 71.4343 44.198C71.2704 44.2847 71.0656 44.3713 70.9018 44.5447C70.7379 44.718 70.5741 44.9347 70.4512 45.1947C70.3283 45.4547 70.2464 45.8013 70.2055 46.148L69.7139 50.2214H67.7888L68.6899 42.7247H70.6151V42.768Z" fill="#3B3B3B"/>
<path id="Fill-334" fill-rule="evenodd" clip-rule="evenodd" d="M80.2816 43.9814C79.8311 43.9814 79.4624 44.1547 79.0938 44.4581C78.7661 44.7614 78.5204 45.1947 78.3975 45.7147H81.4695C81.5514 45.1947 81.4695 44.7614 81.2237 44.4581C81.0599 44.1547 80.7322 43.9814 80.2816 43.9814ZM78.2746 47.1448C78.2746 47.4914 78.3156 47.7514 78.4384 48.0114C78.5204 48.2281 78.6842 48.4014 78.889 48.5748C79.0938 48.7048 79.2986 48.8348 79.5853 48.8781C79.8311 48.9648 80.1178 48.9648 80.4455 48.9648C80.7322 48.9648 81.0189 48.9648 81.3056 48.9214C81.5924 48.8781 81.8791 48.7914 82.1658 48.7048L82.2068 50.1781C81.8791 50.2648 81.5514 50.3514 81.1828 50.3948C80.8141 50.4381 80.4455 50.4814 80.0359 50.4814C79.3805 50.4814 78.848 50.3948 78.3565 50.1781C77.865 50.0048 77.4964 49.7014 77.2096 49.3548C76.9229 49.0081 76.7181 48.6181 76.5952 48.0981C76.4724 47.6214 76.4314 47.1014 76.5133 46.4948C76.5952 45.9314 76.7181 45.4114 76.9639 44.9347C77.1687 44.4581 77.4554 44.0247 77.824 43.6781C78.1517 43.3314 78.5613 43.0714 79.0528 42.8547C79.5034 42.6814 80.0359 42.5514 80.5684 42.5514C81.1008 42.5514 81.5514 42.6381 81.92 42.8114C82.2887 42.9847 82.6164 43.2447 82.8212 43.5481C83.0669 43.8514 83.1898 44.2414 83.2717 44.7181C83.3536 45.1947 83.3536 45.6714 83.2717 46.2347L83.1898 47.0581H78.2746V47.1448Z" fill="#3B3B3B"/>
<path id="Fill-336" fill-rule="evenodd" clip-rule="evenodd" d="M89.2926 44.5447C88.9239 44.4147 88.5963 44.2847 88.3096 44.2413C87.9819 44.198 87.6951 44.1547 87.4084 44.1547C87.1217 44.1547 86.9169 44.198 86.7121 44.2847C86.5483 44.3713 86.4254 44.5447 86.3844 44.7613C86.3435 44.978 86.4254 45.1513 86.5892 45.2813C86.7531 45.4113 87.0807 45.5847 87.5723 45.7147C87.9409 45.8447 88.2686 45.9747 88.5143 46.1047C88.8011 46.2347 89.0059 46.408 89.2107 46.6247C89.3745 46.798 89.5383 47.058 89.5793 47.2747C89.6612 47.5347 89.6612 47.7947 89.6203 48.1414C89.5793 48.5747 89.4564 48.9214 89.2107 49.2247C89.0059 49.528 88.7601 49.7447 88.4324 49.918C88.1457 50.0914 87.818 50.2214 87.4494 50.308C87.0807 50.3947 86.7121 50.438 86.3844 50.438C85.9339 50.438 85.4833 50.3947 85.0328 50.308C84.5822 50.2214 84.1726 50.0914 83.804 49.918L84.3774 48.4014C84.746 48.5747 85.1556 48.7047 85.5243 48.7914C85.9339 48.878 86.2615 48.9214 86.5483 48.9214C86.9169 48.9214 87.2036 48.878 87.4084 48.7914C87.6132 48.7047 87.7361 48.5314 87.7771 48.2714C87.818 48.0547 87.7361 47.8814 87.5313 47.708C87.3265 47.578 86.9579 47.4047 86.4254 47.2314C85.6881 46.9714 85.1966 46.668 84.8689 46.278C84.5822 45.9314 84.4593 45.4547 84.5003 44.9347C84.5412 44.5447 84.6641 44.198 84.8689 43.8947C85.0737 43.5913 85.2785 43.3747 85.5652 43.158C85.8519 42.9847 86.1796 42.8113 86.5073 42.7247C86.835 42.638 87.2036 42.5947 87.5313 42.5947C87.8999 42.5947 88.3096 42.638 88.7191 42.6813C89.1287 42.768 89.4974 42.8547 89.8251 42.9847L89.2926 44.5447Z" fill="#3B3B3B"/>
<path id="Fill-338" fill-rule="evenodd" clip-rule="evenodd" d="M95.7235 44.5447C95.3549 44.4147 95.0272 44.2847 94.7405 44.2413C94.4128 44.198 94.1261 44.1547 93.8393 44.1547C93.5526 44.1547 93.3478 44.198 93.143 44.2847C92.9792 44.3713 92.8563 44.5447 92.8153 44.7613C92.7744 44.978 92.8563 45.1513 93.0201 45.2813C93.184 45.4113 93.5117 45.5847 94.0032 45.7147C94.3718 45.8447 94.6995 45.9747 94.9453 46.1047C95.232 46.2347 95.4368 46.408 95.6416 46.6247C95.8054 46.798 95.9693 47.058 96.0102 47.2747C96.0921 47.5347 96.0921 47.7947 96.0512 48.1414C96.0102 48.5747 95.8873 48.9214 95.6416 49.2247C95.4368 49.528 95.191 49.7447 94.8633 49.918C94.5766 50.0914 94.2489 50.2214 93.8803 50.308C93.5117 50.3947 93.143 50.438 92.8153 50.438C92.3648 50.438 91.9142 50.3947 91.4637 50.308C91.0131 50.2214 90.6035 50.0914 90.2349 49.918L90.8083 48.4014C91.1769 48.5747 91.5865 48.7047 91.9552 48.7914C92.3648 48.878 92.6925 48.9214 92.9792 48.9214C93.3478 48.9214 93.6345 48.878 93.8393 48.7914C94.0441 48.7047 94.167 48.5314 94.208 48.2714C94.2489 48.0547 94.167 47.8814 93.9622 47.708C93.7574 47.578 93.3888 47.4047 92.8563 47.2314C92.119 46.9714 91.6275 46.668 91.2998 46.278C91.0131 45.9314 90.8902 45.4547 90.9312 44.9347C90.9721 44.5447 91.095 44.198 91.2998 43.8947C91.5046 43.5913 91.7094 43.3747 91.9961 43.158C92.2829 42.9847 92.6105 42.8113 92.9382 42.7247C93.2659 42.638 93.6345 42.5947 93.9622 42.5947C94.3309 42.5947 94.7405 42.638 95.1501 42.6813C95.5597 42.768 95.9283 42.8547 96.256 42.9847L95.7235 44.5447Z" fill="#3B3B3B"/>
<path id="Fill-340" fill-rule="evenodd" clip-rule="evenodd" d="M108.298 41.9881C108.052 41.9014 107.765 41.8148 107.479 41.7281C107.192 41.6414 106.905 41.6414 106.619 41.6414C106.127 41.6414 105.636 41.7281 105.226 41.9448C104.816 42.1181 104.448 42.3781 104.161 42.7248C103.874 43.0281 103.629 43.4181 103.465 43.8948C103.301 44.3281 103.178 44.8048 103.096 45.2814C103.055 45.7581 103.055 46.1915 103.137 46.6248C103.219 47.0581 103.342 47.4481 103.588 47.7515C103.792 48.0981 104.079 48.3581 104.448 48.5315C104.816 48.7048 105.226 48.8348 105.758 48.8348C106.127 48.8348 106.455 48.7915 106.741 48.7481C107.028 48.6615 107.315 48.5748 107.602 48.4448L107.725 50.0481C107.356 50.2215 106.987 50.3081 106.578 50.3948C106.168 50.4815 105.758 50.4815 105.308 50.4815C104.571 50.4815 103.956 50.3515 103.383 50.0915C102.809 49.8315 102.359 49.4848 101.99 49.0081C101.622 48.5315 101.376 48.0115 101.212 47.3615C101.048 46.7115 101.048 46.0181 101.13 45.2381C101.212 44.4581 101.417 43.7648 101.703 43.1148C101.99 42.4648 102.4 41.9014 102.85 41.4248C103.342 40.9481 103.874 40.6014 104.53 40.3414C105.185 40.0814 105.881 39.9514 106.619 39.9514C107.028 39.9514 107.438 39.9948 107.806 40.0381C108.175 40.1248 108.503 40.2114 108.83 40.3414L108.298 41.9881Z" fill="#3B3B3B"/>
<path id="Fill-342" fill-rule="evenodd" clip-rule="evenodd" d="M112.845 43.9814C112.394 43.9814 112.026 44.1547 111.657 44.4581C111.329 44.7614 111.084 45.1947 110.961 45.7147H114.033C114.115 45.1947 114.033 44.7614 113.787 44.4581C113.623 44.1547 113.295 43.9814 112.845 43.9814ZM110.797 47.1448C110.797 47.4914 110.838 47.7514 110.961 48.0114C111.043 48.2281 111.206 48.4014 111.411 48.5748C111.616 48.7048 111.821 48.8348 112.108 48.8781C112.353 48.9648 112.64 48.9648 112.968 48.9648C113.254 48.9648 113.541 48.9648 113.828 48.9214C114.115 48.8781 114.401 48.7914 114.688 48.7048L114.729 50.1781C114.401 50.2648 114.074 50.3514 113.705 50.3948C113.336 50.4381 112.968 50.4814 112.558 50.4814C111.903 50.4814 111.37 50.3948 110.879 50.1781C110.387 50.0048 110.019 49.7014 109.732 49.3548C109.445 49.0081 109.24 48.6181 109.117 48.0981C108.995 47.6214 108.954 47.1014 109.036 46.4948C109.117 45.9314 109.24 45.4114 109.486 44.9347C109.691 44.4581 109.978 44.0247 110.346 43.6781C110.674 43.3314 111.084 43.0714 111.575 42.8547C112.026 42.6814 112.558 42.5514 113.091 42.5514C113.623 42.5514 114.074 42.6381 114.442 42.8114C114.811 42.9847 115.139 43.2447 115.343 43.5481C115.589 43.8514 115.712 44.2414 115.794 44.7181C115.876 45.1947 115.876 45.6714 115.794 46.2347L115.712 47.0581H110.797V47.1448Z" fill="#3B3B3B"/>
<path id="Fill-344" fill-rule="evenodd" clip-rule="evenodd" d="M119.562 42.768L119.439 43.7647H119.48C119.726 43.3747 120.013 43.1147 120.463 42.898C120.873 42.6813 121.323 42.5947 121.774 42.5947C122.184 42.5947 122.552 42.638 122.839 42.768C123.126 42.898 123.412 43.0713 123.617 43.3313C123.822 43.5913 123.945 43.8513 124.027 44.198C124.109 44.5447 124.109 44.8913 124.068 45.3247L123.453 50.2647H121.528L122.02 46.0614C122.061 45.758 122.061 45.498 122.061 45.238C122.061 44.978 122.02 44.7613 121.938 44.6313C121.856 44.458 121.733 44.328 121.569 44.2413C121.405 44.1547 121.2 44.1113 120.955 44.1113C120.75 44.1113 120.586 44.1547 120.381 44.198C120.217 44.2847 120.013 44.3713 119.849 44.5447C119.685 44.718 119.521 44.9347 119.398 45.1947C119.275 45.4547 119.193 45.8013 119.152 46.148L118.661 50.2214H116.736L117.637 42.7247H119.562V42.768Z" fill="#3B3B3B"/>
<path id="Fill-346" fill-rule="evenodd" clip-rule="evenodd" d="M125.378 42.7681H126.484L126.73 40.7747H128.655L128.409 42.7681H129.884L129.679 44.2847H128.205L127.795 47.6214C127.754 47.8814 127.754 48.0981 127.754 48.2281C127.754 48.4014 127.795 48.4881 127.836 48.5748C127.877 48.6614 127.959 48.7048 128.041 48.7481C128.123 48.7914 128.287 48.7914 128.45 48.7914C128.573 48.7914 128.655 48.7914 128.778 48.7914C128.86 48.7914 128.983 48.7481 129.106 48.7481L128.942 50.2648C128.778 50.2648 128.573 50.3081 128.328 50.3081C128.123 50.3081 127.877 50.3081 127.672 50.3081C127.222 50.3081 126.853 50.2648 126.607 50.1781C126.361 50.0914 126.157 49.9614 126.034 49.7448C125.911 49.5714 125.829 49.3548 125.788 49.0514C125.747 48.7914 125.788 48.4448 125.829 48.0981L126.321 44.1981H125.215L125.378 42.7681Z" fill="#3B3B3B"/>
<path id="Fill-348" fill-rule="evenodd" clip-rule="evenodd" d="M134.062 43.9814C133.611 43.9814 133.243 44.1547 132.874 44.4581C132.546 44.7614 132.301 45.1947 132.178 45.7147H135.25C135.332 45.1947 135.25 44.7614 135.004 44.4581C134.799 44.1547 134.471 43.9814 134.062 43.9814ZM132.014 47.1448C132.014 47.4914 132.055 47.7514 132.178 48.0114C132.301 48.2281 132.423 48.4014 132.628 48.5748C132.833 48.7048 133.038 48.8348 133.325 48.8781C133.57 48.9648 133.857 48.9648 134.185 48.9648C134.471 48.9648 134.758 48.9648 135.045 48.9214C135.332 48.8781 135.618 48.7914 135.905 48.7048L135.946 50.1781C135.618 50.2648 135.291 50.3514 134.922 50.3948C134.553 50.4381 134.185 50.4814 133.775 50.4814C133.12 50.4814 132.587 50.3948 132.096 50.1781C131.604 50.0048 131.236 49.7014 130.949 49.3548C130.662 49.0081 130.457 48.6181 130.334 48.0981C130.212 47.6214 130.171 47.1014 130.253 46.4948C130.335 45.9314 130.457 45.4114 130.703 44.9347C130.908 44.4581 131.195 44.0247 131.563 43.6781C131.932 43.3314 132.301 43.0714 132.792 42.8547C133.243 42.6814 133.775 42.5514 134.308 42.5514C134.84 42.5514 135.291 42.6381 135.659 42.8114C136.028 42.9847 136.356 43.2447 136.56 43.5481C136.806 43.8514 136.929 44.2414 137.011 44.7181C137.093 45.1947 137.093 45.6714 137.011 46.2347L136.929 47.0581H132.014V47.1448Z" fill="#3B3B3B"/>
<path id="Fill-350" fill-rule="evenodd" clip-rule="evenodd" d="M142.909 44.1981C142.827 44.1981 142.745 44.1547 142.663 44.1547C142.581 44.1547 142.499 44.1547 142.377 44.1547C142.131 44.1547 141.926 44.1981 141.721 44.2847C141.516 44.3714 141.312 44.5014 141.107 44.7181C140.902 44.9347 140.779 45.1947 140.615 45.4981C140.492 45.8447 140.411 46.2347 140.329 46.6681L139.878 50.3081H137.994L138.895 42.8114H140.779L140.656 43.8081H140.697C141.148 43.0281 141.803 42.6381 142.704 42.6381C142.786 42.6381 142.868 42.6381 142.991 42.6381C143.073 42.6381 143.155 42.6381 143.237 42.6381L142.909 44.1981Z" fill="#3B3B3B"/>
<path id="Fill-352" fill-rule="evenodd" clip-rule="evenodd" d="M191.488 30.6346C191.242 31.1113 190.71 31.3279 190.218 31.1546C189.276 30.8513 188.375 30.5479 187.474 30.2879C186.573 29.9846 185.631 29.7246 184.729 29.5079C182.886 29.0313 181.043 28.5546 179.2 28.2079C178.34 28.0346 177.725 27.1679 177.889 26.2146C177.93 26.0412 177.971 25.8679 178.053 25.6946C178.954 23.9612 179.937 22.4012 180.961 20.8845C181.985 19.3679 183.091 17.8945 184.279 16.5078C184.688 16.0312 185.385 15.9878 185.835 16.4212C186.204 16.7678 186.286 17.3745 186.081 17.8079C185.262 19.4545 184.402 21.0145 183.501 22.6179L182.19 24.9579C182.149 25.0446 182.067 25.1746 182.026 25.2612C183.255 25.5646 184.443 25.9546 185.631 26.3879C186.573 26.7346 187.515 27.1246 188.416 27.5579C189.317 27.9912 190.259 28.4679 191.119 28.9879C191.611 29.3779 191.815 30.0713 191.488 30.6346Z" fill="#59529F"/>
<path id="Fill-354" fill-rule="evenodd" clip-rule="evenodd" d="M169.943 28.0346C169.779 28.1213 169.615 28.1646 169.451 28.208C167.608 28.5546 165.765 28.988 163.922 29.508C163.021 29.768 162.079 30.028 161.178 30.288C160.276 30.548 159.375 30.8513 158.433 31.1546C157.86 31.328 157.245 30.9813 157.082 30.3746C156.959 29.8546 157.163 29.3346 157.573 29.0313C158.433 28.5113 159.334 28.0346 160.235 27.6013C161.137 27.1679 162.079 26.7779 163.021 26.4313C164.209 25.9979 165.396 25.6079 166.625 25.3046C166.584 25.2179 166.502 25.0879 166.461 25.0013L165.151 22.6613C164.25 21.1012 163.389 19.4979 162.57 17.8512C162.283 17.2879 162.488 16.5945 163.021 16.2912C163.471 16.0312 164.004 16.1612 164.331 16.5512C165.519 17.9379 166.625 19.4112 167.649 20.9279C168.673 22.4446 169.656 24.0046 170.557 25.7379C171.008 26.5179 170.762 27.5579 169.943 28.0346Z" fill="#532D7B"/>
<path id="Fill-356" fill-rule="evenodd" clip-rule="evenodd" d="M181.33 49.6581C180.838 49.8314 180.306 49.6581 180.019 49.1814C179.405 48.1414 178.831 47.058 178.217 45.9747L176.497 42.768L174.776 39.5613C174.653 39.3013 174.489 39.0847 174.367 38.8247C174.244 39.0847 174.08 39.3013 173.957 39.5613L172.237 42.768L170.475 45.9747C169.861 47.0147 169.288 48.0981 168.673 49.1381C168.346 49.6581 167.69 49.8314 167.158 49.4847C166.707 49.1814 166.543 48.6181 166.707 48.0981C167.117 46.928 167.567 45.8014 168.059 44.6314C168.509 43.5047 169.042 42.378 169.533 41.2513C170.066 40.1247 170.598 38.998 171.172 37.9147C171.745 36.8313 172.319 35.7047 173.015 34.6213V34.578C173.506 33.798 174.49 33.5813 175.227 34.1013C175.391 34.2313 175.554 34.4046 175.677 34.578C176.374 35.7047 176.947 36.788 177.521 37.9147C178.053 39.0413 178.626 40.1247 179.118 41.2513C179.65 42.378 180.142 43.5047 180.593 44.6314C181.043 45.8014 181.535 46.928 181.985 48.0981C182.19 48.7914 181.903 49.4414 181.33 49.6581Z" fill="#2A4B8F"/>
<path id="Fill-358" fill-rule="evenodd" clip-rule="evenodd" d="M173.22 11.4379C172.974 10.5712 172.851 9.70458 172.769 8.79457C172.687 7.9279 172.687 7.06122 172.687 6.15122C172.728 4.41788 172.851 2.6412 173.261 0.907852C173.425 0.257848 173.998 -0.132155 174.612 0.0411797C175.022 0.171181 175.35 0.517849 175.432 0.907852C175.841 2.6412 175.923 4.41788 175.964 6.15122C175.964 7.01789 175.923 7.88457 175.882 8.79457C175.8 9.66124 175.677 10.5279 175.432 11.4379C175.268 12.0879 174.612 12.4346 173.998 12.2179C173.588 12.1313 173.343 11.8279 173.22 11.4379Z" fill="#75348A"/>
<path id="Fill-360" fill-rule="evenodd" clip-rule="evenodd" d="M195.42 38.4346C195.092 38.9546 194.478 39.2146 193.945 38.998C192.758 38.5646 191.611 38.088 190.423 37.698C189.235 37.2646 188.047 36.918 186.859 36.528C185.713 36.1813 184.566 35.878 183.419 35.618C184.197 37.0913 184.975 38.5646 185.794 40.0813C186.532 41.4247 187.228 42.8113 187.924 44.2413C188.58 45.6714 189.276 47.058 189.809 48.5314C190.095 49.2247 189.768 49.9614 189.153 50.2647C188.58 50.5247 187.965 50.2647 187.638 49.7881L182.845 42.0313C181.248 39.4313 179.65 36.7013 178.34 33.8413C177.889 32.8879 178.258 31.7179 179.159 31.1979C179.528 31.0246 179.937 30.9379 180.306 31.0246C182.927 31.5013 185.467 32.1946 187.965 33.1479C189.194 33.6246 190.423 34.1446 191.611 34.7513C192.799 35.358 193.946 35.9646 195.092 36.7013C195.584 36.9613 195.789 37.7846 195.42 38.4346Z" fill="#146CB5"/>
<path id="Fill-362" fill-rule="evenodd" clip-rule="evenodd" d="M170.352 33.7547C169.001 36.658 167.444 39.3881 165.847 41.9881L161.096 49.7881C160.727 50.3948 159.949 50.5681 159.375 50.1781C158.843 49.8314 158.679 49.1381 158.884 48.5748C159.457 47.1014 160.112 45.6714 160.768 44.2414C161.464 42.8547 162.16 41.4681 162.898 40.0814C163.676 38.5647 164.495 37.0914 165.232 35.618C164.086 35.9214 162.939 36.2247 161.792 36.5714C160.604 36.918 159.416 37.308 158.228 37.7414C157.04 38.1314 155.853 38.608 154.706 39.0414C154.05 39.3014 153.354 38.9114 153.108 38.2614C152.904 37.6547 153.149 37.0047 153.641 36.7014C154.747 35.9647 155.935 35.358 157.122 34.7514C158.31 34.188 159.539 33.6247 160.768 33.148C163.225 32.1947 165.806 31.5013 168.427 30.9813C169.41 30.808 170.393 31.5013 170.557 32.5847C170.557 32.9747 170.516 33.408 170.352 33.7547Z" fill="#2B2E69"/>
<path id="Fill-364" fill-rule="evenodd" clip-rule="evenodd" d="M191.201 40.9047C192.02 41.3381 192.716 41.8581 193.413 42.4214C194.109 42.9848 194.723 43.5914 195.338 44.2848C196.567 45.5848 197.673 47.0148 198.574 48.6615C198.86 49.2248 198.656 49.9615 198.123 50.2648C197.755 50.4815 197.304 50.4381 196.935 50.1781C195.543 49.1381 194.273 47.9248 193.085 46.7114C192.471 46.1048 191.897 45.4548 191.324 44.8048C190.75 44.1114 190.218 43.4181 189.767 42.6381C189.44 42.0747 189.603 41.3381 190.136 40.9914C190.464 40.7314 190.873 40.7314 191.201 40.9047Z" fill="#146CB5"/>
<path id="Fill-366" fill-rule="evenodd" clip-rule="evenodd" d="M158.884 42.5514C158.433 43.3314 157.901 44.0681 157.327 44.7181C156.754 45.3681 156.18 46.0181 155.566 46.6681C154.337 47.8814 153.108 49.0948 151.716 50.1348C151.224 50.5248 150.528 50.3948 150.159 49.8314C149.913 49.4414 149.913 48.9648 150.077 48.5748C150.937 46.8848 152.084 45.4981 153.272 44.1548C153.887 43.5047 154.542 42.8981 155.197 42.2914C155.894 41.7281 156.59 41.2081 157.409 40.7747C157.983 40.4714 158.638 40.7314 158.925 41.2947C159.129 41.7714 159.089 42.2047 158.884 42.5514Z" fill="#2B2E69"/>
<path id="Fill-368" fill-rule="evenodd" clip-rule="evenodd" d="M183.255 10.2245C182.19 12.6078 181.002 14.9478 179.773 17.2012C178.545 19.4979 177.275 21.7512 175.923 23.9612C175.554 24.5246 174.981 24.8712 174.367 24.8712C173.711 24.8712 173.138 24.4812 172.81 23.9612C171.499 21.7079 170.23 19.4545 169.001 17.1578C168.386 16.0312 167.772 14.8612 167.199 13.6912C166.625 12.5211 166.011 11.3511 165.478 10.1811C165.192 9.53113 165.437 8.75112 166.052 8.40445C166.584 8.10112 167.24 8.31779 167.567 8.79446C168.346 9.83447 169.042 10.9178 169.779 12.0011C170.516 13.0845 171.213 14.1678 171.909 15.2512C172.728 16.5512 173.547 17.8945 174.367 19.2379C175.186 17.8945 176.005 16.5512 176.824 15.2512C178.217 13.0412 179.65 10.9178 181.207 8.83779C181.617 8.27445 182.395 8.14445 182.968 8.62112C183.337 9.01113 183.46 9.70446 183.255 10.2245Z" fill="#75348A"/>
</g>
</g>
</g>
</svg>
