<svg width="14" height="73" viewBox="0 0 14 73" fill="none" xmlns="http://www.w3.org/2000/svg">
<path id="Vector 79" d="M0.333333 7C0.333334 10.6819 3.3181 13.6667 7 13.6667C10.6819 13.6667 13.6667 10.6819 13.6667 7C13.6667 3.3181 10.6819 0.333333 7 0.333333C3.3181 0.333334 0.333333 3.3181 0.333333 7ZM0.333336 66C0.333336 69.6819 3.3181 72.6667 7 72.6667C10.6819 72.6667 13.6667 69.6819 13.6667 66C13.6667 62.3181 10.6819 59.3333 7 59.3333C3.3181 59.3333 0.333336 62.3181 0.333336 66ZM5.75 7L5.75 66L8.25 66L8.25 7L5.75 7Z" fill="#0D5A50"/>
</svg>
