<svg width="28" height="28" viewBox="0 0 28 28" fill="none" xmlns="http://www.w3.org/2000/svg">
<g id="Frame">
<g id="SVGRepo_iconCarrier">
<path id="Vector" d="M2.75775 15.1175C2.31507 12.0409 2.09373 10.5027 2.72427 9.18744C3.35481 7.8722 4.69689 7.07273 7.38107 5.47377L8.99671 4.51134C11.4342 3.05933 12.653 2.33333 13.9997 2.33333C15.3464 2.33333 16.5652 3.05933 19.0026 4.51134L20.6183 5.47377C23.3024 7.07273 24.6446 7.8722 25.275 9.18744C25.9056 10.5027 25.6843 12.0409 25.2416 15.1175L24.9164 17.3777C24.3477 21.3298 24.0633 23.3058 22.6925 24.4862C21.3216 25.6667 19.311 25.6667 15.2901 25.6667H12.7092C8.68827 25.6667 6.67778 25.6667 5.30687 24.4862C3.93596 23.3058 3.65163 21.3298 3.08298 17.3777L2.75775 15.1175Z" stroke="#4C4C4C" stroke-width="2"/>
<path id="Vector_2" d="M7 13.6296C10.866 9.4568 17.134 9.4568 21 13.6296M9.33336 16.1478C11.9107 13.366 16.0894 13.366 18.6667 16.1478M11.6667 18.6667C12.9554 17.2758 15.0447 17.2758 16.3333 18.6667" stroke="#4C4C4C" stroke-width="2" stroke-linecap="round"/>
</g>
</g>
</svg>
