<svg width="15" height="15" viewBox="0 0 15 15" fill="none" xmlns="http://www.w3.org/2000/svg">
<g id="SVGRepo_iconCarrier">
<path id="Vector" fill-rule="evenodd" clip-rule="evenodd" d="M1.17939 4.71581C0.833252 5.34817 0.833252 6.11098 0.833252 7.63658V8.65065C0.833252 11.2512 0.833252 12.5515 1.6143 13.3594C2.39535 14.1673 3.65243 14.1673 6.16659 14.1673H8.83325C11.3474 14.1673 12.6045 14.1673 13.3855 13.3594C14.1666 12.5515 14.1666 11.2512 14.1666 8.65065V7.63658C14.1666 6.11098 14.1666 5.34817 13.8205 4.71581C13.4743 4.08346 12.842 3.69099 11.5773 2.90606L10.2439 2.07856C8.90699 1.24884 8.23852 0.833984 7.49992 0.833984C6.76132 0.833984 6.09285 1.24884 4.75594 2.07856L3.42261 2.90607C2.15789 3.69099 1.52552 4.08346 1.17939 4.71581ZM6.99992 11.5007C6.99992 11.7768 7.22379 12.0007 7.49992 12.0007C7.77605 12.0007 7.99992 11.7768 7.99992 11.5007V9.50065C7.99992 9.22452 7.77605 9.00065 7.49992 9.00065C7.22379 9.00065 6.99992 9.22452 6.99992 9.50065V11.5007Z" fill="#0D5A50"/>
</g>
</svg>
