<svg width="15" height="15" viewBox="0 0 15 15" fill="none" xmlns="http://www.w3.org/2000/svg">
<g id="SVGRepo_iconCarrier">
<path id="Vector" d="M14.1666 7.50065C14.1666 3.82732 11.1733 0.833984 7.49992 0.833984C3.82659 0.833984 0.833252 3.82732 0.833252 7.50065C0.833252 9.43398 1.66659 11.174 2.98659 12.394C2.98659 12.4007 2.98659 12.4007 2.97992 12.4073C3.04659 12.474 3.12659 12.5273 3.19325 12.5873C3.23325 12.6207 3.26659 12.654 3.30659 12.6807C3.42659 12.7807 3.55992 12.874 3.68659 12.9673C3.73325 13.0007 3.77325 13.0273 3.81992 13.0607C3.94659 13.1473 4.07992 13.2273 4.21992 13.3007C4.26659 13.3273 4.31992 13.3607 4.36659 13.3873C4.49992 13.4607 4.63992 13.5273 4.78659 13.5873C4.83992 13.614 4.89325 13.6407 4.94659 13.6607C5.09325 13.7207 5.23992 13.774 5.38659 13.8207C5.43992 13.8407 5.49325 13.8607 5.54659 13.874C5.70659 13.9207 5.86659 13.9607 6.02659 14.0007C6.07325 14.014 6.11992 14.0273 6.17325 14.034C6.35992 14.074 6.54659 14.1007 6.73992 14.1207C6.76659 14.1207 6.79325 14.1273 6.81992 14.134C7.04659 14.154 7.27325 14.1673 7.49992 14.1673C7.72659 14.1673 7.95325 14.154 8.17325 14.134C8.19992 14.134 8.22659 14.1273 8.25325 14.1207C8.44659 14.1007 8.63325 14.074 8.81992 14.034C8.86658 14.0273 8.91325 14.0073 8.96659 14.0007C9.12659 13.9607 9.29325 13.9273 9.44659 13.874C9.49992 13.854 9.55325 13.834 9.60659 13.8207C9.75325 13.7673 9.90659 13.7207 10.0466 13.6607C10.0999 13.6407 10.1533 13.614 10.2066 13.5873C10.3466 13.5273 10.4866 13.4607 10.6266 13.3873C10.6799 13.3607 10.7266 13.3273 10.7733 13.3007C10.9066 13.2207 11.0399 13.1473 11.1733 13.0607C11.2199 13.034 11.2599 13.0007 11.3066 12.9673C11.4399 12.874 11.5666 12.7807 11.6866 12.6807C11.7266 12.6473 11.7599 12.614 11.7999 12.5873C11.8733 12.5273 11.9466 12.4673 12.0133 12.4073C12.0133 12.4007 12.0133 12.4007 12.0066 12.394C13.3333 11.174 14.1666 9.43398 14.1666 7.50065ZM10.7933 10.814C8.98659 9.60065 6.02659 9.60065 4.20659 10.814C3.91325 11.0073 3.67325 11.234 3.47325 11.4807C2.45992 10.454 1.83325 9.04732 1.83325 7.50065C1.83325 4.37398 4.37325 1.83398 7.49992 1.83398C10.6266 1.83398 13.1666 4.37398 13.1666 7.50065C13.1666 9.04732 12.5399 10.454 11.5266 11.4807C11.3333 11.234 11.0866 11.0073 10.7933 10.814Z" fill="#0D5A50"/>
<path id="Vector_2" d="M7.5 4.12109C6.12 4.12109 5 5.24109 5 6.6211C5 7.97443 6.06 9.07443 7.46667 9.11443C7.48667 9.11443 7.51333 9.11443 7.52667 9.11443C7.54 9.11443 7.56 9.11443 7.57333 9.11443C7.58 9.11443 7.58667 9.11443 7.58667 9.11443C8.93333 9.06777 9.99333 7.97443 10 6.6211C10 5.24109 8.88 4.12109 7.5 4.12109Z" fill="#0D5A50"/>
</g>
</svg>
