<svg width="28" height="28" viewBox="0 0 28 28" fill="none" xmlns="http://www.w3.org/2000/svg">
<g id="_x32_" clip-path="url(#clip0_17_276)">
<g id="SVGRepo_iconCarrier">
<g id="Group">
<path id="Vector" d="M5.06264 16.0913V6.79968H2.36671C1.06362 6.79968 0 7.88671 0 9.2131V20.5028C0 21.8292 1.06362 22.9163 2.36671 22.9163H5.75734V25.4029C5.75734 25.5692 5.85709 25.7188 6.00666 25.782C6.15628 25.8451 6.33243 25.8086 6.44541 25.6922L9.17126 22.9163H14.9951C16.2982 22.9163 17.362 21.8292 17.362 20.5028V20.4994H9.42058C7.01717 20.4994 5.06264 18.5214 5.06264 16.0913Z" fill="#1C7C70"/>
<path id="Vector_2" d="M25.3049 2.1875H9.42051C7.9382 2.1875 6.72534 3.42289 6.72534 4.93265V16.0909C6.72534 17.6008 7.9382 18.8362 9.42051 18.8362H18.4258L22.5464 22.9942C22.6776 23.1278 22.8747 23.1677 23.046 23.0955C23.2173 23.0232 23.329 22.853 23.329 22.6642V18.8362H25.3049C26.7873 18.8362 28.0001 17.6008 28.0001 16.0909V4.93265C28 3.42289 26.7872 2.1875 25.3049 2.1875ZM20.1883 15.3188H10.7144V13.989H20.1883V15.3188ZM24.011 11.1633H10.7144V9.83363H24.011V11.1633ZM24.011 7.00782H10.7144V5.67809H24.011V7.00782Z" fill="#1C7C70"/>
</g>
</g>
</g>
<defs>
<clipPath id="clip0_17_276">
<rect width="28" height="28" fill="white"/>
</clipPath>
</defs>
</svg>
