<svg width="12" height="12" viewBox="0 0 12 12" fill="none" xmlns="http://www.w3.org/2000/svg">
<g id="Social Icons" clip-path="url(#clip0_17_746)">
<path id="Vector" d="M8.1853 0.52832H6.41102V7.69955C6.41102 8.55402 5.72862 9.25589 4.87939 9.25589C4.03017 9.25589 3.34776 8.55402 3.34776 7.69955C3.34776 6.86039 4.015 6.17376 4.83391 6.14325V4.34282C3.0293 4.37332 1.57349 5.85335 1.57349 7.69955C1.57349 9.56105 3.05963 11.0563 4.89456 11.0563C6.72948 11.0563 8.21561 9.54579 8.21561 7.69955V4.02239C8.88287 4.51065 9.70175 4.80055 10.5662 4.81582V3.01537C9.23167 2.9696 8.1853 1.87102 8.1853 0.52832Z" fill="white"/>
</g>
<defs>
<clipPath id="clip0_17_746">
<rect width="10.528" height="10.528" fill="white" transform="translate(0.696045 0.52832)"/>
</clipPath>
</defs>
</svg>
