<svg width="28" height="28" viewBox="0 0 28 28" fill="none" xmlns="http://www.w3.org/2000/svg">
<g id="SVGRepo_iconCarrier">
<path id="Vector" d="M12.8333 16.0102C12.4788 15.8078 12.1841 15.5152 11.9792 15.1622C11.7742 14.8092 11.6662 14.4082 11.6662 14C11.6662 13.5918 11.7742 13.1908 11.9792 12.8378C12.1841 12.4848 12.4788 12.1922 12.8333 11.9898V8.16667C12.8333 7.85725 12.9562 7.5605 13.175 7.34171C13.3938 7.12292 13.6906 7 14 7C14.3094 7 14.6062 7.12292 14.825 7.34171C15.0437 7.5605 15.1667 7.85725 15.1667 8.16667V11.9898C15.5212 12.1922 15.8159 12.4848 16.0208 12.8378C16.2258 13.1908 16.3338 13.5918 16.3338 14C16.3338 14.4082 16.2258 14.8092 16.0208 15.1622C15.8159 15.5152 15.5212 15.8078 15.1667 16.0102V18.6667C15.1667 18.9761 15.0437 19.2728 14.825 19.4916C14.6062 19.7104 14.3094 19.8333 14 19.8333C13.6906 19.8333 13.3938 19.7104 13.175 19.4916C12.9562 19.2728 12.8333 18.9761 12.8333 18.6667V16.0102ZM14 0C13.6906 0 13.3938 0.122916 13.175 0.341709C12.9562 0.560501 12.8333 0.857247 12.8333 1.16667C12.8333 1.47609 12.9562 1.77283 13.175 1.99162C13.3938 2.21042 13.6906 2.33333 14 2.33333C17.0942 2.33333 20.0617 3.5625 22.2496 5.75042C24.4375 7.93834 25.6667 10.9058 25.6667 14C25.6667 17.0942 24.4375 20.0617 22.2496 22.2496C20.0617 24.4375 17.0942 25.6667 14 25.6667C13.6906 25.6667 13.3938 25.7896 13.175 26.0084C12.9562 26.2272 12.8333 26.5239 12.8333 26.8333C12.8333 27.1428 12.9562 27.4395 13.175 27.6583C13.3938 27.8771 13.6906 28 14 28C17.713 28 21.274 26.525 23.8995 23.8995C26.525 21.274 28 17.713 28 14C28 10.287 26.525 6.72601 23.8995 4.1005C21.274 1.475 17.713 0 14 0ZM2.1315 7.91467C1.90076 7.91467 1.67519 7.98309 1.48334 8.11129C1.29148 8.23948 1.14194 8.42169 1.05364 8.63487C0.965339 8.84805 0.942235 9.08263 0.987251 9.30894C1.03227 9.53525 1.14338 9.74313 1.30654 9.90629C1.4697 10.0695 1.67758 10.1806 1.9039 10.2256C2.13021 10.2706 2.36478 10.2475 2.57796 10.1592C2.79114 10.0709 2.97335 9.92136 3.10155 9.7295C3.22974 9.53764 3.29817 9.31208 3.29817 9.08133C3.29817 8.77191 3.17525 8.47517 2.95646 8.25638C2.73767 8.03758 2.44092 7.91467 2.1315 7.91467ZM2.33333 14C2.33333 13.7693 2.26491 13.5437 2.13672 13.3518C2.00852 13.16 1.82631 13.0104 1.61313 12.9221C1.39995 12.8338 1.16537 12.8107 0.939062 12.8558C0.712751 12.9008 0.504871 13.0119 0.341709 13.175C0.178548 13.3382 0.0674338 13.5461 0.0224177 13.7724C-0.0225984 13.9987 0.000505495 14.2333 0.0888077 14.4465C0.17711 14.6596 0.326645 14.8419 0.518502 14.97C0.710359 15.0982 0.935922 15.1667 1.16667 15.1667C1.47609 15.1667 1.77283 15.0437 1.99163 14.825C2.21042 14.6062 2.33333 14.3094 2.33333 14ZM4.9245 3.7415C4.69376 3.7415 4.46819 3.80992 4.27634 3.93812C4.08448 4.06631 3.93494 4.24852 3.84664 4.4617C3.75834 4.67488 3.73523 4.90946 3.78025 5.13577C3.82527 5.36208 3.93638 5.56996 4.09954 5.73312C4.2627 5.89629 4.47058 6.0074 4.6969 6.05242C4.92321 6.09743 5.15778 6.07433 5.37096 5.98603C5.58415 5.89772 5.76635 5.74819 5.89455 5.55633C6.02274 5.36447 6.09117 5.13891 6.09117 4.90817C6.09117 4.59875 5.96825 4.302 5.74946 4.08321C5.53067 3.86442 5.23392 3.7415 4.9245 3.7415ZM9.0755 0.981167C8.84476 0.981167 8.61919 1.04959 8.42733 1.17779C8.23548 1.30598 8.08594 1.48819 7.99764 1.70137C7.90934 1.91455 7.88623 2.14913 7.93125 2.37544C7.97627 2.60175 8.08738 2.80963 8.25054 2.97279C8.4137 3.13595 8.62158 3.24707 8.84789 3.29208C9.07421 3.3371 9.30878 3.31399 9.52196 3.22569C9.73514 3.13739 9.91735 2.98786 10.0455 2.796C10.1737 2.60414 10.2422 2.37858 10.2422 2.14783C10.2422 1.83841 10.1193 1.54167 9.90046 1.32288C9.68167 1.10408 9.38492 0.981167 9.0755 0.981167ZM2.1315 17.752C1.90076 17.752 1.67519 17.8204 1.48334 17.9486C1.29148 18.0768 1.14194 18.259 1.05364 18.4722C0.965339 18.6854 0.942235 18.92 0.987251 19.1463C1.03227 19.3726 1.14338 19.5805 1.30654 19.7436C1.4697 19.9068 1.67758 20.0179 1.9039 20.0629C2.13021 20.1079 2.36478 20.0848 2.57796 19.9965C2.79114 19.9082 2.97335 19.7587 3.10155 19.5668C3.22974 19.375 3.29817 19.1494 3.29817 18.9187C3.29817 18.6092 3.17525 18.3125 2.95646 18.0937C2.73767 17.8749 2.44092 17.752 2.1315 17.752ZM4.9245 21.9252C4.69376 21.9252 4.46819 21.9936 4.27634 22.1218C4.08448 22.25 3.93494 22.4322 3.84664 22.6454C3.75834 22.8585 3.73523 23.0931 3.78025 23.3194C3.82527 23.5457 3.93638 23.7536 4.09954 23.9168C4.2627 24.08 4.47058 24.1911 4.6969 24.2361C4.92321 24.2811 5.15778 24.258 5.37096 24.1697C5.58415 24.0814 5.76635 23.9319 5.89455 23.74C6.02274 23.5481 6.09117 23.3226 6.09117 23.0918C6.09117 22.7824 5.96825 22.4857 5.74946 22.2669C5.53067 22.0481 5.23392 21.9252 4.9245 21.9252ZM9.0755 24.6855C8.84476 24.6855 8.61919 24.7539 8.42733 24.8821C8.23548 25.0103 8.08594 25.1925 7.99764 25.4057C7.90934 25.6189 7.88623 25.8535 7.93125 26.0798C7.97627 26.3061 8.08738 26.514 8.25054 26.6771C8.4137 26.8403 8.62158 26.9514 8.84789 26.9964C9.07421 27.0414 9.30878 27.0183 9.52196 26.93C9.73514 26.8417 9.91735 26.6922 10.0455 26.5003C10.1737 26.3085 10.2422 26.0829 10.2422 25.8522C10.2422 25.5427 10.1193 25.246 9.90046 25.0272C9.68167 24.8084 9.38492 24.6855 9.0755 24.6855Z" fill="#1C7C70"/>
</g>
</svg>
