<svg width="32" height="32" viewBox="0 0 32 32" fill="none" xmlns="http://www.w3.org/2000/svg">
<g id="Frame">
<g id="SVGRepo_iconCarrier">
<path id="Vector" d="M28.7479 14.3168L26.9346 12.2102C26.5879 11.8102 26.3079 11.0635 26.3079 10.5302V8.26349C26.3079 6.85016 25.1479 5.69016 23.7346 5.69016H21.4679C20.9479 5.69016 20.1879 5.41016 19.7879 5.06349L17.6813 3.25016C16.7613 2.46349 15.2546 2.46349 14.3213 3.25016L12.2279 5.07682C11.8279 5.41016 11.0679 5.69016 10.5479 5.69016H8.24123C6.82789 5.69016 5.66789 6.85016 5.66789 8.26349V10.5435C5.66789 11.0635 5.38789 11.8102 5.05456 12.2102L3.25456 14.3302C2.48123 15.2502 2.48123 16.7435 3.25456 17.6635L5.05456 19.7835C5.38789 20.1835 5.66789 20.9302 5.66789 21.4502V23.7302C5.66789 25.1435 6.82789 26.3035 8.24123 26.3035H10.5479C11.0679 26.3035 11.8279 26.5835 12.2279 26.9302L14.3346 28.7435C15.2546 29.5302 16.7613 29.5302 17.6946 28.7435L19.8013 26.9302C20.2013 26.5835 20.9479 26.3035 21.4813 26.3035H23.7479C25.1613 26.3035 26.3213 25.1435 26.3213 23.7302V21.4635C26.3213 20.9435 26.6013 20.1835 26.9479 19.7835L28.7613 17.6768C29.5346 16.7568 29.5346 15.2368 28.7479 14.3168ZM22.2413 15.9968L20.6813 20.7435C20.4813 21.5302 19.6413 22.1702 18.7879 22.1702H16.3213C15.8946 22.1702 15.2946 22.0235 15.0279 21.7568L13.0679 20.2235C13.0279 21.0768 12.6412 21.4368 11.6946 21.4368H11.0546C10.0679 21.4368 9.66789 21.0502 9.66789 20.1168V13.7435C9.66789 12.8102 10.0679 12.4235 11.0546 12.4235H11.7079C12.6946 12.4235 13.0946 12.8102 13.0946 13.7435V14.2235L15.6813 10.3835C15.9479 9.97016 16.6279 9.67682 17.2013 9.90349C17.8279 10.1168 18.2279 10.8102 18.0946 11.4235L17.7746 13.5035C17.7479 13.6902 17.7879 13.8635 17.9079 13.9968C18.0146 14.1168 18.1746 14.1968 18.3479 14.1968H20.9479C21.4546 14.1968 21.8813 14.3968 22.1346 14.7568C22.3613 15.1035 22.4013 15.5435 22.2413 15.9968Z" fill="#1C7C70"/>
</g>
</g>
</svg>
