<svg width="32" height="32" viewBox="0 0 32 32" fill="none" xmlns="http://www.w3.org/2000/svg">
<g id="Frame">
<g id="SVGRepo_iconCarrier">
<path id="Vector" fill-rule="evenodd" clip-rule="evenodd" d="M12.7898 4.26833C12.4651 4.54504 12.3028 4.68341 12.1294 4.79963C11.7319 5.06603 11.2855 5.25092 10.8161 5.3436C10.6113 5.38404 10.3987 5.401 9.9734 5.43493C8.9049 5.52021 8.37063 5.56284 7.92491 5.72028C6.89398 6.08441 6.08307 6.89532 5.71894 7.92625C5.5615 8.37197 5.51887 8.90624 5.43359 9.97475C5.39966 10.4 5.3827 10.6127 5.34226 10.8174C5.24958 11.2869 5.06468 11.7333 4.79828 12.1307C4.68207 12.3041 4.54371 12.4665 4.26699 12.7912C3.57174 13.607 3.2241 14.0149 3.02026 14.4414C2.54875 15.428 2.54875 16.5746 3.02026 17.5612C3.22411 17.9877 3.57174 18.3956 4.26699 19.2114C4.54367 19.5361 4.68207 19.6985 4.79828 19.8718C5.06468 20.2693 5.24958 20.7157 5.34226 21.1852C5.3827 21.39 5.39966 21.6026 5.43359 22.0278C5.51887 23.0964 5.5615 23.6306 5.71894 24.0764C6.08307 25.1073 6.89398 25.9182 7.92491 26.2824C8.37063 26.4397 8.9049 26.4824 9.9734 26.5677C10.3987 26.6016 10.6113 26.6186 10.8161 26.659C11.2855 26.7517 11.7319 26.9366 12.1294 27.203C12.3028 27.3192 12.4651 27.4576 12.7898 27.7342C13.6057 28.4296 14.0136 28.7772 14.4401 28.981C15.4266 29.4525 16.5733 29.4525 17.5598 28.981C17.9864 28.7772 18.3942 28.4296 19.2101 27.7342C19.5348 27.4576 19.6972 27.3192 19.8705 27.203C20.268 26.9366 20.7144 26.7517 21.1838 26.659C21.3886 26.6186 21.6013 26.6016 22.0265 26.5677C23.095 26.4824 23.6293 26.4397 24.075 26.2824C25.106 25.9182 25.9169 25.1073 26.281 24.0764C26.4384 23.6306 26.481 23.0964 26.5664 22.0278C26.6002 21.6026 26.6173 21.39 26.6577 21.1852C26.7504 20.7157 26.9353 20.2693 27.2017 19.8718C27.3178 19.6985 27.4562 19.5361 27.7329 19.2114C28.4282 18.3956 28.7758 17.9877 28.9797 17.5612C29.4512 16.5746 29.4512 15.428 28.9797 14.4414C28.7758 14.0149 28.4282 13.607 27.7329 12.7912C27.4562 12.4665 27.3178 12.3041 27.2017 12.1307C26.9353 11.7333 26.7504 11.2869 26.6577 10.8174C26.6173 10.6127 26.6002 10.4 26.5664 9.97475C26.481 8.90624 26.4384 8.37197 26.281 7.92625C25.9169 6.89532 25.106 6.08441 24.075 5.72028C23.6293 5.56284 23.095 5.52021 22.0265 5.43493C21.6013 5.401 21.3886 5.38404 21.1838 5.3436C20.7144 5.25092 20.268 5.06603 19.8705 4.79963C19.6972 4.68341 19.5348 4.54505 19.2101 4.26833C18.3942 3.57308 17.9864 3.22545 17.5598 3.0216C16.5733 2.55009 15.4266 2.55009 14.4401 3.0216C14.0136 3.22544 13.6057 3.57308 12.7898 4.26833ZM21.8313 13.1522C22.255 12.7284 22.255 12.0413 21.8313 11.6175C21.4076 11.1937 20.7204 11.1937 20.2966 11.6175L13.8297 18.0845L11.7032 15.9581C11.2795 15.5344 10.5924 15.5344 10.1686 15.9581C9.74484 16.3818 9.74484 17.0689 10.1686 17.4928L13.0623 20.3865C13.4861 20.8102 14.1732 20.8102 14.597 20.3865L21.8313 13.1522Z" fill="#1C7C70"/>
</g>
</g>
</svg>
