<svg width="28" height="28" viewBox="0 0 28 28" fill="none" xmlns="http://www.w3.org/2000/svg">
<g clip-path="url(#clip0_17_270)">
<path d="M25.8599 23.3219L22.544 17.6229C23.0576 17.456 23.5727 17.2319 23.8435 16.7644C24.1735 16.1947 24.0098 15.4907 23.8654 14.8694C23.7697 14.4577 23.6707 14.032 23.742 13.7497C23.8188 13.4457 24.115 13.1055 24.4014 12.7764C24.8263 12.2883 25.2656 11.7836 25.2656 11.158C25.2656 10.553 24.8161 9.9785 24.3814 9.4229C24.084 9.04296 23.7767 8.65007 23.698 8.34088C23.6262 8.05844 23.7244 7.63248 23.8193 7.22056C23.9626 6.59914 24.125 5.89479 23.7939 5.32578C23.4629 4.75677 22.7703 4.54991 22.1593 4.36731C21.7543 4.24626 21.3355 4.12114 21.1255 3.91912C20.9025 3.70439 20.7565 3.2796 20.6154 2.86869C20.4021 2.24766 20.1815 1.60556 19.6208 1.30572C19.415 1.19574 19.1821 1.14224 18.9086 1.14224C18.5352 1.14224 18.1448 1.24371 17.7672 1.34184C17.4214 1.43169 17.0949 1.51664 16.8205 1.51664C16.7422 1.51664 16.6741 1.50977 16.6124 1.49558C16.3157 1.42717 15.9747 1.13646 15.6449 0.855429C15.1516 0.43493 14.6413 0 14.0108 0C13.2356 0 12.2915 0.756213 11.6668 1.25666C11.5375 1.36017 11.3797 1.48653 11.3109 1.53146C11.2582 1.5409 11.1995 1.54565 11.136 1.54565C10.8621 1.54573 10.5363 1.46165 10.1915 1.37265C9.81504 1.27546 9.42582 1.17507 9.0536 1.17507C8.77841 1.17507 8.54418 1.22897 8.33771 1.33989C7.77751 1.64081 7.5581 2.28338 7.34594 2.90481C7.20562 3.31595 7.06046 3.74105 6.83785 3.9561C6.62818 4.15859 6.20963 4.28448 5.80481 4.40624C5.19407 4.58993 4.50189 4.79811 4.1718 5.36775C3.84185 5.93738 4.00558 6.64133 4.14996 7.26245C4.24574 7.67414 4.34472 8.09994 4.27343 8.38261C4.2019 8.66575 3.91299 9.0141 3.63359 9.35091C3.201 9.87242 2.71069 10.4634 2.71069 11.1539C2.71069 11.7801 3.15155 12.2844 3.57798 12.7721C3.86502 13.1004 4.16173 13.4398 4.23903 13.7434C4.31087 14.0258 4.21267 14.4517 4.11774 14.8636C3.97446 15.485 3.81206 16.1893 4.14317 16.7586C4.42342 17.2402 4.95071 17.4587 5.46754 17.6226L2.13903 23.3673C1.95144 23.6909 1.93007 24.0338 2.0803 24.3076C2.23052 24.5816 2.53106 24.7477 2.90499 24.7635L5.30904 24.8637C5.66932 24.8788 6.17266 25.1705 6.36493 25.4754L7.6478 27.5111C7.84366 27.8218 8.13179 28.0001 8.43841 28.0001C8.75673 28.0001 9.04884 27.811 9.23986 27.4813C9.27106 27.4275 11.9944 22.7257 12.6765 21.5487C13.018 21.7973 13.5485 22.1075 14.0696 22.1075C14.5499 22.1075 14.9626 21.8593 15.3416 21.5603C15.6473 22.0869 16.4799 23.5331 18.7666 27.4635C18.9578 27.7923 19.2497 27.9958 19.5675 27.9958C19.8746 27.9958 20.1629 27.8022 20.3586 27.4905L21.6378 25.4451C21.8297 25.1396 22.3324 24.8433 22.6926 24.8276L25.0965 24.721C25.4702 24.7046 25.7705 24.5371 25.9203 24.263C26.0701 23.9888 26.0481 23.6452 25.8599 23.3219ZM17.1744 13.9127L17.4648 15.6061C17.5038 15.8334 17.4704 15.97 17.43 16.0179C17.4223 16.027 17.4045 16.0482 17.3358 16.0482C17.2847 16.0482 17.1733 16.0345 17.0003 15.9436L15.4794 15.1441C15.0857 14.9371 14.5689 14.8231 14.0243 14.8231C13.4797 14.8231 12.963 14.9371 12.5693 15.1441L11.0484 15.9436C10.8755 16.0345 10.7639 16.0482 10.7129 16.0482C10.6443 16.0482 10.6264 16.027 10.6188 16.018C10.5784 15.9701 10.545 15.8334 10.584 15.6062L10.8744 13.9126C11.0302 13.0041 10.6352 11.7884 9.97517 11.1451L8.74472 9.94566C8.56025 9.76579 8.51766 9.62562 8.53404 9.57531C8.55034 9.525 8.66719 9.43671 8.92217 9.39966L10.6227 9.15255C11.5349 9.02003 12.569 8.26865 12.9769 7.44208L13.7374 5.90119C13.8513 5.67023 13.9714 5.58638 14.0244 5.58638C14.0773 5.58638 14.1974 5.67023 14.3114 5.90119L15.0719 7.44208C15.4799 8.26865 16.514 9.01995 17.4262 9.15255L19.1266 9.39966C19.3815 9.43671 19.4985 9.52508 19.5148 9.57531C19.5311 9.62562 19.4885 9.76579 19.304 9.94566L18.0736 11.145C17.4135 11.7884 17.0185 13.0041 17.1744 13.9127Z" fill="#008A69"/>
</g>
<defs>
<clipPath id="clip0_17_270">
<rect width="28" height="28" fill="white"/>
</clipPath>
</defs>
</svg>
