<svg width="20" height="20" viewBox="0 0 20 20" fill="none" xmlns="http://www.w3.org/2000/svg">
<path d="M10.1334 9.05834C10.0501 9.05001 9.95008 9.05001 9.85842 9.05834C7.87505 8.99167 6.30005 7.36667 6.30005 5.36667C6.30005 3.32501 7.95005 1.66667 10.0001 1.66667C12.0417 1.66667 13.7001 3.32501 13.7001 5.36667C13.6917 7.36667 12.1167 8.99167 10.1334 9.05834Z" stroke="#1C7C70" stroke-width="2" stroke-linecap="round" stroke-linejoin="round"/>
<path d="M5.9666 12.1333C3.94993 13.4833 3.94993 15.6833 5.9666 17.025C8.25827 18.5583 12.0166 18.5583 14.3083 17.025C16.325 15.675 16.325 13.475 14.3083 12.1333C12.025 10.6083 8.2666 10.6083 5.9666 12.1333Z" stroke="#1C7C70" stroke-width="2" stroke-linecap="round" stroke-linejoin="round"/>
</svg>
