<svg width="35" height="35" viewBox="0 0 35 35" fill="none" xmlns="http://www.w3.org/2000/svg">
<rect width="35" height="35" rx="6" fill="#1C7C70"/>
<path d="M20.125 15.25L20.2537 15.3787C21.2537 16.3787 21.7537 16.8787 21.7537 17.5C21.7537 18.1213 21.2537 18.6213 20.2537 19.6213L20.125 19.75" stroke="white" stroke-width="1.5" stroke-linecap="round"/>
<path d="M18.4704 13.8779L17.4999 17.5001L16.5293 21.1224" stroke="white" stroke-width="1.5" stroke-linecap="round"/>
<path d="M14.8748 15.25L14.7461 15.3787C13.7461 16.3787 13.2461 16.8787 13.2461 17.5C13.2461 18.1213 13.7461 18.6213 14.7461 19.6213L14.8748 19.75" stroke="white" stroke-width="1.5" stroke-linecap="round"/>
<path d="M13.75 11.0034C14.8532 10.3652 16.134 10 17.5 10C21.6421 10 25 13.3579 25 17.5C25 21.6421 21.6421 25 17.5 25C13.3579 25 10 21.6421 10 17.5C10 16.134 10.3652 14.8532 11.0034 13.75" stroke="white" stroke-width="1.5" stroke-linecap="round"/>
</svg>
