<svg width="19" height="18" viewBox="0 0 19 18" fill="none" xmlns="http://www.w3.org/2000/svg">
<path d="M15.3964 3.23515L10.1051 1.61561C9.71015 1.46137 9.2363 1.46137 8.76245 1.61561L3.55006 3.23515C2.44439 3.54363 1.81258 4.54621 2.04952 5.62589L2.91825 10.2532C3.31313 12.4125 4.4188 14.1091 6.07729 15.1117C7.57783 16.0372 8.68348 16.4999 9.5522 16.4999C10.421 16.4999 11.5266 16.0372 13.0272 15.1117C14.6856 14.1091 15.7914 12.4125 16.1863 10.2532L16.976 5.62589C17.134 4.54621 16.5022 3.54363 15.3964 3.23515ZM12.2374 7.7853L9.07835 10.8701C8.9204 10.9472 8.84142 11.0243 8.68347 11.0243C8.52552 11.0243 8.36758 10.9472 8.2886 10.8701L6.7091 9.32767C6.47217 9.0963 6.47217 8.71072 6.7091 8.47935C6.94602 8.24797 7.34091 8.24797 7.57783 8.47935L8.76245 9.63615L11.5266 6.93695C11.7636 6.70558 12.1585 6.70558 12.3954 6.93695C12.4743 7.24543 12.4743 7.55392 12.2374 7.7853Z" fill="#004838"/>
</svg>
