<svg width="20" height="20" viewBox="0 0 20 20" fill="none" xmlns="http://www.w3.org/2000/svg">
<g id="_x32_" clip-path="url(#clip0_17_528)">
<g id="SVGRepo_iconCarrier">
<g id="Group">
<path id="Vector" d="M13.1706 11.3116C12.9702 11.1111 12.6449 11.1111 12.4441 11.3116L11.8179 11.9381C11.6351 12.1209 11.3444 12.1392 11.1401 11.9811C11.1401 11.9811 10.5412 11.5862 9.56187 10.6069C8.58258 9.62763 8.18785 9.02825 8.18785 9.02825C8.02945 8.82411 8.04808 8.53388 8.2309 8.35079L8.85711 7.72458C9.05793 7.52403 9.05793 7.19872 8.85711 6.99825L7.47664 5.61767C7.27613 5.41716 6.95113 5.41716 6.75031 5.61767C6.74554 5.62255 6.67586 5.69212 5.91793 6.45048C5.03504 7.33306 6.20281 10.0372 8.16691 12.002C10.1313 13.9661 12.8359 15.1334 13.7185 14.2511C14.4761 13.4931 14.546 13.4229 14.5507 13.4183C14.7516 13.2178 14.7516 12.8925 14.5507 12.6923L13.1706 11.3116Z" fill="#4C4C4C"/>
<path id="Vector_2" d="M10 0C4.47711 0 0 4.47723 0 10C0 15.5228 4.47711 20 10 20C15.5229 20 20 15.5228 20 10C20 4.47723 15.5229 0 10 0ZM10 18.4375C5.34758 18.4375 1.5625 14.6524 1.5625 10C1.5625 5.34758 5.34758 1.5625 10 1.5625C14.6524 1.5625 18.4375 5.34758 18.4375 10C18.4375 14.6524 14.6524 18.4375 10 18.4375Z" fill="#4C4C4C"/>
</g>
</g>
</g>
<defs>
<clipPath id="clip0_17_528">
<rect width="20" height="20" fill="white"/>
</clipPath>
</defs>
</svg>
