<svg width="20" height="21" viewBox="0 0 20 21" fill="none" xmlns="http://www.w3.org/2000/svg">
<g id="SVGRepo_iconCarrier">
<path id="Vector" d="M16.3569 0.364234C16.57 0.00905412 17.0307 -0.106116 17.3859 0.106994L17 0.750114C17.3859 0.106994 17.3855 0.106784 17.3859 0.106994L17.3873 0.107824L17.3888 0.108774L17.3925 0.111034L17.4021 0.116944C17.4095 0.121524 17.4187 0.127364 17.4297 0.134484C17.4517 0.148714 17.4808 0.168084 17.516 0.192714C17.5863 0.241934 17.6813 0.312444 17.7926 0.405194C18.0147 0.590284 18.3052 0.866774 18.5945 1.24282C19.1773 2.00056 19.75 3.15745 19.75 4.75011C19.75 6.34276 19.1773 7.49965 18.5945 8.25739C18.3052 8.63344 18.0147 8.9099 17.7926 9.095C17.6813 9.1878 17.5863 9.2583 17.516 9.3075C17.4808 9.3321 17.4517 9.3515 17.4297 9.3657C17.4242 9.3693 17.4192 9.3725 17.4146 9.3754C17.41 9.3784 17.4058 9.381 17.4021 9.3833L17.3925 9.3892L17.3888 9.3914L17.3873 9.3924C17.3869 9.3926 17.3859 9.3932 17 8.7501L17.3859 9.3932C17.0307 9.6063 16.57 9.4912 16.3569 9.136C16.1447 8.7823 16.258 8.32398 16.6097 8.10969L16.6152 8.10616C16.6225 8.10144 16.6363 8.0923 16.6558 8.07865C16.6949 8.05131 16.7562 8.00619 16.8324 7.94269C16.9853 7.81528 17.1948 7.61677 17.4055 7.34282C17.8227 6.80056 18.25 5.95745 18.25 4.75011C18.25 3.54276 17.8227 2.69965 17.4055 2.15739C17.1948 1.88344 16.9853 1.68493 16.8324 1.55752C16.7562 1.49403 16.6949 1.4489 16.6558 1.42156C16.6363 1.40791 16.6225 1.39877 16.6152 1.39406L16.6097 1.39053C16.258 1.17624 16.1447 0.717934 16.3569 0.364234Z" fill="#1C7C70"/>
<path id="Vector_2" d="M8 8.74999C10.2091 8.74999 12 6.95914 12 4.75C12 2.54086 10.2091 0.75 8 0.75C5.79086 0.75 4 2.54086 4 4.75C4 6.95914 5.79086 8.74999 8 8.74999Z" fill="#1C7C70"/>
<path id="Vector_3" d="M0 16.25C0 18.7353 0 20.75 8 20.75C16 20.75 16 18.7353 16 16.25C16 13.7647 12.4183 11.75 8 11.75C3.58172 11.75 0 13.7647 0 16.25Z" fill="#1C7C70"/>
<path id="Vector_4" d="M15.3859 2.10699C15.0307 1.89388 14.57 2.00905 14.3569 2.36423L14.6051 3.38773L14.6129 3.39305C14.6246 3.40125 14.6468 3.41746 14.6761 3.4419C14.7353 3.49118 14.8198 3.57094 14.9055 3.68239C15.0727 3.89965 15.25 4.24276 15.25 4.75011C15.25 5.25745 15.0727 5.60056 14.9055 5.81782C14.8198 5.92927 14.7353 6.00903 14.6761 6.05832C14.6468 6.08275 14.6246 6.09897 14.6129 6.10717L14.6051 6.11248C14.257 6.32794 14.1456 6.78382 14.3569 7.13598C14.57 7.49116 15.0307 7.60634 15.3859 7.39323L15 6.75011C15.3859 7.39323 15.3855 7.39343 15.3859 7.39323L15.3872 7.39242L15.3887 7.39155L15.3918 7.38963L15.3993 7.38503L15.4185 7.37282C15.4332 7.36332 15.4515 7.35108 15.4731 7.33601C15.516 7.30594 15.572 7.26434 15.6364 7.21065C15.7647 7.10368 15.9302 6.94594 16.0945 6.73239C16.4273 6.29965 16.75 5.64276 16.75 4.75011C16.75 3.85745 16.4273 3.20056 16.0945 2.76782C15.9302 2.55427 15.7647 2.39653 15.6364 2.28957C15.572 2.23587 15.516 2.19428 15.4731 2.1642C15.4515 2.14914 15.4332 2.13689 15.4185 2.1274L15.3993 2.11518L15.3918 2.11059L15.3887 2.10866L15.3872 2.10779C15.3869 2.10759 15.3859 2.10699 15 2.75011L15.3859 2.10699Z" fill="#1C7C70"/>
</g>
</svg>
